<svg width="62" height="88" viewBox="0 0 62 88" fill="none" xmlns="http://www.w3.org/2000/svg">
<g clip-path="url(#clip0_515_104)">
<path d="M30.7642 37.5641C35.0743 37.5641 38.5683 34.0811 38.5683 29.7845C38.5683 25.4879 35.0743 22.0049 30.7642 22.0049C26.454 22.0049 22.96 25.4879 22.96 29.7845C22.96 34.0811 26.454 37.5641 30.7642 37.5641Z" stroke="white" stroke-width="2" stroke-linecap="round" stroke-linejoin="round"/>
<path d="M28.012 38.3345L10.2734 86.1209" stroke="white" stroke-width="2" stroke-linecap="round" stroke-linejoin="round"/>
<path d="M33.498 38.3345L51.2554 86.1209" stroke="white" stroke-width="2" stroke-linecap="round" stroke-linejoin="round"/>
<path d="M24.1104 48.4819H37.3059" stroke="white" stroke-width="2" stroke-linecap="round" stroke-linejoin="round"/>
<path d="M20.3398 61.6357H41.0756" stroke="white" stroke-width="2" stroke-linecap="round" stroke-linejoin="round"/>
<path d="M14.6846 74.7896H46.7308" stroke="white" stroke-width="2" stroke-linecap="round" stroke-linejoin="round"/>
<path d="M16.0416 43.4643C13.7159 40.6382 12.2431 37.2118 11.7947 33.5838C11.3463 29.9558 11.9408 26.2755 13.5089 22.9712C15.077 19.6669 17.5543 16.8745 20.6525 14.919C23.7506 12.9635 27.3421 11.9253 31.0091 11.9253C34.6761 11.9253 38.2676 12.9635 41.3658 14.919C44.4639 16.8745 46.9412 19.6669 48.5093 22.9712C50.0774 26.2755 50.6719 29.9558 50.2235 33.5838C49.7751 37.2118 48.3024 40.6382 45.9766 43.4643" stroke="white" stroke-width="2" stroke-linecap="round" stroke-linejoin="round"/>
<path d="M10.8581 51.8454C6.68719 47.8539 3.80333 42.7144 2.57432 37.0825C1.34532 31.4505 1.82686 25.5813 3.95755 20.2233C6.08824 14.8652 9.77151 10.2612 14.5377 6.99833C19.3038 3.73544 24.9368 1.96155 30.7184 1.90287C36.5 1.8442 42.1681 3.5034 46.9999 6.66889C51.8317 9.83438 55.6082 14.3627 57.8479 19.6764C60.0875 24.9901 60.6889 30.8483 59.5751 36.504C58.4614 42.1597 55.6831 47.3567 51.5945 51.432" stroke="white" stroke-width="2" stroke-linecap="round" stroke-linejoin="round"/>
</g>
<defs>
<clipPath id="clip0_515_104">
<rect width="62" height="88" fill="white"/>
</clipPath>
</defs>
</svg>
