<svg width="72" height="72" viewBox="0 0 72 72" fill="none" xmlns="http://www.w3.org/2000/svg">
<path d="M68.9623 37.1248V23.6248C68.9623 23.2873 68.8498 22.9498 68.5123 22.6123L54.8998 8.9999C53.9998 8.0999 52.7623 7.6499 51.5248 7.6499H20.4748C19.2373 7.6499 17.9998 8.2124 17.0998 8.9999L3.4873 22.6123C3.2623 22.8373 3.1498 23.2873 3.0373 23.6248V37.1248C3.0373 39.3748 4.6123 41.2873 6.7498 41.7373L3.3748 45.1123C3.1498 45.3373 3.0373 45.7873 2.9248 46.1248V59.6248C2.9248 62.2123 5.0623 64.4623 7.7623 64.4623H64.0123C66.5998 64.4623 68.8498 62.3248 68.8498 59.6248V46.1248C68.8498 45.7873 68.7373 45.4498 68.3998 45.1123L65.0248 41.7373C67.2748 41.2873 68.9623 39.3748 68.9623 37.1248ZM19.1248 11.0249C19.4623 10.6874 20.0248 10.4624 20.4748 10.4624H51.4123C51.9748 10.4624 52.4248 10.6874 52.7623 11.0249L64.0123 22.2748H7.8748L19.1248 11.0249ZM61.3123 41.9623L64.1248 44.7748H7.8748L10.6873 41.9623H61.3123ZM66.1498 59.6248C66.1498 60.7498 65.2498 61.6498 64.1248 61.6498H7.8748C6.7498 61.6498 5.8498 60.7498 5.8498 59.6248V47.5873H66.0373V59.6248H66.1498ZM66.1498 37.1248C66.1498 38.2498 65.2498 39.1498 64.1248 39.1498H7.8748C6.7498 39.1498 5.8498 38.2498 5.8498 37.1248V25.0873H66.0373V37.1248H66.1498Z" fill="white"/>
<path d="M13.4996 55.4625H16.8746C17.6621 55.4625 18.3371 54.7876 18.3371 54.0001C18.3371 53.2126 17.6621 52.5376 16.8746 52.5376H13.4996C12.7121 52.5376 12.0371 53.2126 12.0371 54.0001C12.0371 54.7876 12.7121 55.4625 13.4996 55.4625Z" fill="white"/>
<path d="M22.4996 55.4625H33.0746C33.8621 55.4625 34.5371 54.7876 34.5371 54.0001C34.5371 53.2126 33.8621 52.5376 33.0746 52.5376H22.4996C21.7121 52.5376 21.0371 53.2126 21.0371 54.0001C21.0371 54.7876 21.7121 55.4625 22.4996 55.4625Z" fill="white"/>
<path d="M13.4996 32.9625H16.8746C17.6621 32.9625 18.3371 32.2876 18.3371 31.5001C18.3371 30.7126 17.6621 30.0376 16.8746 30.0376H13.4996C12.7121 30.0376 12.0371 30.7126 12.0371 31.5001C12.0371 32.2876 12.7121 32.9625 13.4996 32.9625Z" fill="white"/>
<path d="M22.4996 32.9625H33.0746C33.8621 32.9625 34.5371 32.2876 34.5371 31.5001C34.5371 30.7126 33.8621 30.0376 33.0746 30.0376H22.4996C21.7121 30.0376 21.0371 30.7126 21.0371 31.5001C21.0371 32.2876 21.7121 32.9625 22.4996 32.9625Z" fill="white"/>
</svg>
