<svg width="43" height="43" viewBox="0 0 43 43" fill="none" xmlns="http://www.w3.org/2000/svg">
<path d="M21.5 23.2916C24.4685 23.2916 26.875 20.8852 26.875 17.9166C26.875 14.9481 24.4685 12.5416 21.5 12.5416C18.5315 12.5416 16.125 14.9481 16.125 17.9166C16.125 20.8852 18.5315 23.2916 21.5 23.2916Z" stroke="white" stroke-width="2" stroke-linecap="round" stroke-linejoin="round"/>
<path d="M21.5 3.58331C17.6986 3.58331 14.0528 5.09343 11.3648 7.78145C8.67677 10.4695 7.16666 14.1152 7.16666 17.9166C7.16666 21.3065 7.88691 23.5246 9.85416 25.9791L21.5 39.4166L33.1458 25.9791C35.1131 23.5246 35.8333 21.3065 35.8333 17.9166C35.8333 14.1152 34.3232 10.4695 31.6352 7.78145C28.9472 5.09343 25.3014 3.58331 21.5 3.58331V3.58331Z" stroke="white" stroke-width="2" stroke-linecap="round" stroke-linejoin="round"/>
</svg>
