<svg width="43" height="43" viewBox="0 0 43 43" fill="none" xmlns="http://www.w3.org/2000/svg">
<path d="M21.5 23.2915C24.4685 23.2915 26.875 20.885 26.875 17.9165C26.875 14.948 24.4685 12.5415 21.5 12.5415C18.5315 12.5415 16.125 14.948 16.125 17.9165C16.125 20.885 18.5315 23.2915 21.5 23.2915Z" stroke="white" stroke-opacity="0.38" stroke-width="2" stroke-linecap="round" stroke-linejoin="round"/>
<path d="M21.5 3.58325C17.6986 3.58325 14.0528 5.09337 11.3648 7.78139C8.67679 10.4694 7.16667 14.1151 7.16667 17.9166C7.16667 21.3064 7.88692 23.5245 9.85417 25.9791L21.5 39.4166L33.1458 25.9791C35.1131 23.5245 35.8333 21.3064 35.8333 17.9166C35.8333 14.1151 34.3232 10.4694 31.6352 7.78139C28.9472 5.09337 25.3014 3.58325 21.5 3.58325V3.58325Z" stroke="white" stroke-opacity="0.38" stroke-width="2" stroke-linecap="round" stroke-linejoin="round"/>
</svg>
