<svg width="30" height="31" viewBox="0 0 30 31" fill="none" xmlns="http://www.w3.org/2000/svg">
<path d="M0.9375 27.5781H29.0625V29.4455H0.9375V27.5781Z" fill="white"/>
<path d="M3.75 24.7767C4.29769 24.7784 4.83391 24.6203 5.29239 24.322C5.75087 24.0236 6.11154 23.5979 6.32984 23.0977C6.54814 22.5974 6.6145 22.0444 6.52072 21.507C6.42695 20.9696 6.17715 20.4713 5.80219 20.0737L10.6012 12.5556C11.2228 12.7145 11.8811 12.6442 12.4547 12.3577L16.2187 16.1074C16.0353 16.481 15.9391 16.8912 15.9375 17.3072C15.9375 18.0501 16.2338 18.7625 16.7613 19.2878C17.2887 19.8131 18.0041 20.1082 18.75 20.1082C19.4959 20.1082 20.2113 19.8131 20.7387 19.2878C21.2662 18.7625 21.5625 18.0501 21.5625 17.3072C21.5607 16.655 21.3284 16.0243 20.9062 15.5257L25.7812 6.98991C26.4405 7.10432 27.1191 6.98271 27.697 6.64661C28.2749 6.31051 28.7147 5.7816 28.9385 5.15353C29.1624 4.52547 29.1559 3.83877 28.9202 3.21502C28.6845 2.59127 28.2347 2.07071 27.6506 1.74552C27.0665 1.42033 26.3857 1.31149 25.7287 1.43826C25.0717 1.56503 24.481 1.91923 24.0611 2.43816C23.6412 2.95709 23.4192 3.60727 23.4344 4.27356C23.4497 4.93985 23.7012 5.57928 24.1444 6.07863L19.2919 14.5612C19.1135 14.5255 18.932 14.507 18.75 14.5061C18.3324 14.5077 17.9205 14.6035 17.5453 14.7862L13.7812 11.0374C13.9647 10.6638 14.0609 10.2536 14.0625 9.83766C14.0625 9.09477 13.7662 8.38231 13.2387 7.857C12.7113 7.3317 11.9959 7.03659 11.25 7.03659C10.5041 7.03659 9.78871 7.3317 9.26126 7.857C8.73382 8.38231 8.4375 9.09477 8.4375 9.83766C8.43977 10.4539 8.64826 11.0519 9.03 11.537L4.12969 19.2128C4.00414 19.1915 3.87729 19.1787 3.75 19.1745C3.00408 19.1745 2.28871 19.4697 1.76126 19.995C1.23382 20.5203 0.9375 21.2327 0.9375 21.9756C0.9375 22.7185 1.23382 23.431 1.76126 23.9563C2.28871 24.4816 3.00408 24.7767 3.75 24.7767ZM18.75 18.2409C18.5646 18.2409 18.3833 18.1861 18.2292 18.0835C18.075 17.9809 17.9548 17.8351 17.8839 17.6645C17.8129 17.4939 17.7943 17.3061 17.8305 17.125C17.8667 16.9439 17.956 16.7775 18.0871 16.647C18.2182 16.5164 18.3852 16.4274 18.5671 16.3914C18.749 16.3554 18.9375 16.3739 19.1088 16.4446C19.2801 16.5152 19.4265 16.6349 19.5295 16.7884C19.6325 16.942 19.6875 17.1225 19.6875 17.3072C19.6875 17.5548 19.5887 17.7923 19.4129 17.9674C19.2371 18.1425 18.9986 18.2409 18.75 18.2409ZM26.25 3.30183C26.4354 3.30183 26.6167 3.35659 26.7708 3.45919C26.925 3.56178 27.0452 3.70761 27.1161 3.87822C27.1871 4.04883 27.2057 4.23656 27.1695 4.41768C27.1333 4.59879 27.044 4.76516 26.9129 4.89574C26.7818 5.02632 26.6148 5.11525 26.4329 5.15127C26.251 5.1873 26.0625 5.16881 25.8912 5.09814C25.7199 5.02747 25.5735 4.9078 25.4705 4.75425C25.3675 4.60071 25.3125 4.42019 25.3125 4.23552C25.3125 3.98789 25.4113 3.75041 25.5871 3.57531C25.7629 3.4002 26.0014 3.30183 26.25 3.30183ZM11.25 8.90397C11.4354 8.90397 11.6167 8.95873 11.7708 9.06132C11.925 9.16392 12.0452 9.30974 12.1161 9.48035C12.1871 9.65096 12.2057 9.83869 12.1695 10.0198C12.1333 10.2009 12.044 10.3673 11.9129 10.4979C11.7818 10.6285 11.6148 10.7174 11.4329 10.7534C11.251 10.7894 11.0625 10.7709 10.8912 10.7003C10.7199 10.6296 10.5735 10.5099 10.4705 10.3564C10.3675 10.2028 10.3125 10.0223 10.3125 9.83766C10.3125 9.59003 10.4113 9.35254 10.5871 9.17744C10.7629 9.00234 11.0014 8.90397 11.25 8.90397ZM3.75 21.0419C3.93542 21.0419 4.11668 21.0967 4.27085 21.1993C4.42502 21.3019 4.54518 21.4477 4.61614 21.6183C4.68709 21.7889 4.70566 21.9767 4.66949 22.1578C4.63331 22.3389 4.54402 22.5053 4.41291 22.6358C4.2818 22.7664 4.11475 22.8553 3.9329 22.8914C3.75104 22.9274 3.56254 22.9089 3.39123 22.8382C3.21993 22.7676 3.07351 22.6479 2.9705 22.4943C2.86748 22.3408 2.8125 22.1603 2.8125 21.9756C2.8125 21.728 2.91127 21.4905 3.08709 21.3154C3.2629 21.1403 3.50136 21.0419 3.75 21.0419Z" fill="white"/>
</svg>
