<svg width="43" height="43" viewBox="0 0 43 43" fill="none" xmlns="http://www.w3.org/2000/svg">
<path d="M36.0503 32.0652C35.2581 30.1889 34.1086 28.4846 32.6657 27.0472C31.2272 25.6056 29.5231 24.4563 27.6476 23.6626C27.6308 23.6542 27.614 23.65 27.5973 23.6416C30.2134 21.752 31.914 18.6739 31.914 15.2012C31.914 9.44824 27.2529 4.78711 21.5 4.78711C15.7471 4.78711 11.0859 9.44824 11.0859 15.2012C11.0859 18.6739 12.7866 21.752 15.4027 23.6458C15.3859 23.6542 15.3691 23.6584 15.3523 23.6668C13.4711 24.4604 11.783 25.5984 10.3343 27.0514C8.89271 28.4899 7.74336 30.1939 6.94969 32.0694C6.16999 33.9056 5.74948 35.8741 5.71092 37.8686C5.7098 37.9134 5.71766 37.958 5.73404 37.9997C5.75042 38.0414 5.77499 38.0795 5.80629 38.1115C5.8376 38.1436 5.87502 38.1691 5.91633 38.1865C5.95765 38.2039 6.00203 38.2129 6.04686 38.2129H8.56639C8.75116 38.2129 8.89813 38.0659 8.90233 37.8854C8.98631 34.6436 10.2881 31.6075 12.5892 29.3063C14.9702 26.9254 18.1322 25.6152 21.5 25.6152C24.8678 25.6152 28.0298 26.9254 30.4107 29.3063C32.7119 31.6075 34.0137 34.6436 34.0976 37.8854C34.1018 38.0701 34.2488 38.2129 34.4336 38.2129H36.9531C36.9979 38.2129 37.0423 38.2039 37.0836 38.1865C37.125 38.1691 37.1624 38.1436 37.1937 38.1115C37.225 38.0795 37.2495 38.0414 37.2659 37.9997C37.2823 37.958 37.2902 37.9134 37.289 37.8686C37.2471 35.8613 36.8313 33.9087 36.0503 32.0652ZM21.5 22.4238C19.5725 22.4238 17.7585 21.6722 16.3937 20.3074C15.029 18.9427 14.2773 17.1286 14.2773 15.2012C14.2773 13.2737 15.029 11.4597 16.3937 10.0949C17.7585 8.73018 19.5725 7.97852 21.5 7.97852C23.4274 7.97852 25.2415 8.73018 26.6062 10.0949C27.971 11.4597 28.7226 13.2737 28.7226 15.2012C28.7226 17.1286 27.971 18.9427 26.6062 20.3074C25.2415 21.6722 23.4274 22.4238 21.5 22.4238Z" fill="white"/>
</svg>
