<svg width="30" height="30" viewBox="0 0 30 30" fill="none" xmlns="http://www.w3.org/2000/svg">
<g clip-path="url(#clip0_560_1222)">
<path d="M23.2246 13.9478L13.9456 23.2267C13.3941 23.7782 13.7845 24.727 14.5671 24.727H23.8461C24.3315 24.727 24.725 24.3335 24.725 23.8481V14.5692C24.725 13.789 23.7776 13.3947 23.2246 13.9478ZM22.9672 22.9692H16.689L22.9672 16.6911V22.9692Z" fill="white"/>
<path d="M28.4988 1.21703L1.21512 28.5006C0.663692 29.052 1.05404 30.001 1.83662 30.001H29.1203C29.6057 30.001 29.9992 29.6075 29.9992 29.1221V1.83848C29.9992 1.05555 29.0498 0.665896 28.4988 1.21703ZM25.8976 28.2432V27.3643C25.8976 26.8789 25.5041 26.4853 25.0187 26.4853C24.5333 26.4853 24.1398 26.8789 24.1398 27.3643V28.2432H21.7961V27.3643C21.7961 26.8789 21.4025 26.4853 20.9171 26.4853C20.4318 26.4853 20.0382 26.8789 20.0382 27.3643V28.2432H17.6945V27.3643C17.6945 26.8789 17.301 26.4853 16.8156 26.4853C16.3302 26.4853 15.9367 26.8789 15.9367 27.3643V28.2432H13.5929V27.3643C13.5929 26.8789 13.1994 26.4853 12.714 26.4853C12.2286 26.4853 11.8351 26.8789 11.8351 27.3643V28.2432H9.49137V27.3643C9.49137 26.8789 9.09785 26.4853 8.61246 26.4853C8.12707 26.4853 7.73356 26.8789 7.73356 27.3643V28.2432H3.95848L28.2414 3.96039V7.73535H27.3625C26.8771 7.73535 26.4836 8.12887 26.4836 8.61426C26.4836 9.09965 26.8771 9.49316 27.3625 9.49316H28.2414V11.8369H27.3625C26.8771 11.8369 26.4836 12.2304 26.4836 12.7158C26.4836 13.2012 26.8771 13.5947 27.3625 13.5947H28.2414V15.9385H27.3625C26.8771 15.9385 26.4836 16.332 26.4836 16.8174C26.4836 17.3028 26.8771 17.6963 27.3625 17.6963H28.2414V20.04H27.3625C26.8771 20.04 26.4836 20.4336 26.4836 20.9189C26.4836 21.4043 26.8771 21.7978 27.3625 21.7978H28.2414V24.1416H27.3625C26.8771 24.1416 26.4836 24.5351 26.4836 25.0205C26.4836 25.5059 26.8771 25.8994 27.3625 25.8994H28.2414V28.2432H25.8976Z" fill="white"/>
<path d="M3.98625 23.2002C35.8504 -8.66389 11.1173 16.0691 20.9422 6.2443C20.9423 6.24412 20.9425 6.244 20.9426 6.24383C21.0284 6.15805 21.0886 6.07109 21.1296 5.98473L23.3728 1.25562C23.532 0.919883 23.4629 0.520215 23.2001 0.25748C22.9375 -0.0053128 22.5377 -0.0744534 22.202 0.084863L17.4728 2.32807C17.3886 2.36803 17.3019 2.42691 17.228 2.50068L0.257344 19.4713C-0.0856642 19.8143 -0.0858985 20.3711 0.257344 20.7143L2.7433 23.2002C3.08648 23.5434 3.64301 23.5435 3.98625 23.2002ZM18.3865 6.31396L6.44063 18.2598L5.19768 17.0169L17.1433 5.07137C17.413 5.59889 17.8514 6.04033 18.3865 6.31396ZM19.72 4.85475C19.0975 4.90232 18.5551 4.36133 18.6028 3.7376L20.7281 2.72955L19.72 4.85475ZM3.95473 18.2598L5.19768 19.5028L3.36475 21.3358L2.12174 20.0928L3.95473 18.2598Z" fill="white"/>
</g>
<defs>
<clipPath id="clip0_560_1222">
<rect width="30" height="30" fill="white"/>
</clipPath>
</defs>
</svg>
