<svg width="15" height="13" viewBox="0 0 15 13" fill="none" xmlns="http://www.w3.org/2000/svg">
<path d="M0.528657 7.04889L5.19533 12.0072C5.32106 12.1362 5.48946 12.2076 5.66426 12.206C5.83906 12.2044 6.00627 12.1299 6.12987 11.9986C6.25348 11.8673 6.32359 11.6896 6.32511 11.5039C6.32663 11.3182 6.25943 11.1392 6.13799 11.0056L2.60933 7.25643L14.3333 7.25643C14.5101 7.25643 14.6797 7.1818 14.8047 7.04896C14.9298 6.91613 15 6.73596 15 6.5481C15 6.36024 14.9298 6.18007 14.8047 6.04723C14.6797 5.91439 14.5101 5.83976 14.3333 5.83976L2.60933 5.83976L6.13799 2.09056C6.20167 2.02522 6.25246 1.94706 6.2874 1.86064C6.32234 1.77422 6.34073 1.68127 6.3415 1.58722C6.34227 1.49317 6.3254 1.39989 6.29188 1.31284C6.25836 1.22579 6.20885 1.1467 6.14626 1.0802C6.08366 1.01369 6.00923 0.961093 5.9273 0.925477C5.84537 0.889861 5.75758 0.871939 5.66906 0.872757C5.58054 0.873574 5.49306 0.893115 5.41173 0.930238C5.33039 0.967361 5.25683 1.02132 5.19533 1.08898L0.528657 6.0473C0.403676 6.18014 0.333467 6.36027 0.333467 6.5481C0.333467 6.73592 0.403676 6.91605 0.528657 7.04889V7.04889Z" fill="white"/>
</svg>
