<svg width="15" height="13" viewBox="0 0 15 13" fill="none" xmlns="http://www.w3.org/2000/svg">
<path d="M14.8073 6.02973L10.1406 1.0714C10.0149 0.942368 9.84647 0.870971 9.67168 0.872585C9.49688 0.874199 9.32967 0.948694 9.20606 1.08002C9.08246 1.21136 9.01235 1.38901 9.01083 1.57474C9.00931 1.76046 9.0765 1.93939 9.19794 2.07298L12.7266 5.82218H1.0026C0.825793 5.82218 0.656224 5.89681 0.5312 6.02965C0.406175 6.16249 0.335938 6.34265 0.335938 6.53052C0.335938 6.71838 0.406175 6.89854 0.5312 7.03138C0.656224 7.16422 0.825793 7.23885 1.0026 7.23885H12.7266L9.19794 10.9881C9.13427 11.0534 9.08348 11.1316 9.04854 11.218C9.0136 11.3044 8.99521 11.3973 8.99444 11.4914C8.99367 11.5854 9.01054 11.6787 9.04406 11.7658C9.07758 11.8528 9.12708 11.9319 9.18968 11.9984C9.25228 12.0649 9.32671 12.1175 9.40864 12.1531C9.49057 12.1888 9.57836 12.2067 9.66688 12.2059C9.7554 12.205 9.84288 12.1855 9.92421 12.1484C10.0055 12.1113 10.0791 12.0573 10.1406 11.9896L14.8073 7.03131C14.9323 6.89848 15.0025 6.71834 15.0025 6.53052C15.0025 6.34269 14.9323 6.16256 14.8073 6.02973Z" fill="white"/>
</svg>
