<svg width="30" height="30" viewBox="0 0 30 30" fill="none" xmlns="http://www.w3.org/2000/svg">
<path d="M29.1211 10.7012C29.6065 10.7012 30 10.3076 30 9.82225V6.0566C30 5.57121 29.6065 5.1777 29.1211 5.1777H26.2344V2.29102C26.2344 1.80562 25.8408 1.41211 25.3554 1.41211H21.5898C21.1044 1.41211 20.7109 1.80562 20.7109 2.29102V5.17775H9.28904V2.29102C9.28904 1.80562 8.89553 1.41211 8.41014 1.41211H4.64455C4.15916 1.41211 3.76564 1.80562 3.76564 2.29102V5.17775H0.878906C0.393516 5.17775 0 5.57127 0 6.05666V9.8223C0 10.3077 0.393516 10.7012 0.878906 10.7012H1.88285V26.8301H0.878906C0.393516 26.8301 0 27.2236 0 27.709C0 28.1944 0.393516 28.5879 0.878906 28.5879H29.1211C29.6065 28.5879 30 28.1944 30 27.709C30 27.2236 29.6065 26.8301 29.1211 26.8301H28.1171V10.7012H29.1211ZM22.4688 3.16992H24.4766V5.17775H22.4688V3.16992ZM5.52346 3.16992H7.53129V5.17775H5.52346V3.16992ZM26.3593 26.8301H3.64066V10.7012H26.3593V26.8301ZM1.75781 8.94334V6.93551H28.2422V8.94334H1.75781Z" fill="white"/>
<path d="M10.2929 20.1154H12.2382V23.9435C12.2382 24.2989 12.4523 24.6195 12.7807 24.7554C13.0848 24.8814 13.4689 24.8347 13.7386 24.5649L20.3284 17.975C20.5798 17.7237 20.655 17.3456 20.519 17.0172C20.3829 16.6888 20.0625 16.4746 19.707 16.4746H18.3049L19.5517 13.9809C19.6879 13.7085 19.6734 13.3849 19.5132 13.1258C19.3531 12.8667 19.0701 12.709 18.7656 12.709H13.1171C12.7842 12.709 12.4799 12.8971 12.331 13.1948L9.50687 18.8433C9.37064 19.1157 9.38517 19.4393 9.54531 19.6984C9.70544 19.9576 9.98833 20.1154 10.2929 20.1154V20.1154ZM13.6603 14.4669H17.3434L16.0967 16.9606C15.9604 17.2331 15.975 17.5566 16.1351 17.8157C16.2952 18.0748 16.5782 18.2326 16.8828 18.2326H17.5851L13.996 21.8216V19.2364C13.996 18.7511 13.6025 18.3575 13.1171 18.3575H11.715L13.6603 14.4669Z" fill="white"/>
</svg>
