<svg width="88" height="88" viewBox="0 0 88 88" fill="none" xmlns="http://www.w3.org/2000/svg">
<g opacity="0.2">
<path d="M8.40235 5.63378C8.42036 21.9021 14.8993 37.4971 26.4142 48.9891C37.9291 60.481 53.537 66.9288 69.8053 66.9144L56.8777 79.8421C56.4099 80.3601 56.1593 81.0381 56.1777 81.7358C56.1961 82.4334 56.4821 83.0973 56.9765 83.5899C57.4709 84.0825 58.1358 84.3662 58.8335 84.3821C59.5312 84.398 60.2083 84.145 60.7247 83.6755L78.2878 66.1124C78.5406 65.8599 78.7411 65.56 78.8779 65.23C79.0148 64.8999 79.0852 64.5461 79.0852 64.1889C79.0852 63.8316 79.0148 63.4778 78.8779 63.1477C78.7411 62.8177 78.5406 62.5178 78.2878 62.2653L60.7247 44.7022C60.4721 44.4496 60.1722 44.2492 59.8422 44.1125C59.5121 43.9758 59.1584 43.9055 58.8012 43.9055C58.4439 43.9055 58.0902 43.9758 57.7602 44.1125C57.4301 44.2492 57.1303 44.4496 56.8777 44.7022C56.6251 44.9548 56.4247 45.2547 56.288 45.5847C56.1513 45.9148 56.0809 46.2685 56.0809 46.6257C56.0809 46.983 56.1513 47.3367 56.288 47.6667C56.4247 47.9968 56.6251 48.2967 56.8777 48.5492L69.8053 61.4769C54.9791 61.4913 40.7542 55.6164 30.2591 45.1442C19.7639 34.672 13.8579 20.46 13.8398 5.63378C13.8398 4.91273 13.5534 4.2212 13.0435 3.71133C12.5337 3.20147 11.8422 2.91503 11.1211 2.91503C10.4 2.91503 9.70852 3.20147 9.19865 3.71133C8.68879 4.2212 8.40235 4.91273 8.40235 5.63378Z" fill="white"/>
</g>
</svg>
