<svg width="88" height="88" viewBox="0 0 88 88" fill="none" xmlns="http://www.w3.org/2000/svg">
<g opacity="0.2">
<path d="M79.1406 5.52245C79.1226 21.7908 72.6437 37.3858 61.1288 48.8778C49.6139 60.3697 34.006 66.8175 17.7377 66.8031L30.6653 79.7307C31.133 80.2487 31.3836 80.9268 31.3652 81.6244C31.3468 82.3221 31.0608 82.986 30.5665 83.4786C30.0721 83.9712 29.4072 84.2548 28.7095 84.2708C28.0118 84.2867 27.3346 84.0337 26.8183 83.5642L9.25516 66.001C9.00238 65.7485 8.80185 65.4487 8.66503 65.1187C8.52821 64.7886 8.45779 64.4348 8.45779 64.0775C8.45779 63.7202 8.52821 63.3665 8.66503 63.0364C8.80185 62.7064 9.00238 62.4065 9.25516 62.154L26.8183 44.5909C27.0709 44.3383 27.3708 44.1379 27.7008 44.0012C28.0308 43.8645 28.3846 43.7941 28.7418 43.7941C29.099 43.7941 29.4528 43.8645 29.7828 44.0012C30.1128 44.1379 30.4127 44.3383 30.6653 44.5909C30.9179 44.8435 31.1183 45.1434 31.255 45.4734C31.3917 45.8034 31.4621 46.1572 31.4621 46.5144C31.4621 46.8716 31.3917 47.2254 31.255 47.5554C31.1183 47.8854 30.9179 48.1853 30.6653 48.4379L17.7377 61.3656C32.5639 61.38 46.7887 55.5051 57.2839 45.0329C67.7791 34.5606 73.6851 20.3486 73.7031 5.52245C73.7031 4.8014 73.9896 4.10987 74.4994 3.60001C75.0093 3.09014 75.7008 2.8037 76.4219 2.8037C77.1429 2.8037 77.8345 3.09014 78.3443 3.60001C78.8542 4.10987 79.1406 4.8014 79.1406 5.52245Z" fill="white"/>
</g>
</svg>
