<svg width="276" height="214" viewBox="0 0 276 214" fill="none" xmlns="http://www.w3.org/2000/svg">
<g opacity="0.7" filter="url(#filter0_f_725_4)">
<ellipse cx="98.8614" cy="109.278" rx="60.7091" ry="31.8542" fill="#3290FF"/>
</g>
<g filter="url(#filter1_f_725_4)">
<circle cx="205.257" cy="109.283" r="31.8542" fill="#3465D1"/>
</g>
<g filter="url(#filter2_f_725_4)">
<circle cx="121.659" cy="136.304" r="31.8542" fill="#3465D1"/>
</g>
<g filter="url(#filter3_f_725_4)">
<circle cx="141.55" cy="70.4401" r="31.8542" fill="#3465D1"/>
</g>
<g filter="url(#filter4_f_725_4)">
<circle cx="154.639" cy="129.97" r="31.8542" fill="#3290FF"/>
</g>
<path opacity="0.2" d="M33.5299 109.283L136.203 39.8462L238.876 109.283L136.203 178.719L33.5299 109.283Z" stroke="#2664D2" stroke-width="2"/>
<g filter="url(#filter5_f_725_4)">
<mask id="mask0_725_4" style="mask-type:alpha" maskUnits="userSpaceOnUse" x="31" y="38" width="210" height="142">
<path d="M33.5299 109.283L136.203 39.8462L238.876 109.283L136.203 178.719L33.5299 109.283Z" stroke="#2664D2" stroke-width="2"/>
</mask>
<g mask="url(#mask0_725_4)">
<g filter="url(#filter6_f_725_4)">
<circle cx="192.252" cy="75.8236" r="33.4594" fill="#76EFFF"/>
</g>
<g filter="url(#filter7_f_725_4)">
<circle cx="31.7461" cy="107.7" r="52.668" fill="#76EFFF"/>
</g>
<g filter="url(#filter8_f_725_4)">
<circle cx="179.34" cy="189.818" r="52.668" fill="#76EFFF"/>
</g>
</g>
</g>
<mask id="mask1_725_4" style="mask-type:alpha" maskUnits="userSpaceOnUse" x="40" y="44" width="193" height="131">
<path d="M136.203 44.4912L232.008 109.283L136.203 174.074L40.3979 109.283L136.203 44.4912Z" fill="url(#paint0_linear_725_4)"/>
</mask>
<g mask="url(#mask1_725_4)">
<rect x="40.3984" y="109.277" width="191.61" height="65.2469" fill="url(#paint1_linear_725_4)"/>
</g>
<mask id="mask2_725_4" style="mask-type:alpha" maskUnits="userSpaceOnUse" x="40" y="44" width="193" height="131">
<path d="M136.203 174.074L40.3979 109.283L136.203 44.491L232.008 109.283L136.203 174.074Z" fill="url(#paint2_linear_725_4)"/>
</mask>
<g mask="url(#mask2_725_4)">
<rect x="232.008" y="109.288" width="191.61" height="65.2469" transform="rotate(-180 232.008 109.288)" fill="url(#paint3_linear_725_4)"/>
<path fill-rule="evenodd" clip-rule="evenodd" d="M153.513 96.8388C150.669 100.037 146.921 102.296 142.765 103.317C138.609 104.338 134.241 104.074 130.239 102.559C127.558 101.544 125.126 100 123.079 98.0339L128.622 93.0854C129.861 94.1806 131.294 95.0491 132.858 95.6409C135.459 96.6258 138.298 96.7976 141 96.1337C143.701 95.4698 146.137 94.0014 147.986 91.9229L153.513 96.8388ZM127.429 91.8923C127.428 91.8905 127.426 91.8886 127.424 91.8868L153.426 68.6488L153.423 68.648C150.559 65.4686 146.797 63.2335 142.635 62.2385C138.473 61.2434 134.107 61.5353 130.114 63.0757C126.121 64.6161 122.69 67.3323 120.275 70.865C117.86 74.3978 116.574 78.5806 116.587 82.8602C116.601 87.1397 117.913 91.3143 120.351 94.8318C120.655 95.2709 120.975 95.6972 121.31 96.11L116.574 101.584L121.909 96.8159C121.91 96.8168 121.91 96.8176 121.911 96.8185L127.429 91.8923ZM143.582 70.3681L126.268 90.3791C124.788 88.1439 123.992 85.5221 123.984 82.8368C123.975 80.0551 124.811 77.3363 126.381 75.04C127.951 72.7437 130.181 70.9781 132.777 69.9769C135.372 68.9756 138.21 68.7859 140.915 69.4327C141.841 69.6541 142.734 69.968 143.582 70.3681Z" fill="#1A80FE"/>
</g>
<g opacity="0.7" filter="url(#filter9_f_725_4)">
<circle cx="98.8625" cy="88.2755" r="26.4992" fill="white"/>
</g>
<g opacity="0.7" filter="url(#filter10_f_725_4)">
<circle cx="116.78" cy="137.67" r="26.4992" fill="#AFCBFF"/>
</g>
<g opacity="0.7" filter="url(#filter11_f_725_4)">
<circle cx="183.628" cy="116.749" r="26.4992" fill="#DEEAFF"/>
</g>
<path d="M93.6602 129.349C92.7576 129.349 91.956 129.159 91.2553 128.779C90.5546 128.387 89.9964 127.853 89.5807 127.176C89.1769 126.499 88.975 125.727 88.975 124.86C88.975 124.005 89.171 123.245 89.5629 122.58C89.9667 121.903 90.513 121.368 91.2018 120.976C91.8907 120.573 92.6567 120.371 93.4999 120.371C94.3312 120.371 95.0616 120.561 95.691 120.941C96.3324 121.309 96.8312 121.82 97.1874 122.473C97.5556 123.114 97.7397 123.844 97.7397 124.664C97.7397 124.818 97.7278 124.979 97.7041 125.145C97.6922 125.299 97.6625 125.477 97.615 125.679L90.3824 125.697V123.951L96.5283 123.933L95.5841 124.664C95.5604 124.153 95.4654 123.726 95.2991 123.381C95.1447 123.037 94.9131 122.776 94.6044 122.597C94.3075 122.407 93.9393 122.312 93.4999 122.312C93.0367 122.312 92.6329 122.419 92.2885 122.633C91.9441 122.835 91.6769 123.126 91.4869 123.506C91.3087 123.874 91.2196 124.314 91.2196 124.824C91.2196 125.347 91.3147 125.804 91.5047 126.196C91.7066 126.576 91.9916 126.873 92.3598 127.087C92.7279 127.289 93.1555 127.389 93.6424 127.389C94.0818 127.389 94.4797 127.318 94.8359 127.176C95.1922 127.021 95.501 126.796 95.7623 126.499L97.134 127.87C96.7183 128.357 96.2077 128.726 95.602 128.975C95.0082 129.224 94.3609 129.349 93.6602 129.349ZM99.4323 129.171V116.647H101.855V129.171H99.4323ZM101.214 129.171V127.015H107.591V129.171H101.214ZM112.899 129.349C112.032 129.349 111.249 129.153 110.548 128.761C109.859 128.357 109.307 127.817 108.891 127.14C108.487 126.451 108.285 125.685 108.285 124.842C108.285 123.999 108.487 123.245 108.891 122.58C109.295 121.903 109.847 121.368 110.548 120.976C111.249 120.573 112.026 120.371 112.882 120.371C113.76 120.371 114.544 120.573 115.233 120.976C115.934 121.368 116.486 121.903 116.89 122.58C117.294 123.245 117.495 123.999 117.495 124.842C117.495 125.685 117.294 126.451 116.89 127.14C116.486 127.817 115.934 128.357 115.233 128.761C114.544 129.153 113.766 129.349 112.899 129.349ZM112.882 127.176C113.321 127.176 113.707 127.081 114.039 126.891C114.384 126.689 114.645 126.416 114.823 126.071C115.013 125.715 115.108 125.311 115.108 124.86C115.108 124.409 115.013 124.011 114.823 123.666C114.633 123.322 114.372 123.055 114.039 122.865C113.707 122.663 113.321 122.562 112.882 122.562C112.454 122.562 112.074 122.663 111.741 122.865C111.409 123.055 111.148 123.322 110.958 123.666C110.768 124.011 110.673 124.409 110.673 124.86C110.673 125.311 110.768 125.715 110.958 126.071C111.148 126.416 111.409 126.689 111.741 126.891C112.074 127.081 112.454 127.176 112.882 127.176ZM122.596 132.983C121.682 132.983 120.874 132.817 120.174 132.484C119.473 132.164 118.915 131.706 118.499 131.113L119.978 129.634C120.31 130.026 120.678 130.323 121.082 130.525C121.498 130.739 121.997 130.845 122.579 130.845C123.303 130.845 123.873 130.661 124.289 130.293C124.716 129.925 124.93 129.414 124.93 128.761V126.606L125.322 124.717L124.948 122.829V120.567H127.264V128.726C127.264 129.581 127.062 130.323 126.658 130.952C126.266 131.594 125.72 132.092 125.019 132.449C124.318 132.805 123.511 132.983 122.596 132.983ZM122.489 128.939C121.717 128.939 121.023 128.755 120.405 128.387C119.788 128.007 119.301 127.49 118.944 126.837C118.6 126.184 118.428 125.454 118.428 124.646C118.428 123.838 118.6 123.114 118.944 122.473C119.301 121.831 119.788 121.327 120.405 120.959C121.023 120.578 121.717 120.388 122.489 120.388C123.131 120.388 123.695 120.513 124.182 120.763C124.681 121.012 125.073 121.356 125.358 121.796C125.643 122.223 125.797 122.728 125.821 123.31V126.018C125.797 126.588 125.637 127.099 125.34 127.55C125.055 127.989 124.663 128.334 124.164 128.583C123.677 128.821 123.119 128.939 122.489 128.939ZM122.953 126.819C123.38 126.819 123.748 126.73 124.057 126.552C124.378 126.362 124.627 126.107 124.805 125.786C124.983 125.454 125.073 125.08 125.073 124.664C125.073 124.236 124.983 123.862 124.805 123.542C124.627 123.221 124.378 122.972 124.057 122.793C123.748 122.603 123.38 122.508 122.953 122.508C122.525 122.508 122.151 122.603 121.83 122.793C121.51 122.972 121.26 123.227 121.082 123.559C120.904 123.88 120.815 124.248 120.815 124.664C120.815 125.068 120.904 125.436 121.082 125.768C121.26 126.089 121.51 126.344 121.83 126.534C122.151 126.724 122.525 126.819 122.953 126.819ZM129.314 129.171V120.567H131.666V129.171H129.314ZM130.49 119.177C130.11 119.177 129.795 119.052 129.546 118.803C129.296 118.542 129.172 118.221 129.172 117.841C129.172 117.473 129.296 117.158 129.546 116.897C129.795 116.636 130.11 116.505 130.49 116.505C130.882 116.505 131.197 116.636 131.434 116.897C131.683 117.158 131.808 117.473 131.808 117.841C131.808 118.221 131.683 118.542 131.434 118.803C131.197 119.052 130.882 119.177 130.49 119.177ZM137.795 129.349C136.916 129.349 136.126 129.153 135.425 128.761C134.725 128.369 134.172 127.835 133.769 127.158C133.365 126.481 133.163 125.721 133.163 124.878C133.163 124.023 133.365 123.257 133.769 122.58C134.172 121.903 134.725 121.368 135.425 120.976C136.138 120.573 136.928 120.371 137.795 120.371C138.472 120.371 139.095 120.495 139.665 120.745C140.235 120.994 140.728 121.35 141.144 121.814L139.647 123.328C139.422 123.078 139.148 122.888 138.828 122.758C138.519 122.627 138.175 122.562 137.795 122.562C137.367 122.562 136.981 122.663 136.637 122.865C136.304 123.055 136.037 123.322 135.835 123.666C135.645 123.999 135.55 124.397 135.55 124.86C135.55 125.311 135.645 125.715 135.835 126.071C136.037 126.416 136.304 126.689 136.637 126.891C136.981 127.081 137.367 127.176 137.795 127.176C138.186 127.176 138.537 127.11 138.846 126.98C139.166 126.837 139.439 126.635 139.665 126.374L141.179 127.888C140.74 128.363 140.235 128.726 139.665 128.975C139.095 129.224 138.472 129.349 137.795 129.349Z" fill="black"/>
<path d="M145.85 129.171V116.915H148.291V129.171H145.85ZM141.86 118.803V116.647H152.281V118.803H141.86ZM155.68 129.349C154.777 129.349 153.975 129.159 153.275 128.779C152.574 128.387 152.016 127.853 151.6 127.176C151.196 126.499 150.995 125.727 150.995 124.86C150.995 124.005 151.191 123.245 151.582 122.58C151.986 121.903 152.533 121.368 153.221 120.976C153.91 120.573 154.676 120.371 155.519 120.371C156.351 120.371 157.081 120.561 157.711 120.941C158.352 121.309 158.851 121.82 159.207 122.473C159.575 123.114 159.759 123.844 159.759 124.664C159.759 124.818 159.747 124.979 159.724 125.145C159.712 125.299 159.682 125.477 159.635 125.679L152.402 125.697V123.951L158.548 123.933L157.604 124.664C157.58 124.153 157.485 123.726 157.319 123.381C157.164 123.037 156.933 122.776 156.624 122.597C156.327 122.407 155.959 122.312 155.519 122.312C155.056 122.312 154.652 122.419 154.308 122.633C153.964 122.835 153.696 123.126 153.506 123.506C153.328 123.874 153.239 124.314 153.239 124.824C153.239 125.347 153.334 125.804 153.524 126.196C153.726 126.576 154.011 126.873 154.379 127.087C154.747 127.289 155.175 127.389 155.662 127.389C156.101 127.389 156.499 127.318 156.855 127.176C157.212 127.021 157.521 126.796 157.782 126.499L159.154 127.87C158.738 128.357 158.227 128.726 157.621 128.975C157.028 129.224 156.38 129.349 155.68 129.349ZM165.264 129.349C164.385 129.349 163.595 129.153 162.895 128.761C162.194 128.369 161.642 127.835 161.238 127.158C160.834 126.481 160.632 125.721 160.632 124.878C160.632 124.023 160.834 123.257 161.238 122.58C161.642 121.903 162.194 121.368 162.895 120.976C163.607 120.573 164.397 120.371 165.264 120.371C165.941 120.371 166.565 120.495 167.135 120.745C167.705 120.994 168.198 121.35 168.613 121.814L167.117 123.328C166.891 123.078 166.618 122.888 166.297 122.758C165.989 122.627 165.644 122.562 165.264 122.562C164.837 122.562 164.451 122.663 164.106 122.865C163.774 123.055 163.506 123.322 163.305 123.666C163.115 123.999 163.019 124.397 163.019 124.86C163.019 125.311 163.115 125.715 163.305 126.071C163.506 126.416 163.774 126.689 164.106 126.891C164.451 127.081 164.837 127.176 165.264 127.176C165.656 127.176 166.006 127.11 166.315 126.98C166.636 126.837 166.909 126.635 167.135 126.374L168.649 127.888C168.209 128.363 167.705 128.726 167.135 128.975C166.565 129.224 165.941 129.349 165.264 129.349ZM175.76 129.171V124.236C175.76 123.726 175.6 123.31 175.279 122.989C174.958 122.669 174.543 122.508 174.032 122.508C173.7 122.508 173.403 122.58 173.141 122.722C172.88 122.865 172.672 123.067 172.518 123.328C172.375 123.589 172.304 123.892 172.304 124.236L171.396 123.773C171.396 123.096 171.538 122.508 171.823 122.01C172.108 121.499 172.5 121.101 172.999 120.816C173.51 120.531 174.091 120.388 174.745 120.388C175.398 120.388 175.974 120.531 176.473 120.816C176.983 121.101 177.381 121.493 177.666 121.992C177.951 122.491 178.094 123.067 178.094 123.72V129.171H175.76ZM169.97 129.171V116.291H172.304V129.171H169.97Z" fill="#1A80FE"/>
<mask id="mask3_725_4" style="mask-type:alpha" maskUnits="userSpaceOnUse" x="161" y="133" width="18" height="10">
<path d="M164.174 133.002H178.137V142.595H161.207L164.174 133.002Z" fill="#D9D9D9"/>
</mask>
<g mask="url(#mask3_725_4)">
<path d="M166.075 142.596C165.412 142.596 164.79 142.476 164.207 142.238C163.632 141.99 163.124 141.646 162.683 141.204C162.25 140.763 161.91 140.255 161.662 139.68C161.424 139.097 161.305 138.47 161.305 137.799C161.305 137.119 161.428 136.491 161.676 135.917C161.923 135.334 162.268 134.826 162.709 134.393C163.151 133.952 163.668 133.611 164.26 133.373C164.851 133.126 165.492 133.002 166.181 133.002C166.95 133.002 167.656 133.148 168.301 133.439C168.946 133.722 170.175 132.7 170.599 133.221L170.077 134.393C169.785 134.013 168.418 134.736 167.985 134.533C167.552 134.33 166.684 134.651 166.163 134.651C165.571 134.651 165.05 134.817 164.591 135.082C164.14 135.339 163.787 135.701 163.531 136.169C163.275 136.628 163.147 137.167 163.147 137.785C163.147 138.404 163.27 138.952 163.518 139.429C163.774 139.897 164.118 140.263 164.551 140.528C164.993 140.793 165.496 140.926 166.062 140.926C166.645 140.926 167.144 140.82 167.559 140.608C167.974 140.387 168.292 140.069 168.513 139.654C168.734 139.23 168.844 138.713 168.844 138.104L170.024 138.912L165.956 138.872V137.308H170.7V137.56C170.7 138.673 170.501 139.605 170.103 140.356C169.706 141.098 169.158 141.659 168.46 142.039C167.771 142.41 166.976 142.596 166.075 142.596Z" fill="#1A80FE"/>
<path d="M178.137 142.596V133.002H176.281V142.596H178.137ZM176.772 142.596V140.944H168.354V142.596H176.772ZM176.772 138.488V136.905H171.941V138.488H176.772ZM176.772 134.653V133.002H168.422V134.653H176.772Z" fill="#1A80FE"/>
<path d="M168.658 142.596V140.944H166.215C165.597 140.944 165.056 140.817 164.592 140.562C164.128 140.298 163.768 139.93 163.513 139.457C163.25 138.984 163.118 138.424 163.118 137.778C163.118 137.151 163.25 136.605 163.513 136.141C163.777 135.668 164.141 135.304 164.605 135.049C165.069 134.785 165.606 134.653 166.215 134.653H168.699V133.002H166.188C165.479 133.002 164.824 133.12 164.223 133.357C163.614 133.593 163.086 133.93 162.64 134.367C162.185 134.794 161.835 135.299 161.589 135.881C161.335 136.464 161.207 137.101 161.207 137.792C161.207 138.483 161.335 139.125 161.589 139.716C161.835 140.298 162.181 140.808 162.626 141.245C163.072 141.672 163.6 142.004 164.209 142.241C164.81 142.477 165.46 142.596 166.161 142.596H168.658Z" fill="#1A80FE"/>
</g>
<mask id="mask4_725_4" style="mask-type:alpha" maskUnits="userSpaceOnUse" x="146" y="133" width="17" height="10">
<path d="M146.07 133.002H163L160.033 142.596H146.07V133.002Z" fill="#D9D9D9"/>
</mask>
<g mask="url(#mask4_725_4)">
<path d="M146.07 142.596V133.002H147.926V142.596H146.07ZM147.435 142.596V140.944H155.853V142.596H147.435ZM147.435 138.488V136.905H152.266V138.488H147.435ZM147.435 134.653V133.002H155.785V134.653H147.435Z" fill="#1A80FE"/>
<path d="M155.549 142.596V140.944H157.992C158.61 140.944 159.152 140.817 159.615 140.562C160.079 140.298 160.439 139.93 160.694 139.457C160.957 138.984 161.089 138.424 161.089 137.778C161.089 137.151 160.957 136.605 160.694 136.141C160.43 135.668 160.066 135.304 159.602 135.049C159.138 134.785 158.601 134.653 157.992 134.653H155.508V133.002H158.019C158.728 133.002 159.383 133.12 159.984 133.357C160.594 133.593 161.121 133.93 161.567 134.367C162.022 134.794 162.372 135.299 162.618 135.881C162.872 136.464 163 137.101 163 137.792C163 138.483 162.872 139.125 162.618 139.716C162.372 140.298 162.026 140.808 161.581 141.245C161.135 141.672 160.607 142.004 159.998 142.241C159.397 142.477 158.747 142.596 158.046 142.596H155.549Z" fill="#1A80FE"/>
</g>
<defs>
<filter id="filter0_f_725_4" x="0.152344" y="39.4238" width="197.418" height="139.708" filterUnits="userSpaceOnUse" color-interpolation-filters="sRGB">
<feFlood flood-opacity="0" result="BackgroundImageFix"/>
<feBlend mode="normal" in="SourceGraphic" in2="BackgroundImageFix" result="shape"/>
<feGaussianBlur stdDeviation="19" result="effect1_foregroundBlur_725_4"/>
</filter>
<filter id="filter1_f_725_4" x="135.402" y="39.4287" width="139.707" height="139.708" filterUnits="userSpaceOnUse" color-interpolation-filters="sRGB">
<feFlood flood-opacity="0" result="BackgroundImageFix"/>
<feBlend mode="normal" in="SourceGraphic" in2="BackgroundImageFix" result="shape"/>
<feGaussianBlur stdDeviation="19" result="effect1_foregroundBlur_725_4"/>
</filter>
<filter id="filter2_f_725_4" x="51.8047" y="66.4502" width="139.707" height="139.708" filterUnits="userSpaceOnUse" color-interpolation-filters="sRGB">
<feFlood flood-opacity="0" result="BackgroundImageFix"/>
<feBlend mode="normal" in="SourceGraphic" in2="BackgroundImageFix" result="shape"/>
<feGaussianBlur stdDeviation="19" result="effect1_foregroundBlur_725_4"/>
</filter>
<filter id="filter3_f_725_4" x="71.6953" y="0.585938" width="139.707" height="139.708" filterUnits="userSpaceOnUse" color-interpolation-filters="sRGB">
<feFlood flood-opacity="0" result="BackgroundImageFix"/>
<feBlend mode="normal" in="SourceGraphic" in2="BackgroundImageFix" result="shape"/>
<feGaussianBlur stdDeviation="19" result="effect1_foregroundBlur_725_4"/>
</filter>
<filter id="filter4_f_725_4" x="84.7852" y="60.1162" width="139.707" height="139.708" filterUnits="userSpaceOnUse" color-interpolation-filters="sRGB">
<feFlood flood-opacity="0" result="BackgroundImageFix"/>
<feBlend mode="normal" in="SourceGraphic" in2="BackgroundImageFix" result="shape"/>
<feGaussianBlur stdDeviation="19" result="effect1_foregroundBlur_725_4"/>
</filter>
<filter id="filter5_f_725_4" x="27.7461" y="38.3643" width="208.262" height="145.562" filterUnits="userSpaceOnUse" color-interpolation-filters="sRGB">
<feFlood flood-opacity="0" result="BackgroundImageFix"/>
<feBlend mode="normal" in="SourceGraphic" in2="BackgroundImageFix" result="shape"/>
<feGaussianBlur stdDeviation="2" result="effect1_foregroundBlur_725_4"/>
</filter>
<filter id="filter6_f_725_4" x="120.793" y="4.36426" width="142.918" height="142.919" filterUnits="userSpaceOnUse" color-interpolation-filters="sRGB">
<feFlood flood-opacity="0" result="BackgroundImageFix"/>
<feBlend mode="normal" in="SourceGraphic" in2="BackgroundImageFix" result="shape"/>
<feGaussianBlur stdDeviation="19" result="effect1_foregroundBlur_725_4"/>
</filter>
<filter id="filter7_f_725_4" x="-58.9219" y="17.0322" width="181.336" height="181.336" filterUnits="userSpaceOnUse" color-interpolation-filters="sRGB">
<feFlood flood-opacity="0" result="BackgroundImageFix"/>
<feBlend mode="normal" in="SourceGraphic" in2="BackgroundImageFix" result="shape"/>
<feGaussianBlur stdDeviation="19" result="effect1_foregroundBlur_725_4"/>
</filter>
<filter id="filter8_f_725_4" x="88.6719" y="99.1504" width="181.336" height="181.336" filterUnits="userSpaceOnUse" color-interpolation-filters="sRGB">
<feFlood flood-opacity="0" result="BackgroundImageFix"/>
<feBlend mode="normal" in="SourceGraphic" in2="BackgroundImageFix" result="shape"/>
<feGaussianBlur stdDeviation="19" result="effect1_foregroundBlur_725_4"/>
</filter>
<filter id="filter9_f_725_4" x="49.3633" y="38.7764" width="99" height="98.998" filterUnits="userSpaceOnUse" color-interpolation-filters="sRGB">
<feFlood flood-opacity="0" result="BackgroundImageFix"/>
<feBlend mode="normal" in="SourceGraphic" in2="BackgroundImageFix" result="shape"/>
<feGaussianBlur stdDeviation="11.5" result="effect1_foregroundBlur_725_4"/>
</filter>
<filter id="filter10_f_725_4" x="67.2812" y="88.1709" width="99" height="98.998" filterUnits="userSpaceOnUse" color-interpolation-filters="sRGB">
<feFlood flood-opacity="0" result="BackgroundImageFix"/>
<feBlend mode="normal" in="SourceGraphic" in2="BackgroundImageFix" result="shape"/>
<feGaussianBlur stdDeviation="11.5" result="effect1_foregroundBlur_725_4"/>
</filter>
<filter id="filter11_f_725_4" x="134.129" y="67.25" width="99" height="98.998" filterUnits="userSpaceOnUse" color-interpolation-filters="sRGB">
<feFlood flood-opacity="0" result="BackgroundImageFix"/>
<feBlend mode="normal" in="SourceGraphic" in2="BackgroundImageFix" result="shape"/>
<feGaussianBlur stdDeviation="11.5" result="effect1_foregroundBlur_725_4"/>
</filter>
<linearGradient id="paint0_linear_725_4" x1="88.3299" y1="62.273" x2="184.16" y2="158.103" gradientUnits="userSpaceOnUse">
<stop stop-color="#5F98FF"/>
<stop offset="1" stop-color="white"/>
</linearGradient>
<linearGradient id="paint1_linear_725_4" x1="41.3207" y1="142.195" x2="232.98" y2="142.195" gradientUnits="userSpaceOnUse">
<stop stop-color="#5F98FF"/>
<stop offset="1" stop-color="white"/>
</linearGradient>
<linearGradient id="paint2_linear_725_4" x1="184.076" y1="156.292" x2="88.2466" y2="60.4627" gradientUnits="userSpaceOnUse">
<stop stop-color="#703EFF"/>
<stop offset="1" stop-color="#60D2F5"/>
</linearGradient>
<linearGradient id="paint3_linear_725_4" x1="232.93" y1="142.206" x2="424.589" y2="142.206" gradientUnits="userSpaceOnUse">
<stop stop-color="#5F98FF"/>
<stop offset="1" stop-color="white"/>
</linearGradient>
</defs>
</svg>
