<svg width="50" height="135" viewBox="0 0 50 135" fill="none" xmlns="http://www.w3.org/2000/svg">
<line x1="24.8437" y1="65.6826" x2="24.8437" y2="132.379" stroke="white" stroke-width="4" stroke-linecap="round" stroke-dasharray="10 14"/>
<g clip-path="url(#clip0_707_32)">
<path d="M45.2841 13.0325C45.2589 11.7057 45.2348 10.4523 45.2348 9.23969C45.2348 8.28971 44.4649 7.51954 43.5146 7.51954C36.1581 7.51954 30.5571 5.40535 25.8883 0.865969C25.2204 0.216437 24.1576 0.216667 23.49 0.865969C18.8217 5.40535 13.2215 7.51954 5.86546 7.51954C4.91547 7.51954 4.1453 8.28971 4.1453 9.23969C4.1453 10.4525 4.12145 11.7064 4.09599 13.0334C3.86021 25.381 3.53728 42.2915 24.1257 49.4278C24.3083 49.4911 24.4987 49.5228 24.689 49.5228C24.8794 49.5228 25.07 49.4911 25.2523 49.4278C45.8424 42.2913 45.5199 25.3803 45.2841 13.0325ZM24.6892 45.9772C7.03195 39.5629 7.29892 25.5115 7.53584 13.099C7.55006 12.3541 7.56383 11.6321 7.57346 10.9243C14.4633 10.6335 19.9728 8.54567 24.6892 4.43702C29.4061 8.54567 34.9166 10.6337 41.8069 10.9243C41.8165 11.6319 41.8303 12.3534 41.8445 13.0979C42.0812 25.5108 42.3479 39.5626 24.6892 45.9772Z" fill="white"/>
<path d="M30.6136 18.9754L22.3112 27.2773L18.7684 23.7345C18.0966 23.063 17.0074 23.063 16.3359 23.7345C15.6641 24.4065 15.6641 25.4955 16.3359 26.1673L21.095 30.9264C21.4307 31.2621 21.8711 31.43 22.3112 31.43C22.7514 31.43 23.1917 31.2621 23.5275 30.9264L33.0459 21.4082C33.7179 20.7364 33.7179 19.6472 33.0462 18.9756C32.3746 18.3038 31.2854 18.3036 30.6136 18.9754Z" fill="white"/>
</g>
<defs>
<clipPath id="clip0_707_32">
<rect width="49.1437" height="49.1437" fill="white" transform="translate(0.117188 0.378906)"/>
</clipPath>
</defs>
</svg>
