<svg width="54" height="135" viewBox="0 0 54 135" fill="none" xmlns="http://www.w3.org/2000/svg">
<line x1="26.6992" y1="65.165" x2="26.6992" y2="132.466" stroke="white" stroke-width="4" stroke-linecap="round" stroke-dasharray="10 14"/>
<g clip-path="url(#clip0_707_20)">
<path d="M44.3406 43.1147H9.67616C7.14986 43.1147 4.76075 42.1349 2.94895 40.3558C1.12288 38.5628 0.117188 36.185 0.117188 33.6607C0.117188 31.1364 1.12288 28.7587 2.94895 26.9657C4.37902 25.5614 6.16875 24.6552 8.10176 24.3356C8.10092 24.2929 8.1005 24.25 8.1005 24.2068C8.1005 17.2563 13.7552 11.6016 20.7057 11.6016C23.2833 11.6016 25.7603 12.3775 27.8691 13.8456C29.3536 14.879 30.586 16.2031 31.5022 17.7367C32.9811 16.8194 34.6869 16.3285 36.4623 16.3285C41.1773 16.3285 45.0971 19.7977 45.8029 24.3177C47.7788 24.6202 49.6101 25.5342 51.0679 26.9657C52.8938 28.7587 53.8995 31.1363 53.8995 33.6607C53.8995 36.1851 52.8938 38.5628 51.0679 40.3558C49.256 42.1349 46.8669 43.1147 44.3406 43.1147ZM9.67616 27.3581C6.14291 27.3581 3.2685 30.1855 3.2685 33.6607C3.2685 37.136 6.14291 39.9633 9.67616 39.9633H44.3406C47.8738 39.9633 50.7482 37.136 50.7482 33.6607C50.7482 30.1855 47.8738 27.3581 44.3406 27.3581H42.7649V25.7825C42.7649 22.3072 39.9375 19.4798 36.4623 19.4798C34.8062 19.4798 33.2395 20.1227 32.051 21.2901L30.3549 22.9558L29.4815 20.7448C28.0436 17.1049 24.5989 14.7529 20.7057 14.7529C15.4928 14.7529 11.2518 18.9939 11.2518 24.2068C11.2518 24.5791 11.3102 24.9788 11.372 25.402L11.6542 27.3581H9.67616Z" fill="white"/>
</g>
<defs>
<clipPath id="clip0_707_20">
<rect width="53.7823" height="53.7823" fill="white" transform="translate(0.117188 0.466797)"/>
</clipPath>
</defs>
</svg>
