<svg width="52" height="135" viewBox="0 0 52 135" fill="none" xmlns="http://www.w3.org/2000/svg">
<line x1="31.6641" y1="65.165" x2="31.6641" y2="132.467" stroke="white" stroke-width="4" stroke-linecap="round" stroke-dasharray="10 14"/>
<g clip-path="url(#clip0_707_26)">
<path d="M16.7659 33.8736H16.7682C16.7702 33.8736 16.7722 33.8732 16.7742 33.8732H44.2214C44.8972 33.8732 45.4913 33.425 45.677 32.7753L51.7325 11.581C51.863 11.1241 51.7715 10.6329 51.4857 10.2536C51.1995 9.87434 50.752 9.65121 50.2769 9.65121H13.2745L12.1923 4.78118C12.0382 4.0885 11.4239 3.5957 10.7143 3.5957H1.63106C0.794883 3.5957 0.117188 4.2734 0.117188 5.10958C0.117188 5.94576 0.794883 6.62345 1.63106 6.62345H9.50006C9.69166 7.48644 14.6788 29.9289 14.9658 31.22C13.3569 31.9194 12.2282 33.5235 12.2282 35.3871C12.2282 37.8913 14.2656 39.9287 16.7698 39.9287H44.2214C45.0576 39.9287 45.7353 39.251 45.7353 38.4148C45.7353 37.5787 45.0576 36.901 44.2214 36.901H16.7698C15.9352 36.901 15.2559 36.2217 15.2559 35.3871C15.2559 34.5537 15.9329 33.8756 16.7659 33.8736ZM48.2699 12.679L43.0793 30.8455H17.9841L13.9471 12.679H48.2699Z" fill="white"/>
<path d="M15.2578 44.4703C15.2578 46.9745 17.2952 49.012 19.7994 49.012C22.3036 49.012 24.3411 46.9745 24.3411 44.4703C24.3411 41.9661 22.3036 39.9287 19.7994 39.9287C17.2952 39.9287 15.2578 41.9661 15.2578 44.4703ZM19.7994 42.9565C20.634 42.9565 21.3133 43.6357 21.3133 44.4703C21.3133 45.3049 20.634 45.9842 19.7994 45.9842C18.9648 45.9842 18.2856 45.3049 18.2856 44.4703C18.2856 43.6357 18.9648 42.9565 19.7994 42.9565Z" fill="white"/>
<path d="M36.6523 44.4703C36.6523 46.9745 38.6898 49.012 41.194 49.012C43.6982 49.012 45.7356 46.9745 45.7356 44.4703C45.7356 41.9661 43.6982 39.9287 41.194 39.9287C38.6898 39.9287 36.6523 41.9661 36.6523 44.4703ZM41.194 42.9565C42.0286 42.9565 42.7078 43.6357 42.7078 44.4703C42.7078 45.3049 42.0286 45.9842 41.194 45.9842C40.3594 45.9842 39.6801 45.3049 39.6801 44.4703C39.6801 43.6357 40.3594 42.9565 41.194 42.9565Z" fill="white"/>
</g>
<defs>
<clipPath id="clip0_707_26">
<rect width="51.6736" height="51.6736" fill="white" transform="translate(0.117188 0.466797)"/>
</clipPath>
</defs>
</svg>
