<svg width="65" height="135" viewBox="0 0 65 135" fill="none" xmlns="http://www.w3.org/2000/svg">
<line x1="32.2656" y1="68.8623" x2="32.2656" y2="132.415" stroke="white" stroke-width="4" stroke-linecap="round" stroke-dasharray="10 14"/>
<g clip-path="url(#clip0_707_5)">
<path d="M0.994638 25.455C0.183676 24.7059 0.13285 23.4408 0.881248 22.6291C4.84715 18.3275 9.55295 14.939 14.868 12.5578C20.3722 10.0921 26.244 8.8418 32.3206 8.8418C38.3972 8.8418 44.269 10.0921 49.773 12.5578C55.0881 14.939 59.794 18.3275 63.7598 22.6291C64.5081 23.4408 64.4574 24.706 63.6464 25.455C63.2623 25.8097 62.7764 25.985 62.2918 25.985C61.7535 25.985 61.2169 25.7687 60.8229 25.3415C53.4991 17.3975 43.1103 12.8414 32.3206 12.8414C21.5308 12.8414 11.142 17.3975 3.81814 25.3415C3.06975 26.1532 1.8056 26.2039 0.994638 25.455V25.455ZM51.7265 34.3941C52.4598 35.2195 53.7225 35.2936 54.5472 34.5597C55.3719 33.8257 55.446 32.5617 54.7127 31.7364C49.0282 25.3377 40.8665 21.668 32.3206 21.668C23.7745 21.668 15.6129 25.3378 9.92846 31.7364C9.19517 32.5618 9.26922 33.8259 10.0939 34.5598C10.4747 34.8985 10.9486 35.0651 11.4209 35.0651C11.9716 35.0651 12.5201 34.8385 12.9148 34.3942C17.8416 28.8484 24.9148 25.6678 32.3206 25.6678C39.7264 25.6677 46.7995 28.8483 51.7265 34.3941ZM42.5724 43.416C42.9671 43.9076 43.5463 44.1631 44.1309 44.1631C44.5702 44.1631 45.0124 44.0187 45.3814 43.7219C46.2414 43.0299 46.3783 41.7712 45.687 40.9102C42.4125 36.8327 37.5406 34.4942 32.3206 34.4942C27.1005 34.4942 22.2288 36.8327 18.9541 40.9102C18.2627 41.771 18.3995 43.0298 19.2596 43.7219C20.1198 44.4139 21.3775 44.2768 22.0688 43.416C24.581 40.2879 28.3176 38.4939 32.3206 38.4939C36.3237 38.4938 40.0603 40.2879 42.5724 43.416V43.416ZM32.3206 47.3204C34.7065 47.3204 36.6478 49.2633 36.6478 51.6514C36.6478 54.0395 34.7066 55.9823 32.3206 55.9823C29.9345 55.9823 27.9934 54.0395 27.9934 51.6514C27.9934 49.2634 29.9345 47.3204 32.3206 47.3204ZM32.3206 51.3201C32.1411 51.3201 31.9895 51.4718 31.9895 51.6514C31.9895 51.831 32.1411 51.9826 32.3206 51.9826C32.5 51.9826 32.6516 51.8309 32.6516 51.6514C32.6515 51.4719 32.5 51.3201 32.3206 51.3201Z" fill="white"/>
</g>
<defs>
<clipPath id="clip0_707_5">
<rect width="63.9379" height="63.9944" fill="white" transform="translate(0.351562 0.415039)"/>
</clipPath>
</defs>
</svg>
