<svg width="55" height="134" viewBox="0 0 55 134" fill="none" xmlns="http://www.w3.org/2000/svg">
<line x1="27.5742" y1="63.6104" x2="27.5742" y2="132" stroke="white" stroke-width="4" stroke-linecap="round" stroke-dasharray="10 14"/>
<g clip-path="url(#clip0_707_9)">
<path d="M47.8632 43.4112H38.0021C36.2033 43.4112 34.5094 42.7251 33.2321 41.4786L29.8053 38.1189C29.1458 37.4691 28.2352 37.0991 27.3016 37.0991C26.3676 37.0991 25.4569 37.4691 24.8029 38.1136L21.3735 41.4757C20.0938 42.7251 18.3999 43.4112 16.6011 43.4112H6.74C3.07651 43.4112 0 40.5082 0 36.8034V16.6449C0 12.9549 3.06276 10.0371 6.74 10.0371H47.8632C51.5267 10.0371 54.6032 12.9406 54.6032 16.6449V36.8034C54.6032 40.4939 51.5404 43.4112 47.8632 43.4112ZM27.3016 33.9624C29.0808 33.9624 30.818 34.6694 32.0682 35.9012L35.4926 39.2588C36.1628 39.9127 37.0548 40.2745 38.0021 40.2745H47.8632C49.787 40.2745 51.4038 38.7479 51.4038 36.8034V16.6449C51.4038 14.6996 49.7857 13.1738 47.8632 13.1738H6.74C4.81619 13.1738 3.1994 14.7005 3.1994 16.6449V36.8034C3.1994 38.7491 4.81744 40.2745 6.74 40.2745H16.6011C17.548 40.2745 18.4403 39.9127 19.1135 39.2555L22.5404 35.8963C23.7852 34.6694 25.5223 33.9624 27.3016 33.9624Z" fill="white"/>
<path d="M15.3064 33.3323C11.59 33.3323 8.56641 30.368 8.56641 26.7245C8.56641 23.0809 11.59 20.1162 15.3064 20.1162C19.0232 20.1162 22.0468 23.0809 22.0468 26.7245C22.0468 30.368 19.0232 33.3323 15.3064 33.3323ZM15.3064 23.2529C13.3543 23.2529 11.7658 24.8102 11.7658 26.7245C11.7658 28.6383 13.3543 30.1956 15.3064 30.1956C17.259 30.1956 18.8474 28.6383 18.8474 26.7245C18.8474 24.8102 17.259 23.2529 15.3064 23.2529Z" fill="white"/>
<path d="M39.2951 33.3323C35.5783 33.3323 32.5547 30.368 32.5547 26.7245C32.5547 23.0809 35.5783 20.1162 39.2951 20.1162C43.0115 20.1162 46.0351 23.0809 46.0351 26.7245C46.0351 30.368 43.0115 33.3323 39.2951 33.3323ZM39.2951 23.2529C37.3425 23.2529 35.7541 24.8102 35.7541 26.7245C35.7541 28.6383 37.3425 30.1956 39.2951 30.1956C41.2472 30.1956 42.8357 28.6383 42.8357 26.7245C42.8357 24.8102 41.2472 23.2529 39.2951 23.2529Z" fill="white"/>
</g>
<defs>
<clipPath id="clip0_707_9">
<rect width="54.6032" height="53.5325" fill="white"/>
</clipPath>
</defs>
</svg>
