<svg width="47" height="135" viewBox="0 0 47 135" fill="none" xmlns="http://www.w3.org/2000/svg">
<line x1="25.1055" y1="60.3418" x2="25.1055" y2="132.379" stroke="white" stroke-width="4" stroke-linecap="round" stroke-dasharray="10 14"/>
<g clip-path="url(#clip0_707_38)">
<path d="M44.4219 13.0817C45.4165 13.0817 46.2227 12.2754 46.2227 11.2808V9.38995C46.2227 4.42125 42.1803 0.378906 37.2116 0.378906C37.2116 0.378906 8.9827 0.383138 8.9131 0.391332C6.53698 0.474351 4.25451 1.49399 2.60926 3.21793C0.922866 4.98491 0.0436964 7.28314 0.126445 9.70122C0.123023 9.74705 0.121222 35.6754 0.121222 35.6754C0.121222 41.637 4.97142 46.4872 10.9331 46.4872H37.2117C42.1804 46.4872 46.2227 42.4449 46.2227 37.4762V23.8035C46.2227 18.8348 42.1804 14.7925 37.2117 14.7925H9.12533C6.23399 14.7925 3.86355 12.5326 3.72875 9.64765C3.66023 8.18068 4.18797 6.78035 5.21463 5.70453C6.25614 4.61322 7.71887 3.98743 9.22762 3.98743C9.28083 3.98743 37.2115 3.98059 37.2115 3.98059C40.1942 3.98059 42.6209 6.40722 42.6209 9.38995V11.2808C42.621 12.2754 43.4273 13.0817 44.4219 13.0817ZM9.12533 18.3941H37.2116C40.1943 18.3941 42.6209 20.8208 42.6209 23.8035V37.4762C42.6209 40.4589 40.1943 42.8856 37.2116 42.8856H10.9331C6.95739 42.8856 3.7229 39.6511 3.7229 35.6754V16.6006C5.22912 17.7288 7.10065 18.3941 9.12533 18.3941ZM39.0194 30.6399C39.0194 31.8831 38.0115 32.8909 36.7683 32.8909C33.7823 32.7723 33.7831 28.5069 36.7683 28.3888C38.0115 28.3888 39.0194 29.3966 39.0194 30.6399ZM39.0194 9.38995C39.0194 8.39534 38.2131 7.58911 37.2185 7.58911H9.12542C6.73607 7.68419 6.73787 11.0965 9.12542 11.1908H37.2185C38.213 11.1908 39.0194 10.3846 39.0194 9.38995Z" fill="white"/>
</g>
<defs>
<clipPath id="clip0_707_38">
<rect width="46.1083" height="46.1083" fill="white" transform="translate(0.117188 0.378906)"/>
</clipPath>
</defs>
</svg>
