<svg width="57" height="135" viewBox="0 0 57 135" fill="none" xmlns="http://www.w3.org/2000/svg">
<line x1="28.4883" y1="66.8125" x2="28.4883" y2="132.467" stroke="white" stroke-width="4" stroke-linecap="round" stroke-dasharray="10 14"/>
<path d="M36.712 10.5005H20.186C13.7172 10.5005 10.1523 14.0654 10.1523 20.5342V37.0602C10.1523 43.529 13.7172 47.0939 20.186 47.0939H36.712C43.1808 47.0939 46.7457 43.529 46.7457 37.0602V20.5342C46.7457 14.0654 43.1808 10.5005 36.712 10.5005ZM43.2044 37.0602C43.2044 41.612 41.2638 43.5526 36.712 43.5526H20.186C15.6343 43.5526 13.6936 41.612 13.6936 37.0602V20.5342C13.6936 15.9825 15.6343 14.0418 20.186 14.0418H36.712C41.2638 14.0418 43.2044 15.9825 43.2044 20.5342V37.0602ZM17.2349 5.18861C17.2349 4.71901 17.4215 4.26864 17.7535 3.93658C18.0856 3.60452 18.536 3.41797 19.0056 3.41797H37.8925C38.3621 3.41797 38.8124 3.60452 39.1445 3.93658C39.4766 4.26864 39.6631 4.71901 39.6631 5.18861C39.6631 5.65822 39.4766 6.10859 39.1445 6.44065C38.8124 6.77271 38.3621 6.95926 37.8925 6.95926H19.0056C18.536 6.95926 18.0856 6.77271 17.7535 6.44065C17.4215 6.10859 17.2349 5.65822 17.2349 5.18861ZM39.6631 52.4058C39.6631 52.8754 39.4766 53.3258 39.1445 53.6579C38.8124 53.9899 38.3621 54.1765 37.8925 54.1765H19.0056C18.536 54.1765 18.0856 53.9899 17.7535 53.6579C17.4215 53.3258 17.2349 52.8754 17.2349 52.4058C17.2349 51.9362 17.4215 51.4858 17.7535 51.1538C18.0856 50.8217 18.536 50.6352 19.0056 50.6352H37.8925C38.3621 50.6352 38.8124 50.8217 39.1445 51.1538C39.4766 51.4858 39.6631 51.9362 39.6631 52.4058ZM36.1218 29.9776C36.1218 30.4473 35.9353 30.8976 35.6032 31.2297C35.2711 31.5617 34.8208 31.7483 34.3512 31.7483H27.2686C26.799 31.7483 26.3486 31.5617 26.0165 31.2297C25.6845 30.8976 25.4979 30.4473 25.4979 29.9776V22.8951C25.4979 22.4255 25.6845 21.9751 26.0165 21.643C26.3486 21.311 26.799 21.1244 27.2686 21.1244C27.7382 21.1244 28.1886 21.311 28.5206 21.643C28.8527 21.9751 29.0392 22.4255 29.0392 22.8951V28.207H34.3512C34.8208 28.207 35.2711 28.3936 35.6032 28.7256C35.9353 29.0577 36.1218 29.508 36.1218 29.9776Z" fill="white"/>
</svg>
