<svg width="30" height="30" viewBox="0 0 30 30" fill="none" xmlns="http://www.w3.org/2000/svg">
<path d="M29.0625 0H0.9375C0.419766 0 0 0.419766 0 0.9375V29.0625C0 29.5802 0.419766 30 0.9375 30H29.0625C29.5803 30 30 29.5802 30 29.0625V0.9375C30 0.419766 29.5803 0 29.0625 0ZM28.125 28.125H1.875V27.1875H2.8125C3.33023 27.1875 3.75 26.7677 3.75 26.25C3.75 25.7323 3.33023 25.3125 2.8125 25.3125H1.875V24.375H2.8125C3.33023 24.375 3.75 23.9552 3.75 23.4375C3.75 22.9198 3.33023 22.5 2.8125 22.5H1.875V21.5625H2.8125C3.33023 21.5625 3.75 21.1427 3.75 20.625C3.75 20.1073 3.33023 19.6875 2.8125 19.6875H1.875V18.75H2.8125C3.33023 18.75 3.75 18.3302 3.75 17.8125C3.75 17.2948 3.33023 16.875 2.8125 16.875H1.875V7.5H2.8125C3.33023 7.5 3.75 7.08023 3.75 6.5625C3.75 6.04477 3.33023 5.625 2.8125 5.625H1.875V4.6875H2.8125C3.33023 4.6875 3.75 4.26773 3.75 3.75C3.75 3.23227 3.33023 2.8125 2.8125 2.8125H1.875V1.875H28.125V28.125Z" fill="white"/>
<path d="M14.0625 11.25C13.5448 11.25 13.125 11.6698 13.125 12.1875C13.125 12.7052 13.5448 13.125 14.0625 13.125H15.1613C15.4442 13.9228 16.0772 14.5558 16.875 14.8388V15.9375C16.875 16.4552 17.2947 16.875 17.8125 16.875C18.3303 16.875 18.75 16.4552 18.75 15.9375V15H20.625V15.9375C20.625 16.4552 21.0447 16.875 21.5625 16.875C22.0803 16.875 22.5 16.4552 22.5 15.9375V14.8388C23.2978 14.5558 23.9308 13.9228 24.2137 13.125H25.3125C25.8303 13.125 26.25 12.7052 26.25 12.1875C26.25 11.6698 25.8303 11.25 25.3125 11.25H24.375V9.43359H25.3125C25.8303 9.43359 26.25 9.01383 26.25 8.49609C26.25 7.97836 25.8303 7.55859 25.3125 7.55859H24.2336C23.9614 6.73336 23.3171 6.07611 22.5 5.78625V4.6875C22.5 4.16977 22.0803 3.75 21.5625 3.75C21.0447 3.75 20.625 4.16977 20.625 4.6875V5.625H18.75V4.6875C18.75 4.16977 18.3303 3.75 17.8125 3.75C17.2947 3.75 16.875 4.16977 16.875 4.6875V5.78625C16.0579 6.07605 15.4137 6.73336 15.1414 7.55859H14.0625C13.5448 7.55859 13.125 7.97836 13.125 8.49609C13.125 9.01383 13.5448 9.43359 14.0625 9.43359H15V11.25H14.0625ZM16.875 8.4375C16.875 7.92059 17.2956 7.5 17.8125 7.5H21.5625C22.0794 7.5 22.5 7.92059 22.5 8.4375V12.1875C22.5 12.7044 22.0794 13.125 21.5625 13.125H17.8125C17.2956 13.125 16.875 12.7044 16.875 12.1875V8.4375Z" fill="white"/>
<path d="M14.0625 20.625H25.3125C25.8303 20.625 26.25 20.2052 26.25 19.6875C26.25 19.1698 25.8303 18.75 25.3125 18.75H14.0625C13.5448 18.75 13.125 19.1698 13.125 19.6875C13.125 20.2052 13.5448 20.625 14.0625 20.625Z" fill="white"/>
<path d="M14.0625 24.375H15V25.3125C15 25.8302 15.4197 26.25 15.9375 26.25C16.4553 26.25 16.875 25.8302 16.875 25.3125V24.375H18.75V25.3125C18.75 25.8302 19.1697 26.25 19.6875 26.25C20.2053 26.25 20.625 25.8302 20.625 25.3125V24.375H22.5V25.3125C22.5 25.8302 22.9197 26.25 23.4375 26.25C23.9553 26.25 24.375 25.8302 24.375 25.3125V24.375H25.3125C25.8303 24.375 26.25 23.9552 26.25 23.4375C26.25 22.9198 25.8303 22.5 25.3125 22.5H14.0625C13.5448 22.5 13.125 22.9198 13.125 23.4375C13.125 23.9552 13.5448 24.375 14.0625 24.375Z" fill="white"/>
<path d="M6.5625 12.1875C7.08023 12.1875 7.5 11.7677 7.5 11.25V4.6875C7.5 4.16977 7.08023 3.75 6.5625 3.75C6.04477 3.75 5.625 4.16977 5.625 4.6875V11.25C5.625 11.7677 6.04477 12.1875 6.5625 12.1875Z" fill="white"/>
<path d="M10.3125 15.9375C10.8302 15.9375 11.25 15.5177 11.25 15V4.6875C11.25 4.16977 10.8302 3.75 10.3125 3.75C9.79477 3.75 9.375 4.16977 9.375 4.6875V15C9.375 15.5177 9.79477 15.9375 10.3125 15.9375Z" fill="white"/>
<path d="M6.5625 26.25H8.4375C8.95523 26.25 9.375 25.8302 9.375 25.3125C9.375 24.7948 8.95523 24.375 8.4375 24.375H6.5625C6.04477 24.375 5.625 24.7948 5.625 25.3125C5.625 25.8302 6.04477 26.25 6.5625 26.25Z" fill="white"/>
<path d="M6.5625 22.5H8.4375C8.95523 22.5 9.375 22.0802 9.375 21.5625C9.375 21.0448 8.95523 20.625 8.4375 20.625H6.5625C6.04477 20.625 5.625 21.0448 5.625 21.5625C5.625 22.0802 6.04477 22.5 6.5625 22.5Z" fill="white"/>
<path d="M6.5625 18.75H8.4375C8.95523 18.75 9.375 18.3302 9.375 17.8125C9.375 17.2948 8.95523 16.875 8.4375 16.875H6.5625C6.04477 16.875 5.625 17.2948 5.625 17.8125C5.625 18.3302 6.04477 18.75 6.5625 18.75Z" fill="white"/>
</svg>
