<svg width="30" height="31" viewBox="0 0 30 31" fill="none" xmlns="http://www.w3.org/2000/svg">
<g clip-path="url(#clip0_560_1315)">
<path d="M17.3438 11.9844H12.6562C12.009 11.9844 11.4844 12.509 11.4844 13.1562V17.8438C11.4844 18.491 12.009 19.0156 12.6562 19.0156H17.3438C17.991 19.0156 18.5156 18.491 18.5156 17.8438V13.1562C18.5156 12.509 17.991 11.9844 17.3438 11.9844ZM16.1719 16.6719H13.8281V14.3281H16.1719V16.6719Z" fill="white"/>
<path d="M26.4844 0.5H3.51562C1.57711 0.5 0 2.07711 0 4.01562V26.9844C0 28.9229 1.57711 30.5 3.51562 30.5H26.4844C28.4229 30.5 30 28.9229 30 26.9844V4.01562C30 2.07711 28.4229 0.5 26.4844 0.5ZM27.6562 26.9844C27.6562 27.6305 27.1305 28.1562 26.4844 28.1562H23.7891V23.7031C23.7891 23.0559 23.2644 22.5312 22.6172 22.5312C21.97 22.5312 21.4453 23.0559 21.4453 23.7031V28.1562H3.51562C2.86945 28.1562 2.34375 27.6305 2.34375 26.9844V4.01562C2.34375 3.36945 2.86945 2.84375 3.51562 2.84375H6.21094V7.29688C6.21094 7.9441 6.73559 8.46875 7.38281 8.46875C8.03004 8.46875 8.55469 7.9441 8.55469 7.29688V2.84375H26.4844C27.1305 2.84375 27.6562 3.36945 27.6562 4.01562V26.9844Z" fill="white"/>
</g>
<defs>
<clipPath id="clip0_560_1315">
<rect width="30" height="30" fill="white" transform="translate(0 0.5)"/>
</clipPath>
</defs>
</svg>
