<svg width="30" height="31" viewBox="0 0 30 31" fill="none" xmlns="http://www.w3.org/2000/svg">
<g clip-path="url(#clip0_560_1423)">
<path d="M26.7701 14.2816L14.999 25.8842L3.2279 14.2797C2.48997 13.5474 1.29138 13.5474 0.553448 14.2797C-0.184483 15.012 -0.184483 16.1976 0.553448 16.928L13.6618 29.8491C14.3716 30.5514 15.6247 30.5551 16.3382 29.8491L29.4466 16.9261C30.1845 16.1957 30.1845 15.0083 29.4466 14.2778C28.7066 13.5494 27.508 13.5494 26.7701 14.2816Z" fill="white"/>
<path d="M13.6618 16.7417C14.3716 17.444 15.6247 17.4477 16.3382 16.7417L29.4466 3.82059C30.1845 3.08827 30.1845 1.90275 29.4466 1.17229C28.7086 0.439965 27.51 0.439965 26.7721 1.17229L14.9991 12.7749L3.2279 1.17229C2.48997 0.439965 1.29138 0.439965 0.553448 1.17229C-0.184483 1.90462 -0.184483 3.09013 0.553448 3.82059L13.6618 16.7417Z" fill="white"/>
</g>
<defs>
<clipPath id="clip0_560_1423">
<rect width="30" height="30" fill="white" transform="translate(0 0.5)"/>
</clipPath>
</defs>
</svg>
