<svg width="30" height="30" viewBox="0 0 30 30" fill="none" xmlns="http://www.w3.org/2000/svg">
<path d="M26.7773 19.4363C25.3051 19.4363 24.0612 20.429 23.6775 21.78H20.5664V18.3491H23.7429C27.1931 18.3491 30 15.5422 30 12.092C30 9.32576 28.1653 6.89564 25.5607 6.10416C24.7734 2.95158 21.9276 0.690508 18.6318 0.690508C17.3541 0.690508 16.1302 1.01998 15.0501 1.64945C13.9062 0.60332 12.4062 0.015625 10.8302 0.015625C7.44979 0.015625 4.68686 2.71041 4.57658 6.06443C1.90113 6.81227 0 9.26189 0 12.092C0 15.5422 2.80688 18.3491 6.25705 18.3491H9.43359V21.78H6.3225C5.93889 20.429 4.69494 19.4363 3.22266 19.4363C1.44568 19.4363 0 20.882 0 22.6589C0 24.4359 1.44568 25.8816 3.22266 25.8816C4.69494 25.8816 5.93883 24.8888 6.3225 23.5379H10.3125C10.7979 23.5379 11.1914 23.1443 11.1914 22.6589V18.3491H14.1211V23.6607C12.7701 24.0443 11.7773 25.2882 11.7773 26.7605C11.7773 28.5375 13.223 29.9832 15 29.9832C16.777 29.9832 18.2227 28.5375 18.2227 26.7605C18.2227 25.2882 17.2299 24.0443 15.8789 23.6607V18.3491H18.8086V22.6589C18.8086 23.1443 19.2021 23.5379 19.6875 23.5379H23.6775C24.0611 24.8888 25.3051 25.8816 26.7773 25.8816C28.5543 25.8816 30 24.4359 30 22.6589C30 20.882 28.5543 19.4363 26.7773 19.4363ZM3.22266 24.1238C2.41494 24.1238 1.75781 23.4667 1.75781 22.6589C1.75781 21.8512 2.41494 21.1941 3.22266 21.1941C4.03037 21.1941 4.6875 21.8512 4.6875 22.6589C4.6875 23.4667 4.03037 24.1238 3.22266 24.1238ZM16.4648 26.7605C16.4648 27.5682 15.8077 28.2254 15 28.2254C14.1923 28.2254 13.5352 27.5682 13.5352 26.7605C13.5352 25.9528 14.1923 25.2957 15 25.2957C15.8077 25.2957 16.4648 25.9528 16.4648 26.7605ZM6.25705 16.5913C3.77619 16.5913 1.75781 14.5729 1.75781 12.092C1.75781 9.87467 3.41057 7.96082 5.60215 7.64031C6.06463 7.5727 6.39322 7.15492 6.3501 6.68957C6.33738 6.55229 6.33094 6.41201 6.33094 6.27262C6.33094 3.79182 8.34932 1.7735 10.8302 1.7735C12.1538 1.7735 13.402 2.34889 14.2547 3.35213C14.554 3.70434 15.075 3.76445 15.4468 3.48977C16.3686 2.80844 17.4699 2.44832 18.6317 2.44832C21.3052 2.44832 23.5286 4.40998 23.9442 6.9618C24.0029 7.32262 24.279 7.60938 24.6373 7.68191C26.7261 8.10479 28.2421 9.95945 28.2421 12.092C28.2421 14.5729 26.2238 16.5913 23.7429 16.5913H6.25705ZM26.7773 24.1238C25.9696 24.1238 25.3125 23.4667 25.3125 22.6589C25.3125 21.8512 25.9696 21.1941 26.7773 21.1941C27.5851 21.1941 28.2422 21.8512 28.2422 22.6589C28.2422 23.4667 27.5851 24.1238 26.7773 24.1238Z" fill="white"/>
</svg>
