<svg width="30" height="30" viewBox="0 0 30 30" fill="none" xmlns="http://www.w3.org/2000/svg">
<path d="M22.3252 8.34381H29.1211C30.286 8.30057 30.2851 6.62883 29.1211 6.586H22.3252C22.1698 6.1234 21.8943 5.71031 21.5292 5.38939C21.6292 5.1317 21.6896 4.85853 21.7086 4.57822H24.4141C24.6473 4.57822 24.8708 4.48559 25.0356 4.32076L26.6609 2.69537H29.1211C30.286 2.65213 30.2851 0.98039 29.1211 0.937557H26.2969C26.0637 0.937557 25.8402 1.03019 25.6754 1.19502L24.0501 2.82041H21.2247C20.8101 2.22234 20.166 1.79478 19.4205 1.6674C18.7049 -0.063634 16.3536 -0.567423 15 0.740038C13.646 -0.56795 11.2946 -0.0629895 10.5795 1.66734C9.83408 1.79473 9.19002 2.22228 8.77535 2.82035H5.94996L4.32463 1.19496C4.15986 1.03014 3.93627 0.937499 3.70318 0.937499H0.878906C-0.285996 0.980741 -0.285117 2.65248 0.878906 2.69531H3.33908L4.96441 4.3207C5.12918 4.48553 5.35277 4.57816 5.58586 4.57816H8.29143C8.31041 4.85853 8.37076 5.13164 8.47084 5.38934C8.10574 5.71025 7.83023 6.1234 7.67479 6.58594H0.878906C-0.285996 6.62918 -0.285117 8.30092 0.878906 8.34375H7.67479C7.83023 8.80629 8.10568 9.21943 8.47084 9.54035C8.37076 9.79805 8.31041 10.0712 8.29143 10.3515H5.58592C5.35277 10.3515 5.12924 10.4442 4.96447 10.609L3.33914 12.2344H0.878906C-0.285996 12.2776 -0.285117 13.9494 0.878906 13.9922H3.70313C3.93627 13.9922 4.1598 13.8996 4.32457 13.7347L5.9499 12.1093H8.77535C9.18996 12.7074 9.83402 13.1349 10.5795 13.2623C11.1114 14.5829 12.7777 15.3047 14.121 14.7439V16.5148L10.8703 19.7655H5.58592C5.10053 19.7655 4.70701 20.1591 4.70701 20.6445V23.5312H0.878906C0.393516 23.5312 0 23.9247 0 24.4101V29.1171C0 29.6025 0.393516 29.996 0.878906 29.996H10.293C10.7784 29.996 11.1719 29.6025 11.1719 29.1171V24.4101C11.1719 23.9247 10.7784 23.5312 10.293 23.5312H6.46482V21.5235H10.8704L14.3786 25.0317C14.7217 25.3749 15.2783 25.3749 15.6215 25.0317L19.1297 21.5235H23.5352V23.5313H19.7071C19.2217 23.5313 18.8282 23.9248 18.8282 24.4102V29.1172C18.8282 29.6026 19.2217 29.9961 19.7071 29.9961H29.1211C29.6065 29.9961 30 29.6026 30 29.1172V24.4102C30 23.9248 29.6065 23.5313 29.1211 23.5313H25.293V20.6446C25.293 20.1592 24.8995 19.7657 24.4141 19.7657H19.1296L15.8789 16.5149V14.744C17.2225 15.3048 18.8884 14.583 19.4205 13.2625C20.1659 13.1351 20.81 12.7075 21.2246 12.1095H24.05L25.6754 13.7348C25.8401 13.8997 26.0637 13.9923 26.2968 13.9923H29.1211C30.286 13.9491 30.2851 12.2773 29.1211 12.2345H26.6609L25.0356 10.6091C24.8708 10.4443 24.6472 10.3516 24.4141 10.3516H21.7086C21.6896 10.0713 21.6292 9.79816 21.5292 9.54047C21.8943 9.21949 22.1698 8.80635 22.3252 8.34381ZM9.41408 25.2891V28.2383H1.75781V25.2891H9.41408ZM28.2422 25.2891V28.2383H20.5859V25.2891H28.2422ZM13.1172 13.1758C12.6131 13.1758 12.1849 12.7996 12.1213 12.3008C12.0607 11.826 11.6312 11.4866 11.1553 11.5382C10.2323 11.6415 9.67869 10.5166 10.3174 9.8502C10.523 9.63334 10.6044 9.32684 10.5334 9.0365C10.4624 8.74617 10.2487 8.51185 9.96609 8.41441C9.06926 8.10504 9.06967 6.82441 9.96609 6.51527C10.2486 6.41783 10.4623 6.18351 10.5334 5.89318C10.6044 5.60285 10.523 5.29635 10.3174 5.07949C9.67834 4.41269 10.233 3.28805 11.1553 3.39146C11.6313 3.44256 12.0608 3.10371 12.1213 2.62887C12.3147 1.39599 14.0866 1.50855 14.1211 2.75777V12.1719C14.1211 12.7254 13.6707 13.1758 13.1172 13.1758ZM17.5227 20.6446L15 23.1672L12.4773 20.6446L15 18.1219L17.5227 20.6446ZM20.0339 8.41441C19.7514 8.51185 19.5377 8.74617 19.4666 9.0365C19.3956 9.32684 19.477 9.63334 19.6826 9.8502C20.3215 10.5168 19.7672 11.6416 18.8447 11.5382C18.3688 11.4866 17.9392 11.826 17.8787 12.3008C17.6853 13.5337 15.9134 13.4211 15.8789 12.1719V2.75783C15.9138 1.50803 17.6855 1.39652 17.8787 2.62892C17.9393 3.10377 18.3688 3.44256 18.8447 3.39152C19.7675 3.28822 20.3214 4.41299 19.6826 5.07955C19.477 5.29641 19.3956 5.60291 19.4666 5.89324C19.5376 6.18357 19.7513 6.41789 20.0339 6.51533C20.9307 6.82471 20.9303 8.10527 20.0339 8.41441Z" fill="white"/>
</svg>
