<svg width="30" height="31" viewBox="0 0 30 31" fill="none" xmlns="http://www.w3.org/2000/svg">
<g clip-path="url(#clip0_560_1420)">
<path d="M24.8202 10.389L29.3562 9.129C29.8239 8.9991 30.0977 8.51464 29.9678 8.04689C29.8379 7.57925 29.3535 7.30533 28.8857 7.43529L23.2471 9.0015C23.2468 9.00162 23.2465 9.00168 23.2461 9.00174L15.8789 11.0481V1.37891C15.8789 0.893516 15.4854 0.5 15 0.5C14.5146 0.5 14.1211 0.893516 14.1211 1.37891V11.5364L6.30209 13.7083C6.3018 13.7085 6.3015 13.7085 6.30127 13.7086L0.643915 15.28C0.176278 15.4099 -0.0975902 15.8944 0.0322538 16.3621C0.140301 16.7511 0.49368 17.0059 0.878642 17.0059C0.956455 17.0059 1.03567 16.9955 1.11431 16.9737L4.64084 15.9941L0.125477 23.5204C0.0435624 23.6569 0.000261503 23.8133 0.000261503 23.9726C0.000261503 27.5716 2.92837 30.4996 6.52744 30.4996C10.1266 30.4996 13.0547 27.5715 13.0547 23.9726C13.0547 23.8133 13.0114 23.6569 12.9294 23.5204L7.87504 15.0957L21.5858 11.2874L17.0705 18.8135C16.9886 18.9502 16.9452 19.1064 16.9452 19.2657C16.9452 22.8648 19.8733 25.7928 23.4724 25.7928C25.2158 25.7928 26.8549 25.1138 28.0879 23.8809C29.3207 22.6481 29.9997 21.009 29.9996 19.2656C29.9997 19.1063 29.9564 18.95 29.8745 18.8135L24.8202 10.389ZM10.6237 23.0936H2.43144L6.5275 16.2662L10.6237 23.0936ZM19.3764 18.3867L23.4725 11.5594L27.5687 18.3867H19.3764Z" fill="white"/>
</g>
<defs>
<clipPath id="clip0_560_1420">
<rect width="30" height="30" fill="white" transform="translate(0 0.5)"/>
</clipPath>
</defs>
</svg>
