<svg width="109" height="108" viewBox="0 0 109 108" fill="none" xmlns="http://www.w3.org/2000/svg">
<g opacity="0.5" filter="url(#filter0_f_354_108)">
<path d="M20.8594 54.2883C20.8594 35.6977 35.9301 20.627 54.5207 20.627H88.1821V54.2883C88.1821 72.879 73.1114 87.9497 54.5207 87.9497C35.9301 87.9497 20.8594 72.879 20.8594 54.2883Z" fill="#D226CB"/>
</g>
<path d="M8 44.2876C8 24.1192 24.3497 7.76953 44.5181 7.76953H81.0362V44.2876C81.0362 64.456 64.6865 80.8057 44.5181 80.8057C24.3497 80.8057 8 64.456 8 44.2876Z" fill="#D226CB"/>
<g clip-path="url(#clip0_354_108)">
<path d="M63.7325 54.2092C63.415 54.2092 63.1232 54.0093 63.0068 53.7145C62.8872 53.4117 62.9718 53.0557 63.2174 52.8407C63.4664 52.6228 63.8361 52.586 64.1229 52.7515C64.4095 52.917 64.5628 53.256 64.4982 53.5803C64.4264 53.9407 64.1006 54.2092 63.7325 54.2092Z" fill="white"/>
<path d="M63.4198 56.2205C63.0136 56.0749 62.5664 56.2859 62.4205 56.6919C61.9866 57.9009 61.3049 58.9969 60.4209 59.9179C59.9394 58.4901 58.7648 57.3784 57.2992 56.9848C58.2233 56.0841 58.7979 54.8265 58.7979 53.4372C58.7979 50.7045 56.5747 48.4813 53.842 48.4813C51.1093 48.4813 48.8861 50.7045 48.8861 53.4372C48.8861 54.8265 49.4607 56.0841 50.3848 56.9848C48.9187 57.3784 47.7438 58.4906 47.2627 59.9191C45.6395 58.233 44.7302 55.9988 44.7302 53.6127C44.7302 48.5881 48.8177 44.5002 53.842 44.5002C57.5727 44.5002 60.8889 46.7345 62.2902 50.1922C62.4523 50.5921 62.908 50.7849 63.3077 50.6228C63.7077 50.4608 63.9004 50.0052 63.7384 49.6054C62.9493 47.6585 61.6137 45.9988 59.876 44.8059C59.1292 44.2931 58.3284 43.8819 57.4905 43.5771V38.4919C59.6623 38.1197 61.3203 36.2234 61.3203 33.9471C61.3203 31.4045 59.2518 29.3361 56.7093 29.3361C54.433 29.3361 52.5366 30.9941 52.1645 33.1659H45.713C44.8565 28.1319 40.4637 24.2871 35.1899 24.2871C29.3041 24.2871 24.5156 29.0759 24.5156 34.9623C24.5156 38.299 26.0333 41.3823 28.6794 43.4217C28.6806 43.4227 28.6818 43.4235 28.683 43.4245C29.5628 44.1018 30.5237 44.6296 31.5408 44.9995V50.0822C29.369 50.4544 27.711 52.3507 27.711 54.627C27.711 57.1695 29.7795 59.238 32.322 59.238C34.5984 59.238 36.4947 57.58 36.8668 55.4082H43.3168C43.7588 58.0394 45.1679 60.4048 47.3315 62.0723C47.333 62.0734 47.3346 62.0746 47.3362 62.0758C49.2157 63.5225 51.4652 64.2871 53.842 64.2871C56.2197 64.2871 58.4701 63.5219 60.3501 62.0741C60.3509 62.0734 60.3516 62.0729 60.3524 62.0723C61.9774 60.8199 63.2011 59.142 63.8912 57.2198C64.037 56.8138 63.8259 56.3663 63.4198 56.2205ZM56.7092 30.8987C58.3902 30.8987 59.7577 32.2663 59.7577 33.9472C59.7577 35.6281 58.3902 36.9957 56.7092 36.9957C55.0283 36.9957 53.6607 35.6281 53.6607 33.9472C53.6607 32.2663 55.0283 30.8987 56.7092 30.8987ZM26.0781 34.9623C26.0781 29.9375 30.1657 25.8496 35.1899 25.8496C40.2141 25.8496 44.3016 29.9375 44.3016 34.9623C44.3016 37.3482 43.3923 39.5826 41.7691 41.2686C41.288 39.8402 40.1131 38.7279 38.647 38.3343C39.5711 37.4336 40.1458 36.1759 40.1458 34.7866C40.1458 32.0539 37.9226 29.8307 35.1898 29.8307C32.4571 29.8307 30.2339 32.0539 30.2339 34.7866C30.2339 36.1759 30.8086 37.4336 31.7327 38.3343C30.2666 38.7278 29.0916 39.8402 28.6105 41.2686C26.9874 39.5825 26.0781 37.3482 26.0781 34.9623ZM35.1899 38.18C33.3188 38.18 31.7965 36.6577 31.7965 34.7866C31.7965 32.9154 33.3187 31.3931 35.1899 31.3931C37.0611 31.3931 38.5834 32.9154 38.5834 34.7866C38.5834 36.6577 37.061 38.18 35.1899 38.18ZM32.9068 39.7426H37.473C39.0115 39.7426 40.2805 40.9187 40.4279 42.4191C38.8903 43.5031 37.0878 44.074 35.1899 44.074C33.292 44.074 31.4895 43.5031 29.952 42.4191C30.0993 40.9187 31.3683 39.7426 32.9068 39.7426ZM32.322 57.6755C30.641 57.6755 29.2735 56.308 29.2735 54.627C29.2735 52.9461 30.6411 51.5785 32.322 51.5785C34.003 51.5785 35.3705 52.9461 35.3705 54.627C35.3705 56.308 34.003 57.6755 32.322 57.6755ZM36.8668 53.8458C36.5381 51.928 35.021 50.4109 33.1033 50.0823V45.4345C33.7832 45.5684 34.4809 45.6365 35.1898 45.6365C37.5667 45.6365 39.8163 44.8719 41.6956 43.4252C41.6972 43.4241 41.6987 43.4229 41.7003 43.4217C44.3465 41.3823 45.8641 38.299 45.8641 34.9623C45.8641 34.8841 45.8632 34.8062 45.8615 34.7285H52.1644C52.493 36.6462 54.0102 38.1634 55.9279 38.492V43.1414C55.2463 43.0065 54.5484 42.9378 53.8419 42.9378C47.9561 42.9378 43.1677 47.7266 43.1677 53.6129C43.1677 53.6907 43.1685 53.7684 43.1702 53.8458H36.8668ZM53.842 50.0439C55.713 50.0439 57.2354 51.5662 57.2354 53.4373C57.2354 55.3085 55.7131 56.8308 53.842 56.8308C51.9708 56.8308 50.4486 55.3085 50.4486 53.4373C50.4486 51.5662 51.9709 50.0439 53.842 50.0439ZM53.842 62.7246C51.9441 62.7246 50.1416 62.1538 48.604 61.0696C48.7515 59.5692 50.0204 58.3931 51.5588 58.3931H56.1251C57.6636 58.3931 58.9325 59.5692 59.08 61.0696C57.5423 62.1538 55.7398 62.7246 53.842 62.7246Z" fill="white"/>
</g>
<defs>
<filter id="filter0_f_354_108" x="0.859375" y="0.626953" width="107.32" height="107.322" filterUnits="userSpaceOnUse" color-interpolation-filters="sRGB">
<feFlood flood-opacity="0" result="BackgroundImageFix"/>
<feBlend mode="normal" in="SourceGraphic" in2="BackgroundImageFix" result="shape"/>
<feGaussianBlur stdDeviation="10" result="effect1_foregroundBlur_354_108"/>
</filter>
<clipPath id="clip0_354_108">
<rect width="40" height="40" fill="white" transform="translate(24.5156 24.2871)"/>
</clipPath>
</defs>
</svg>
