<svg width="41" height="41" viewBox="0 0 41 41" fill="none" xmlns="http://www.w3.org/2000/svg">
<g clip-path="url(#clip0_354_111)">
<path d="M39.7325 30.2092C39.415 30.2092 39.1232 30.0093 39.0068 29.7145C38.8872 29.4117 38.9718 29.0557 39.2174 28.8407C39.4664 28.6228 39.8361 28.586 40.1229 28.7515C40.4095 28.917 40.5628 29.256 40.4982 29.5803C40.4264 29.9407 40.1006 30.2092 39.7325 30.2092Z" fill="white"/>
<path d="M39.4198 32.2205C39.0136 32.0749 38.5664 32.2859 38.4205 32.6919C37.9866 33.9009 37.3049 34.9969 36.4209 35.9179C35.9394 34.4901 34.7648 33.3784 33.2992 32.9848C34.2233 32.0841 34.7979 30.8265 34.7979 29.4372C34.7979 26.7045 32.5747 24.4813 29.842 24.4813C27.1093 24.4813 24.8861 26.7045 24.8861 29.4372C24.8861 30.8265 25.4607 32.0841 26.3848 32.9848C24.9187 33.3784 23.7438 34.4906 23.2627 35.9191C21.6395 34.233 20.7302 31.9988 20.7302 29.6127C20.7302 24.5881 24.8177 20.5002 29.842 20.5002C33.5727 20.5002 36.8889 22.7345 38.2902 26.1922C38.4523 26.5921 38.908 26.7849 39.3077 26.6228C39.7077 26.4608 39.9004 26.0052 39.7384 25.6054C38.9493 23.6585 37.6137 21.9988 35.876 20.8059C35.1292 20.2931 34.3284 19.8819 33.4905 19.5771V14.4919C35.6623 14.1197 37.3203 12.2234 37.3203 9.94711C37.3203 7.40453 35.2518 5.33609 32.7093 5.33609C30.433 5.33609 28.5366 6.99406 28.1645 9.16586H21.713C20.8565 4.13188 16.4637 0.287109 11.1899 0.287109C5.30406 0.287109 0.515625 5.07594 0.515625 10.9623C0.515625 14.299 2.03328 17.3823 4.67937 19.4217C4.68062 19.4227 4.6818 19.4235 4.68305 19.4245C5.56281 20.1018 6.52367 20.6296 7.54078 20.9995V26.0822C5.36898 26.4544 3.71102 28.3507 3.71102 30.627C3.71102 33.1695 5.77953 35.238 8.32203 35.238C10.5984 35.238 12.4947 33.58 12.8668 31.4082H19.3168C19.7588 34.0394 21.1679 36.4048 23.3315 38.0723C23.333 38.0734 23.3346 38.0746 23.3362 38.0758C25.2157 39.5225 27.4652 40.2871 29.842 40.2871C32.2197 40.2871 34.4701 39.5219 36.3501 38.0741C36.3509 38.0734 36.3516 38.0729 36.3524 38.0723C37.9774 36.8199 39.2011 35.142 39.8912 33.2198C40.037 32.8138 39.8259 32.3663 39.4198 32.2205ZM32.7092 6.89867C34.3902 6.89867 35.7577 8.26625 35.7577 9.94719C35.7577 11.6281 34.3902 12.9957 32.7092 12.9957C31.0283 12.9957 29.6607 11.6281 29.6607 9.94719C29.6607 8.26625 31.0283 6.89867 32.7092 6.89867ZM2.07812 10.9623C2.07812 5.9375 6.1657 1.84961 11.1899 1.84961C16.2141 1.84961 20.3016 5.9375 20.3016 10.9623C20.3016 13.3482 19.3923 15.5826 17.7691 17.2686C17.288 15.8402 16.1131 14.7279 14.647 14.3343C15.5711 13.4336 16.1458 12.1759 16.1458 10.7866C16.1458 8.05391 13.9226 5.8307 11.1898 5.8307C8.45711 5.8307 6.23391 8.05391 6.23391 10.7866C6.23391 12.1759 6.80859 13.4336 7.73266 14.3343C6.26656 14.7278 5.09164 15.8402 4.61055 17.2686C2.98742 15.5825 2.07812 13.3482 2.07812 10.9623ZM11.1899 14.18C9.31883 14.18 7.79648 12.6577 7.79648 10.7866C7.79648 8.91539 9.31875 7.39313 11.1899 7.39313C13.0611 7.39313 14.5834 8.91539 14.5834 10.7866C14.5834 12.6577 13.061 14.18 11.1899 14.18ZM8.9068 15.7426H13.473C15.0115 15.7426 16.2805 16.9187 16.4279 18.4191C14.8903 19.5031 13.0878 20.074 11.1899 20.074C9.29203 20.074 7.48953 19.5031 5.95195 18.4191C6.0993 16.9187 7.36828 15.7426 8.9068 15.7426ZM8.32203 33.6755C6.64102 33.6755 5.27352 32.308 5.27352 30.627C5.27352 28.9461 6.64109 27.5785 8.32203 27.5785C10.003 27.5785 11.3705 28.9461 11.3705 30.627C11.3705 32.308 10.003 33.6755 8.32203 33.6755ZM12.8668 29.8458C12.5381 27.928 11.021 26.4109 9.10328 26.0823V21.4345C9.7832 21.5684 10.4809 21.6365 11.1898 21.6365C13.5667 21.6365 15.8163 20.8719 17.6956 19.4252C17.6972 19.4241 17.6987 19.4229 17.7003 19.4217C20.3465 17.3823 21.8641 14.299 21.8641 10.9623C21.8641 10.8841 21.8632 10.8062 21.8615 10.7285H28.1644C28.493 12.6462 30.0102 14.1634 31.9279 14.492V19.1414C31.2463 19.0065 30.5484 18.9378 29.8419 18.9378C23.9561 18.9378 19.1677 23.7266 19.1677 29.6129C19.1677 29.6907 19.1685 29.7684 19.1702 29.8458H12.8668ZM29.842 26.0439C31.713 26.0439 33.2354 27.5662 33.2354 29.4373C33.2354 31.3085 31.7131 32.8308 29.842 32.8308C27.9708 32.8308 26.4486 31.3085 26.4486 29.4373C26.4486 27.5662 27.9709 26.0439 29.842 26.0439ZM29.842 38.7246C27.9441 38.7246 26.1416 38.1538 24.604 37.0696C24.7515 35.5692 26.0204 34.3931 27.5588 34.3931H32.1251C33.6636 34.3931 34.9325 35.5692 35.08 37.0696C33.5423 38.1538 31.7398 38.7246 29.842 38.7246Z" fill="white"/>
</g>
<defs>
<clipPath id="clip0_354_111">
<rect width="40" height="40" fill="white" transform="translate(0.515625 0.287109)"/>
</clipPath>
</defs>
</svg>
