<svg width="30" height="30" viewBox="0 0 30 30" fill="none" xmlns="http://www.w3.org/2000/svg">
<path d="M27.1375 6.6125L20.8875 0.3625C20.65 0.1375 20.3375 0 20 0H6.25C4.1875 0 2.5 1.6875 2.5 3.75V26.25C2.5 28.3125 4.1875 30 6.25 30H23.75C25.8125 30 27.5 28.3125 27.5 26.25V7.5C27.5 7.1625 27.3625 6.85 27.1375 6.6125ZM24.4875 7.5H20V3.0125L24.4875 7.5ZM25 26.25C25 26.9375 24.4375 27.5 23.75 27.5H6.25C5.5625 27.5 5 26.9375 5 26.25V3.75C5 3.0625 5.5625 2.5 6.25 2.5H17.5V8.75C17.5 9.4375 18.0625 10 18.75 10H25V26.25Z" fill="white"/>
<path d="M18.7492 25.0004C18.4242 25.0004 18.1117 24.8754 17.8617 24.6379C17.3742 24.1504 17.3742 23.3629 17.8617 22.8754L19.4867 21.2504L17.8742 19.6379C17.3867 19.1504 17.3867 18.3629 17.8742 17.8754C18.3617 17.3879 19.1492 17.3879 19.6367 17.8754L22.1367 20.3754C22.6242 20.8629 22.6242 21.6504 22.1367 22.1379L19.6367 24.6379C19.3867 24.8754 19.0742 25.0004 18.7492 25.0004Z" fill="white"/>
<path d="M11.2492 18.7504C10.9242 18.7504 10.6117 18.6254 10.3617 18.3879L7.86172 15.8879C7.37422 15.4004 7.37422 14.6129 7.86172 14.1254L10.3617 11.6254C10.8492 11.1379 11.6367 11.1379 12.1242 11.6254C12.6117 12.1129 12.6117 12.9004 12.1242 13.3879L10.5117 15.0004L12.1242 16.6129C12.6117 17.1004 12.6117 17.8879 12.1242 18.3754C11.8867 18.6254 11.5742 18.7504 11.2492 18.7504Z" fill="white"/>
<path d="M11.2519 26.2499C11.0269 26.2499 10.8144 26.1874 10.6144 26.0749C10.0269 25.7249 9.82685 24.9499 10.1894 24.3624L17.6894 11.8624C18.0394 11.2749 18.8144 11.0749 19.4019 11.4374C19.9894 11.7874 20.1894 12.5624 19.8269 13.1499L12.3269 25.6499C12.0894 26.0374 11.6769 26.2499 11.2519 26.2499Z" fill="white"/>
</svg>
