<svg width="140" height="141" viewBox="0 0 140 141" fill="none" xmlns="http://www.w3.org/2000/svg">
<g clip-path="url(#clip0_736_36)">
<path d="M119.498 20.6488C106.276 7.33338 88.6977 0 70 0C51.3023 0 33.7236 7.33338 20.5023 20.6488C7.28137 33.9645 0 51.6688 0 70.5C0 89.3312 7.28137 107.036 20.5026 120.351C21.4829 121.338 22.8359 121.719 24.1054 121.497C24.1073 121.497 24.1082 121.499 24.1106 121.499L57.251 115.653C58.0817 115.507 58.8473 115.106 59.4437 114.505L112.742 60.8266C114.343 59.2134 114.343 56.598 112.742 54.9848L85.4016 27.4496C83.8001 25.8363 81.203 25.8363 79.6012 27.4496L26.303 81.1284C25.7064 81.729 25.3086 82.5004 25.1631 83.3371L20.8389 108.222C12.644 97.4349 8.20312 84.3119 8.20312 70.5C8.20312 36.1816 35.925 8.26172 70 8.26172C104.075 8.26172 131.797 36.1816 131.797 70.5C131.797 104.818 104.075 132.738 70 132.738C67.7348 132.738 65.8984 134.588 65.8984 136.869C65.8984 139.15 67.7348 141 70 141C88.6977 141 106.276 133.667 119.498 120.351C132.719 107.036 140 89.3312 140 70.5C140 51.6688 132.719 33.9645 119.498 20.6488ZM31.8831 92.5902L48.064 108.886L28.4504 112.346L31.8831 92.5902ZM56.543 105.743L48.6754 97.8188L96.1729 49.982L104.041 57.9058L56.543 105.743ZM82.5013 36.2125L90.3727 44.1402L42.875 91.9769L35.0038 84.0492L82.5013 36.2125Z" fill="url(#paint0_linear_736_36)"/>
</g>
<defs>
<linearGradient id="paint0_linear_736_36" x1="70" y1="141" x2="70" y2="0" gradientUnits="userSpaceOnUse">
<stop stop-color="#5558FF"/>
<stop offset="1" stop-color="#00C0FF"/>
</linearGradient>
<clipPath id="clip0_736_36">
<rect width="140" height="141" fill="white"/>
</clipPath>
</defs>
</svg>
