<svg width="30" height="32" viewBox="0 0 30 32" fill="none" xmlns="http://www.w3.org/2000/svg">
<g clip-path="url(#clip0_560_1415)">
<path d="M20.5728 19.5221C21.3439 18.4155 21.7969 17.07 21.7969 15.6201C21.7969 11.857 18.7477 8.79544 15 8.79544C11.2523 8.79544 8.20312 11.857 8.20312 15.6201C8.20312 19.3833 11.2523 22.4447 15 22.4447C16.4591 22.4447 17.8123 21.9804 18.921 21.1917L23.356 25.6449C23.5847 25.8745 23.8847 25.9894 24.1846 25.9894C24.4844 25.9894 24.7845 25.8745 25.0131 25.6449C25.4709 25.1852 25.4709 24.4402 25.0131 23.9808L20.5728 19.5221ZM10.5469 15.6201C10.5469 13.1546 12.5446 11.1488 15 11.1488C17.4554 11.1488 19.4531 13.1546 19.4531 15.6201C19.4531 18.0855 17.4554 20.0914 15 20.0914C12.5446 20.0914 10.5469 18.0855 10.5469 15.6201ZM30 14.9729V16.1496C30 18.0961 28.423 19.6795 26.4844 19.6795H25.8941C25.7989 19.6795 25.7263 19.7156 25.6824 19.7459C25.1486 20.1137 24.4192 19.9771 24.0532 19.441C23.687 18.9053 23.8229 18.1726 24.3567 17.8051C24.8119 17.4919 25.3434 17.3262 25.8941 17.3262H26.4844C27.1305 17.3262 27.6562 16.7983 27.6562 16.1496V14.9729C27.6562 14.3241 27.1305 13.7962 26.4844 13.7962H25.8941C24.7863 13.7962 23.7955 13.1268 23.3693 12.091L23.3622 12.0738C22.934 11.0382 23.1631 9.86087 23.9463 9.07444L24.3638 8.65548C24.8206 8.19654 24.8206 7.4501 24.3638 6.99138L23.535 6.15945C23.3137 5.93722 23.0193 5.81473 22.7065 5.81473C22.3933 5.81473 22.099 5.93699 21.8779 6.15945L21.4604 6.5784C20.6772 7.36484 19.5046 7.59511 18.4733 7.16467L18.4559 7.15754C17.4245 6.72985 16.7578 5.73498 16.7578 4.62267V4.02997C16.7578 3.3812 16.2321 2.85332 15.5859 2.85332H14.4141C13.7679 2.85332 13.2422 3.3812 13.2422 4.02997V4.62267C13.2422 5.73498 12.5755 6.72985 11.5439 7.15754L11.529 7.16375C10.4951 7.59488 9.32281 7.36484 8.53958 6.5784L8.1221 6.15922C7.901 5.93699 7.60666 5.81473 7.29355 5.81473C6.98067 5.81473 6.68633 5.93699 6.465 6.15922L5.63622 6.99138C5.17937 7.4501 5.17937 8.19654 5.63622 8.65548L6.0537 9.07444C6.83693 9.86087 7.06604 11.0382 6.63757 12.074L6.63048 12.0915C6.20453 13.1268 5.2137 13.7962 4.10591 13.7962H3.51562C2.86949 13.7962 2.34375 14.3241 2.34375 14.9729V16.1496C2.34375 16.7983 2.86949 17.3262 3.51562 17.3262H4.10591C5.21347 17.3262 6.20453 17.9957 6.63048 19.0314L6.63918 19.0521C7.06604 20.0842 6.83693 21.2616 6.0537 22.048L5.63622 22.467C5.41489 22.6892 5.29312 22.9847 5.29312 23.2991C5.29312 23.6133 5.41489 23.9088 5.63622 24.1311L6.465 24.9632C6.92184 25.4219 7.66525 25.4222 8.12233 24.9632L8.53958 24.544C9.32236 23.7583 10.494 23.5278 11.5251 23.9571L11.5402 23.9633C12.5757 24.3926 13.2422 25.3877 13.2422 26.4998V27.0925C13.2422 27.7412 13.7679 28.2691 14.4141 28.2691H15.5859C16.2321 28.2691 16.7578 27.7412 16.7578 27.0925V26.4998C16.7578 25.9468 16.9228 25.413 17.235 24.9561C17.601 24.4202 18.3305 24.2837 18.8642 24.6514C19.398 25.0188 19.5339 25.7513 19.1677 26.2872C19.1375 26.3313 19.1016 26.4042 19.1016 26.4998V27.0925C19.1016 29.039 17.5246 30.6224 15.5859 30.6224H14.4141C12.4754 30.6224 10.8984 29.039 10.8984 27.0925V26.4998C10.8984 26.344 10.8007 26.2026 10.6492 26.1399L10.6279 26.1309C10.4757 26.0675 10.3065 26.0978 10.1969 26.2081L9.77943 26.6273C8.40889 28.0035 6.17844 28.0035 4.80766 26.6273L3.97888 25.7952C3.3149 25.1285 2.94937 24.2421 2.94937 23.2991C2.94937 22.3562 3.3149 21.4698 3.97911 20.8031L4.39636 20.3839C4.506 20.2738 4.53621 20.104 4.47327 19.9514L4.46365 19.9284C4.40186 19.7777 4.26109 19.6795 4.10591 19.6795H3.51562C1.577 19.6795 0 18.0961 0 16.1496V14.9729C0 13.0264 1.577 11.4429 3.51562 11.4429H4.10591C4.26109 11.4429 4.40186 11.3448 4.46434 11.1929L4.47304 11.1715C4.53644 11.0187 4.50623 10.8488 4.39636 10.7385L3.97911 10.3196C2.60834 8.94321 2.60834 6.70365 3.97911 5.32729L4.80766 4.49535C5.47188 3.82866 6.35468 3.46141 7.29355 3.46141C8.23265 3.46141 9.11545 3.82866 9.77966 4.49535L10.1969 4.91431C10.3068 5.02462 10.4759 5.05495 10.6279 4.99152L10.649 4.98256C10.8007 4.91982 10.8984 4.77849 10.8984 4.62267V4.02997C10.8984 2.08343 12.4757 0.5 14.4141 0.5H15.5859C17.5246 0.5 19.1016 2.08343 19.1016 4.02997V4.62267C19.1016 4.77849 19.1993 4.91982 19.3506 4.98256L19.3744 4.99244C19.5243 5.05495 19.6935 5.02462 19.8031 4.91431L20.2206 4.49535C20.8846 3.82843 21.7673 3.46141 22.7065 3.46141C23.6453 3.46141 24.5284 3.82843 25.1923 4.49535L26.0209 5.32729C27.3917 6.70365 27.3917 8.94321 26.0209 10.3194L25.6036 10.7385C25.4938 10.8486 25.4636 11.0185 25.5267 11.1713L25.5354 11.1924C25.5981 11.3446 25.7389 11.4429 25.8941 11.4429H26.4844C28.423 11.4429 30 13.0264 30 14.9729Z" fill="white"/>
</g>
<defs>
<clipPath id="clip0_560_1415">
<rect width="30" height="31" fill="white" transform="translate(0 0.5)"/>
</clipPath>
</defs>
</svg>
