<svg width="30" height="30" viewBox="0 0 30 30" fill="none" xmlns="http://www.w3.org/2000/svg">
<path d="M26.2509 25.3125H3.74953C2.71594 25.3125 1.875 24.472 1.875 23.4384V18.75C1.875 18.2318 2.29481 17.8125 2.8125 17.8125H27.1875C27.7057 17.8125 28.125 18.2318 28.125 18.75V23.4384C28.125 24.472 27.2845 25.3125 26.2509 25.3125ZM3.75 19.6875V23.4384L26.2519 23.4375L26.25 19.6875H3.75Z" fill="white"/>
<path d="M2.81245 19.6875C2.57255 19.6875 2.33273 19.5959 2.14964 19.4128C1.78345 19.0466 1.78345 18.4534 2.14964 18.0871L5.89917 14.3371C6.07495 14.1614 6.31345 14.0625 6.56198 14.0625H12.1879C12.7056 14.0625 13.1254 14.4818 13.1254 15C13.1254 15.5182 12.7056 15.9375 12.1879 15.9375H6.9502L3.47536 19.4128C3.29217 19.5959 3.05236 19.6875 2.81245 19.6875Z" fill="white"/>
<path d="M27.1866 19.6875C26.9467 19.6875 26.7068 19.5959 26.5237 19.4128L23.0484 15.9375H20.625C20.1068 15.9375 19.6875 15.5182 19.6875 15C19.6875 14.4818 20.1068 14.0625 20.625 14.0625H23.4366C23.6856 14.0625 23.9236 14.1614 24.0994 14.3372L27.8494 18.0872C28.2156 18.4534 28.2156 19.0466 27.8494 19.4129C27.6663 19.5959 27.4265 19.6875 27.1866 19.6875Z" fill="white"/>
<path d="M5.65303 22.5C5.13534 22.5 4.71094 22.0807 4.71094 21.5625C4.71094 21.0443 5.12616 20.625 5.64384 20.625H5.65303C6.17119 20.625 6.59053 21.0443 6.59053 21.5625C6.59053 22.0807 6.17119 22.5 5.65303 22.5Z" fill="white"/>
<path d="M11.25 22.5H8.4375C7.91981 22.5 7.5 22.0807 7.5 21.5625C7.5 21.0443 7.91981 20.625 8.4375 20.625H11.25C11.7677 20.625 12.1875 21.0443 12.1875 21.5625C12.1875 22.0807 11.7678 22.5 11.25 22.5Z" fill="white"/>
<path d="M15 15.9375C14.4823 15.9375 14.0625 15.5182 14.0625 15C14.0625 14.4818 14.4823 14.0625 15 14.0625C17.0678 14.0625 18.7495 12.3807 18.7495 10.3125C18.7495 8.24428 17.0678 6.5625 15 6.5625C12.9322 6.5625 11.25 8.24428 11.25 10.3125C11.25 10.8307 10.8302 11.25 10.3125 11.25C9.79481 11.25 9.375 10.8307 9.375 10.3125C9.375 7.21069 11.8982 4.6875 15 4.6875C18.1013 4.6875 20.6245 7.21069 20.6245 10.3125C20.6245 13.4143 18.1013 15.9375 15 15.9375Z" fill="white"/>
<path d="M10.3125 13.1251C10.0725 13.1251 9.83273 13.0335 9.64964 12.8504L7.77464 10.9754C7.40845 10.6092 7.40845 10.016 7.77464 9.64968C8.14083 9.28339 8.73408 9.28349 9.10036 9.64968L10.3125 10.8619L11.5247 9.64968C11.8909 9.28349 12.4842 9.28349 12.8505 9.64968C13.2167 10.0159 13.2166 10.6091 12.8505 10.9754L10.9755 12.8504C10.7922 13.0335 10.5524 13.1251 10.3125 13.1251Z" fill="white"/>
</svg>
