<svg width="30" height="30" viewBox="0 0 30 30" fill="none" xmlns="http://www.w3.org/2000/svg">
<g clip-path="url(#clip0_560_1356)">
<path d="M29.5129 15.971L22.9395 12.698V4.39453C22.9395 4.06113 22.7508 3.75639 22.4523 3.60773L15.3918 0.0921094C15.1451 -0.0307031 14.855 -0.0307031 14.6082 0.0921094L7.5477 3.60773C7.24922 3.75639 7.06055 4.06107 7.06055 4.39453V12.698L0.487148 15.971C0.188672 16.1197 0 16.4244 0 16.7578V25.6055C0 25.9389 0.188672 26.2436 0.487148 26.3923L7.5477 29.9079C7.67103 29.9693 7.80527 30 7.93945 30C8.07363 30 8.20787 29.9693 8.33121 29.9079L15 26.5873L21.6688 29.9079C21.7921 29.9693 21.9264 30 22.0606 30C22.1948 30 22.329 29.9693 22.4524 29.9079L29.5129 26.3923C29.8113 26.2436 30 25.9389 30 25.6055V16.7578C30 16.4244 29.8113 16.1197 29.5129 15.971ZM7.06055 27.7016L1.75781 25.0613V18.1773L7.06055 20.8177V27.7016ZM7.93945 19.2916L2.85076 16.7578L7.93945 14.224L13.0281 16.7578L7.93945 19.2916ZM14.1211 25.0613L8.81836 27.7016V20.8177L14.1211 18.1773V25.0613ZM14.1211 15.3383L8.81836 12.698V5.81402L14.1211 8.45437V15.3383ZM9.91131 4.39453L15 1.86076L20.0887 4.39453L15 6.9283L9.91131 4.39453ZM21.1816 5.81396V12.698L15.8789 15.3383V8.45437L21.1816 5.81396ZM21.1816 27.7016L15.8789 25.0613V18.1772L21.1816 20.8176V27.7016ZM22.0605 19.2916L16.9719 16.7578L22.0605 14.224L27.1492 16.7578L22.0605 19.2916ZM28.2422 25.0613L22.9395 27.7016V20.8177L28.2422 18.1773V25.0613Z" fill="white"/>
</g>
<defs>
<clipPath id="clip0_560_1356">
<rect width="30" height="30" fill="white"/>
</clipPath>
</defs>
</svg>
