<svg width="141" height="141" viewBox="0 0 141 141" fill="none" xmlns="http://www.w3.org/2000/svg">
<g clip-path="url(#clip0_736_32)">
<path fill-rule="evenodd" clip-rule="evenodd" d="M138.645 33.7612C140.033 34.4636 140.909 35.8954 140.906 37.4596C140.904 39.0248 140.024 40.4534 138.632 41.1505L113.027 53.9916L138.629 66.8005C140.023 67.4976 140.905 68.9305 140.906 70.4978C140.906 72.0663 140.026 73.4992 138.632 74.1973L113.027 87.0385L138.629 99.8474C140.022 100.543 140.903 101.973 140.906 103.538V103.547C140.906 105.109 140.031 106.537 138.645 107.239L72.7465 140.561C72.1676 140.854 71.5363 141 70.9061 141C70.2759 141 69.6447 140.854 69.0658 140.561L3.16745 107.239C1.78104 106.537 0.906254 105.109 0.906254 103.547V103.538C0.909458 101.973 1.79065 100.543 3.18347 99.8474L28.7851 87.0385L3.18027 74.1973C1.78638 73.4992 0.906254 72.0663 0.906254 70.4978C0.907322 68.9305 1.78958 67.4976 3.1824 66.8005L28.7851 53.9916L3.1792 41.1515C1.78852 40.4534 0.90839 39.0248 0.906254 37.4596C0.904118 35.8954 1.7789 34.4636 3.16745 33.7612L69.0658 0.438904C70.2236 -0.146301 71.5886 -0.146301 72.7465 0.438904L138.645 33.7612ZM70.9061 132.247L127.625 103.566L103.819 91.6556L72.7347 107.244C72.159 107.534 71.5331 107.678 70.9061 107.678C70.2802 107.678 69.6543 107.534 69.0786 107.244L37.9933 91.6556L14.1882 103.566L70.9061 132.247ZM103.815 82.4289L127.594 70.5043L103.819 58.6098L80.093 70.5075L80.9442 70.9368C82.9694 71.9566 83.7908 74.4383 82.7782 76.479C81.7667 78.5164 79.3036 79.348 77.2753 78.326L70.9061 75.1182L64.538 78.326C62.5118 79.3458 60.0477 78.5186 59.0351 76.479C58.0215 74.4383 58.8428 71.9566 60.8691 70.9368L61.7193 70.5075L37.9933 58.6098L14.2181 70.5043L37.9976 82.4289L45.4402 78.7058C47.4696 77.6903 49.9316 78.524 50.9388 80.5668C51.9492 82.6161 51.1129 85.0925 49.0899 86.1048L47.2058 87.0471L70.9061 98.9319L94.6065 87.0471L92.7223 86.1048C90.7015 85.0936 89.8619 82.6183 90.8745 80.5668C91.8817 78.524 94.3437 77.6903 96.3721 78.7058L103.815 82.4289ZM96.3721 45.6589L103.815 49.3821L127.634 37.4381L70.9061 8.75333L14.1797 37.4381L37.9976 49.3821L45.4402 45.6589C47.4696 44.6434 49.9316 45.4771 50.9388 47.5199C51.9492 49.5692 51.1129 52.0456 49.0899 53.0579L47.2058 54.0002L70.9061 65.8851L94.6065 54.0002L92.7223 53.0579C90.7015 52.0467 89.8619 49.5714 90.8745 47.5199C91.8817 45.4771 94.3437 44.6434 96.3721 45.6589ZM60.8698 37.8896L69.0729 33.7588C70.2275 33.1768 71.5862 33.1768 72.7419 33.7588L80.945 37.8896C82.9701 38.9094 83.7915 41.3912 82.7789 43.4318C81.7674 45.4693 79.3043 46.3009 77.276 45.2789L70.9068 42.071L64.5387 45.2789C62.5125 46.2987 60.0484 45.4715 59.0358 43.4318C58.0222 41.3912 58.8436 38.9094 60.8698 37.8896Z" fill="url(#paint0_linear_736_32)"/>
</g>
<defs>
<linearGradient id="paint0_linear_736_32" x1="70.9061" y1="141" x2="70.9061" y2="0" gradientUnits="userSpaceOnUse">
<stop stop-color="#5558FF"/>
<stop offset="1" stop-color="#00C0FF"/>
</linearGradient>
<clipPath id="clip0_736_32">
<rect width="140" height="141" fill="white" transform="translate(0.90625)"/>
</clipPath>
</defs>
</svg>
