<svg width="30" height="30" viewBox="0 0 30 30" fill="none" xmlns="http://www.w3.org/2000/svg">
<path d="M28.5352 16.5821H24.3164V13.9454C24.3164 13.46 23.9229 13.0665 23.4375 13.0665H17.3977C17.1429 12.3482 16.5853 11.7725 15.8789 11.4931V9.96094H20.1158C22.1028 9.96094 23.7193 8.34439 23.7193 6.35742C23.7193 4.37045 22.1028 2.75391 20.1158 2.75391C19.9014 2.75391 19.6902 2.77236 19.4829 2.80904C18.6628 1.1192 16.9285 0 15 0C13.0715 0 11.3372 1.1192 10.517 2.80904C10.3098 2.77236 10.0985 2.75391 9.88418 2.75391C7.89721 2.75391 6.28066 4.37045 6.28066 6.35742C6.28066 8.34439 7.89721 9.96094 9.88418 9.96094H14.1211V11.43C13.3319 11.6787 12.7022 12.2894 12.4266 13.0664H6.5625C6.07711 13.0664 5.68359 13.4599 5.68359 13.9453V16.582H1.46484C0.657129 16.582 0 17.2392 0 18.0469V25.0195C0 25.8272 0.657129 26.4844 1.46484 26.4844H5.625V28.2422H3.83789C3.3525 28.2422 2.95898 28.6357 2.95898 29.1211C2.95898 29.6065 3.3525 30 3.83789 30H9.16992C9.65531 30 10.0488 29.6065 10.0488 29.1211C10.0488 28.6357 9.65531 28.2422 9.16992 28.2422H7.38281V26.4844H11.6602C12.4679 26.4844 13.125 25.8272 13.125 25.0195V18.0469C13.125 17.2392 12.4679 16.582 11.6602 16.582H7.44141V14.8242H12.4266C12.7894 15.8472 13.7663 16.5821 14.9121 16.5821C16.0579 16.5821 17.0348 15.8473 17.3977 14.8242H22.5586V16.582H18.3398C17.5321 16.582 16.875 17.2392 16.875 18.0469V25.0195C16.875 25.8272 17.5321 26.4844 18.3398 26.4844H22.5V28.2422H20.7129C20.2275 28.2422 19.834 28.6357 19.834 29.1211C19.834 29.6065 20.2275 30 20.7129 30H26.0449C26.5303 30 26.9238 29.6065 26.9238 29.1211C26.9238 28.6357 26.5303 28.2422 26.0449 28.2422H24.2578V26.4844H28.5352C29.3429 26.4844 30 25.8272 30 25.0195V18.0469C30 17.2392 29.3429 16.5821 28.5352 16.5821ZM8.03848 6.35742C8.03848 5.33971 8.86647 4.51172 9.88418 4.51172C10.1591 4.51172 10.4235 4.57061 10.6699 4.6868C10.9045 4.79748 11.1762 4.79871 11.412 4.69031C11.6477 4.58186 11.8235 4.37484 11.8922 4.12459C12.275 2.73111 13.553 1.75781 15 1.75781C16.447 1.75781 17.725 2.73105 18.1078 4.12459C18.1764 4.37484 18.3523 4.58191 18.588 4.69037C18.8238 4.79883 19.0954 4.79748 19.3301 4.6868C19.5765 4.57066 19.8408 4.51172 20.1158 4.51172C21.1335 4.51172 21.9615 5.33971 21.9615 6.35742C21.9615 7.37514 21.1335 8.20312 20.1158 8.20312H9.88418C8.86647 8.20312 8.03848 7.3752 8.03848 6.35742ZM11.3672 24.7266H1.75781V18.3398H11.3672V24.7266ZM14.9121 14.8243C14.4275 14.8243 14.0332 14.43 14.0332 13.9454C14.0332 13.4607 14.4275 13.0665 14.9121 13.0665C15.3967 13.0665 15.791 13.4607 15.791 13.9454C15.791 14.43 15.3967 14.8243 14.9121 14.8243ZM28.2422 24.7266H18.6328V18.3398H28.2422V24.7266Z" fill="white"/>
</svg>
