<svg width="30" height="30" viewBox="0 0 30 30" fill="none" xmlns="http://www.w3.org/2000/svg">
<g clip-path="url(#clip0_560_1378)">
<path d="M15.026 4.05664C13.0825 4.05664 11.1792 4.759 9.66685 6.03433C8.3621 7.13455 7.38609 8.62554 6.87284 10.2856C3.03682 10.5753 0 13.9434 0 18.0419C0 22.33 3.32394 25.8185 7.40971 25.8185H15.026C15.5128 25.8185 15.9074 25.4254 15.9074 24.9406V4.93452C15.9074 4.4497 15.5128 4.05664 15.026 4.05664ZM14.1445 24.0627H7.40971C4.29602 24.0627 1.76293 21.3618 1.76293 18.0419C1.76293 14.7221 4.29602 12.0211 7.40971 12.0211C7.42934 12.0211 7.44873 12.0221 7.46818 12.0228C7.48916 12.0236 7.51014 12.0243 7.53117 12.0248C7.95222 12.0345 8.31973 11.7496 8.41282 11.3419C9.08608 8.39443 11.379 6.25164 14.1445 5.87239V24.0627Z" fill="white"/>
<path d="M25.5924 3.96484C25.1056 3.96484 24.7109 4.3579 24.7109 4.84273V9.23213C24.7109 9.71696 25.1056 10.11 25.5924 10.11C26.0792 10.11 26.4739 9.71696 26.4739 9.23213V4.84273C26.4739 4.3579 26.0792 3.96484 25.5924 3.96484Z" fill="white"/>
<path d="M29.1197 11.8652C28.6329 11.8652 28.2383 12.2583 28.2383 12.7431V17.1325C28.2383 17.6173 28.6329 18.0104 29.1197 18.0104C29.6065 18.0104 30.0012 17.6173 30.0012 17.1325V12.7431C30.0012 12.2583 29.6065 11.8652 29.1197 11.8652Z" fill="white"/>
<path d="M18.5416 18.0104C19.0284 18.0104 19.4231 17.6173 19.4231 17.1325V12.7431C19.4231 12.2583 19.0284 11.8652 18.5416 11.8652C18.0548 11.8652 17.6602 12.2583 17.6602 12.7431V17.1325C17.6602 17.6173 18.0548 18.0104 18.5416 18.0104Z" fill="white"/>
<path d="M25.5909 11.8652H22.0651C21.5783 11.8652 21.1836 12.2583 21.1836 12.7431V17.1325C21.1836 17.6173 21.5783 18.0104 22.0651 18.0104H25.5909C26.0777 18.0104 26.4724 17.6173 26.4724 17.1325V12.7431C26.4724 12.2583 26.0777 11.8652 25.5909 11.8652ZM24.7095 16.2546H22.9465V13.621H24.7095V16.2546Z" fill="white"/>
<path d="M29.1197 19.7676C28.6329 19.7676 28.2383 20.1606 28.2383 20.6455V25.0349C28.2383 25.5197 28.6329 25.9127 29.1197 25.9127C29.6065 25.9127 30.0012 25.5197 30.0012 25.0349V20.6455C30.0012 20.1606 29.6065 19.7676 29.1197 19.7676Z" fill="white"/>
<path d="M18.5416 10.11H22.0675C22.5543 10.11 22.9489 9.71696 22.9489 9.23213V4.84273C22.9489 4.3579 22.5543 3.96484 22.0675 3.96484H18.5416C18.0548 3.96484 17.6602 4.3579 17.6602 4.84273V9.23213C17.6602 9.71696 18.0548 10.11 18.5416 10.11ZM19.4231 5.72061H21.186V8.35425H19.4231V5.72061Z" fill="white"/>
<path d="M25.5924 19.7676C25.1056 19.7676 24.7109 20.1606 24.7109 20.6455V25.0349C24.7109 25.5197 25.1056 25.9127 25.5924 25.9127C26.0792 25.9127 26.4739 25.5197 26.4739 25.0349V20.6455C26.4739 20.1606 26.0792 19.7676 25.5924 19.7676Z" fill="white"/>
<path d="M22.0675 19.7676H18.5416C18.0548 19.7676 17.6602 20.1606 17.6602 20.6455V25.0349C17.6602 25.5197 18.0548 25.9127 18.5416 25.9127H22.0675C22.5543 25.9127 22.9489 25.5197 22.9489 25.0349V20.6455C22.9489 20.1606 22.5543 19.7676 22.0675 19.7676ZM21.186 24.157H19.4231V21.5233H21.186V24.157Z" fill="white"/>
</g>
<defs>
<clipPath id="clip0_560_1378">
<rect width="30" height="30" fill="white"/>
</clipPath>
</defs>
</svg>
