<svg width="30" height="32" viewBox="0 0 30 32" fill="none" xmlns="http://www.w3.org/2000/svg">
<path d="M17.4851 1.75415C16.7913 1.76419 16.2363 2.33653 16.2501 3.03311V6.77582H15.0051C14.3101 6.77206 13.7451 7.3381 13.7476 8.03594V11.795C13.7476 14.5537 16.0013 16.8166 18.7488 16.8166V20.5757C18.7488 24.0736 15.9863 26.8562 12.5038 26.8562C9.02132 26.8562 6.25133 24.0724 6.25133 20.5757V15.5565C6.26008 14.8524 5.68883 14.2788 4.98758 14.2876C4.29633 14.2926 3.74258 14.8637 3.75008 15.5565V20.5757C3.75008 25.4204 7.68008 29.3664 12.5051 29.3664C17.3301 29.3664 21.2501 25.4204 21.2501 20.5757V16.8166C23.9976 16.8166 26.2513 14.5537 26.2513 11.795V8.03594C26.2538 7.33936 25.6913 6.77331 24.9963 6.77582H23.7513V3.03311C23.7651 2.32021 23.1863 1.74034 22.4776 1.75415C21.7863 1.76795 21.2363 2.33904 21.2501 3.03311V6.77582H18.7488V3.03311C18.7626 2.32523 18.1901 1.74662 17.4851 1.75415ZM23.7501 9.28476V11.7937C23.7501 13.2057 22.6551 14.3027 21.2488 14.3027C20.4076 14.3014 19.5888 14.3027 18.7501 14.3027C17.3438 14.3027 16.2513 13.2057 16.2513 11.7937V9.28476H23.7501Z" fill="white"/>
</svg>
