<svg width="19" height="18" viewBox="0 0 19 18" fill="none" xmlns="http://www.w3.org/2000/svg">
<g clip-path="url(#clip0_772_60)">
<path d="M17.48 4.01569C17.4067 3.52568 17.1602 3.07814 16.7853 2.75422C16.4104 2.43029 15.9319 2.25141 15.4364 2.25H2.71153C2.21607 2.25141 1.73751 2.43029 1.36261 2.75422C0.987701 3.07814 0.741264 3.52568 0.667969 4.01569L9.07397 9.45506L17.48 4.01569Z" fill="white"/>
<path d="M9.37966 10.5981C9.28865 10.657 9.18259 10.6883 9.07422 10.6883C8.96585 10.6883 8.85978 10.657 8.76878 10.5981L0.636719 5.3365V13.6756C0.637314 14.2257 0.856128 14.7532 1.24515 15.1422C1.63417 15.5312 2.16162 15.75 2.71178 15.7506H15.4367C15.9868 15.75 16.5143 15.5312 16.9033 15.1422C17.2923 14.7532 17.5111 14.2257 17.5117 13.6756V5.33594L9.37966 10.5981Z" fill="white"/>
</g>
<defs>
<clipPath id="clip0_772_60">
<rect width="18" height="18" fill="white" transform="translate(0.0742188)"/>
</clipPath>
</defs>
</svg>
