<svg width="81" height="81" viewBox="0 0 81 81" fill="none" xmlns="http://www.w3.org/2000/svg">
<g clip-path="url(#clip0_1055_2026)">
<path d="M57.2448 73.3695H54.5186C49.0734 64.6223 46.9372 52.9243 44.6182 40.627C46.8639 39.1804 48.3646 36.6709 48.3646 33.8108C48.3646 29.3395 44.7181 25.7148 40.2469 25.7148C35.7757 25.7148 32.1292 29.3395 32.1292 33.8108C32.1292 36.6709 33.6299 39.1802 35.8754 40.6267C33.5564 52.9239 31.4202 64.6221 25.9751 73.3695H22.974C21.1315 73.3695 19.6406 74.8604 19.6406 76.7028C19.6406 78.5452 21.1315 80.0361 22.974 80.0361H57.2448C59.0872 80.0361 60.5781 78.5452 60.5781 76.7028C60.5781 74.8604 59.0872 73.3695 57.2448 73.3695Z" fill="#FFBC96"/>
<path d="M40.2467 0.0351562C20.9694 0.0351562 5.28906 15.7057 5.28906 34.9701C5.28906 43.7298 8.55078 52.1185 14.4785 58.5898C15.722 59.9505 17.8314 60.0417 19.1855 58.7982C20.5462 57.5547 20.6374 55.4486 19.3939 54.0911C14.599 48.8503 11.9557 42.0599 11.9557 34.9701C11.9557 19.3841 24.6478 6.70182 40.2467 6.70182C55.8457 6.70182 68.5378 19.3841 68.5378 34.9701C68.5378 42.0664 65.8945 48.8568 61.0931 54.0944C59.8496 55.4518 59.9408 57.5612 61.2982 58.8047C62.6556 60.045 64.7597 59.9597 66.0085 58.5996C71.9395 52.1283 75.2044 43.7363 75.2044 34.9701C75.2044 15.7057 59.5241 0.0351562 40.2467 0.0351562Z" fill="#FFBC96"/>
<path d="M51.5508 49.6888C52.9082 50.9291 55.0123 50.8438 56.2611 49.4837C59.946 45.457 61.9772 40.2422 61.9772 34.793C61.9772 22.8236 52.2311 13.084 40.2487 13.084C28.2695 13.084 18.5234 22.8236 18.5234 34.793C18.5234 40.2454 20.5547 45.4635 24.2396 49.4837C25.4798 50.8379 27.5892 50.929 28.9499 49.6888C30.3073 48.4453 30.3984 46.3359 29.1549 44.9785C26.5964 42.1888 25.1901 38.5723 25.1901 34.793C25.1901 26.4987 31.9447 19.7507 40.2487 19.7507C48.5527 19.7507 55.3105 26.4987 55.3105 34.793C55.3105 38.569 53.901 42.1888 51.3457 44.9785C50.1022 46.3392 50.1934 48.4453 51.5508 49.6888Z" fill="#FFBC96"/>
</g>
<defs>
<clipPath id="clip0_1055_2026">
<rect width="80" height="80" fill="white" transform="translate(0.246094 0.0351562)"/>
</clipPath>
</defs>
</svg>
