<svg width="81" height="81" viewBox="0 0 81 81" fill="none" xmlns="http://www.w3.org/2000/svg">
<g clip-path="url(#clip0_1055_2015)">
<path d="M78.4219 42.3789C79.7174 42.3789 80.7657 41.3306 80.7657 40.0352C80.7657 38.7397 79.7174 37.6914 78.4219 37.6914H66.5469V33.0039H69.0469C70.3424 33.0039 71.3907 31.9556 71.3907 30.6602C71.3907 29.3647 70.3424 28.3164 69.0469 28.3164H66.5469V23.6289H73.7344C74.0394 23.6289 74.343 23.567 74.6294 23.4486C74.9178 23.3292 75.1775 23.1567 75.3944 22.9394L80.0791 18.2547C80.9946 17.3392 80.9946 15.8559 80.0791 14.9405C79.1636 14.025 77.6804 14.025 76.7649 14.9405L72.7639 18.9414H66.5469V16.5977C66.5469 15.3022 65.4986 14.2539 64.2032 14.2539H52.4844V8.03688L56.4852 4.03609C57.4007 3.12063 57.4007 1.63734 56.4852 0.721875C55.5697 -0.193594 54.0864 -0.193594 53.171 0.721875L48.4863 5.40656C48.2688 5.62344 48.0963 5.88328 47.9771 6.17156C47.8588 6.45781 47.7969 6.76141 47.7969 7.06641V14.2539H43.1094V2.37891C43.1094 1.08344 42.0611 0.0351562 40.7657 0.0351562C39.4702 0.0351562 38.4219 1.08344 38.4219 2.37891V14.2539H33.7344V7.06641C33.7344 6.76141 33.6725 6.45781 33.5541 6.17141C33.4347 5.88297 33.2622 5.62328 33.0449 5.40641L28.3602 0.721875C27.4447 -0.193594 25.9614 -0.193594 25.046 0.721875C24.1305 1.63734 24.1305 3.12063 25.046 4.03609L29.0469 8.03688V14.2539H17.3282C16.0327 14.2539 14.9844 15.3022 14.9844 16.5977V18.9414H8.76738L4.76645 14.9406C3.85098 14.0252 2.3677 14.0252 1.45223 14.9406C0.536758 15.8561 0.536758 17.3394 1.45223 18.2548L6.13691 22.9395C6.35379 23.157 6.61363 23.3295 6.90191 23.4488C7.18832 23.567 7.49191 23.6289 7.79691 23.6289H14.9844V28.3164H7.79691C6.50145 28.3164 5.45316 29.3647 5.45316 30.6602C5.45316 31.9556 6.50145 33.0039 7.79691 33.0039H14.9844V37.6914H3.10941C1.81395 37.6914 0.765664 38.7397 0.765664 40.0352C0.765664 41.3306 1.81395 42.3789 3.10941 42.3789H14.9844V47.0664H12.4844C11.1889 47.0664 10.1407 48.1147 10.1407 49.4102C10.1407 50.7056 11.1889 51.7539 12.4844 51.7539H14.9844V56.4414H7.79691C7.49191 56.4414 7.18832 56.5033 6.90191 56.6217C6.61348 56.7411 6.35379 56.9136 6.13691 57.1309L1.45238 61.8156C0.536914 62.7311 0.536914 64.2144 1.45238 65.1298C2.36785 66.0453 3.85098 66.0455 4.7666 65.1298L8.76738 61.1289H14.9844V63.4727C14.9844 64.7681 16.0327 65.8164 17.3282 65.8164H29.0469V72.0334L25.0461 76.0342C24.1307 76.9497 24.1307 78.433 25.0461 79.3484C25.9616 80.2639 27.4447 80.2641 28.3604 79.3484L33.045 74.6638C33.2625 74.4469 33.435 74.187 33.5543 73.8988C33.6727 73.6124 33.7346 73.3088 33.7346 73.0038V65.8163H38.4221V77.6913C38.4221 78.9867 39.4704 80.035 40.7658 80.035C42.0613 80.035 43.1096 78.9867 43.1096 77.6913V65.8163H47.7971V73.0038C47.7971 73.3088 47.8589 73.6124 47.9774 73.8988C48.0968 74.1872 48.2693 74.4469 48.4866 74.6638L53.1713 79.3484C54.0868 80.2639 55.5699 80.2641 56.4855 79.3484C57.401 78.433 57.401 76.9497 56.4855 76.0342L52.4844 72.0334V65.8164H64.2032C65.4986 65.8164 66.5469 64.7681 66.5469 63.4727V61.1289H72.7639L76.7647 65.1297C77.6802 66.0452 79.1633 66.0453 80.0789 65.1297C80.9944 64.2142 80.9944 62.7309 80.0789 61.8155L75.3943 57.1308C75.1774 56.9133 74.9175 56.7408 74.6293 56.6216C74.343 56.5033 74.0394 56.4414 73.7344 56.4414H66.5469V51.7539H69.0469C70.3424 51.7539 71.3907 50.7056 71.3907 49.4102C71.3907 48.1147 70.3424 47.0664 69.0469 47.0664H66.5469V42.3789H78.4219ZM33.0477 43.0656C33.9632 43.9811 33.9632 45.4644 33.0477 46.3798C32.1322 47.2953 30.6491 47.2955 29.7335 46.3798L25.046 41.6923C24.1305 40.7769 24.1305 39.2936 25.046 38.3781L29.7335 33.6906C30.6489 32.7752 32.1322 32.7752 33.0477 33.6906C33.9632 34.6061 33.9632 36.0894 33.0477 37.0048L30.0174 40.0352L33.0477 43.0656ZM45.3846 31.2278L40.6971 49.9778C40.3838 51.2366 39.1078 51.9964 37.8544 51.683C36.5955 51.3694 35.8357 50.0969 36.1469 48.8425L40.8344 30.0925C41.1457 28.8336 42.4046 28.06 43.6771 28.3873C44.9358 28.7009 45.6958 29.9734 45.3846 31.2278ZM56.4852 41.6922L51.7977 46.3797C50.8822 47.2952 49.3991 47.2953 48.4835 46.3797C47.568 45.4642 47.568 43.9809 48.4835 43.0655L51.5139 40.0352L48.4835 37.0047C47.568 36.0892 47.568 34.6059 48.4835 33.6905C49.3989 32.775 50.8822 32.775 51.7977 33.6905L56.4852 38.378C57.4008 39.2936 57.4008 40.7767 56.4852 41.6922Z" fill="#E3FFC0"/>
</g>
<defs>
<clipPath id="clip0_1055_2015">
<rect width="80" height="80" fill="white" transform="translate(0.765625 0.0351562)"/>
</clipPath>
</defs>
</svg>
