<svg width="80" height="81" viewBox="0 0 80 81" fill="none" xmlns="http://www.w3.org/2000/svg">
<g clip-path="url(#clip0_1055_2040)">
<path d="M3.59365 15.0009C4.29237 17.7868 5.72559 20.3337 7.73978 22.3649L9.58386 24.2009L24.0484 9.61368L22.2044 7.77759C20.1887 5.74634 17.6648 4.30102 14.9023 3.59634L1.02793 0.0588356C0.763005 -0.00835191 0.482589 0.0697731 0.288932 0.263523C0.0968235 0.458836 0.0193606 0.741648 0.0859787 1.00884L3.59365 15.0009Z" fill="#55EBFF"/>
<path d="M19.9289 34.5L34.3922 19.9141L27.3548 12.9062L12.8906 27.4931L19.9289 34.5Z" fill="#55EBFF"/>
<path d="M45.2031 60.1523L59.6641 45.5678L68.3321 54.31L53.8712 68.8945L45.2031 60.1523Z" fill="#55EBFF"/>
<path d="M71.6323 57.627L57.168 72.214L61.9282 77.0151C63.8603 78.962 66.4291 80.0354 69.1606 80.0354C71.8921 80.0354 74.4609 78.962 76.393 77.0151C80.3796 72.9932 80.3796 66.4495 76.393 62.4277L71.6323 57.627Z" fill="#55EBFF"/>
<path d="M35.8432 42.9864C36.751 42.0711 38.2224 42.0711 39.1298 42.9864L47.1349 51.0594L50.6577 47.5067L46.0883 42.8988C45.1806 41.9836 45.1806 40.4997 46.0883 39.5842C46.9959 38.6691 48.4674 38.6688 49.3749 39.5842L53.9443 44.1922L57.5291 40.5769L49.5241 32.5039C48.6164 31.5888 48.6164 30.1047 49.5241 29.1894C50.4317 28.2742 51.9032 28.2739 52.8107 29.1894L60.8157 37.2625L64.4007 33.6472L59.8313 29.0392C58.9236 28.1241 58.9236 26.6402 59.8313 25.7247C60.7389 24.8095 62.2104 24.8092 63.1179 25.7247L67.6873 30.3327L71.2722 26.7173L63.2671 18.6442C62.3594 17.7291 62.3594 16.245 63.2671 15.3297C64.1749 14.4144 65.6463 14.4144 66.5537 15.3297L74.5588 23.4028L77.8463 20.082C78.8383 19.0817 79.3844 17.7516 79.3844 16.3369C79.3844 14.9222 78.838 13.5923 77.8463 12.5919L66.9331 1.58656C65.9412 0.586094 64.6224 0.0351562 63.2197 0.0351562C61.817 0.0351562 60.4981 0.585938 59.5062 1.58641L1.6006 59.9883C0.608769 60.9884 0.0625 62.3186 0.0625 63.7331C0.0625 65.1478 0.608769 66.4777 1.6006 67.4781L12.5139 78.4837C13.5057 79.4841 14.8245 80.0352 16.2273 80.0352C17.6302 80.0352 18.9489 79.4842 19.9407 78.4839L23.2335 75.1634L18.6643 70.5555C17.7567 69.6403 17.7567 68.1562 18.6643 67.2409C19.5718 66.3258 21.0433 66.3258 21.9509 67.2409L26.5201 71.8489L30.1049 68.2336L22.0999 60.1608C21.1924 59.2456 21.1924 57.7616 22.0999 56.8463C23.0075 55.9311 24.479 55.9311 25.3865 56.8463L33.3915 64.9191L36.9765 61.3037L32.4071 56.6958C31.4996 55.7806 31.4996 54.2967 32.4071 53.3813C33.3149 52.4661 34.7863 52.4658 35.6939 53.3813L40.2633 57.9892L43.8481 54.3739L35.8431 46.3009C34.9355 45.3858 34.9355 43.9017 35.8432 42.9864Z" fill="#55EBFF"/>
</g>
<defs>
<clipPath id="clip0_1055_2040">
<rect width="79.322" height="80" fill="white" transform="translate(0.0625 0.0351562)"/>
</clipPath>
</defs>
</svg>
