<svg width="81" height="81" viewBox="0 0 81 81" fill="none" xmlns="http://www.w3.org/2000/svg">
<g clip-path="url(#clip0_1055_2071)">
<path d="M63.5352 66.8086C60.9175 66.8086 58.672 68.4267 57.7428 70.7148H52.2852V75.4023H57.7428C58.672 77.6905 60.9175 79.3086 63.5352 79.3086C66.9814 79.3086 69.7852 76.5048 69.7852 73.0586C69.7852 69.6123 66.9814 66.8086 63.5352 66.8086Z" fill="#E497FF"/>
<path d="M74.4727 53.5273C73.4453 53.5273 72.4761 53.778 71.6202 54.2191L65.8169 49.383C65.3956 49.032 64.8647 48.8398 64.3164 48.8398H52.2852V53.5273H63.4678L68.5561 57.7677C68.3411 58.3988 68.2227 59.0742 68.2227 59.7773C68.2227 63.2236 71.0264 66.0273 74.4727 66.0273C77.9189 66.0273 80.7227 63.2236 80.7227 59.7773C80.7227 56.3311 77.9189 53.5273 74.4727 53.5273Z" fill="#E497FF"/>
<path d="M74.4727 33.9961C71.855 33.9961 69.6095 35.6142 68.6803 37.9023H52.2852V42.5898H68.6803C69.6095 44.878 71.855 46.4961 74.4727 46.4961C77.9189 46.4961 80.7227 43.6923 80.7227 40.2461C80.7227 36.7998 77.9189 33.9961 74.4727 33.9961Z" fill="#E497FF"/>
<path d="M65.8169 31.1091L71.6202 26.273C72.4761 26.7142 73.4453 26.9648 74.4727 26.9648C77.9189 26.9648 80.7227 24.1611 80.7227 20.7148C80.7227 17.2686 77.9189 14.4648 74.4727 14.4648C71.0264 14.4648 68.2227 17.2686 68.2227 20.7148C68.2227 21.418 68.3411 22.0934 68.5561 22.7245L63.4678 26.9648H52.2852V31.6523H64.3164C64.8647 31.6523 65.3956 31.4602 65.8169 31.1091Z" fill="#E497FF"/>
<path d="M63.5352 13.6836C66.9814 13.6836 69.7852 10.8798 69.7852 7.43359C69.7852 3.98734 66.9814 1.18359 63.5352 1.18359C60.9175 1.18359 58.672 2.80172 57.7428 5.08984H52.2852V9.77734H57.7428C58.672 12.0655 60.9175 13.6836 63.5352 13.6836Z" fill="#E497FF"/>
<path d="M24.1602 40.2461C24.1602 49.2925 31.52 56.6523 40.5664 56.6523C43.0812 56.6523 45.4653 56.0828 47.5977 55.0672V25.425C45.4653 24.4094 43.0812 23.8398 40.5664 23.8398C31.52 23.8398 24.1602 31.1997 24.1602 40.2461Z" fill="#E497FF"/>
<path d="M45.2539 0.402344H35.8789C34.5845 0.402344 33.5352 1.45172 33.5352 2.74609V5.79688C29.1372 6.69281 24.9284 8.43641 21.1795 10.9155L19.0217 8.75781C18.1064 7.8425 16.6225 7.8425 15.7072 8.75781L9.07812 15.3869C8.16281 16.302 8.16281 17.7861 9.07812 18.7014L11.2358 20.8592C8.75672 24.6081 7.01313 28.8169 6.11719 33.2148H3.06641C1.77203 33.2148 0.722656 34.2642 0.722656 35.5586V44.9336C0.722656 46.228 1.77203 47.2773 3.06641 47.2773H6.11719C7.01313 51.6753 8.75672 55.8841 11.2358 59.6331L9.07797 61.7909C8.63844 62.2305 8.39156 62.8266 8.39156 63.4481C8.39156 64.0697 8.63844 64.6656 9.07797 65.1052L15.7072 71.7344C16.6225 72.6497 18.1064 72.6497 19.0217 71.7344L21.1795 69.5767C24.9284 72.0558 29.1372 73.7992 33.5352 74.6953V77.7461C33.5352 79.0405 34.5845 80.0898 35.8789 80.0898H45.2539C46.5483 80.0898 47.5977 79.0405 47.5977 77.7461V60.1333C45.3973 60.9136 43.0309 61.3398 40.5664 61.3398C28.9353 61.3398 19.4727 51.8772 19.4727 40.2461C19.4727 28.615 28.9353 19.1523 40.5664 19.1523C43.0309 19.1523 45.3973 19.5786 47.5977 20.3589V2.74609C47.5977 1.45172 46.5483 0.402344 45.2539 0.402344Z" fill="#E497FF"/>
</g>
<defs>
<clipPath id="clip0_1055_2071">
<rect width="80" height="80" fill="white" transform="translate(0.722656 0.246094)"/>
</clipPath>
</defs>
</svg>
