<svg width="81" height="81" viewBox="0 0 81 81" fill="none" xmlns="http://www.w3.org/2000/svg">
<g clip-path="url(#clip0_1055_2056)">
<path d="M43.4511 37.6757C43.4511 36.1951 42.2463 34.9902 40.7656 34.9902C37.2079 35.1253 37.2088 40.2266 40.7656 40.3611C42.2463 40.3611 43.4511 39.1566 43.4511 37.6757Z" fill="#BEFFB4"/>
<path d="M63.8303 27.9812C55.3762 7.68922 26.1498 7.69831 17.7015 27.9812C-6.52567 32.187 -4.05866 67.0522 20.6207 67.7262C20.6203 67.7262 28.3422 67.7262 28.3422 67.7262V58.7942L23.9083 54.3603C19.1273 56.832 13.1607 53.1546 13.233 47.7475C13.233 43.6741 16.547 40.3601 20.6203 40.3601C26.0268 40.2883 29.7053 46.2545 27.233 51.0355L32.3556 56.1581C32.7965 56.5988 33.0443 57.1969 33.0443 57.8204V67.726H38.4151V44.6765C30.5965 41.9173 32.3741 30.4521 40.7663 30.2874C49.1597 30.4529 50.9346 41.9189 43.1171 44.6765V67.7262H48.488V57.8206C48.488 57.1969 48.7356 56.599 49.1767 56.1582L54.2992 51.0357C51.8275 46.2546 55.505 40.288 60.912 40.3603C64.9854 40.3603 68.2994 43.6743 68.2994 47.7477C68.3712 53.1541 62.4051 56.8327 57.624 54.3603L53.1902 58.7942V67.726H60.912C85.5965 67.0515 88.0505 32.1819 63.8303 27.9812Z" fill="#BEFFB4"/>
<path d="M63.5954 47.748C63.5954 46.2673 62.3906 45.0625 60.91 45.0625C57.3525 45.1974 57.3533 50.2989 60.91 50.4333C62.3906 50.4333 63.5954 49.2287 63.5954 47.748Z" fill="#BEFFB4"/>
<path d="M17.9336 47.748C17.9336 49.2287 19.1384 50.4333 20.6191 50.4333C24.1767 50.2984 24.1756 45.197 20.6191 45.0625C19.1383 45.0625 17.9336 46.2673 17.9336 47.748Z" fill="#BEFFB4"/>
</g>
<defs>
<clipPath id="clip0_1055_2056">
<rect width="80" height="80" fill="white" transform="translate(0.765625 0.246094)"/>
</clipPath>
</defs>
</svg>
