<svg width="31" height="30" viewBox="0 0 31 30" fill="none" xmlns="http://www.w3.org/2000/svg">
<g clip-path="url(#clip0_560_1311)">
<path d="M27.625 22.8754C26.4792 22.8754 25.5023 23.6073 25.1393 24.626H20.5351C20.0506 24.626 19.6562 24.2333 19.6562 23.7507V22.8754H23.1719V21.1247H21.414V19.3157H24.0508C27.4755 19.3157 30.2617 16.5671 30.2617 13.1884C30.2617 9.9829 27.7536 7.34459 24.5719 7.08245C23.4106 2.93898 19.6015 0 15.2617 0C10.9219 0 7.11284 2.93898 5.95149 7.08245C2.76981 7.34459 0.261719 9.9829 0.261719 13.1884C0.261719 16.5671 3.0479 19.3157 6.47266 19.3157H9.10938V21.1247H7.35156V22.8754H10.8672V23.7507C10.8672 24.2333 10.4728 24.626 9.98828 24.626H5.3841C5.02109 23.6073 4.04422 22.8754 2.89844 22.8754C1.44458 22.8754 0.261719 24.0534 0.261719 25.5014C0.261719 26.9493 1.44458 28.1274 2.89844 28.1274C4.04422 28.1274 5.02109 27.3954 5.3841 26.3767H9.98828C11.4421 26.3767 12.625 25.1987 12.625 23.7507V22.8754H14.3828V24.7765C13.3597 25.138 12.625 26.1109 12.625 27.252C12.625 28.7 13.8078 29.878 15.2617 29.878C16.7156 29.878 17.8984 28.7 17.8984 27.252C17.8984 26.1109 17.1637 25.138 16.1406 24.7765V22.8754H17.8984V23.7507C17.8984 25.1987 19.0813 26.3767 20.5351 26.3767H25.1393C25.5023 27.3954 26.4792 28.1274 27.625 28.1274C29.0788 28.1274 30.2617 26.9493 30.2617 25.5014C30.2617 24.0534 29.0788 22.8754 27.625 22.8754ZM2.89844 26.3767C2.4139 26.3767 2.01953 25.984 2.01953 25.5014C2.01953 25.0188 2.4139 24.626 2.89844 24.626C3.38298 24.626 3.77734 25.0188 3.77734 25.5014C3.77734 25.984 3.38298 26.3767 2.89844 26.3767ZM15.2617 28.1274C14.7772 28.1274 14.3828 27.7346 14.3828 27.252C14.3828 26.7695 14.7772 26.3767 15.2617 26.3767C15.7462 26.3767 16.1406 26.7695 16.1406 27.252C16.1406 27.7346 15.7462 28.1274 15.2617 28.1274ZM19.6562 21.1247H10.8672V12.313H19.6562V21.1247ZM6.47266 17.565C4.01721 17.565 2.01953 15.6017 2.01953 13.1884C2.01953 10.775 4.01721 8.81169 6.47266 8.81169C6.57153 8.81169 6.55528 8.81192 7.36163 8.83836L7.50926 8.11302C8.25931 4.42636 11.5197 1.75067 15.2617 1.75067C19.0037 1.75067 22.2641 4.42636 23.0142 8.11302L23.1618 8.83859C23.967 8.81192 23.9519 8.81169 24.0508 8.81169C26.5062 8.81169 28.5039 10.775 28.5039 13.1884C28.5039 15.6017 26.5062 17.565 24.0508 17.565H21.414V15.8144H23.1719V14.0637H21.414V12.313H23.1719V10.5624H21.414V8.81169H19.6562V10.5624H17.8984V8.81169H16.1406V10.5624H14.3828V8.81169H12.625V10.5624H10.8672V8.81169H9.10938V10.5624H7.35156V12.313H9.10938V14.0637H7.35156V15.8144H9.10938V17.565H6.47266ZM27.625 26.3767C27.1404 26.3767 26.7461 25.984 26.7461 25.5014C26.7461 25.0188 27.1404 24.626 27.625 24.626C28.1095 24.626 28.5039 25.0188 28.5039 25.5014C28.5039 25.984 28.1095 26.3767 27.625 26.3767Z" fill="white"/>
<path d="M17.8984 14.0645H12.625V19.3165H17.8984V14.0645ZM16.1406 17.5658H14.3828V15.8151H16.1406V17.5658Z" fill="white"/>
</g>
<defs>
<clipPath id="clip0_560_1311">
<rect width="30" height="30" fill="white" transform="translate(0.261719)"/>
</clipPath>
</defs>
</svg>
