<svg width="30" height="30" viewBox="0 0 30 30" fill="none" xmlns="http://www.w3.org/2000/svg">
<path d="M6.29168 12.0956L4.95834 10.7678C5.12497 10.4358 5.20832 10.0624 5.20832 9.68888C5.20832 8.31957 4.08332 7.19922 2.70833 7.19922C1.33334 7.19922 0.208342 8.31963 0.208342 9.68894C0.208342 11.0582 1.33334 12.1786 2.70833 12.1786C3.08331 12.1786 3.45835 12.0956 3.74999 11.9296L4.83334 13.0085V14.6683L1.91667 17.6559C1.75003 17.8219 1.66668 18.0294 1.66668 18.2369V20.5606C0.708317 20.8925 0 21.8053 0 22.8842C0 24.2535 1.125 25.3738 2.49999 25.3738C3.87498 25.3738 4.99998 24.2535 4.99998 22.8842C4.99998 21.8053 4.29166 20.8924 3.3333 20.519V18.5688L6.29162 15.6227C6.45826 15.4567 6.54161 15.2492 6.54161 15.0417V12.6766C6.54167 12.4691 6.45832 12.2616 6.29168 12.0956ZM2.74998 10.4773C2.29165 10.4773 1.91667 10.1039 1.91667 9.64747C1.91667 9.19103 2.29165 8.8176 2.74998 8.8176C3.20831 8.8176 3.58329 9.19103 3.58329 9.64747C3.58335 10.1039 3.20831 10.4773 2.74998 10.4773ZM2.49999 23.7141C2.04166 23.7141 1.66668 23.3407 1.66668 22.8842C1.66668 22.4278 2.04166 22.0543 2.49999 22.0543C2.95832 22.0543 3.3333 22.4278 3.3333 22.8842C3.33336 23.3407 2.95832 23.7141 2.49999 23.7141Z" fill="white"/>
<path d="M10.293 0.0214844C8.91797 0.0214844 7.79297 1.14184 7.79297 2.51114C7.79297 3.59002 8.50128 4.5029 9.45965 4.83485V18.611L7.33464 20.7273C7.168 20.8932 7.08465 21.1007 7.08465 21.3082V25.0427C6.12629 25.3746 5.41797 26.2875 5.41797 27.3664C5.41797 28.7357 6.54297 29.856 7.91796 29.856C9.29295 29.856 10.4179 28.7357 10.4179 27.3664C10.4179 26.2875 9.70963 25.3746 8.75127 25.0427V21.6816L10.8763 19.5654C11.0429 19.3994 11.1263 19.192 11.1263 18.9845V4.87633C12.0846 4.54437 12.7929 3.6315 12.7929 2.55262C12.793 1.14184 11.668 0.0214844 10.293 0.0214844ZM7.91796 28.2377C7.45963 28.2377 7.08465 27.8643 7.08465 27.4079C7.08465 26.9514 7.45963 26.578 7.91796 26.578C8.37629 26.578 8.75127 26.9514 8.75127 27.4079C8.75133 27.8643 8.37629 28.2377 7.91796 28.2377ZM10.293 3.34101C9.83463 3.34101 9.45965 2.96758 9.45965 2.51114C9.45965 2.05471 9.83463 1.68128 10.293 1.68128C10.7513 1.68128 11.1263 2.05471 11.1263 2.51114C11.1263 2.96758 10.7513 3.34101 10.293 3.34101Z" fill="white"/>
<path d="M15.5403 24.9998V16.1615C16.4987 15.8295 17.207 14.8751 17.207 13.7963C17.207 12.427 16.082 11.3066 14.707 11.3066C13.332 11.3066 12.207 12.427 12.207 13.7963C12.207 14.8752 12.9153 15.7881 13.8737 16.12V25.0413C12.9154 25.3733 12.207 26.2861 12.207 27.365C12.207 28.7343 13.332 29.8547 14.707 29.8547C16.082 29.8547 17.207 28.7343 17.207 27.365C17.207 26.2861 16.4986 25.3733 15.5403 24.9998ZM14.707 12.9664C15.1654 12.9664 15.5403 13.3398 15.5403 13.7962C15.5403 14.2527 15.1654 14.6261 14.707 14.6261C14.2487 14.6261 13.8737 14.2527 13.8737 13.7962C13.8737 13.3398 14.2487 12.9664 14.707 12.9664ZM14.707 28.2364C14.2487 28.2364 13.8737 27.8629 13.8737 27.4065C13.8737 26.95 14.2487 26.5766 14.707 26.5766C15.1654 26.5766 15.5403 26.95 15.5403 27.4065C15.5403 27.8629 15.1654 28.2364 14.707 28.2364Z" fill="white"/>
<path d="M28.332 20.519V18.1953C28.332 17.9878 28.2487 17.7803 28.082 17.6144L25.1237 14.6683V13.0085L26.2071 11.9296C26.5404 12.0955 26.8737 12.1785 27.2487 12.1785C28.6237 12.1785 29.7487 11.0582 29.7487 9.68888C29.7487 8.31957 28.6237 7.19922 27.2487 7.19922C25.8737 7.19922 24.7487 8.31957 24.7487 9.68888C24.7487 10.0623 24.8321 10.4358 24.9987 10.7678L23.6654 12.0956C23.5404 12.2615 23.457 12.469 23.457 12.6765V15.0417C23.457 15.2492 23.5404 15.4567 23.707 15.6226L26.6653 18.5687V20.5189C25.707 20.8509 24.9987 21.7637 24.9987 22.8426C24.9987 24.2119 26.1237 25.3323 27.4986 25.3323C28.8736 25.3323 29.9986 24.2119 29.9986 22.8426C29.9986 21.8053 29.2903 20.8925 28.332 20.519ZM27.2487 8.81754C27.707 8.81754 28.082 9.19097 28.082 9.64741C28.082 10.1038 27.707 10.4773 27.2487 10.4773C26.7903 10.4773 26.4154 10.1038 26.4154 9.64741C26.4154 9.19097 26.7903 8.81754 27.2487 8.81754ZM27.4986 23.7141C27.0403 23.7141 26.6653 23.3407 26.6653 22.8842C26.6653 22.4278 27.0403 22.0543 27.4986 22.0543C27.957 22.0543 28.332 22.4278 28.332 22.8842C28.332 23.3407 27.957 23.7141 27.4986 23.7141Z" fill="white"/>
<path d="M22.9153 25.0841V21.3497C22.9153 21.1422 22.832 20.9347 22.6653 20.7687L20.5403 18.6525V4.83485C21.4986 4.5029 22.207 3.59002 22.207 2.51114C22.207 1.14184 21.082 0.0214844 19.707 0.0214844C18.332 0.0214844 17.207 1.14184 17.207 2.51114C17.207 3.59002 17.9153 4.5029 18.8737 4.83485V18.943C18.8737 19.1505 18.9571 19.358 19.1237 19.5239L21.2487 21.6401V25.0012C20.2903 25.3332 19.582 26.246 19.582 27.3249C19.582 28.6942 20.707 29.8146 22.082 29.8146C23.457 29.8146 24.582 28.6942 24.582 27.3249C24.582 26.329 23.8737 25.4161 22.9153 25.0841ZM19.707 3.34101C19.2487 3.34101 18.8737 2.96758 18.8737 2.51114C18.8737 2.05471 19.2487 1.68128 19.707 1.68128C20.1654 1.68128 20.5403 2.05471 20.5403 2.51114C20.5403 2.96758 20.1654 3.34101 19.707 3.34101ZM22.082 28.2377C21.6237 28.2377 21.2487 27.8643 21.2487 27.4079C21.2487 26.9514 21.6237 26.578 22.082 26.578C22.5403 26.578 22.9153 26.9514 22.9153 27.4079C22.9153 27.8643 22.5403 28.2377 22.082 28.2377Z" fill="white"/>
</svg>
