<svg width="31" height="32" viewBox="0 0 31 32" fill="none" xmlns="http://www.w3.org/2000/svg">
<path fill-rule="evenodd" clip-rule="evenodd" d="M18.0742 22.1497V22.1507V27.7986C18.0742 28.1008 18.2195 28.3851 18.4633 28.562C18.7079 28.739 19.022 28.787 19.3079 28.6919L21.8242 27.8495L24.3404 28.6919C24.6264 28.787 24.9404 28.739 25.1851 28.562C25.4289 28.3851 25.5742 28.1008 25.5742 27.7986V22.1507V22.1497C26.1629 21.3628 26.5117 20.3857 26.5117 19.3267C26.5117 16.7286 24.4117 14.6201 21.8242 14.6201C19.2367 14.6201 17.1367 16.7286 17.1367 19.3267C17.1367 20.3857 17.4854 21.3628 18.0742 22.1497ZM22.7617 12.7374V5.20679C22.7617 3.64796 21.5017 2.38281 19.9492 2.38281H6.82422C5.27172 2.38281 4.01172 3.64796 4.01172 5.20679V25.916C4.01172 27.4748 5.27172 28.74 6.82422 28.74H16.1992C16.7167 28.74 17.1367 28.3182 17.1367 27.7986C17.1367 27.279 16.7167 26.8573 16.1992 26.8573H6.82422C6.30672 26.8573 5.88672 26.4356 5.88672 25.916V5.20679C5.88672 4.68718 6.30672 4.26547 6.82422 4.26547H19.9492C20.4667 4.26547 20.8867 4.68718 20.8867 5.20679V12.7374C20.8867 13.257 21.3067 13.6787 21.8242 13.6787C22.3417 13.6787 22.7617 13.257 22.7617 12.7374ZM19.9492 23.6408V26.493L21.5279 25.964C21.7201 25.9 21.9283 25.9 22.1204 25.964L23.6992 26.493V23.6408C23.1245 23.8931 22.4908 24.0333 21.8242 24.0333C21.1576 24.0333 20.5239 23.8931 19.9492 23.6408ZM11.5117 18.2093C11.3439 18.0691 11.1695 17.9599 10.9951 17.8761C10.0886 17.444 9.10984 17.6831 8.49766 18.2677C7.67172 19.0556 7.48609 20.6257 8.30734 22.2015C8.79109 23.1767 9.98828 24.1783 11.0101 24.8287C11.3167 25.0236 11.7067 25.0236 12.0133 24.8287C13.0389 24.1764 14.2408 23.1701 14.7198 22.1921C15.5373 20.6257 15.3517 19.0556 14.5258 18.2677C13.9136 17.6831 12.9348 17.444 12.0283 17.8761C11.8539 17.9599 11.6795 18.0691 11.5117 18.2093ZM10.6473 20.1626C10.7936 20.5118 11.1348 20.7387 11.5117 20.7387C11.8886 20.7387 12.2289 20.5118 12.3761 20.1626C12.6133 19.5969 12.9967 19.4058 13.2348 19.6326C13.3595 19.7512 13.3867 19.9423 13.3867 20.1504C13.3867 20.5118 13.2676 20.9222 13.0501 21.3355C13.0464 21.343 13.0426 21.3515 13.0389 21.359C12.7642 21.921 12.1333 22.4641 11.5117 22.9028C10.8901 22.4641 10.2592 21.921 9.98453 21.359C9.98078 21.3515 9.97703 21.343 9.97328 21.3355C9.75578 20.9222 9.63672 20.5118 9.63672 20.1504C9.63672 19.9423 9.66391 19.7522 9.78859 19.6326C10.0267 19.4058 10.4101 19.5969 10.6473 20.1626ZM21.8242 16.5027C23.3767 16.5027 24.6367 17.7679 24.6367 19.3267C24.6367 20.8855 23.3767 22.1507 21.8242 22.1507C20.2717 22.1507 19.0117 20.8855 19.0117 19.3267C19.0117 17.7679 20.2717 16.5027 21.8242 16.5027ZM8.69922 15.5614H16.1992C16.7167 15.5614 17.1367 15.1397 17.1367 14.6201C17.1367 14.1004 16.7167 13.6787 16.1992 13.6787H8.69922C8.18172 13.6787 7.76172 14.1004 7.76172 14.6201C7.76172 15.1397 8.18172 15.5614 8.69922 15.5614ZM8.69922 11.7961H18.0742C18.5917 11.7961 19.0117 11.3744 19.0117 10.8548C19.0117 10.3351 18.5917 9.91342 18.0742 9.91342H8.69922C8.18172 9.91342 7.76172 10.3351 7.76172 10.8548C7.76172 11.3744 8.18172 11.7961 8.69922 11.7961ZM8.69922 8.03077H18.0742C18.5917 8.03077 19.0117 7.60906 19.0117 7.08945C19.0117 6.56983 18.5917 6.14812 18.0742 6.14812H8.69922C8.18172 6.14812 7.76172 6.56983 7.76172 7.08945C7.76172 7.60906 8.18172 8.03077 8.69922 8.03077Z" fill="white"/>
</svg>
