<svg width="30" height="30" viewBox="0 0 30 30" fill="none" xmlns="http://www.w3.org/2000/svg">
<path d="M20.3376 8.87042H23.3775C23.7645 10.3006 25.0755 11.3563 26.6295 11.3563C28.4869 11.3563 29.9981 9.84848 29.9981 7.99512C29.9981 6.14176 28.4869 4.63391 26.6295 4.63391C25.0755 4.63391 23.7645 5.68964 23.3775 7.11982H20.3383C19.9138 4.30941 17.478 2.14795 14.5456 2.14795C12.4243 2.14795 10.5627 3.27918 9.53454 4.96892L6.71928 3.80063C6.9121 2.33187 6.10782 0.854836 4.67326 0.259516C3.84296 -0.0850014 2.92788 -0.0865769 2.09641 0.255256C1.26341 0.597732 0.614339 1.24353 0.268766 2.07378C-0.443355 3.78458 0.371887 5.75517 2.08616 6.46655C2.50309 6.63957 2.9413 6.72611 3.37968 6.72605C3.81431 6.72605 4.24912 6.64097 4.66307 6.47076C5.21764 6.24277 5.69 5.8797 6.04629 5.41783L8.85986 6.58542C8.74742 7.03707 8.6873 7.50921 8.6873 7.99506C8.6873 8.33287 8.71625 8.66402 8.77162 8.98631L5.56415 10.0501C5.29726 9.82187 4.99352 9.63397 4.65938 9.49567C3.82878 9.15186 2.91364 9.15116 2.08252 9.49375C0.366555 10.201 -0.453491 12.1697 0.254528 13.8822C0.598109 14.7132 1.24566 15.3606 2.07778 15.705C2.49389 15.8773 2.93116 15.9634 3.36849 15.9634C3.80417 15.9634 4.23992 15.8779 4.65463 15.707C6.29009 15.0329 7.11061 13.2131 6.57116 11.5613L9.32665 10.6473C9.8906 11.7481 10.7931 12.6483 11.8972 13.2092L11.8971 16.1061H10.9737C9.51028 16.1061 8.31976 17.2921 8.3197 18.75L8.31929 23.4626C8.31929 23.6245 8.36435 23.7833 8.44948 23.9212L10.9274 27.9348C11.6674 29.1334 13.0045 29.878 14.417 29.878H23.5609C25.9307 29.878 27.8587 27.9571 27.8587 25.5959V18.9727C27.8587 17.5145 26.6679 16.3283 25.2043 16.3283C24.764 16.3283 24.3483 16.4356 23.9824 16.6255C23.5311 15.8056 22.6563 15.2485 21.6534 15.2485C21.213 15.2485 20.7974 15.3559 20.4315 15.5457C19.9801 14.7259 19.1053 14.1688 18.1024 14.1688C17.7879 14.1688 17.4859 14.2236 17.2057 14.3242V13.2026C18.8535 12.3606 20.0516 10.7631 20.3376 8.87042ZM26.6295 6.38451C27.5177 6.38451 28.2404 7.10704 28.2404 7.99512C28.2404 8.8832 27.5178 9.60573 26.6295 9.60573C25.7412 9.60573 25.0186 8.8832 25.0186 7.99512C25.0186 7.10704 25.7413 6.38451 26.6295 6.38451ZM4.86691 3.98193C4.70139 4.37961 4.39079 4.68882 3.99231 4.85262C3.59541 5.01578 3.15861 5.01508 2.76213 4.85058C1.94097 4.50979 1.55081 3.56482 1.89245 2.74414C2.05803 2.34646 2.36863 2.03719 2.76711 1.87339C2.96474 1.79211 3.17221 1.75155 3.37974 1.75155C3.58897 1.75155 3.7982 1.79287 3.99723 1.87549C4.81845 2.21628 5.20855 3.16119 4.86691 3.98193ZM3.98253 14.0894C3.58575 14.2529 3.14889 14.2526 2.7524 14.0885C2.35433 13.9237 2.04444 13.6137 1.87986 13.2156C1.5402 12.3941 1.93265 11.4501 2.75463 11.1112C2.95267 11.0297 3.16061 10.9888 3.36861 10.9888C3.57737 10.9888 3.78613 11.03 3.98475 11.1121C4.38282 11.2769 4.69271 11.5869 4.8573 11.985C5.19695 12.8066 4.80451 13.7506 3.98253 14.0894ZM17.2057 18.6641V16.8132C17.2057 16.3203 17.608 15.9194 18.1023 15.9194C18.5967 15.9194 18.9989 16.3204 18.9989 16.8132V19.7438C18.9989 20.2272 19.3924 20.6191 19.8777 20.6191C20.3631 20.6191 20.7566 20.2272 20.7566 19.7438V17.8929C20.7566 17.4 21.1589 16.9991 21.6532 16.9991C22.1476 16.9991 22.5498 17.4001 22.5498 17.8929V21.3634C22.5498 21.8468 22.9433 22.2387 23.4287 22.2387C23.9141 22.2387 24.3076 21.8468 24.3076 21.3634V18.9727C24.3076 18.4797 24.7098 18.0788 25.2042 18.0788C25.6986 18.0788 26.1008 18.4798 26.1008 18.9727V25.5959C26.1008 26.9918 24.9614 28.1274 23.5607 28.1274H14.4169C13.6106 28.1274 12.8472 27.7022 12.4247 27.0178L10.077 23.2151L10.0774 18.75C10.0774 18.2574 10.4794 17.8566 10.9736 17.8566H11.8969V18.664L11.8972 20.5237C11.8972 20.531 11.8973 20.5383 11.8975 20.5456V20.5557H11.8978C11.9148 21.13 12.3586 21.4394 12.7763 21.4394H12.7768C13.1967 21.4392 13.6434 21.1294 13.6551 20.5552H13.6552C13.6552 20.5546 13.6552 20.5538 13.6552 20.5529C13.6553 20.5467 13.6553 20.5404 13.6553 20.534L13.6556 19.8918C13.6556 19.3691 13.6556 18.4733 13.6554 16.9812C13.6554 16.9708 13.6552 16.9605 13.6549 16.9501L13.6552 10.1726C13.6552 9.6799 14.0572 9.27907 14.5522 9.27907C15.046 9.27907 15.4478 9.67943 15.4478 10.1715L15.448 18.6641C15.448 19.1475 15.8414 19.5394 16.3269 19.5394C16.8121 19.5394 17.2056 19.1475 17.2057 18.6641ZM17.2055 11.109V10.1715C17.2054 8.71415 16.0151 7.52853 14.5514 7.52853C13.0881 7.52853 11.8975 8.71462 11.8974 10.1726V11.1195C11.0098 10.3675 10.445 9.24621 10.445 7.99518C10.445 5.73632 12.2846 3.8986 14.5457 3.8986C16.8068 3.8986 18.6463 5.73632 18.6463 7.99518C18.6463 9.24061 18.0864 10.3573 17.2055 11.109Z" fill="white"/>
</svg>
