<svg width="19" height="18" viewBox="0 0 19 18" fill="none" xmlns="http://www.w3.org/2000/svg">
<path d="M9.0736 0C5.47905 0 2.55469 2.92437 2.55469 6.51888C2.55469 10.9798 8.38848 17.5287 8.63686 17.8053C8.87016 18.0651 9.27748 18.0647 9.51035 17.8053C9.75873 17.5287 15.5925 10.9798 15.5925 6.51888C15.5925 2.92437 12.6681 0 9.0736 0ZM9.0736 9.79871C7.2651 9.79871 5.79381 8.32739 5.79381 6.51888C5.79381 4.71037 7.26513 3.23909 9.0736 3.23909C10.8821 3.23909 12.3534 4.71041 12.3534 6.51892C12.3534 8.32743 10.8821 9.79871 9.0736 9.79871Z" fill="white"/>
</svg>
