<svg width="506" height="135" viewBox="0 0 506 135" fill="none" xmlns="http://www.w3.org/2000/svg">
<path d="M134.966 77.7731C131.049 77.7731 127.57 76.9485 124.529 75.2991C121.488 73.5982 119.065 71.2788 117.261 68.3408C115.509 65.4029 114.632 62.0526 114.632 58.29C114.632 54.579 115.483 51.2802 117.184 48.3938C118.936 45.4559 121.307 43.1365 124.297 41.4356C127.286 39.6831 130.611 38.8069 134.27 38.8069C137.878 38.8069 141.048 39.6316 143.78 41.281C146.563 42.8788 148.728 45.0951 150.274 47.93C151.872 50.7133 152.671 53.8831 152.671 57.4396C152.671 58.1096 152.619 58.8055 152.516 59.5271C152.465 60.1971 152.336 60.9702 152.13 61.8465L120.74 61.9238V54.347L147.413 54.2697L143.316 57.4396C143.213 55.2232 142.8 53.3677 142.079 51.873C141.409 50.3782 140.404 49.2443 139.064 48.4712C137.775 47.6465 136.177 47.2341 134.27 47.2341C132.26 47.2341 130.507 47.698 129.013 48.6258C127.518 49.502 126.358 50.7648 125.534 52.4142C124.76 54.012 124.374 55.9191 124.374 58.1354C124.374 60.4033 124.786 62.3877 125.611 64.0886C126.487 65.7379 127.724 67.0265 129.322 67.9543C130.92 68.8305 132.775 69.2686 134.889 69.2686C136.796 69.2686 138.522 68.9594 140.069 68.3408C141.615 67.6708 142.955 66.6915 144.089 65.4029L150.042 71.3561C148.238 73.4693 146.022 75.0672 143.393 76.1495C140.816 77.2319 138.007 77.7731 134.966 77.7731ZM160.017 77V22.6483H170.532V77H160.017ZM167.748 77V67.645H195.427V77H167.748ZM218.464 77.7731C214.701 77.7731 211.299 76.9227 208.258 75.2218C205.269 73.4693 202.872 71.1241 201.068 68.1862C199.316 65.1967 198.439 61.8722 198.439 58.2127C198.439 54.5532 199.316 51.2802 201.068 48.3938C202.821 45.4559 205.217 43.1365 208.258 41.4356C211.299 39.6831 214.675 38.8069 218.386 38.8069C222.201 38.8069 225.602 39.6831 228.592 41.4356C231.633 43.1365 234.03 45.4559 235.782 48.3938C237.535 51.2802 238.411 54.5532 238.411 58.2127C238.411 61.8722 237.535 65.1967 235.782 68.1862C234.03 71.1241 231.633 73.4693 228.592 75.2218C225.602 76.9227 222.226 77.7731 218.464 77.7731ZM218.386 68.3408C220.294 68.3408 221.969 67.9285 223.412 67.1038C224.907 66.2276 226.041 65.0421 226.814 63.5474C227.638 62.0011 228.051 60.2486 228.051 58.29C228.051 56.3314 227.638 54.6047 226.814 53.11C225.989 51.6153 224.855 50.4556 223.412 49.6309C221.969 48.7546 220.294 48.3165 218.386 48.3165C216.531 48.3165 214.882 48.7546 213.438 49.6309C211.995 50.4556 210.861 51.6153 210.037 53.11C209.212 54.6047 208.8 56.3314 208.8 58.29C208.8 60.2486 209.212 62.0011 210.037 63.5474C210.861 65.0421 211.995 66.2276 213.438 67.1038C214.882 67.9285 216.531 68.3408 218.386 68.3408ZM260.548 93.5452C256.58 93.5452 253.075 92.8236 250.034 91.3804C246.993 89.9887 244.57 88.0043 242.766 85.4272L249.183 79.0102C250.627 80.7111 252.224 81.9996 253.977 82.8759C255.781 83.8036 257.946 84.2675 260.471 84.2675C263.615 84.2675 266.089 83.4686 267.893 81.8708C269.749 80.273 270.677 78.0566 270.677 75.2218V65.8668L272.378 57.6715L270.754 49.4762V39.6574H280.805V75.0672C280.805 78.7782 279.929 81.9996 278.176 84.7314C276.475 87.5147 274.104 89.6795 271.063 91.2258C268.022 92.772 264.517 93.5452 260.548 93.5452ZM260.085 75.9949C256.734 75.9949 253.719 75.196 251.039 73.5982C248.359 71.9488 246.245 69.7067 244.699 66.8719C243.204 64.037 242.457 60.8672 242.457 57.3623C242.457 53.8574 243.204 50.7133 244.699 47.93C246.245 45.1467 248.359 42.9561 251.039 41.3583C253.719 39.7089 256.734 38.8842 260.085 38.8842C262.868 38.8842 265.316 39.4254 267.429 40.5078C269.594 41.5902 271.295 43.085 272.532 44.992C273.769 46.8476 274.439 49.0381 274.542 51.5637V63.3154C274.439 65.7895 273.743 68.0058 272.455 69.9644C271.218 71.8715 269.517 73.3662 267.352 74.4486C265.239 75.4795 262.816 75.9949 260.085 75.9949ZM262.095 66.7946C263.95 66.7946 265.548 66.408 266.888 65.6349C268.28 64.8102 269.362 63.702 270.135 62.3104C270.909 60.8672 271.295 59.2436 271.295 57.4396C271.295 55.584 270.909 53.9605 270.135 52.5688C269.362 51.1771 268.28 50.0948 266.888 49.3216C265.548 48.4969 263.95 48.0846 262.095 48.0846C260.239 48.0846 258.616 48.4969 257.224 49.3216C255.832 50.0948 254.75 51.2029 253.977 52.6461C253.204 54.0378 252.817 55.6356 252.817 57.4396C252.817 59.192 253.204 60.7898 253.977 62.233C254.75 63.6247 255.832 64.7329 257.224 65.5575C258.616 66.3822 260.239 66.7946 262.095 66.7946ZM289.704 77V39.6574H299.909V77H289.704ZM294.806 33.6269C293.157 33.6269 291.791 33.0857 290.709 32.0033C289.626 30.8694 289.085 29.4777 289.085 27.8283C289.085 26.2305 289.626 24.8646 290.709 23.7307C291.791 22.5968 293.157 22.0298 294.806 22.0298C296.507 22.0298 297.873 22.5968 298.904 23.7307C299.986 24.8646 300.528 26.2305 300.528 27.8283C300.528 29.4777 299.986 30.8694 298.904 32.0033C297.873 33.0857 296.507 33.6269 294.806 33.6269ZM326.509 77.7731C322.695 77.7731 319.267 76.9227 316.226 75.2218C313.185 73.5209 310.788 71.2015 309.036 68.2635C307.283 65.3256 306.407 62.0269 306.407 58.3673C306.407 54.6563 307.283 51.3318 309.036 48.3938C310.788 45.4559 313.185 43.1365 316.226 41.4356C319.319 39.6831 322.746 38.8069 326.509 38.8069C329.447 38.8069 332.153 39.3481 334.627 40.4305C337.101 41.5129 339.24 43.0592 341.044 45.0694L334.549 51.641C333.57 50.5586 332.385 49.734 330.993 49.167C329.653 48.6 328.158 48.3165 326.509 48.3165C324.653 48.3165 322.978 48.7546 321.483 49.6309C320.04 50.4556 318.88 51.6153 318.004 53.11C317.18 54.5532 316.767 56.2799 316.767 58.29C316.767 60.2486 317.18 62.0011 318.004 63.5474C318.88 65.0421 320.04 66.2276 321.483 67.1038C322.978 67.9285 324.653 68.3408 326.509 68.3408C328.21 68.3408 329.73 68.0574 331.07 67.4904C332.462 66.8719 333.647 65.9957 334.627 64.8617L341.198 71.4334C339.291 73.4951 337.101 75.0672 334.627 76.1495C332.153 77.2319 329.447 77.7731 326.509 77.7731ZM361.469 77V23.808H372.061V77H361.469ZM344.151 32.0033V22.6483H389.379V32.0033H344.151ZM404.13 77.7731C400.213 77.7731 396.734 76.9485 393.693 75.2991C390.652 73.5982 388.229 71.2788 386.425 68.3408C384.673 65.4029 383.797 62.0526 383.797 58.29C383.797 54.579 384.647 51.2802 386.348 48.3938C388.1 45.4559 390.471 43.1365 393.461 41.4356C396.45 39.6831 399.775 38.8069 403.434 38.8069C407.042 38.8069 410.212 39.6316 412.944 41.281C415.727 42.8788 417.892 45.0951 419.438 47.93C421.036 50.7133 421.835 53.8831 421.835 57.4396C421.835 58.1096 421.783 58.8055 421.68 59.5271C421.629 60.1971 421.5 60.9702 421.294 61.8465L389.904 61.9238V54.347L416.578 54.2697L412.48 57.4396C412.377 55.2232 411.965 53.3677 411.243 51.873C410.573 50.3782 409.568 49.2443 408.228 48.4712C406.939 47.6465 405.341 47.2341 403.434 47.2341C401.424 47.2341 399.672 47.698 398.177 48.6258C396.682 49.502 395.522 50.7648 394.698 52.4142C393.925 54.012 393.538 55.9191 393.538 58.1354C393.538 60.4033 393.95 62.3877 394.775 64.0886C395.651 65.7379 396.888 67.0265 398.486 67.9543C400.084 68.8305 401.94 69.2686 404.053 69.2686C405.96 69.2686 407.687 68.9594 409.233 68.3408C410.779 67.6708 412.119 66.6915 413.253 65.4029L419.206 71.3561C417.402 73.4693 415.186 75.0672 412.557 76.1495C409.98 77.2319 407.171 77.7731 404.13 77.7731ZM445.726 77.7731C441.912 77.7731 438.484 76.9227 435.443 75.2218C432.402 73.5209 430.006 71.2015 428.253 68.2635C426.501 65.3256 425.625 62.0269 425.625 58.3673C425.625 54.6563 426.501 51.3318 428.253 48.3938C430.006 45.4559 432.402 43.1365 435.443 41.4356C438.536 39.6831 441.964 38.8069 445.726 38.8069C448.664 38.8069 451.37 39.3481 453.844 40.4305C456.318 41.5129 458.457 43.0592 460.261 45.0694L453.767 51.641C452.788 50.5586 451.602 49.734 450.21 49.167C448.87 48.6 447.376 48.3165 445.726 48.3165C443.871 48.3165 442.196 48.7546 440.701 49.6309C439.258 50.4556 438.098 51.6153 437.222 53.11C436.397 54.5532 435.985 56.2799 435.985 58.29C435.985 60.2486 436.397 62.0011 437.222 63.5474C438.098 65.0421 439.258 66.2276 440.701 67.1038C442.196 67.9285 443.871 68.3408 445.726 68.3408C447.427 68.3408 448.948 68.0574 450.288 67.4904C451.679 66.8719 452.865 65.9957 453.844 64.8617L460.416 71.4334C458.509 73.4951 456.318 75.0672 453.844 76.1495C451.37 77.2319 448.664 77.7731 445.726 77.7731ZM491.279 77V55.584C491.279 53.3677 490.583 51.5637 489.191 50.1721C487.799 48.7804 485.995 48.0846 483.779 48.0846C482.336 48.0846 481.047 48.3938 479.913 49.0124C478.78 49.6309 477.878 50.5071 477.207 51.641C476.589 52.775 476.28 54.0893 476.28 55.584L472.337 53.5739C472.337 50.636 472.955 48.0846 474.192 45.9198C475.429 43.7035 477.13 41.9768 479.295 40.7398C481.511 39.5027 484.037 38.8842 486.872 38.8842C489.707 38.8842 492.206 39.5027 494.371 40.7398C496.587 41.9768 498.314 43.6777 499.551 45.8425C500.788 48.0073 501.407 50.5071 501.407 53.3419V77H491.279ZM466.152 77V21.102H476.28V77H466.152Z" fill="white"/>
<mask id="mask0_730_332" style="mask-type:alpha" maskUnits="userSpaceOnUse" x="427" y="89" width="75" height="43">
<path d="M440.457 89.376H501.221V131.123H427.547L440.457 89.376Z" fill="#D9D9D9"/>
</mask>
<g mask="url(#mask0_730_332)">
<path d="M448.736 131.125C445.853 131.125 443.142 130.606 440.605 129.568C438.106 128.492 435.896 126.993 433.974 125.071C432.09 123.148 430.61 120.938 429.534 118.439C428.496 115.902 427.977 113.172 427.977 110.251C427.977 107.291 428.515 104.561 429.591 102.062C430.668 99.525 432.167 97.3145 434.089 95.4308C436.011 93.5086 438.26 92.0286 440.836 90.9906C443.412 89.9142 446.199 89.376 449.197 89.376C452.542 89.376 455.617 90.0103 458.424 91.2789C461.23 92.5091 466.58 88.0629 468.425 90.3311L466.15 95.4308C464.881 93.7777 458.932 96.9224 457.048 96.0382C455.165 95.154 451.387 96.5536 449.119 96.5536C446.543 96.5536 444.277 97.2761 442.277 98.4294C440.317 99.5442 438.779 101.12 437.664 103.158C436.549 105.157 435.992 107.502 435.992 110.193C435.992 112.884 436.53 115.268 437.607 117.343C438.721 119.381 440.221 120.976 442.104 122.13C444.027 123.283 446.218 123.86 448.678 123.86C451.216 123.86 453.388 123.398 455.194 122.476C457.001 121.515 458.385 120.131 459.346 118.324C460.307 116.479 460.788 114.23 460.788 111.577L465.92 115.095L448.217 114.922V108.117H468.861V109.213C468.861 114.057 467.996 118.112 466.266 121.38C464.536 124.609 462.153 127.05 459.116 128.704C456.117 130.318 452.657 131.125 448.736 131.125Z" fill="white"/>
<path d="M501.219 131.126V89.376H493.142V131.126H501.219ZM495.28 131.126V123.94H458.645V131.126H495.28ZM495.28 113.25V106.361H474.257V113.25H495.28ZM495.28 96.5619V89.376H458.942V96.5619H495.28Z" fill="white"/>
<path d="M459.97 131.126V123.94H449.34C446.648 123.94 444.292 123.385 442.273 122.277C440.254 121.129 438.69 119.525 437.581 117.466C436.433 115.408 435.859 112.973 435.859 110.162C435.859 107.43 436.433 105.054 437.581 103.035C438.729 100.976 440.313 99.3927 442.332 98.2841C444.351 97.136 446.687 96.5619 449.34 96.5619H460.148V89.376H449.221C446.133 89.376 443.282 89.8907 440.669 90.9201C438.017 91.9494 435.72 93.4143 433.78 95.3147C431.801 97.1756 430.276 99.3729 429.207 101.907C428.099 104.441 427.545 107.212 427.545 110.221C427.545 113.23 428.099 116.021 429.207 118.595C430.276 121.129 431.781 123.346 433.721 125.246C435.661 127.107 437.957 128.552 440.61 129.581C443.223 130.611 446.054 131.126 449.102 131.126H459.97Z" fill="white"/>
</g>
<mask id="mask1_730_332" style="mask-type:alpha" maskUnits="userSpaceOnUse" x="361" y="89" width="75" height="43">
<path d="M361.688 89.375H435.362L422.451 131.124H361.688V89.375Z" fill="#D9D9D9"/>
</mask>
<g mask="url(#mask1_730_332)">
<path d="M361.688 131.125V89.375H369.764V131.125H361.688ZM367.626 131.125V123.939H404.261V131.125H367.626ZM367.626 113.249V106.36H388.65V113.249H367.626ZM367.626 96.5609V89.375H403.964V96.5609H367.626Z" fill="white"/>
<path d="M402.936 131.125V123.939H413.566C416.259 123.939 418.614 123.384 420.633 122.276C422.653 121.128 424.217 119.524 425.325 117.465C426.473 115.407 427.047 112.972 427.047 110.161C427.047 107.429 426.473 105.053 425.325 103.034C424.177 100.975 422.593 99.3917 420.574 98.2831C418.555 97.135 416.219 96.5609 413.566 96.5609H402.758V89.375H413.685C416.773 89.375 419.624 89.8897 422.237 90.9191C424.89 91.9485 427.186 93.4134 429.126 95.3138C431.106 97.1746 432.63 99.3719 433.699 101.906C434.807 104.44 435.362 107.211 435.362 110.22C435.362 113.229 434.807 116.02 433.699 118.594C432.63 121.128 431.125 123.345 429.185 125.245C427.245 127.106 424.949 128.551 422.296 129.58C419.683 130.61 416.852 131.125 413.804 131.125H402.936Z" fill="white"/>
</g>
<path fill-rule="evenodd" clip-rule="evenodd" d="M104.109 114.026C96.0938 123.039 85.5312 129.405 73.8188 132.284C62.1063 135.162 49.796 134.417 38.5162 130.147C30.959 127.286 24.1031 122.934 18.3348 117.391L33.9566 103.445C37.4487 106.533 41.4893 108.982 45.8967 110.651C53.2285 113.426 61.2303 113.91 68.8434 112.039C76.4565 110.168 83.3221 106.03 88.5322 100.172L104.109 114.026ZM30.5945 100.082C30.5902 100.077 30.5859 100.072 30.5815 100.067L103.859 34.579L103.858 34.5788C95.7859 25.6175 85.1834 19.318 73.4531 16.5135C61.7228 13.709 49.4173 14.5317 38.1647 18.8729C26.9121 23.2141 17.2426 30.8692 10.4352 40.8255C3.6279 50.7818 0.0035462 62.5701 0.0416384 74.631C0.0797305 86.6919 3.77847 98.4571 10.6486 108.37C11.5054 109.606 12.4064 110.807 13.3493 111.969L0 127.398L15.0376 113.959C15.0394 113.961 15.0412 113.963 15.0431 113.965L30.5945 100.082ZM76.1157 39.423L27.3234 95.8176C23.1525 89.5188 20.9121 82.1315 20.8882 74.5651C20.8635 66.7255 23.2193 59.0631 27.6441 52.5916C32.0688 46.12 38.354 41.1442 45.6682 38.3224C52.9824 35.5006 60.981 34.9658 68.6057 36.7888C71.2137 37.4123 73.7272 38.2964 76.1157 39.423Z" fill="white"/>
</svg>
