<svg width="30" height="30" viewBox="0 0 30 30" fill="none" xmlns="http://www.w3.org/2000/svg">
<path d="M20.625 4.6875H18.75V3.75C18.75 3.25272 18.5525 2.77581 18.2008 2.42417C17.8492 2.07254 17.3723 1.875 16.875 1.875H13.125C12.6277 1.875 12.1508 2.07254 11.7992 2.42417C11.4475 2.77581 11.25 3.25272 11.25 3.75V4.6875H9.375C8.62908 4.6875 7.91371 4.98382 7.38626 5.51126C6.85882 6.03871 6.5625 6.75408 6.5625 7.5V25.3125C6.5625 26.0584 6.85882 26.7738 7.38626 27.3012C7.91371 27.8287 8.62908 28.125 9.375 28.125H20.625C21.3709 28.125 22.0863 27.8287 22.6137 27.3012C23.1412 26.7738 23.4375 26.0584 23.4375 25.3125V7.5C23.4375 6.75408 23.1412 6.03871 22.6137 5.51126C22.0863 4.98382 21.3709 4.6875 20.625 4.6875ZM13.125 3.75H16.875V4.6875H13.125V3.75ZM21.5625 25.3125C21.5625 25.5611 21.4637 25.7996 21.2879 25.9754C21.1121 26.1512 20.8736 26.25 20.625 26.25H9.375C9.12636 26.25 8.8879 26.1512 8.71209 25.9754C8.53627 25.7996 8.4375 25.5611 8.4375 25.3125V7.5C8.4375 7.25136 8.53627 7.0129 8.71209 6.83709C8.8879 6.66127 9.12636 6.5625 9.375 6.5625H20.625C20.8736 6.5625 21.1121 6.66127 21.2879 6.83709C21.4637 7.0129 21.5625 7.25136 21.5625 7.5V25.3125Z" fill="white"/>
<path d="M18.7479 14.4466H16.9573L17.3417 9.9185C17.36 9.71076 17.3086 9.50282 17.1955 9.32759C17.0824 9.15236 16.9142 9.01984 16.7173 8.95099C16.5204 8.88215 16.3063 8.88091 16.1086 8.94747C15.911 9.01403 15.7412 9.14459 15.6261 9.3185L10.4698 16.8747C10.3665 17.016 10.3048 17.1833 10.2917 17.3577C10.2786 17.5322 10.3145 17.7069 10.3955 17.8619C10.4764 18.017 10.5992 18.1464 10.7498 18.2354C10.9005 18.3243 11.073 18.3694 11.2479 18.3654H13.0386L12.6542 22.8935C12.6429 23.0968 12.6981 23.2982 12.8114 23.4673C12.9247 23.6365 13.09 23.7641 13.2823 23.831C13.3815 23.867 13.4861 23.886 13.5917 23.8872C13.7452 23.8875 13.8965 23.85 14.0322 23.7781C14.1679 23.7061 14.2838 23.602 14.3698 23.4747L19.5261 15.9372C19.6293 15.796 19.691 15.6287 19.7041 15.4543C19.7173 15.2798 19.6813 15.1051 19.6004 14.95C19.5194 14.7949 19.3967 14.6656 19.246 14.5766C19.0954 14.4877 18.9228 14.4426 18.7479 14.4466V14.4466ZM14.8292 19.481L14.9979 17.5029C15.0083 17.3736 14.9917 17.2436 14.9493 17.121C14.9069 16.9985 14.8394 16.8861 14.7513 16.7909C14.6632 16.6958 14.5563 16.6199 14.4374 16.5682C14.3185 16.5165 14.1901 16.49 14.0604 16.4904H13.0198L15.1667 13.331L14.9979 15.3091C14.9875 15.4384 15.0041 15.5684 15.0466 15.691C15.089 15.8135 15.1564 15.9259 15.2445 16.0211C15.3326 16.1162 15.4395 16.1921 15.5585 16.2438C15.6774 16.2955 15.8057 16.322 15.9354 16.3216H16.9761L14.8292 19.481Z" fill="white"/>
</svg>
