<svg width="30" height="31" viewBox="0 0 30 31" fill="none" xmlns="http://www.w3.org/2000/svg">
<g clip-path="url(#clip0_560_1370)">
<path d="M30 23.0352C30 22.2239 29.6451 21.4736 29.0604 20.9597C29.7108 19.3637 28.6217 17.4917 26.9518 17.2377C26.6412 16.5172 26.0338 15.9606 25.293 15.7108V1.38281C25.293 0.897422 24.8995 0.503906 24.4141 0.503906H0.878906C0.393516 0.503906 0 0.897422 0 1.38281V23.0351C0 23.5205 0.393516 23.914 0.878906 23.914H15.2061C15.3615 24.3766 15.637 24.7897 16.0021 25.1107C15.3517 26.7066 16.4408 28.5786 18.1107 28.8327C18.8263 30.5637 21.1777 31.0675 22.5312 29.76C23.8853 31.0679 26.2366 30.563 26.9517 28.8327C28.6218 28.5786 29.7108 26.7064 29.0603 25.1107C29.6451 24.5967 30 23.8464 30 23.0352ZM21.5273 2.26172H23.5352V4.26955H21.5273V2.26172ZM17.7618 2.26172H19.7695V4.26955H17.7617V2.26172H17.7618ZM1.75781 2.26172H16.0039V4.26955H1.75781V2.26172ZM21.6523 27.7422C21.6175 28.992 19.8458 29.1035 19.6525 27.8711C19.5919 27.3963 19.1624 27.0569 18.6865 27.1085C17.7635 27.2118 17.2099 26.0869 17.8486 25.4205C18.0543 25.2036 18.1356 24.8971 18.0646 24.6068C17.9936 24.3165 17.7799 24.0822 17.4973 23.9847C16.6005 23.6753 16.6009 22.3947 17.4973 22.0856C17.7799 21.9881 17.9936 21.7538 18.0646 21.4635C18.1356 21.1731 18.0543 20.8666 17.8486 20.6498C17.2096 19.983 17.7642 18.8583 18.6865 18.9618C19.1625 19.0129 19.592 18.674 19.6525 18.1992C19.8459 16.9663 21.6179 17.0788 21.6523 18.3281V27.7422ZM20.6484 15.5664C19.5243 15.5664 18.5375 16.2476 18.1107 17.2376C16.4406 17.4917 15.3517 19.3639 16.0021 20.9596C15.637 21.2805 15.3615 21.6936 15.2061 22.1562H1.75781V6.02736H23.5352V15.7106C23.1577 15.8379 22.8163 16.0442 22.5312 16.3104C22.0375 15.8493 21.3756 15.5664 20.6484 15.5664ZM27.5651 23.9847C27.2826 24.0822 27.0689 24.3165 26.9978 24.6068C26.9268 24.8971 27.0082 25.2036 27.2139 25.4205C27.8528 26.0871 27.2985 27.2119 26.376 27.1085C25.9 27.0569 25.4705 27.3963 25.4099 27.8711C25.2165 29.104 23.4446 28.9914 23.4101 27.7422V18.3281C23.445 17.0783 25.2167 16.9668 25.4099 18.1992C25.4705 18.6741 25.9 19.0129 26.376 18.9618C27.2987 18.8585 27.8527 19.9833 27.2139 20.6498C27.0082 20.8667 26.9268 21.1732 26.9978 21.4635C27.0688 21.7539 27.2825 21.9882 27.5651 22.0856C28.462 22.395 28.4616 23.6756 27.5651 23.9847Z" fill="white"/>
<path d="M7.15068 9.23397C6.80749 8.89073 6.25097 8.89079 5.90773 9.23397L4.02488 11.1168C3.68439 11.444 3.68445 12.0325 4.02488 12.3597L5.90773 14.2426C6.25103 14.5859 6.80755 14.5857 7.15068 14.2426C7.49392 13.8993 7.49392 13.3429 7.15068 12.9996L5.88933 11.7383L7.15068 10.4769C7.49392 10.1337 7.49392 9.57716 7.15068 9.23397Z" fill="white"/>
<path d="M15.6215 9.23397C15.2783 8.89079 14.7218 8.89073 14.3785 9.23397C14.0353 9.57721 14.0353 10.1337 14.3785 10.4769L15.6399 11.7383L14.3785 12.9996C14.0353 13.3428 14.0353 13.8993 14.3785 14.2426C14.7218 14.5859 15.2783 14.5857 15.6215 14.2426L17.5043 12.3597C17.8448 12.0325 17.8448 11.444 17.5043 11.1168L15.6215 9.23397Z" fill="white"/>
<path d="M12.0978 9.06954C11.6636 8.85245 11.1357 9.02847 10.9186 9.46259L9.03584 13.2282C8.55343 14.2882 10.0483 15.0371 10.608 14.0143L12.4908 10.2487C12.7079 9.8145 12.532 9.28663 12.0978 9.06954Z" fill="white"/>
</g>
<defs>
<clipPath id="clip0_560_1370">
<rect width="30" height="30" fill="white" transform="translate(0 0.5)"/>
</clipPath>
</defs>
</svg>
