<svg width="31" height="31" viewBox="0 0 31 31" fill="none" xmlns="http://www.w3.org/2000/svg">
<path d="M19.0117 22.0625C18.4933 22.0625 18.0742 22.4816 18.0742 23V24.875C18.0742 25.3934 18.4933 25.8125 19.0117 25.8125C19.5301 25.8125 19.9492 25.3934 19.9492 24.875V23C19.9492 22.4816 19.5301 22.0625 19.0117 22.0625Z" fill="white"/>
<path d="M21.8242 22.0625C21.3058 22.0625 20.8867 22.4816 20.8867 23V24.875C20.8867 25.3934 21.3058 25.8125 21.8242 25.8125C22.3426 25.8125 22.7617 25.3934 22.7617 24.875V23C22.7617 22.4816 22.3426 22.0625 21.8242 22.0625Z" fill="white"/>
<path d="M24.6367 22.0625C24.1183 22.0625 23.6992 22.4816 23.6992 23V24.875C23.6992 25.3934 24.1183 25.8125 24.6367 25.8125C25.1551 25.8125 25.5742 25.3934 25.5742 24.875V23C25.5742 22.4816 25.1551 22.0625 24.6367 22.0625Z" fill="white"/>
<path d="M25.5742 19.25H19.9492V18.7006L21.5495 17.1003C21.9161 16.7338 21.9161 16.1412 21.5495 15.7747C21.183 15.4081 20.5904 15.4081 20.2239 15.7747L19.9492 16.0494V13.625C19.9492 13.1066 19.5301 12.6875 19.0117 12.6875H12.4492V11.75H18.0742C19.6248 11.75 20.8867 10.4881 20.8867 8.9375V5.1875C20.8867 3.63687 19.6248 2.375 18.0742 2.375H4.94922C3.39859 2.375 2.13672 3.63687 2.13672 5.1875V8.9375C2.13672 10.4881 3.39859 11.75 4.94922 11.75H10.5742V13.625C10.5742 14.1434 10.9942 14.5625 11.5117 14.5625H18.0742V16.0494L17.7995 15.7747C17.433 15.4081 16.8404 15.4081 16.4739 15.7747C16.1073 16.1412 16.1073 16.7338 16.4739 17.1003L18.0742 18.7006V19.25H12.4492C10.8986 19.25 9.63672 20.5119 9.63672 22.0625V25.8125C9.63672 27.3631 10.8986 28.625 12.4492 28.625H25.5742C27.1248 28.625 28.3867 27.3631 28.3867 25.8125V22.0625C28.3867 20.5119 27.1248 19.25 25.5742 19.25ZM4.94922 9.875C4.43266 9.875 4.01172 9.455 4.01172 8.9375V5.1875C4.01172 4.67 4.43266 4.25 4.94922 4.25H18.0742C18.5917 4.25 19.0117 4.67 19.0117 5.1875V8.9375C19.0117 9.455 18.5917 9.875 18.0742 9.875H4.94922ZM26.5117 25.8125C26.5117 26.33 26.0917 26.75 25.5742 26.75H12.4492C11.9326 26.75 11.5117 26.33 11.5117 25.8125V22.0625C11.5117 21.545 11.9326 21.125 12.4492 21.125H25.5742C26.0917 21.125 26.5117 21.545 26.5117 22.0625V25.8125Z" fill="white"/>
<path d="M11.5117 5.1875C10.9942 5.1875 10.5742 5.60656 10.5742 6.125V8C10.5742 8.51844 10.9942 8.9375 11.5117 8.9375C12.0292 8.9375 12.4492 8.51844 12.4492 8V6.125C12.4492 5.60656 12.0292 5.1875 11.5117 5.1875Z" fill="white"/>
<path d="M14.3242 5.1875C13.8067 5.1875 13.3867 5.60656 13.3867 6.125V8C13.3867 8.51844 13.8067 8.9375 14.3242 8.9375C14.8417 8.9375 15.2617 8.51844 15.2617 8V6.125C15.2617 5.60656 14.8417 5.1875 14.3242 5.1875Z" fill="white"/>
<path d="M18.0742 6.125C18.0742 5.60656 17.6551 5.1875 17.1367 5.1875C16.6183 5.1875 16.1992 5.60656 16.1992 6.125V8C16.1992 8.51844 16.6183 8.9375 17.1367 8.9375C17.6551 8.9375 18.0742 8.51844 18.0742 8V6.125Z" fill="white"/>
</svg>
