<svg width="19" height="18" viewBox="0 0 19 18" fill="none" xmlns="http://www.w3.org/2000/svg">
<path d="M12.0559 0H6.06681C5.00988 0.00119851 4.15339 0.857683 4.15234 1.91462V16.0855C4.15339 17.1424 5.00988 17.9989 6.06681 17.9999H12.0559C13.1128 17.9989 13.9693 17.1424 13.9705 16.0855V1.91462C13.9693 0.857683 13.1128 0.00119851 12.0559 0V0ZM9.06143 16.3637C8.60945 16.3637 8.24315 15.9974 8.24315 15.5454C8.24315 15.0936 8.60945 14.7273 9.06143 14.7273C9.51327 14.7273 9.87957 15.0936 9.87957 15.5454C9.87957 15.9974 9.51327 16.3637 9.06143 16.3637ZM10.2887 2.45455H7.83416C7.60824 2.45455 7.42502 2.27132 7.42502 2.0454C7.42502 1.81949 7.60824 1.63641 7.83416 1.63641H10.2887C10.5146 1.63641 10.6977 1.81949 10.6977 2.0454C10.6977 2.27132 10.5146 2.45455 10.2887 2.45455Z" fill="white"/>
</svg>
