<svg width="31" height="30" viewBox="0 0 31 30" fill="none" xmlns="http://www.w3.org/2000/svg">
<g clip-path="url(#clip0_557_158)">
<path d="M6.10806 29.9998C1.30499 30.0432 -1.4619 24.3317 1.49806 20.6045C1.51862 20.5599 6.13923 13.149 6.13923 13.149C6.48194 12.6 7.20475 12.4327 7.75383 12.7752C8.30291 13.1179 8.47025 13.8407 8.12765 14.3898L5.65191 18.3574C13.684 18.1042 14.1316 29.6261 6.10806 29.9998V29.9998ZM6.10806 20.6834C4.18567 20.6834 2.62176 22.2473 2.62176 24.1697C2.79701 28.7884 9.41981 28.7872 9.59436 24.1697C9.59436 22.2474 8.03039 20.6834 6.10806 20.6834ZM14.8103 25.4883C14.4226 25.4883 14.0433 25.2961 13.8201 24.9446C13.473 24.3984 13.6345 23.6742 14.1808 23.3271L18.7439 20.4282C6.15312 18.5025 7.20914 0.372771 20.0241 0C30.4865 0.0682612 34.098 13.8666 25.2091 19.0976L15.4375 25.3054C15.2427 25.4291 15.0252 25.4883 14.8103 25.4883V25.4883ZM20.024 2.34373C15.6623 2.34373 12.1139 5.8922 12.1139 10.2538C12.4733 20.7262 27.6768 20.743 27.9341 10.2537C27.9341 5.8922 24.3856 2.34373 20.024 2.34373ZM6.13736 25.6053C5.32965 25.6053 4.67252 24.9481 4.67252 24.1404C4.74618 22.1998 7.52883 22.2004 7.60219 24.1404C7.60219 24.9481 6.94506 25.6053 6.13736 25.6053ZM20.0826 15.8788C19.4353 15.8788 18.9107 15.3541 18.9107 14.7069V13.51C18.473 13.3549 18.0751 13.1154 17.7362 12.8111L16.6546 13.3946C16.085 13.7019 15.3741 13.4892 15.0669 12.9195C14.7596 12.3499 14.9723 11.639 15.5419 11.3318L16.6115 10.7549C16.5524 10.3923 16.5524 9.99895 16.6114 9.63631L15.5414 9.05846C14.9719 8.75091 14.7596 8.03994 15.0671 7.47047C15.3748 6.901 16.0856 6.68866 16.6551 6.99621L17.7358 7.5798C18.0747 7.27535 18.4729 7.03571 18.9108 6.88043V5.68355C18.9683 4.13036 21.1974 4.13153 21.2545 5.68355V6.88043C21.6924 7.03565 22.0905 7.2753 22.4295 7.5798L23.5101 6.99621C24.0796 6.68872 24.7905 6.901 25.0981 7.47047C25.4056 8.03994 25.1933 8.75091 24.6238 9.05846L23.5538 9.63631C23.6129 9.99895 23.6128 10.3923 23.5537 10.7549L24.6233 11.3318C25.1929 11.6391 25.4056 12.3499 25.0984 12.9195C24.7912 13.4892 24.0803 13.7019 23.5107 13.3946L22.429 12.8111C22.0901 13.1154 21.6922 13.3548 21.2545 13.51V14.7069C21.2544 15.3541 20.7298 15.8788 20.0826 15.8788ZM20.0826 9.02337C19.4364 9.02337 18.9107 9.54907 18.9107 10.1952C18.9696 11.7477 21.1957 11.7473 21.2544 10.1952C21.2544 9.54907 20.7287 9.02337 20.0826 9.02337Z" fill="white"/>
</g>
<defs>
<clipPath id="clip0_557_158">
<rect width="30" height="30" fill="white" transform="translate(0.261719)"/>
</clipPath>
</defs>
</svg>
