<svg width="31" height="32" viewBox="0 0 31 32" fill="none" xmlns="http://www.w3.org/2000/svg">
<path d="M15.2617 28.1118C15.0117 28.1118 14.7617 28.1118 14.5117 27.9863C12.7617 27.2332 4.01172 23.4679 4.01172 13.3016V5.51997C4.01172 4.13936 5.13672 3.00977 6.51172 3.00977H24.0117C25.3867 3.00977 26.5117 4.13936 26.5117 5.51997V13.3016C26.5117 23.4679 17.7617 27.2332 16.0117 27.9863C15.7617 27.9863 15.5117 28.1118 15.2617 28.1118ZM6.51172 5.51997V13.3016C6.51172 21.7108 13.6367 24.9741 15.2617 25.6016C16.8867 24.9741 24.0117 21.7108 24.0117 13.3016V5.51997H6.51172Z" fill="white"/>
<path d="M14.0117 18.0716C13.6367 18.0716 13.3867 17.9461 13.1367 17.6951L10.6367 15.1849C10.1367 14.6829 10.1367 13.9298 10.6367 13.4278C11.1367 12.9257 11.8867 12.9257 12.3867 13.4278L14.0117 15.0594L18.1367 10.9175C18.6367 10.4155 19.3867 10.4155 19.8867 10.9175C20.3867 11.4196 20.3867 12.1726 19.8867 12.6747L14.8867 17.6951C14.6367 17.9461 14.3867 18.0716 14.0117 18.0716Z" fill="white"/>
</svg>
