<svg width="30" height="30" viewBox="0 0 30 30" fill="none" xmlns="http://www.w3.org/2000/svg">
<g clip-path="url(#clip0_560_1227)">
<path d="M18.5819 10.1559C18.4171 9.99107 18.1935 9.89844 17.9604 9.89844H10.8633C10.3779 9.89844 9.98438 10.292 9.98438 10.7773V18.0393C9.98438 18.2724 10.077 18.496 10.2418 18.6607L11.5481 19.967C11.7129 20.1318 11.9365 20.2245 12.1696 20.2245H19.1435C19.6288 20.2245 20.0224 19.831 20.0224 19.3456V11.9605C20.0224 11.7274 19.9297 11.5039 19.765 11.3391L18.5819 10.1559ZM18.2646 18.4667H12.5336L11.7422 17.6752V11.6562H17.5963L18.2646 12.3245V18.4667Z" fill="white"/>
<path d="M28.4173 20.4494V18.8459C28.4173 18.3605 28.0238 17.967 27.5384 17.967H23.5948V15.7521H29.1122C29.5976 15.7521 29.9912 15.3586 29.9912 14.8732C29.9912 14.3878 29.5976 13.9943 29.1122 13.9943H23.5948V12.0331H27.5384C28.0238 12.0331 28.4173 11.6396 28.4173 11.1542V9.55066C29.3418 9.196 30 8.29963 30 7.25191C30 5.89459 28.8957 4.79033 27.5384 4.79033C26.1811 4.79033 25.0768 5.89459 25.0768 7.25191C25.0768 8.29963 25.7351 9.196 26.6595 9.55066V10.2753H23.5948V9.22072C23.5948 8.98758 23.5022 8.76404 23.3374 8.59928L21.1324 6.39428C20.9675 6.22945 20.744 6.13682 20.5109 6.13682H19.1704V3.34055H19.8951C20.2498 4.26498 21.1461 4.92322 22.1938 4.92322C23.5512 4.92322 24.6554 3.81896 24.6554 2.46164C24.6554 1.10432 23.5512 0 22.1938 0C21.1461 0 20.2497 0.658242 19.8951 1.58273H18.2915C17.8061 1.58273 17.4126 1.97625 17.4126 2.46164V6.13688H15.1978V0.887754C15.1978 0.402363 14.8043 0.00884766 14.3189 0.00884766C13.8335 0.00884766 13.44 0.402363 13.44 0.887754V6.13682H11.4788V2.46164C11.4788 1.97625 11.0853 1.58273 10.5999 1.58273H8.99637C8.6417 0.658242 7.74533 0 6.69756 0C5.34023 0 4.23598 1.10432 4.23598 2.46164C4.23598 3.81896 5.34023 4.92322 6.69756 4.92322C7.74527 4.92322 8.6417 4.26498 8.99637 3.34055H9.721V6.13688H7.28408C6.79869 6.13688 6.40518 6.53039 6.40518 7.01578V10.2754H3.34049V9.55072C4.26492 9.19605 4.92316 8.29969 4.92316 7.25197C4.92316 5.89465 3.81891 4.79039 2.46158 4.79039C1.10426 4.79033 0 5.89459 0 7.25191C0 8.29963 0.658242 9.196 1.58268 9.55066V11.1542C1.58268 11.6396 1.97619 12.0331 2.46158 12.0331H6.40518V14.2479H0.887754C0.402363 14.2479 0.00884766 14.6415 0.00884766 15.1269C0.00884766 15.6122 0.402363 16.0058 0.887754 16.0058H6.40518V17.967H2.46158C1.97619 17.967 1.58268 18.3605 1.58268 18.8459V20.4494C0.658242 20.8041 0 21.7004 0 22.7481C0 24.1055 1.10426 25.2097 2.46158 25.2097C3.81891 25.2097 4.92316 24.1055 4.92316 22.7481C4.92316 21.7004 4.26492 20.8041 3.34049 20.4494V19.7248H6.40518V20.5497C6.40518 20.7829 6.49781 21.0064 6.66264 21.1712L9.09727 23.6058C9.26209 23.7706 9.48562 23.8632 9.71871 23.8632H10.2753V26.6596H9.55066C9.196 25.7351 8.29963 25.0769 7.25191 25.0769C5.89459 25.0769 4.79033 26.1812 4.79033 27.5385C4.79033 28.8958 5.89453 30 7.25186 30C8.29957 30 9.19594 29.3418 9.55061 28.4173H11.1541C11.6395 28.4173 12.033 28.0238 12.033 27.5384V23.8632H14.2478V29.1122C14.2478 29.5976 14.6413 29.9911 15.1267 29.9911C15.6121 29.9911 16.0056 29.5976 16.0056 29.1122V23.8632H17.9668V27.5384C17.9668 28.0238 18.3604 28.4173 18.8457 28.4173H20.4493C20.804 29.3418 21.7004 30 22.7481 30C24.1055 30 25.2097 28.8957 25.2097 27.5384C25.2097 26.1811 24.1055 25.0768 22.7481 25.0768C21.7004 25.0768 20.8041 25.7351 20.4494 26.6595H19.7248V23.8632H22.716C23.2014 23.8632 23.5949 23.4697 23.5949 22.9843V19.7247H26.6596V20.4493C25.7351 20.804 25.0769 21.7004 25.0769 22.7481C25.0769 24.1054 26.1812 25.2097 27.5385 25.2097C28.8958 25.2097 30.0001 24.1054 30.0001 22.7481C30 21.7004 29.3418 20.8041 28.4173 20.4494ZM27.5384 6.54814C27.9265 6.54814 28.2422 6.86385 28.2422 7.25191C28.2422 7.63998 27.9265 7.95568 27.5384 7.95568C27.1504 7.95568 26.8346 7.63998 26.8346 7.25191C26.8346 6.86385 27.1504 6.54814 27.5384 6.54814ZM22.1938 1.75781C22.5819 1.75781 22.8976 2.07357 22.8976 2.46164C22.8976 2.84971 22.5819 3.16541 22.1938 3.16541C21.8058 3.16541 21.4901 2.84971 21.4901 2.46164C21.4901 2.07357 21.8058 1.75781 22.1938 1.75781ZM6.69756 3.16535C6.30949 3.16535 5.99379 2.84965 5.99379 2.46158C5.99379 2.07352 6.30955 1.75781 6.69756 1.75781C7.08563 1.75781 7.40133 2.07357 7.40133 2.46164C7.40133 2.84971 7.08563 3.16535 6.69756 3.16535ZM2.46158 6.54814C2.84965 6.54814 3.16535 6.86385 3.16535 7.25191C3.16535 7.63998 2.84965 7.95568 2.46158 7.95568C2.07352 7.95568 1.75781 7.63998 1.75781 7.25191C1.75781 6.86385 2.07352 6.54814 2.46158 6.54814ZM2.46158 23.4519C2.07352 23.4519 1.75781 23.1362 1.75781 22.7481C1.75781 22.3601 2.07352 22.0444 2.46158 22.0444C2.84965 22.0444 3.16535 22.3601 3.16535 22.7481C3.16535 23.1362 2.84965 23.4519 2.46158 23.4519ZM7.25186 28.2422C6.86379 28.2422 6.54809 27.9265 6.54809 27.5384C6.54809 27.1504 6.86379 26.8346 7.25186 26.8346C7.63992 26.8346 7.95563 27.1504 7.95563 27.5384C7.95563 27.9265 7.63992 28.2422 7.25186 28.2422ZM22.7481 26.8347C23.1362 26.8347 23.4519 27.1504 23.4519 27.5385C23.4519 27.9265 23.1362 28.2422 22.7481 28.2422C22.3601 28.2422 22.0444 27.9265 22.0444 27.5384C22.0444 27.1504 22.3601 26.8347 22.7481 26.8347ZM21.837 22.1054C19.1872 22.1054 12.7711 22.1054 10.0828 22.1054L8.16299 20.1857V7.89463H20.1469L21.837 9.58477V22.1054ZM27.5384 23.4519C27.1504 23.4519 26.8346 23.1362 26.8346 22.7481C26.8346 22.3601 27.1504 22.0444 27.5384 22.0444C27.9265 22.0444 28.2422 22.3601 28.2422 22.7481C28.2422 23.1362 27.9265 23.4519 27.5384 23.4519Z" fill="white"/>
</g>
<defs>
<clipPath id="clip0_560_1227">
<rect width="30" height="30" fill="white"/>
</clipPath>
</defs>
</svg>
