<svg width="30" height="30" viewBox="0 0 30 30" fill="none" xmlns="http://www.w3.org/2000/svg">
<g clip-path="url(#clip0_560_1353)">
<path d="M18.3398 30H6.97266C4.38789 30 2.28516 27.8973 2.28516 25.3125V4.6875C2.28516 2.10274 4.38789 0 6.97266 0H18.3398C20.9246 0 23.0273 2.10274 23.0273 4.6875V6.511C23.0273 7.15828 22.5027 7.68288 21.8555 7.68288C21.2082 7.68288 20.6836 7.15828 20.6836 6.511V4.6875C20.6836 3.39523 19.6321 2.34375 18.3398 2.34375H6.97266C5.68039 2.34375 4.62891 3.39523 4.62891 4.6875V25.3125C4.62891 26.6048 5.68039 27.6562 6.97266 27.6562H18.3398C19.6321 27.6562 20.6836 26.6048 20.6836 25.3125V23.093C20.6836 22.4458 21.2082 21.9212 21.8555 21.9212C22.5027 21.9212 23.0273 22.4458 23.0273 23.093V25.3125C23.0273 27.8973 20.9246 30 18.3398 30ZM13.8281 24.6751C13.8281 24.0278 13.3035 23.5032 12.6562 23.5032C12.009 23.5032 11.4844 24.0278 11.4844 24.6751C11.4844 25.3223 12.009 25.8469 12.6562 25.8469C13.3035 25.8469 13.8281 25.3223 13.8281 24.6751ZM15 5.33913C15 4.69185 14.4754 4.16725 13.8281 4.16725H11.4844C10.8371 4.16725 10.3125 4.69185 10.3125 5.33913C10.3125 5.9864 10.8371 6.511 11.4844 6.511H13.8281C14.4754 6.511 15 5.9864 15 5.33913ZM16.5987 20.8665C17.1309 20.8665 17.6566 20.5158 17.8008 20.0082L20.4625 10.6451C20.6763 9.89365 20.1066 9.14772 19.3192 9.14772C18.7871 9.14772 18.3199 9.49837 18.1757 10.006L15.5141 19.3694C15.3005 20.1208 15.8114 20.8665 16.5987 20.8665ZM13.5542 19.4515C13.97 18.9555 13.905 18.2162 13.409 17.8006L10.5109 15.3706C10.3894 15.266 10.3711 15.1348 10.3711 15.0657C10.3711 14.9966 10.3894 14.8654 10.5109 14.7608L13.409 12.3308C13.905 11.9151 13.97 11.1758 13.5542 10.6799C13.1385 10.1841 12.3992 10.1189 11.9032 10.5347L9.00146 12.9678C8.99963 12.9694 8.99757 12.971 8.99574 12.9728C8.38028 13.4953 8.02734 14.2582 8.02734 15.0657C8.02734 15.8732 8.38028 16.636 8.99574 17.1586C8.99757 17.1602 8.9994 17.1618 9.00146 17.1636L11.9032 19.5966C12.1227 19.7807 12.3898 19.8704 12.6556 19.8704C12.9902 19.8704 13.3225 19.7278 13.5542 19.4515ZM26.8925 21.0038L29.7324 18.5735C30.3479 18.051 30.7008 17.2881 30.7008 16.4806C30.7008 15.6731 30.3479 14.9103 29.7356 14.3905L26.8925 11.9575C26.4006 11.5366 25.6609 11.5942 25.2402 12.0859C24.8193 12.5777 24.8769 13.3175 25.3686 13.7382L28.2152 16.1739C28.3385 16.2788 28.3571 16.4111 28.3571 16.4806C28.3571 16.55 28.3388 16.6823 28.212 16.7899L25.3686 19.2231C24.8769 19.6438 24.8193 20.3835 25.2402 20.8752C25.472 21.1462 25.8005 21.2853 26.1312 21.2853C26.4006 21.2853 26.6716 21.1929 26.8925 21.0038Z" fill="white"/>
</g>
<defs>
<clipPath id="clip0_560_1353">
<rect width="30" height="30" fill="white"/>
</clipPath>
</defs>
</svg>
