<svg width="16" height="18" viewBox="0 0 16 18" fill="none" xmlns="http://www.w3.org/2000/svg">
<g opacity="0.5">
<path d="M15.1354 8.53998L10.4687 3.58165C10.343 3.45262 10.1746 3.38123 9.9998 3.38284C9.825 3.38445 9.65779 3.45895 9.53419 3.59028C9.41058 3.72161 9.34047 3.89927 9.33895 4.08499C9.33743 4.27071 9.40463 4.44964 9.52607 4.58323L13.0547 8.33244H1.33073C1.15392 8.33244 0.984349 8.40707 0.859325 8.5399C0.7343 8.67274 0.664063 8.85291 0.664062 9.04077C0.664063 9.22863 0.7343 9.4088 0.859325 9.54164C0.984349 9.67448 1.15392 9.7491 1.33073 9.7491H13.0547L9.52607 13.4983C9.46239 13.5636 9.41161 13.6418 9.37667 13.7282C9.34173 13.8146 9.32334 13.9076 9.32257 14.0016C9.3218 14.0957 9.33867 14.189 9.37219 14.276C9.40571 14.3631 9.45521 14.4422 9.51781 14.5087C9.5804 14.5752 9.65483 14.6278 9.73677 14.6634C9.8187 14.699 9.90648 14.7169 9.995 14.7161C10.0835 14.7153 10.171 14.6958 10.2523 14.6586C10.3337 14.6215 10.4072 14.5675 10.4687 14.4999L15.1354 9.54156C15.2604 9.40873 15.3306 9.22859 15.3306 9.04077C15.3306 8.85295 15.2604 8.67281 15.1354 8.53998Z" fill="white"/>
</g>
</svg>
