<svg width="225" height="303" viewBox="0 0 225 303" fill="none" xmlns="http://www.w3.org/2000/svg">
<path d="M46.7453 291.072L46.7573 291.077C64.2707 298.026 83.438 301.495 104.249 301.495C128.098 301.495 148.945 297.335 166.761 288.984L166.767 288.981C184.849 280.357 198.793 268.516 208.561 253.446L208.565 253.439C218.333 238.089 223.205 220.381 223.205 200.345C223.205 182.829 219.73 167.625 212.741 154.764C205.765 141.649 196.262 131.58 184.234 124.585C175.08 119.052 165.04 115.628 154.124 114.308L216.759 43.1988L216.994 42.9322V42.5768V2.41016V1.46905H216.053H23.0872H22.1461V2.41016V64.1094V65.0505H23.0872H115.268L66.6794 121.884L66.4536 122.148V122.496V163.077V164.447L67.7326 163.955C71.2118 162.617 75.812 161.663 81.563 161.115L81.582 161.113L81.6009 161.111C87.6366 160.287 93.3912 159.877 98.8655 159.877C109.269 159.877 118.114 161.383 125.426 164.362L125.437 164.367C133.015 167.344 138.789 171.788 142.81 177.686L142.815 177.694L142.821 177.703C146.83 183.315 148.857 190.156 148.857 198.274C148.857 206.392 146.831 213.379 142.809 219.277L142.804 219.285C139.049 224.917 133.675 229.364 126.637 232.614C119.879 235.586 112.009 237.086 103.006 237.086C92.3784 237.086 82.1611 234.908 72.3466 230.548C62.804 225.911 55.6323 220.073 50.7768 213.06L50.1407 212.141L49.3435 212.924L2.13732 259.302L1.48199 259.946L2.10984 260.617C14.3537 273.695 29.2368 283.846 46.7453 291.072Z" stroke="url(#paint0_linear_774_20)" stroke-width="1.88222"/>
<defs>
<linearGradient id="paint0_linear_774_20" x1="-243.376" y1="89.2482" x2="220.989" y2="89.2482" gradientUnits="userSpaceOnUse">
<stop stop-color="white"/>
<stop offset="1" stop-color="white" stop-opacity="0"/>
</linearGradient>
</defs>
</svg>
