<svg width="226" height="303" viewBox="0 0 226 303" fill="none" xmlns="http://www.w3.org/2000/svg">
<path d="M47.7517 291.078L47.7596 291.081L47.7676 291.084C66.3711 298.025 85.8068 301.495 106.069 301.495C130.195 301.495 151.048 297.197 168.595 288.563C186.404 279.937 200.207 267.954 209.971 252.611L209.975 252.605C219.739 236.982 224.611 219.139 224.611 199.102C224.611 181.294 220.715 164.993 212.91 150.219C205.096 135.149 193.514 123.152 178.188 114.234C163.099 105.015 144.286 100.436 121.804 100.436C112.924 100.436 105.128 101.13 98.4235 102.526L98.4156 102.528C97.1741 102.798 95.943 103.099 94.7224 103.432L99.0786 65.0505H207.521H208.462V64.1094V2.41016V1.46905H207.521H106.295H105.241H38.9867H38.1382L38.0506 2.31294L23.5575 141.861L23.5085 142.333L23.8585 142.653L52.8448 169.154L53.4163 169.677L54.0392 169.217C60.3039 164.586 67.2513 161.044 74.8863 158.589L74.8957 158.586L74.9051 158.583C82.802 155.86 91.3931 154.494 100.686 154.494C111.072 154.494 119.897 156.27 127.193 159.784C134.502 163.303 140.016 168.155 143.775 174.332L143.783 174.345L143.791 174.357C147.82 180.534 149.85 187.804 149.85 196.204C149.85 204.603 147.82 211.873 143.791 218.05L143.785 218.059C140.024 223.971 134.642 228.691 127.602 232.212C120.858 235.448 112.724 237.086 103.17 237.086C92.5425 237.086 82.3252 234.908 72.5106 230.548C62.968 225.911 55.7964 220.073 50.9408 213.06L50.3047 212.141L49.5075 212.924L2.30139 259.302L1.65352 259.939L2.26658 260.609C14.2443 273.701 29.4138 283.854 47.7517 291.078Z" stroke="url(#paint0_linear_774_22)" stroke-width="1.88222"/>
<defs>
<linearGradient id="paint0_linear_774_22" x1="-242.376" y1="89.2482" x2="221.989" y2="89.2482" gradientUnits="userSpaceOnUse">
<stop stop-color="white"/>
<stop offset="1" stop-color="white" stop-opacity="0"/>
</linearGradient>
</defs>
</svg>
