<svg width="224" height="299" viewBox="0 0 224 299" fill="none" xmlns="http://www.w3.org/2000/svg">
<path d="M55.142 285.304L54.2349 286.953L54.2512 286.962L54.2676 286.971L55.142 285.304ZM15.3894 248.45L13.7855 249.435L13.7956 249.452L13.8062 249.468L15.3894 248.45ZM25.7417 123.395L24.1877 122.333L24.1865 122.335L25.7417 123.395ZM109.802 0.41095V-1.47127H108.808L108.248 -0.65116L109.802 0.41095ZM192.62 0.41095L194.144 1.51489L196.306 -1.47127H192.62V0.41095ZM96.965 132.505L96.7946 134.38L97.8613 134.477L98.4895 133.609L96.965 132.505ZM69.6351 130.021L68.039 129.023L66.4171 131.618L69.4647 131.895L69.6351 130.021ZM82.0578 113.043L80.651 111.793L80.6464 111.798L82.0578 113.043ZM98.2072 101.449L97.4567 99.7225L97.4567 99.7225L98.2072 101.449ZM173.571 110.559L172.612 112.178L172.629 112.188L172.647 112.198L173.571 110.559ZM209.597 145.756L207.978 146.716L207.988 146.734L207.999 146.751L209.597 145.756ZM208.355 248.036L206.772 247.018L206.765 247.028L206.759 247.039L208.355 248.036ZM168.602 284.89L167.707 283.235L167.695 283.241L168.602 284.89ZM132.991 230.644L132.033 229.024L132.033 229.024L132.991 230.644ZM147.07 215.737L145.415 214.841L145.408 214.854L145.401 214.867L147.07 215.737ZM147.07 172.258L145.386 173.1L145.408 173.142L145.431 173.184L147.07 172.258ZM132.991 156.937L133.948 155.316L133.948 155.316L132.991 156.937ZM91.1677 157.351L92.1253 158.971L92.152 158.955L92.1782 158.939L91.1677 157.351ZM76.6746 172.258L75.036 171.332L75.0205 171.359L75.0059 171.387L76.6746 172.258ZM76.6746 215.737L74.9911 216.579L75.0125 216.622L75.036 216.663L76.6746 215.737ZM91.1677 230.644L92.1253 229.024L92.1253 229.024L91.1677 230.644ZM111.872 296.673C91.1642 296.673 72.5592 292.316 56.0164 283.637L54.2676 286.971C71.404 295.96 90.6191 300.437 111.872 300.437V296.673ZM56.0491 283.655C39.7518 274.691 26.7365 262.621 16.9727 247.432L13.8062 249.468C23.9186 265.199 37.4051 277.697 54.2349 286.953L56.0491 283.655ZM16.9934 247.465C7.52195 232.04 2.77856 214.854 2.77856 195.861H-0.985885C-0.985885 215.516 3.9328 233.389 13.7855 249.435L16.9934 247.465ZM2.77856 195.861C2.77856 172.3 10.8981 148.507 27.2968 124.456L24.1865 122.335C7.45818 146.87 -0.985885 171.388 -0.985885 195.861H2.77856ZM27.2956 124.457L111.356 1.47306L108.248 -0.65116L24.1877 122.333L27.2956 124.457ZM109.802 2.29317H192.62V-1.47127H109.802V2.29317ZM191.095 -0.692991L95.4405 131.401L98.4895 133.609L194.144 1.51489L191.095 -0.692991ZM97.1354 130.631L69.8055 128.146L69.4647 131.895L96.7946 134.38L97.1354 130.631ZM71.2312 131.018C75.3302 124.46 79.4108 118.888 83.4691 114.288L80.6464 111.798C76.4229 116.584 72.2217 122.331 68.039 129.023L71.2312 131.018ZM83.4646 114.294C87.6923 109.537 92.8484 105.831 98.9577 103.175L97.4567 99.7225C90.8673 102.587 85.2571 106.611 80.651 111.793L83.4646 114.294ZM98.9577 103.175C104.98 100.556 113.114 99.19 123.467 99.19V95.4255C112.838 95.4255 104.133 96.8199 97.4567 99.7225L98.9577 103.175ZM123.467 99.19C141.649 99.19 158.015 103.528 172.612 112.178L174.531 108.939C159.314 99.9217 142.277 95.4255 123.467 95.4255V99.19ZM172.647 112.198C187.545 120.595 199.313 132.094 207.978 146.716L211.216 144.797C202.213 129.604 189.964 117.638 174.496 108.919L172.647 112.198ZM207.999 146.751C216.91 161.062 221.38 177.276 221.38 195.447H225.144C225.144 176.626 220.504 159.713 211.195 144.761L207.999 146.751ZM221.38 195.447C221.38 214.711 216.501 231.883 206.772 247.018L209.938 249.054C220.085 233.271 225.144 215.383 225.144 195.447H221.38ZM206.759 247.039C197.278 262.208 184.275 274.272 167.707 283.235L169.498 286.546C186.609 277.289 200.107 264.783 209.951 249.034L206.759 247.039ZM167.695 283.241C151.443 292.18 132.852 296.673 111.872 296.673V300.437C133.406 300.437 152.635 295.82 169.509 286.539L167.695 283.241ZM111.872 237.91C120.168 237.91 127.547 236.047 133.948 232.265L132.033 229.024C126.287 232.419 119.587 234.145 111.872 234.145V237.91ZM133.948 232.265C140.329 228.495 145.266 223.264 148.738 216.608L145.401 214.867C142.248 220.91 137.799 225.617 132.033 229.024L133.948 232.265ZM148.725 216.634C152.472 209.716 154.335 202.089 154.335 193.79H150.571C150.571 201.503 148.845 208.508 145.415 214.841L148.725 216.634ZM154.335 193.79C154.335 185.493 152.472 177.991 148.708 171.332L145.431 173.184C148.845 179.224 150.571 186.077 150.571 193.79H154.335ZM148.753 171.416C145.287 164.484 140.349 159.099 133.948 155.316L132.033 158.557C137.779 161.952 142.227 166.781 145.386 173.1L148.753 171.416ZM133.948 155.316C127.547 151.534 120.168 149.671 111.872 149.671V153.436C119.587 153.436 126.287 155.162 132.033 158.557L133.948 155.316ZM111.872 149.671C103.812 149.671 96.5549 151.691 90.1572 155.763L92.1782 158.939C97.9271 155.28 104.473 153.436 111.872 153.436V149.671ZM90.2102 155.73C83.8431 159.493 78.7813 164.705 75.036 171.332L78.3132 173.184C81.7454 167.112 86.3458 162.386 92.1253 158.971L90.2102 155.73ZM75.0059 171.387C71.5371 178.036 69.8233 185.518 69.8233 193.79H73.5878C73.5878 186.052 75.1867 179.179 78.3434 173.129L75.0059 171.387ZM69.8233 193.79C69.8233 202.064 71.5373 209.671 74.9911 216.579L78.3581 214.895C75.1864 208.552 73.5878 201.528 73.5878 193.79H69.8233ZM75.036 216.663C78.7813 223.29 83.8431 228.502 90.2102 232.265L92.1253 229.024C86.3458 225.609 81.7454 220.883 78.3132 214.811L75.036 216.663ZM90.2102 232.265C96.6008 236.041 103.839 237.91 111.872 237.91V234.145C104.446 234.145 97.8812 232.425 92.1253 229.024L90.2102 232.265Z" fill="url(#paint0_linear_774_7)"/>
<defs>
<linearGradient id="paint0_linear_774_7" x1="-253.467" y1="87.2482" x2="218.769" y2="87.2482" gradientUnits="userSpaceOnUse">
<stop stop-color="white"/>
<stop offset="1" stop-color="white" stop-opacity="0"/>
</linearGradient>
</defs>
</svg>
