<svg width="224" height="303" viewBox="0 0 224 303" fill="none" xmlns="http://www.w3.org/2000/svg">
<path d="M3.85217 260.173L3.58243 260.448V260.833V301V301.941H4.52354H221.92H222.861V301V239.3V238.359H221.92H120.12L170.807 189.05C170.809 189.048 170.81 189.047 170.811 189.046C181.883 178.527 190.76 168.544 197.43 159.096L197.437 159.085C204.107 149.358 208.983 139.613 212.052 129.849L212.054 129.842C215.121 119.805 216.65 108.945 216.65 97.2678C216.65 77.8055 212.34 60.9315 203.682 46.6833C195.304 32.1659 183.295 21.0009 167.681 13.1941C152.065 5.38584 133.556 1.5003 112.187 1.5003C88.0344 1.5003 66.6189 6.63689 47.9667 16.9363C29.3148 26.9593 14.0146 41.7111 2.06529 61.1635L1.65248 61.8355L2.24195 62.3595L50.6903 105.425L51.5025 106.147L52.1011 105.24C61.179 91.4853 69.9323 81.7992 78.3451 76.1002L78.3536 76.0945L78.3619 76.0885C86.7607 70.1281 96.0944 67.1522 106.389 67.1522C117.253 67.1522 125.841 70.135 132.255 76.0148L132.262 76.0212L132.269 76.0276C138.938 81.896 142.302 89.9042 142.302 100.166C142.302 104.746 141.495 109.189 139.878 113.501L139.871 113.517L139.866 113.534C138.526 117.553 136.099 122.019 132.55 126.935C128.986 131.595 124.456 136.949 118.956 142.999L3.85217 260.173Z" stroke="url(#paint0_linear_774_19)" stroke-width="1.88222"/>
<defs>
<linearGradient id="paint0_linear_774_19" x1="-249.444" y1="94.2482" x2="220.824" y2="94.2482" gradientUnits="userSpaceOnUse">
<stop stop-color="white"/>
<stop offset="1" stop-color="white" stop-opacity="0"/>
</linearGradient>
</defs>
</svg>
