<svg width="227" height="303" viewBox="0 0 227 303" fill="none" xmlns="http://www.w3.org/2000/svg">
<path d="M55.6905 288.128L55.6987 288.132L169.604 286.889L170.052 287.717C170.053 287.717 170.053 287.717 170.054 287.716C187.027 278.534 200.4 266.141 210.152 250.539C220.192 234.919 225.205 217.212 225.205 197.446C225.205 178.791 220.61 162.056 211.404 147.267C202.487 132.224 190.363 120.379 175.044 111.743C160.208 102.953 143.617 98.4988 125.296 98.3688L194.384 2.96213L195.465 1.46905H193.622H110.804H110.307L110.027 1.8791L25.9668 124.864L25.9662 124.864C9.32025 149.278 0.957326 173.615 0.957326 197.86C0.957326 217.35 5.83219 235.051 15.5896 250.942L15.5946 250.95L15.5999 250.958C25.6252 266.553 38.9939 278.945 55.6905 288.128ZM147.244 217.288L147.241 217.295L147.237 217.301C144.005 223.497 139.434 228.335 133.514 231.833C127.604 235.325 120.735 237.086 112.874 237.086C105.296 237.086 98.5632 235.328 92.6486 231.833C86.7289 228.335 82.0171 223.495 78.5078 217.294C75.2727 210.815 73.6488 203.653 73.6488 195.79C73.6488 187.923 75.274 180.903 78.5039 174.706C82.0135 168.502 86.7266 163.659 92.6486 160.16L92.662 160.152L92.6751 160.144C98.5862 156.382 105.31 154.494 112.874 154.494C120.735 154.494 127.604 156.254 133.514 159.746C139.423 163.238 143.994 168.206 147.23 174.678L147.241 174.699L147.253 174.72C150.754 180.915 152.514 187.93 152.514 195.79C152.514 203.649 150.754 210.809 147.244 217.288Z" stroke="url(#paint0_linear_774_23)" stroke-width="1.88222"/>
<defs>
<linearGradient id="paint0_linear_774_23" x1="-252.467" y1="89.2482" x2="219.769" y2="89.2482" gradientUnits="userSpaceOnUse">
<stop stop-color="white"/>
<stop offset="1" stop-color="white" stop-opacity="0"/>
</linearGradient>
</defs>
</svg>
