<svg width="30" height="30" viewBox="0 0 30 30" fill="none" xmlns="http://www.w3.org/2000/svg">
<path d="M26.5586 20.9644C27.2489 20.9644 27.8086 20.4071 27.8086 19.7195C27.8086 19.032 27.2489 18.4746 26.5586 18.4746C25.8682 18.4746 25.3086 19.032 25.3086 19.7195C25.3086 20.4071 25.8682 20.9644 26.5586 20.9644Z" fill="white"/>
<path d="M23.832 24.9742C24.5224 24.9742 25.082 24.4168 25.082 23.7293C25.082 23.0417 24.5224 22.4844 23.832 22.4844C23.1417 22.4844 22.582 23.0417 22.582 23.7293C22.582 24.4168 23.1417 24.9742 23.832 24.9742Z" fill="white"/>
<path d="M27.4961 16.1891C28.1864 16.1891 28.7461 15.6317 28.7461 14.9441C28.7461 14.2566 28.1864 13.6992 27.4961 13.6992C26.8057 13.6992 26.2461 14.2566 26.2461 14.9441C26.2461 15.6317 26.8057 16.1891 27.4961 16.1891Z" fill="white"/>
<path d="M19.7812 27.6949C20.4717 27.6949 21.0313 27.1375 21.0313 26.45C21.0313 25.7624 20.4717 25.2051 19.7812 25.2051C19.091 25.2051 18.5312 25.7624 18.5312 26.45C18.5312 27.1375 19.091 27.6949 19.7812 27.6949Z" fill="white"/>
<path d="M15.001 26.1425C13.2007 26.1447 11.4261 25.7165 9.82636 24.8939C8.22664 24.0713 6.84851 22.8784 5.80774 21.4153C4.76698 19.9522 4.09398 18.2618 3.8453 16.4859C3.59661 14.7101 3.7795 12.9007 4.37859 11.2099C4.97769 9.51902 5.97549 7.99606 7.28817 6.76894C8.60086 5.54182 10.1901 4.64639 11.9223 4.15786C13.6546 3.66934 15.4792 3.602 17.243 3.96149C19.0068 4.32099 20.6582 5.09682 22.0585 6.22382H20.001C19.6695 6.22382 19.3515 6.35498 19.1171 6.58844C18.8827 6.82191 18.751 7.13856 18.751 7.46873C18.751 7.79891 18.8827 8.11556 19.1171 8.34902C19.3515 8.58249 19.6695 8.71365 20.001 8.71365H25.001C25.3325 8.71365 25.6505 8.58249 25.8849 8.34902C26.1193 8.11556 26.251 7.79891 26.251 7.46873V2.48906C26.251 2.15889 26.1193 1.84224 25.8849 1.60877C25.6505 1.3753 25.3325 1.24414 25.001 1.24414C24.6695 1.24414 24.3515 1.3753 24.1171 1.60877C23.8827 1.84224 23.751 2.15889 23.751 2.48906V4.39503C22.0512 2.99542 20.0381 2.0238 17.8818 1.56222C15.7256 1.10064 13.4894 1.16266 11.3623 1.74306C9.23512 2.32345 7.27947 3.40516 5.6605 4.89682C4.04152 6.38849 2.80678 8.24629 2.06056 10.3133C1.31434 12.3803 1.07856 14.5958 1.37315 16.7727C1.66773 18.9496 2.48402 21.0239 3.75306 22.8204C5.02211 24.6169 6.70663 26.0829 8.66435 27.0944C10.6221 28.106 12.7955 28.6335 15.001 28.6324C15.3325 28.6324 15.6505 28.5012 15.8849 28.2677C16.1193 28.0343 16.251 27.7176 16.251 27.3874C16.251 27.0573 16.1193 26.7406 15.8849 26.5071C15.6505 26.2737 15.3325 26.1425 15.001 26.1425Z" fill="white"/>
<path d="M19.6337 19.554C19.8681 19.3205 19.9997 19.0039 19.9997 18.6738C19.9997 18.3437 19.8681 18.0271 19.6337 17.7936L16.25 14.4236V7.46953C16.25 7.13936 16.1183 6.82271 15.8839 6.58924C15.6495 6.35577 15.3315 6.22461 15 6.22461C14.6685 6.22461 14.3505 6.35577 14.1161 6.58924C13.8817 6.82271 13.75 7.13936 13.75 7.46953V14.939C13.7501 15.2692 13.8818 15.5858 14.1163 15.8192L17.8663 19.554C18.1007 19.7873 18.4185 19.9184 18.75 19.9184C19.0815 19.9184 19.3993 19.7873 19.6337 19.554Z" fill="white"/>
</svg>
