<svg width="30" height="30" viewBox="0 0 30 30" fill="none" xmlns="http://www.w3.org/2000/svg">
<g clip-path="url(#clip0_560_1452)">
<path d="M25.495 7.57956C25.0968 7.18142 24.4718 7.12271 24.0063 7.43987C22.2528 8.63507 13.4577 14.6451 12.5124 15.5903C11.1417 16.9611 11.1417 19.1914 12.5124 20.5622C13.1978 21.2475 14.0982 21.5902 14.9984 21.5902C15.8986 21.5902 16.7989 21.2475 17.4843 20.5622C18.4295 19.6169 24.4395 10.8218 25.6347 9.06831C25.9518 8.6029 25.8931 7.97782 25.495 7.57956ZM15.827 18.9049C15.3701 19.3618 14.6266 19.3618 14.1698 18.9049C13.7128 18.448 13.7128 17.7047 14.1695 17.2478C14.5368 16.8849 17.0339 15.104 20.1062 12.9684C17.9707 16.0407 16.1898 18.5377 15.827 18.9049Z" fill="white"/>
<path d="M5.40416 23.5268L3.95748 24.2325C2.89893 22.3433 2.34375 20.2347 2.34375 18.0762C2.34375 16.4947 2.63537 14.98 3.16758 13.583L4.82525 14.3781C4.98873 14.4565 5.16129 14.4937 5.33127 14.4937C5.76797 14.4937 6.18721 14.2485 6.38871 13.8284C6.66855 13.2448 6.42246 12.5448 5.83887 12.2649L4.20223 11.4799C6.23643 8.16229 9.75598 5.8493 13.8282 5.47371V7.23627C13.8282 7.8835 14.3528 8.40814 15.0001 8.40814C15.6473 8.40814 16.1719 7.8835 16.1719 7.23627V5.47283C17.5681 5.59992 18.919 5.95547 20.2015 6.53437C20.7912 6.80068 21.4854 6.53824 21.7517 5.9485C22.018 5.35857 21.7557 4.66453 21.1658 4.39822C19.2224 3.52102 17.148 3.07617 15 3.07617C10.9934 3.07617 7.22654 4.63641 4.39336 7.46953C1.56029 10.3027 0 14.0695 0 18.0762C0 21.0369 0.878789 23.9164 2.54139 26.4032C2.76533 26.7381 3.13559 26.9239 3.51633 26.9239C3.68941 26.9239 3.86473 26.8855 4.02943 26.8052L6.43178 25.6333C7.0135 25.3495 7.25502 24.648 6.97125 24.0663C6.68748 23.4846 5.98588 23.2431 5.40416 23.5268Z" fill="white"/>
<path d="M28.6782 11.9108C28.412 11.3209 27.718 11.0584 27.1279 11.3248C26.5381 11.5911 26.2757 12.2852 26.5421 12.875C27.2816 14.5132 27.6566 16.2632 27.6566 18.0765C27.6566 20.2382 27.0996 22.3502 26.0379 24.2416L24.5275 23.5223C23.9433 23.2441 23.244 23.4922 22.9657 24.0766C22.6874 24.6609 22.9356 25.3602 23.5199 25.6385L25.9808 26.8103C26.1427 26.8874 26.3144 26.9242 26.4841 26.9242C26.8649 26.9242 27.2352 26.7382 27.4589 26.4036C29.1215 23.9167 30.0003 21.0372 30.0003 18.0765C30.0003 15.9285 29.5555 13.854 28.6782 11.9108Z" fill="white"/>
</g>
<defs>
<clipPath id="clip0_560_1452">
<rect width="30" height="30" fill="white"/>
</clipPath>
</defs>
</svg>
