<svg width="19" height="18" viewBox="0 0 19 18" fill="none" xmlns="http://www.w3.org/2000/svg">
<g clip-path="url(#clip0_772_49)">
<path d="M15.5844 12.5281C14.497 11.5981 13.3935 11.0347 12.3194 11.9633L11.6781 12.5246C11.2089 12.932 10.3365 14.8356 6.96335 10.9553C3.59094 7.07998 5.59781 6.47659 6.06774 6.07269L6.71258 5.51074C7.78099 4.58 7.37779 3.40834 6.60721 2.20225L6.1422 1.47171C5.36811 0.268434 4.52518 -0.52181 3.45396 0.407517L2.87515 0.913273C2.40171 1.25817 1.07831 2.37926 0.7573 4.50906C0.370958 7.06453 1.58969 9.99089 4.38188 13.2017C7.17057 16.414 9.90095 18.0275 12.4873 17.9994C14.6368 17.9762 15.9349 16.8228 16.3409 16.4035L16.9218 15.897C17.9902 14.9684 17.3264 14.0229 16.2384 13.0908L15.5844 12.5281Z" fill="white"/>
</g>
<defs>
<clipPath id="clip0_772_49">
<rect width="18" height="18" fill="white" transform="translate(0.0742188)"/>
</clipPath>
</defs>
</svg>
