<svg width="31" height="30" viewBox="0 0 31 30" fill="none" xmlns="http://www.w3.org/2000/svg">
<g clip-path="url(#clip0_557_140)">
<path d="M21.3871 14.7984C21.3167 14.5015 21.0987 14.2628 20.8095 14.1667L16.4974 12.729L19.5598 6.60419C19.7521 6.21881 19.637 5.75018 19.2877 5.49782C18.9367 5.24633 18.456 5.28413 18.1522 5.58963L9.36309 14.3787C9.14764 14.5941 9.05923 14.9057 9.12878 15.2018C9.19915 15.4988 9.41717 15.7374 9.70639 15.8335L14.0185 17.2712L10.9561 23.396C10.7638 23.7814 10.8789 24.25 11.2282 24.5024C11.5781 24.7531 12.0578 24.7165 12.3637 24.4106L21.1528 15.6215C21.3682 15.4061 21.4567 15.0945 21.3871 14.7984Z" fill="white"/>
<path d="M15.2617 0C10.801 0 6.58756 2.07457 3.77734 5.42162V4.45312C3.77734 3.96732 3.38424 3.57422 2.89844 3.57422C2.41264 3.57422 2.01953 3.96732 2.01953 4.45312V8.18678C2.01953 9.02555 3.10293 9.14561 2.89844 9.06568C2.91648 9.06568 2.93447 9.0648 2.95252 9.06398L6.46814 8.84596C6.95307 8.8159 7.32133 8.39877 7.29127 7.91467C7.26121 7.43057 6.83811 7.06582 6.35998 7.09154L4.57908 7.20229C7.04588 3.84674 11.0371 1.75781 15.2617 1.75781C22.5316 1.75781 28.5039 7.73016 28.5039 15C28.5039 15.4858 28.897 15.8789 29.3828 15.8789C29.8686 15.8789 30.2617 15.4858 30.2617 15C30.2617 6.76113 23.5006 0 15.2617 0Z" fill="white"/>
<path d="M27.5709 20.936L24.0553 21.154C23.5704 21.1841 23.2021 21.6012 23.2322 22.0853C23.2622 22.5694 23.6948 22.9385 24.1635 22.9085L25.9444 22.7977C23.4776 26.1533 19.4863 28.2422 15.2617 28.2422C7.99188 28.2422 2.01953 22.2698 2.01953 15C2.01953 14.5142 1.62643 14.1211 1.14062 14.1211C0.654824 14.1211 0.261719 14.5142 0.261719 15C0.261719 23.2389 7.02285 30 15.2617 30C19.7225 30 23.9359 27.9254 26.7461 24.5784V25.5469C26.7461 26.0327 27.1392 26.4258 27.625 26.4258C28.1108 26.4258 28.5039 26.0327 28.5039 25.5469V21.8132C28.5039 21.3304 28.041 20.9095 27.5709 20.936Z" fill="white"/>
</g>
<defs>
<clipPath id="clip0_557_140">
<rect width="30" height="30" fill="white" transform="translate(0.261719)"/>
</clipPath>
</defs>
</svg>
