<svg width="31" height="32" viewBox="0 0 31 32" fill="none" xmlns="http://www.w3.org/2000/svg">
<g clip-path="url(#clip0_560_1394)">
<path d="M25.8683 5.01285C23.0352 2.16822 19.2683 0.601562 15.2617 0.601562C11.2551 0.601562 7.48826 2.16822 4.65508 5.01285C1.82735 7.85219 0.267637 11.7071 0.261719 15.7216C0.261719 19.2049 1.47256 22.5791 3.67352 25.2641C5.8443 27.9123 8.87178 29.7524 12.1982 30.4456C12.4383 30.4956 12.6798 30.5202 12.9195 30.5202C13.7207 30.5201 14.5015 30.2454 15.1365 29.7266C15.9601 29.0537 16.4326 28.0564 16.4328 26.9902L16.4336 21.9014C19.0381 21.3685 21.004 19.0507 21.004 16.2805V13.2506C21.004 12.6008 20.4794 12.074 19.8321 12.074H18.836V9.0735C18.836 8.42363 18.3114 7.89684 17.6642 7.89684C17.0169 7.89684 16.4923 8.42363 16.4923 9.0735V12.074H14.1485V9.0735C14.1485 8.42363 13.6239 7.89684 12.9767 7.89684C12.3294 7.89684 11.8048 8.42363 11.8048 9.0735V12.074H10.7501C10.1029 12.074 9.57824 12.6008 9.57824 13.2506V16.2805C9.57824 19.0298 11.5146 21.3332 14.0898 21.8887L14.0891 26.9898C14.089 27.476 13.8185 27.7695 13.6573 27.9012C13.3815 28.1264 13.0233 28.214 12.6745 28.1413C6.84654 26.927 2.61461 21.7065 2.60424 15.7216C2.60424 15.7216 2.60553 15.7364 2.60553 15.7216C2.60553 8.71444 8.28309 2.95488 15.2618 2.95488C22.2405 2.95488 27.918 8.65561 27.918 15.6628C27.918 20.7999 24.8866 25.409 20.1952 27.405C19.5993 27.6585 19.3208 28.349 19.5734 28.9474C19.8259 29.5458 20.5137 29.8254 21.1096 29.5718C23.7873 28.4326 26.0673 26.5393 27.7031 24.0965C29.3769 21.5971 30.2617 18.6807 30.2617 15.6628C30.2617 11.6398 28.7015 7.85754 25.8683 5.01285ZM11.9219 16.2805V14.4273H18.6601V16.2805C18.6601 18.1459 17.1488 19.6634 15.291 19.6634C13.4332 19.6634 11.9219 18.1458 11.9219 16.2805Z" fill="white"/>
</g>
<defs>
<clipPath id="clip0_560_1394">
<rect width="30" height="31" fill="white" transform="translate(0.261719 0.5)"/>
</clipPath>
</defs>
</svg>
