<svg width="141" height="140" viewBox="0 0 141 140" fill="none" xmlns="http://www.w3.org/2000/svg">
<g clip-path="url(#clip0_736_16)">
<path fill-rule="evenodd" clip-rule="evenodd" d="M17.8206 46.2869C13.5921 43.9888 8.44531 47.0505 8.44531 51.8622L17.8206 46.2869ZM17.8206 46.2869L62.5338 70.5871C62.5339 70.5872 62.5337 70.5871 62.5338 70.5871C64.5772 71.6976 65.8489 73.8366 65.8497 76.1609V133.652C65.8497 138.518 60.5983 141.573 56.3681 139.168L11.6541 113.749C9.67084 112.621 8.44531 110.514 8.44531 108.232V51.8622M58.6152 77.798C58.6153 77.798 58.6151 77.7979 58.6152 77.798V77.798ZM57.6429 77.2695L16.6521 54.9923V107.15L57.6429 130.453V77.2695Z" fill="url(#paint0_linear_736_16)"/>
<path fill-rule="evenodd" clip-rule="evenodd" d="M67.1962 0.729906C69.0346 -0.2375 71.2287 -0.242996 73.0709 0.711799L121.83 25.9898C126.389 28.3536 126.4 34.8729 121.845 37.2489L73.0858 62.6843L73.0855 62.6845C71.2355 63.6493 69.0281 63.6438 67.182 62.6663M67.1817 62.6661L19.1419 37.231C19.1419 37.231 19.1419 37.231 19.1419 37.231C14.6336 34.844 14.6421 28.3834 19.156 26.008L67.1958 0.730133C67.196 0.730057 67.1961 0.729982 67.1962 0.729906M114.875 31.6283L70.1573 8.4454L26.0989 31.6283L70.1575 54.9556L114.875 31.6283Z" fill="url(#paint1_linear_736_16)"/>
<path fill-rule="evenodd" clip-rule="evenodd" d="M123.994 46.2869C128.222 43.989 133.369 47.0499 133.369 51.8621C133.369 51.8624 133.369 51.8619 133.369 51.8621V108.232C133.369 110.515 132.143 112.621 130.16 113.748L85.4456 139.168C81.2161 141.572 75.9648 138.518 75.9648 133.652V76.1625C75.9648 73.8372 77.2366 71.6978 79.2802 70.5872M79.2802 70.5872L123.994 46.2869C123.994 46.2869 123.994 46.2869 123.994 46.2869M127.913 53.4976C127.913 53.4976 127.913 53.4976 127.913 53.4976V53.4976ZM125.162 54.9924L84.1716 77.2693V130.452L125.162 107.15V54.9924Z" fill="url(#paint2_linear_736_16)"/>
</g>
<defs>
<linearGradient id="paint0_linear_736_16" x1="37.1475" y1="140.007" x2="37.1475" y2="45.5078" gradientUnits="userSpaceOnUse">
<stop stop-color="#5558FF"/>
<stop offset="1" stop-color="#00C0FF"/>
</linearGradient>
<linearGradient id="paint1_linear_736_16" x1="70.5104" y1="63.4038" x2="70.5104" y2="0" gradientUnits="userSpaceOnUse">
<stop stop-color="#5558FF"/>
<stop offset="1" stop-color="#00C0FF"/>
</linearGradient>
<linearGradient id="paint2_linear_736_16" x1="104.667" y1="140.007" x2="104.667" y2="45.5078" gradientUnits="userSpaceOnUse">
<stop stop-color="#5558FF"/>
<stop offset="1" stop-color="#00C0FF"/>
</linearGradient>
<clipPath id="clip0_736_16">
<rect width="140" height="140" fill="white" transform="translate(0.90625)"/>
</clipPath>
</defs>
</svg>
