<svg width="30" height="30" viewBox="0 0 30 30" fill="none" xmlns="http://www.w3.org/2000/svg">
<path d="M26.6405 13.8281H22.9841C21.1317 13.8281 19.6246 15.3353 19.6246 17.1877V26.6405C19.6246 28.4928 21.1317 30 22.9841 30H26.6405C28.4928 30 30 28.4928 30 26.6405V17.1877C30 15.3353 28.4928 13.8281 26.6405 13.8281ZM27.6562 26.6405C27.6562 27.2005 27.2005 27.6562 26.6405 27.6562H22.9841C22.424 27.6562 21.9683 27.2005 21.9683 26.6405V17.1877C21.9683 16.6276 22.424 16.1719 22.9841 16.1719H26.6405C27.2005 16.1719 27.6562 16.6276 27.6562 17.1877V26.6405ZM10.3754 12.8123V3.35953C10.3754 1.50719 8.86826 0 7.01591 0H3.35953C1.50719 0 0 1.50719 0 3.35953V12.8123C0 14.6647 1.50719 16.1719 3.35953 16.1719H7.01591C8.86826 16.1719 10.3754 14.6647 10.3754 12.8123ZM2.34375 12.8123V3.35953C2.34375 2.79945 2.79945 2.34375 3.35953 2.34375H7.01591C7.57599 2.34375 8.03169 2.79945 8.03169 3.35953V12.8123C8.03169 13.3724 7.57599 13.8281 7.01591 13.8281H3.35953C2.79945 13.8281 2.34375 13.3724 2.34375 12.8123ZM19.9061 2.34375C17.8471 2.34375 16.1719 4.01894 16.1719 6.07796V23.922C16.1719 27.2733 13.4452 30 10.0939 30C6.7424 30 4.01573 27.2733 4.01573 23.922V19.6095C4.01573 18.9622 4.54056 18.4376 5.18761 18.4376C5.83488 18.4376 6.35948 18.9622 6.35948 19.6095V23.922C6.35948 25.9811 8.0349 27.6562 10.0939 27.6562C12.1529 27.6562 13.8281 25.9811 13.8281 23.922V6.07796C13.8281 2.72667 16.5548 0 19.9061 0C23.2576 0 25.9843 2.72667 25.9843 6.07796V10.3905C25.9843 11.0378 25.4594 11.5624 24.8124 11.5624C24.1651 11.5624 23.6405 11.0378 23.6405 10.3905V6.07796C23.6405 4.01894 21.9653 2.34375 19.9061 2.34375Z" fill="white"/>
</svg>
