<svg width="51" height="52" viewBox="0 0 51 52" fill="none" xmlns="http://www.w3.org/2000/svg">
<path d="M22.2983 37.166C25.7696 37.166 28.5938 34.342 28.5938 30.8707C28.5938 30.0455 27.9248 29.3766 27.0996 29.3766C26.2744 29.3766 25.6055 30.0455 25.6055 30.8707C25.6055 32.6943 24.1219 34.1777 22.2983 34.1777C20.4749 34.1777 18.9914 32.6943 18.9914 30.8707C18.9914 28.5395 20.589 27.4101 21.1357 27.0397C22.7995 25.9285 23.7925 24.0709 23.7925 22.0686C23.7925 21.2435 23.1235 20.5749 22.2983 20.5749C21.4732 20.5749 20.8042 21.2443 20.8042 22.0694C20.8042 23.0715 20.3066 24.0012 19.4733 24.5567C19.4699 24.5589 19.4665 24.5611 19.4631 24.5634C16.241 26.7526 16.0031 29.7575 16.0031 30.8708C16.0031 34.342 18.8271 37.166 22.2983 37.166Z" fill="white"/>
<path d="M22.3027 14.9746C21.4775 14.9746 20.8086 15.6436 20.8086 16.4688C20.8086 17.2939 21.4775 17.9629 22.3027 17.9629C23.1279 17.9629 23.7969 17.2939 23.7969 16.4688C23.7969 15.6436 23.1279 14.9746 22.3027 14.9746Z" fill="white"/>
<path d="M22.2993 3.77148C34.5951 3.77148 44.5984 13.775 44.5984 26.0707C44.5984 30.0977 43.5137 34.0129 41.4615 37.3927C41.4595 37.396 41.4576 37.3992 41.4556 37.4024C40.9825 38.1683 41.188 39.1752 41.9234 39.6948C45.173 41.9889 50.3673 45.655 50.3673 45.6551C50.8992 46.0306 51.1268 46.7072 50.9299 47.3278C50.733 47.9483 50.1568 48.37 49.5058 48.37H22.2992C10.0035 48.37 0.000133514 38.3665 0.000133514 26.0707C0.000133514 13.775 10.0035 3.77148 22.2993 3.77148ZM22.2993 45.3817H44.798C43.275 44.3067 41.5655 43.1001 40.1998 42.1358C40.1997 42.1357 40.1996 42.1357 40.1995 42.1356C38.1794 40.7086 37.6136 37.9436 38.9097 35.838C40.6765 32.9265 41.6102 29.5492 41.6102 26.0707C41.6102 15.4227 32.9473 6.75977 22.2992 6.75977C11.6512 6.75977 2.98841 15.4227 2.98841 26.0707C2.98841 36.7188 11.6512 45.3817 22.2993 45.3817Z" fill="white"/>
</svg>
