<svg width="123" height="95" viewBox="0 0 123 95" fill="none" xmlns="http://www.w3.org/2000/svg">
<path d="M56.557 70.2215C56.5702 73.5243 55.8849 76.791 54.5479 79.7977C53.2109 82.8045 51.2538 85.4803 48.8108 87.6419C43.5686 92.5317 36.6791 95.1592 29.5847 94.9743C20.5784 94.9743 13.4674 91.77 8.25157 85.3614C3.04121 78.989 0.257411 70.9076 0.412389 62.604C0.412389 42.7237 5.74696 27.7633 16.4161 17.7228C27.0852 7.68234 38.8957 2.12365 51.8473 1.04676V22.8539C45.3206 23.5645 39.1416 26.2187 34.0775 30.4872C31.4713 32.4804 29.3243 35.0335 27.7879 37.9668C26.2514 40.9 25.3629 44.1419 25.1848 47.4641C27.3358 46.3931 29.702 45.8508 32.0945 45.8805C39.8304 45.8805 45.8414 48.124 50.1277 52.6111C52.2928 54.9607 53.9769 57.7288 55.081 60.753C56.1851 63.7771 56.6869 66.9963 56.557 70.2215ZM122.4 70.2215C122.416 73.5248 121.732 76.7925 120.395 79.7997C119.058 82.807 117.099 85.4824 114.654 87.6419C109.412 92.5317 102.522 95.1592 95.4276 94.9743C86.442 94.9743 79.3878 91.77 74.2649 85.3614C69.1172 78.9588 66.3708 70.8901 66.5187 62.604C66.5187 42.7237 71.7965 27.7633 82.352 17.7228C92.9075 7.68234 104.702 2.10253 117.737 0.983398V22.7905C111.224 23.5286 105.067 26.2048 100.029 30.4872C97.4032 32.4686 95.2368 35.017 93.6838 37.9512C92.1307 40.8854 91.2292 44.1334 91.0433 47.4641C93.1886 46.3927 95.5499 45.8503 97.9374 45.8805C105.663 45.8805 111.674 48.124 115.971 52.6111C118.136 54.9599 119.819 57.7283 120.921 60.7529C122.022 63.7775 122.52 66.997 122.384 70.2215H122.4Z" fill="#F3F5F7" fill-opacity="0.25"/>
</svg>
