<svg width="33" height="34" viewBox="0 0 33 34" fill="none" xmlns="http://www.w3.org/2000/svg">
<g clip-path="url(#clip0_239_38)">
<path d="M32.0371 6.40234H33.0039V4.46875H32.0371C25.4326 4.46875 20.0011 9.5902 19.5055 16.0703C19.481 16.3894 19.4688 16.7116 19.4688 17.0371V29.6055H33.0039V16.0703H21.4455C21.936 10.6575 26.4993 6.40234 32.0371 6.40234Z" fill="white"/>
<path d="M12.5684 6.40234H13.5352V4.46875H12.5684C5.96385 4.46875 0.532383 9.5902 0.0367383 16.0703C0.0122461 16.3894 0 16.7116 0 17.0371V29.6055H13.5352V16.0703H1.97678C2.46727 10.6575 7.03055 6.40234 12.5684 6.40234Z" fill="white"/>
</g>
<defs>
<clipPath id="clip0_239_38">
<rect width="33" height="33" fill="white" transform="translate(0 0.539062)"/>
</clipPath>
</defs>
</svg>
