<svg width="30" height="30" viewBox="0 0 30 30" fill="none" xmlns="http://www.w3.org/2000/svg">
<path d="M19.0625 22.5H10.9375C9.04125 22.5 7.5 20.9587 7.5 19.0625V10.9375C7.5 9.04125 9.04125 7.5 10.9375 7.5H19.0625C20.9587 7.5 22.5 9.04125 22.5 10.9375V19.0625C22.5 20.9587 20.9587 22.5 19.0625 22.5ZM10.9375 9.375C10.0762 9.375 9.375 10.0762 9.375 10.9375V19.0625C9.375 19.9238 10.0762 20.625 10.9375 20.625H19.0625C19.9238 20.625 20.625 19.9238 20.625 19.0625V10.9375C20.625 10.0762 19.9238 9.375 19.0625 9.375H10.9375Z" fill="white"/>
<path d="M18.75 26.5625C18.2325 26.5625 17.8125 26.1425 17.8125 25.625V21.875C17.8125 21.3575 18.2325 20.9375 18.75 20.9375C19.2675 20.9375 19.6875 21.3575 19.6875 21.875V25.625C19.6875 26.1425 19.2675 26.5625 18.75 26.5625Z" fill="white"/>
<path d="M18.75 30C17.3713 30 16.25 28.8788 16.25 27.5C16.25 26.1213 17.3713 25 18.75 25C20.1288 25 21.25 26.1213 21.25 27.5C21.25 28.8788 20.1288 30 18.75 30ZM18.75 26.875C18.4063 26.875 18.125 27.155 18.125 27.5C18.125 27.845 18.4063 28.125 18.75 28.125C19.0938 28.125 19.375 27.845 19.375 27.5C19.375 27.155 19.0938 26.875 18.75 26.875Z" fill="white"/>
<path d="M11.25 26.5625C10.7325 26.5625 10.3125 26.1425 10.3125 25.625V21.875C10.3125 21.3575 10.7325 20.9375 11.25 20.9375C11.7675 20.9375 12.1875 21.3575 12.1875 21.875V25.625C12.1875 26.1425 11.7675 26.5625 11.25 26.5625Z" fill="white"/>
<path d="M11.25 30C9.87125 30 8.75 28.8788 8.75 27.5C8.75 26.1213 9.87125 25 11.25 25C12.6288 25 13.75 26.1213 13.75 27.5C13.75 28.8788 12.6288 30 11.25 30ZM11.25 26.875C10.9063 26.875 10.625 27.155 10.625 27.5C10.625 27.845 10.9063 28.125 11.25 28.125C11.5938 28.125 11.875 27.845 11.875 27.5C11.875 27.155 11.5938 26.875 11.25 26.875Z" fill="white"/>
<path d="M11.25 9.0625C10.7325 9.0625 10.3125 8.6425 10.3125 8.125V4.375C10.3125 3.8575 10.7325 3.4375 11.25 3.4375C11.7675 3.4375 12.1875 3.8575 12.1875 4.375V8.125C12.1875 8.6425 11.7675 9.0625 11.25 9.0625Z" fill="white"/>
<path d="M11.25 5C9.87125 5 8.75 3.87875 8.75 2.5C8.75 1.12125 9.87125 0 11.25 0C12.6288 0 13.75 1.12125 13.75 2.5C13.75 3.87875 12.6288 5 11.25 5ZM11.25 1.875C10.9063 1.875 10.625 2.155 10.625 2.5C10.625 2.845 10.9063 3.125 11.25 3.125C11.5938 3.125 11.875 2.845 11.875 2.5C11.875 2.155 11.5938 1.875 11.25 1.875Z" fill="white"/>
<path d="M18.75 9.0625C18.2325 9.0625 17.8125 8.6425 17.8125 8.125V4.375C17.8125 3.8575 18.2325 3.4375 18.75 3.4375C19.2675 3.4375 19.6875 3.8575 19.6875 4.375V8.125C19.6875 8.6425 19.2675 9.0625 18.75 9.0625Z" fill="white"/>
<path d="M18.75 5C17.3713 5 16.25 3.87875 16.25 2.5C16.25 1.12125 17.3713 0 18.75 0C20.1288 0 21.25 1.12125 21.25 2.5C21.25 3.87875 20.1288 5 18.75 5ZM18.75 1.875C18.4063 1.875 18.125 2.155 18.125 2.5C18.125 2.845 18.4063 3.125 18.75 3.125C19.0938 3.125 19.375 2.845 19.375 2.5C19.375 2.155 19.0938 1.875 18.75 1.875Z" fill="white"/>
<path d="M8.125 19.6875H4.375C3.8575 19.6875 3.4375 19.2675 3.4375 18.75C3.4375 18.2325 3.8575 17.8125 4.375 17.8125H8.125C8.6425 17.8125 9.0625 18.2325 9.0625 18.75C9.0625 19.2675 8.6425 19.6875 8.125 19.6875Z" fill="white"/>
<path d="M2.5 21.25C1.12125 21.25 0 20.1288 0 18.75C0 17.3713 1.12125 16.25 2.5 16.25C3.87875 16.25 5 17.3713 5 18.75C5 20.1288 3.87875 21.25 2.5 21.25ZM2.5 18.125C2.15625 18.125 1.875 18.405 1.875 18.75C1.875 19.095 2.15625 19.375 2.5 19.375C2.84375 19.375 3.125 19.095 3.125 18.75C3.125 18.405 2.84375 18.125 2.5 18.125Z" fill="white"/>
<path d="M8.125 12.1875H4.375C3.8575 12.1875 3.4375 11.7675 3.4375 11.25C3.4375 10.7325 3.8575 10.3125 4.375 10.3125H8.125C8.6425 10.3125 9.0625 10.7325 9.0625 11.25C9.0625 11.7675 8.6425 12.1875 8.125 12.1875Z" fill="white"/>
<path d="M2.5 13.75C1.12125 13.75 0 12.6288 0 11.25C0 9.87125 1.12125 8.75 2.5 8.75C3.87875 8.75 5 9.87125 5 11.25C5 12.6288 3.87875 13.75 2.5 13.75ZM2.5 10.625C2.15625 10.625 1.875 10.905 1.875 11.25C1.875 11.595 2.15625 11.875 2.5 11.875C2.84375 11.875 3.125 11.595 3.125 11.25C3.125 10.905 2.84375 10.625 2.5 10.625Z" fill="white"/>
<path d="M25.625 12.1875H21.875C21.3575 12.1875 20.9375 11.7675 20.9375 11.25C20.9375 10.7325 21.3575 10.3125 21.875 10.3125H25.625C26.1425 10.3125 26.5625 10.7325 26.5625 11.25C26.5625 11.7675 26.1425 12.1875 25.625 12.1875Z" fill="white"/>
<path d="M27.5 13.75C26.1213 13.75 25 12.6288 25 11.25C25 9.87125 26.1213 8.75 27.5 8.75C28.8788 8.75 30 9.87125 30 11.25C30 12.6288 28.8788 13.75 27.5 13.75ZM27.5 10.625C27.1563 10.625 26.875 10.905 26.875 11.25C26.875 11.595 27.1563 11.875 27.5 11.875C27.8438 11.875 28.125 11.595 28.125 11.25C28.125 10.905 27.8438 10.625 27.5 10.625Z" fill="white"/>
<path d="M25.625 19.6875H21.875C21.3575 19.6875 20.9375 19.2675 20.9375 18.75C20.9375 18.2325 21.3575 17.8125 21.875 17.8125H25.625C26.1425 17.8125 26.5625 18.2325 26.5625 18.75C26.5625 19.2675 26.1425 19.6875 25.625 19.6875Z" fill="white"/>
<path d="M27.5 21.25C26.1213 21.25 25 20.1288 25 18.75C25 17.3713 26.1213 16.25 27.5 16.25C28.8788 16.25 30 17.3713 30 18.75C30 20.1288 28.8788 21.25 27.5 21.25ZM27.5 18.125C27.1563 18.125 26.875 18.405 26.875 18.75C26.875 19.095 27.1563 19.375 27.5 19.375C27.8438 19.375 28.125 19.095 28.125 18.75C28.125 18.405 27.8438 18.125 27.5 18.125Z" fill="white"/>
</svg>
