<svg width="30" height="30" viewBox="0 0 30 30" fill="none" xmlns="http://www.w3.org/2000/svg">
<path d="M28.7501 0H16.2499C15.5629 0 15 0.5625 15 1.24988V8.74988C15 9.43725 15.5629 9.99975 16.2499 9.99975H28.7501C29.4371 9.99975 30 9.43725 30 8.74988V1.24988C30 0.5625 29.4371 0 28.7501 0ZM27.4999 7.5H17.5001V2.50012H27.4999V7.5Z" fill="white"/>
<path d="M13.7501 20H1.24988C0.562866 20 0 20.5625 0 21.2495V28.7495C0 29.4373 0.562866 29.9998 1.24988 29.9998H13.7501C14.4371 29.9998 15 29.4373 15 28.7495V21.2495C15 20.5625 14.4371 20 13.7501 20ZM12.4999 27.5H2.50012V22.4998H12.4999V27.5Z" fill="white"/>
<path d="M8.75134 6.24976H12.4999V3.75H8.75134C5.99026 3.75 3.75 5.98762 3.75 8.74878V13.2327L1.76777 11.2515L0 13.0189L4.11636 17.1338C4.60349 17.6224 5.39546 17.6224 5.88413 17.1338L10.0005 13.0178L8.23235 11.25L6.25012 13.2326L6.25122 8.74871C6.25122 7.36802 7.37065 6.24976 8.75134 6.24976Z" fill="white"/>
<path d="M25.8835 12.8662C25.3964 12.3779 24.6044 12.3779 24.1157 12.8662L19.9998 16.9825L21.7675 18.7499L23.7498 16.7673L23.7487 21.2512C23.7487 22.632 22.6293 23.7503 21.2485 23.7503H17.5V26.25H21.2485C24.0097 26.25 26.2499 24.0124 26.2499 21.2512V16.7673L28.2321 18.7485L29.9999 16.9811L25.8835 12.8662Z" fill="white"/>
</svg>
