<svg width="109" height="109" viewBox="0 0 109 109" fill="none" xmlns="http://www.w3.org/2000/svg">
<g opacity="0.5" filter="url(#filter0_f_354_138)">
<path d="M20.8594 54.468C20.8594 35.8774 35.9301 20.8066 54.5207 20.8066H88.1821V54.468C88.1821 73.0587 73.1114 88.1294 54.5207 88.1294C35.9301 88.1294 20.8594 73.0587 20.8594 54.468Z" fill="#00BD79"/>
</g>
<path d="M8 44.4673C8 24.2989 24.3497 7.94922 44.5181 7.94922H81.0362V44.4673C81.0362 64.6357 64.6865 80.9854 44.5181 80.9854C24.3497 80.9854 8 64.6357 8 44.4673Z" fill="#00BD79"/>
<g clip-path="url(#clip0_354_138)">
<path d="M39.0681 51.8435H34.3096L36.5342 47.926L38.6838 49.1876C38.953 49.3457 39.2892 49.3232 39.5359 49.1308C39.7825 48.9385 39.8908 48.614 39.8104 48.3088L37.4149 39.2199C37.3051 38.8031 36.8837 38.5558 36.4737 38.6674L27.5338 41.1028C27.2336 41.1846 27.0114 41.4422 26.9708 41.7555C26.9302 42.0688 27.0793 42.3761 27.3485 42.5341L29.3408 43.7035L25.3339 50.7593C24.6804 51.9101 24.6804 53.34 25.3339 54.4908L27.5667 58.4226C28.2202 59.5734 29.4382 60.2884 30.7452 60.2884H39.068C39.4924 60.2884 39.8365 59.9386 39.8365 59.5071V52.6249C39.8365 52.4177 39.7555 52.2189 39.6114 52.0724C39.4674 51.9258 39.2719 51.8435 39.0681 51.8435ZM26.665 53.7095C26.2852 53.0406 26.2852 52.2095 26.665 51.5407L31.056 43.8083C31.2683 43.4346 31.1423 42.9568 30.7748 42.741L29.7238 42.124L36.1292 40.3791L37.8455 46.8914L36.6371 46.1821C36.4607 46.0785 36.251 46.0505 36.054 46.104C35.8571 46.1577 35.6893 46.2886 35.5874 46.4681L29.0855 57.9174C29.0167 57.8309 28.9534 57.7392 28.8978 57.6413L26.665 53.7095ZM38.2995 58.7258H30.7452C30.6342 58.7258 30.5245 58.7158 30.4166 58.6986L33.4222 53.4062H38.2996L38.2995 58.7258Z" fill="white"/>
<path d="M63.694 51.3457L59.5326 44.0178C59.3204 43.644 58.8503 43.516 58.4828 43.7318L52.6203 47.1729C52.4438 47.2765 52.315 47.4471 52.2623 47.6473C52.2095 47.8475 52.2371 48.0608 52.339 48.2402L54.7183 52.4299H50.2689V49.9065C50.2689 49.5905 50.0816 49.3056 49.7945 49.1846C49.5073 49.0636 49.1768 49.1306 48.957 49.3539L42.4126 56.0074C42.1125 56.3125 42.1125 56.8073 42.4126 57.1124L48.957 63.7659C49.1041 63.9154 49.3006 63.9948 49.5006 63.9948C49.5996 63.9948 49.6995 63.9753 49.7945 63.9353C50.0817 63.8143 50.2689 63.5294 50.2689 63.2134V60.8745H58.2826C59.5896 60.8745 60.8076 60.1596 61.4611 59.0088L63.6939 55.077C64.3475 53.9263 64.3475 52.4965 63.694 51.3457ZM54.0543 48.1356L58.5857 45.4758L62.3629 52.127C62.4184 52.2247 62.4648 52.3262 62.504 52.4299H56.493L54.0543 48.1356ZM60.1301 58.2276C59.7503 58.8965 59.0424 59.312 58.2826 59.312H49.5004C49.076 59.312 48.7319 59.6618 48.7319 60.0933V61.3272L44.0428 56.5599L48.7319 51.7926V53.2111C48.7319 53.6426 49.076 53.9924 49.5004 53.9924H62.5043C62.465 54.0963 62.4185 54.1979 62.3629 54.2957L60.1301 58.2276Z" fill="white"/>
<path d="M42.6405 38.3535L45.0197 34.1638L47.2444 38.0813L45.0949 39.343C44.8257 39.501 44.6767 39.8084 44.7172 40.1216C44.7578 40.4349 44.9799 40.6925 45.2802 40.7743L54.22 43.2097C54.2867 43.2278 54.3536 43.2365 54.4195 43.2365C54.7588 43.2365 55.0693 43.0062 55.1613 42.6572L57.5567 33.5683C57.6372 33.2631 57.5288 32.9386 57.2823 32.7463C57.0358 32.5539 56.6995 32.5314 56.4302 32.6895L54.4379 33.8588L53.7325 32.6166C53.5203 32.2429 53.0503 32.1148 52.6827 32.3307C52.3151 32.5464 52.1892 33.0242 52.4014 33.3979L53.4911 35.3168C53.7032 35.6904 54.1733 35.8185 54.5409 35.6027L55.592 34.9858L53.8757 41.498L47.4702 39.7531L48.6785 39.0439C49.0461 38.8281 49.172 38.3503 48.9598 37.9766L42.4579 26.5273C42.5659 26.51 42.6757 26.5001 42.7869 26.5001H47.2525C47.9304 26.5001 48.5741 26.8321 48.9741 27.3882C49.2246 27.7365 49.7055 27.8123 50.0481 27.5575C50.3906 27.3027 50.4652 26.8138 50.2146 26.4656C49.5262 25.5087 48.4188 24.9375 47.2524 24.9375H42.7868C41.4798 24.9375 40.2618 25.6524 39.6082 26.8033L35.4469 34.1311C35.2346 34.5048 35.3606 34.9827 35.7281 35.1984L41.5906 38.6395C41.7671 38.7432 41.9768 38.7713 42.1737 38.7176C42.3708 38.6639 42.5386 38.533 42.6405 38.3535ZM41.6937 36.8956L37.1623 34.2357L40.9394 27.5846C40.9949 27.4868 41.0583 27.3952 41.1269 27.3088L44.1324 32.6012L41.6937 36.8956Z" fill="white"/>
<path d="M51.331 30.7443C51.5339 30.7443 51.7314 30.6607 51.8743 30.5153C52.0173 30.37 52.0995 30.1684 52.0995 29.963C52.0995 29.7575 52.0173 29.5559 51.8743 29.4106C51.7314 29.2652 51.5339 29.1816 51.331 29.1816C51.1289 29.1816 50.9306 29.2652 50.7877 29.4106C50.6447 29.5559 50.5625 29.7575 50.5625 29.963C50.5625 30.1692 50.6447 30.37 50.7877 30.5153C50.9306 30.6607 51.1289 30.7443 51.331 30.7443Z" fill="white"/>
</g>
<defs>
<filter id="filter0_f_354_138" x="0.859375" y="0.806641" width="107.32" height="107.322" filterUnits="userSpaceOnUse" color-interpolation-filters="sRGB">
<feFlood flood-opacity="0" result="BackgroundImageFix"/>
<feBlend mode="normal" in="SourceGraphic" in2="BackgroundImageFix" result="shape"/>
<feGaussianBlur stdDeviation="10" result="effect1_foregroundBlur_354_138"/>
</filter>
<clipPath id="clip0_354_138">
<rect width="39.3443" height="40" fill="white" transform="translate(24.8438 24.4668)"/>
</clipPath>
</defs>
</svg>
