<svg width="41" height="41" viewBox="0 0 41 41" fill="none" xmlns="http://www.w3.org/2000/svg">
<g clip-path="url(#clip0_354_141)">
<path d="M15.0681 27.8435H10.3096L12.5342 23.926L14.6838 25.1876C14.953 25.3457 15.2892 25.3232 15.5359 25.1308C15.7825 24.9385 15.8908 24.614 15.8104 24.3088L13.4149 15.2199C13.3051 14.8031 12.8837 14.5558 12.4737 14.6674L3.53382 17.1028C3.23357 17.1846 3.01139 17.4422 2.97082 17.7555C2.93024 18.0688 3.07933 18.3761 3.34854 18.5341L5.34081 19.7035L1.3339 26.7593C0.680366 27.9101 0.680366 29.34 1.3339 30.4908L3.56671 34.4226C4.22017 35.5734 5.43818 36.2884 6.74525 36.2884H15.068C15.4924 36.2884 15.8365 35.9386 15.8365 35.5071V28.6249C15.8365 28.4177 15.7555 28.2189 15.6114 28.0724C15.4674 27.9258 15.2719 27.8435 15.0681 27.8435ZM2.66495 29.7095C2.28516 29.0406 2.28516 28.2095 2.66495 27.5407L7.05603 19.8083C7.26829 19.4346 7.14233 18.9568 6.77476 18.741L5.72375 18.124L12.1292 16.3791L13.8455 22.8914L12.6371 22.1821C12.4607 22.0785 12.251 22.0505 12.054 22.104C11.8571 22.1577 11.6893 22.2886 11.5874 22.4681L5.08551 33.9174C5.01673 33.8309 4.9534 33.7392 4.89784 33.6413L2.66495 29.7095ZM14.2995 34.7258H6.74525C6.6342 34.7258 6.52453 34.7158 6.41663 34.6986L9.42218 29.4062H14.2996L14.2995 34.7258Z" fill="white"/>
<path d="M39.694 27.3457L35.5326 20.0178C35.3204 19.644 34.8503 19.516 34.4828 19.7318L28.6203 23.1729C28.4438 23.2765 28.315 23.4471 28.2623 23.6473C28.2095 23.8475 28.2371 24.0608 28.339 24.2402L30.7183 28.4299H26.2689V25.9065C26.2689 25.5905 26.0816 25.3056 25.7945 25.1846C25.5073 25.0636 25.1768 25.1306 24.957 25.3539L18.4126 32.0074C18.1125 32.3125 18.1125 32.8073 18.4126 33.1124L24.957 39.7659C25.1041 39.9154 25.3006 39.9948 25.5006 39.9948C25.5996 39.9948 25.6995 39.9753 25.7945 39.9353C26.0817 39.8143 26.2689 39.5294 26.2689 39.2134V36.8745H34.2826C35.5896 36.8745 36.8076 36.1596 37.4611 35.0088L39.6939 31.077C40.3475 29.9263 40.3475 28.4965 39.694 27.3457ZM30.0543 24.1356L34.5857 21.4758L38.3629 28.127C38.4184 28.2247 38.4648 28.3262 38.504 28.4299H32.493L30.0543 24.1356ZM36.1301 34.2276C35.7503 34.8965 35.0424 35.312 34.2826 35.312H25.5004C25.076 35.312 24.7319 35.6618 24.7319 36.0933V37.3272L20.0428 32.5599L24.7319 27.7926V29.2111C24.7319 29.6426 25.076 29.9924 25.5004 29.9924H38.5043C38.465 30.0963 38.4185 30.1979 38.3629 30.2957L36.1301 34.2276Z" fill="white"/>
<path d="M18.6405 14.3535L21.0197 10.1638L23.2444 14.0813L21.0949 15.343C20.8257 15.501 20.6767 15.8084 20.7172 16.1216C20.7578 16.4349 20.9799 16.6925 21.2802 16.7743L30.22 19.2097C30.2867 19.2278 30.3536 19.2365 30.4195 19.2365C30.7588 19.2365 31.0693 19.0062 31.1613 18.6572L33.5567 9.56835C33.6372 9.26309 33.5288 8.93861 33.2823 8.74625C33.0358 8.55389 32.6995 8.53139 32.4302 8.68945L30.4379 9.85884L29.7325 8.61663C29.5203 8.24285 29.0503 8.11479 28.6827 8.33067C28.3151 8.54639 28.1892 9.02424 28.4014 9.39794L29.4911 11.3168C29.7032 11.6904 30.1733 11.8185 30.5409 11.6027L31.592 10.9858L29.8757 17.498L23.4702 15.7531L24.6785 15.0439C25.0461 14.8281 25.172 14.3503 24.9598 13.9766L18.4579 2.52732C18.5659 2.51005 18.6757 2.50013 18.7869 2.50013H23.2525C23.9304 2.50013 24.5741 2.8321 24.9741 3.38816C25.2246 3.73647 25.7055 3.81226 26.0481 3.55748C26.3906 3.30269 26.4652 2.81382 26.2146 2.46559C25.5262 1.50872 24.4188 0.9375 23.2524 0.9375H18.7868C17.4798 0.9375 16.2618 1.6524 15.6082 2.80327L11.4469 10.1311C11.2346 10.5048 11.3606 10.9827 11.7281 11.1984L17.5906 14.6395C17.7671 14.7432 17.9768 14.7713 18.1737 14.7176C18.3708 14.6639 18.5386 14.533 18.6405 14.3535ZM17.6937 12.8956L13.1623 10.2357L16.9394 3.58459C16.9949 3.48684 17.0583 3.3952 17.1269 3.30878L20.1324 8.60124L17.6937 12.8956Z" fill="white"/>
<path d="M27.331 6.74427C27.5339 6.74427 27.7314 6.66067 27.8743 6.51534C28.0173 6.37002 28.0995 6.16844 28.0995 5.96295C28.0995 5.75747 28.0173 5.55589 27.8743 5.41057C27.7314 5.26524 27.5339 5.18164 27.331 5.18164C27.1289 5.18164 26.9306 5.26524 26.7877 5.41057C26.6447 5.55589 26.5625 5.75747 26.5625 5.96295C26.5625 6.16922 26.6447 6.37002 26.7877 6.51534C26.9306 6.66067 27.1289 6.74427 27.331 6.74427Z" fill="white"/>
</g>
<defs>
<clipPath id="clip0_354_141">
<rect width="39.3443" height="40" fill="white" transform="translate(0.84375 0.466797)"/>
</clipPath>
</defs>
</svg>
