<svg width="30" height="30" viewBox="0 0 30 30" fill="none" xmlns="http://www.w3.org/2000/svg">
<g clip-path="url(#clip0_560_1581)">
<path d="M15.0001 9.9043C13.2231 9.9043 11.7773 11.35 11.7773 13.1271C11.7773 14.5994 12.7701 15.8433 14.1212 16.227V26.2525C14.1212 26.7379 14.5147 27.1315 15.0001 27.1315C15.4855 27.1315 15.8791 26.7379 15.8791 26.2525V16.227C17.2301 15.8434 18.2229 14.5994 18.2229 13.1271C18.2229 11.35 16.7771 9.9043 15.0001 9.9043Z" fill="white"/>
<path d="M10.9353 8.42736C10.5921 8.08411 10.0357 8.08411 9.69234 8.42736C6.96734 11.1522 6.96693 15.5632 9.69234 18.2885C10.0357 18.6318 10.5921 18.6318 10.9353 18.2885C11.2786 17.9453 11.2786 17.3888 10.9353 17.0455C8.89737 15.0076 8.89702 11.7086 10.9353 9.67036C11.2786 9.3271 11.2786 8.77056 10.9353 8.42736Z" fill="white"/>
<path d="M20.309 8.42732C19.9658 8.08412 19.4093 8.08412 19.066 8.42732C18.7228 8.77051 18.7228 9.32706 19.066 9.67031C21.0994 11.7036 21.0994 15.0121 19.066 17.0455C18.7228 17.3887 18.7228 17.9452 19.066 18.2885C19.4093 18.6317 19.9658 18.6317 20.309 18.2885C23.0278 15.5698 23.0278 11.146 20.309 8.42732Z" fill="white"/>
<path d="M8.28103 7.01992C8.62429 6.67673 8.62429 6.12018 8.28103 5.77693C7.93784 5.43373 7.38129 5.43373 7.03804 5.77693C2.85711 9.95786 2.85711 16.7607 7.03804 20.9416C7.38118 21.2848 7.93772 21.285 8.28103 20.9416C8.62429 20.5984 8.62429 20.0418 8.28103 19.6986C4.78556 16.2031 4.78556 10.5155 8.28103 7.01992Z" fill="white"/>
<path d="M22.9614 5.77693C22.6182 5.43373 22.0616 5.43373 21.7184 5.77693C21.3751 6.12012 21.3751 6.67667 21.7184 7.01992C25.2139 10.5155 25.2139 16.2031 21.7184 19.6986C21.3751 20.0418 21.3751 20.5983 21.7184 20.9416C22.0617 21.2848 22.6181 21.2848 22.9614 20.9416C27.1423 16.7607 27.1423 9.95786 22.9614 5.77693Z" fill="white"/>
<path d="M5.63032 4.36758C5.97357 4.02438 5.97357 3.46784 5.63032 3.12458C5.28712 2.78139 4.73058 2.78139 4.38733 3.12458C-1.4688 8.98065 -1.45608 17.7493 4.38733 23.5927C4.73046 23.9359 5.28701 23.9361 5.63032 23.5927C5.97357 23.2495 5.97357 22.693 5.63032 22.3498C0.504649 17.224 0.504649 9.49336 5.63032 4.36758Z" fill="white"/>
<path d="M25.6137 3.12458C25.2705 2.78139 24.714 2.78139 24.3707 3.12458C24.0275 3.46778 24.0275 4.02432 24.3707 4.36758C29.4965 9.49336 29.4965 17.224 24.3707 22.3498C24.0275 22.6929 24.0275 23.2495 24.3707 23.5927C24.714 23.936 25.2705 23.936 25.6137 23.5927C31.4698 17.7367 31.4572 8.96799 25.6137 3.12458Z" fill="white"/>
</g>
<defs>
<clipPath id="clip0_560_1581">
<rect width="30" height="30" fill="white"/>
</clipPath>
</defs>
</svg>
