<svg width="31" height="31" viewBox="0 0 31 31" fill="none" xmlns="http://www.w3.org/2000/svg">
<path d="M26.9805 4.25H3.54297C2.23047 4.25 1.19922 5.32812 1.19922 6.59375V24.4062C1.19922 25.7187 2.27734 26.75 3.54297 26.75H26.9805C28.2929 26.75 29.3242 25.6719 29.3242 24.4062V6.59375C29.3242 5.32812 28.2461 4.25 26.9805 4.25ZM27.4492 24.4062C27.4492 24.6875 27.2148 24.875 26.9805 24.875H3.54297C3.26172 24.875 3.07422 24.6406 3.07422 24.4062V6.59375C3.07422 6.3125 3.3086 6.125 3.54297 6.125H26.9805C27.2617 6.125 27.4492 6.35938 27.4492 6.59375V24.4062Z" fill="white"/>
<path d="M5.41797 9.40625C5.93574 9.40625 6.35547 8.98652 6.35547 8.46875C6.35547 7.95098 5.93574 7.53125 5.41797 7.53125C4.9002 7.53125 4.48047 7.95098 4.48047 8.46875C4.48047 8.98652 4.9002 9.40625 5.41797 9.40625Z" fill="white"/>
<path d="M8.69922 9.40625C9.21699 9.40625 9.63672 8.98652 9.63672 8.46875C9.63672 7.95098 9.21699 7.53125 8.69922 7.53125C8.18145 7.53125 7.76172 7.95098 7.76172 8.46875C7.76172 8.98652 8.18145 9.40625 8.69922 9.40625Z" fill="white"/>
<path d="M10.7617 12.0312C10.3867 11.6562 9.82422 11.6562 9.44922 12.0312L5.69922 15.7812C5.32422 16.1562 5.32422 16.7188 5.69922 17.0938L9.44922 20.8438C9.63672 21.0312 9.8711 21.125 10.1055 21.125C10.3398 21.125 10.5742 21.0312 10.7617 20.8438C11.1367 20.4688 11.1367 19.9062 10.7617 19.5312L7.66797 16.4375L10.7617 13.3437C11.1367 12.9687 11.1367 12.4062 10.7617 12.0312Z" fill="white"/>
<path d="M21.0742 12.0312C20.6992 11.6562 20.1367 11.6562 19.7617 12.0312C19.3867 12.4062 19.3867 12.9687 19.7617 13.3437L22.8555 16.4375L19.7617 19.5312C19.3867 19.9062 19.3867 20.4688 19.7617 20.8438C19.9492 21.0312 20.1836 21.125 20.418 21.125C20.6523 21.125 20.8867 21.0312 21.0742 20.8438L24.8242 17.0938C25.1992 16.7188 25.1992 16.1562 24.8242 15.7812L21.0742 12.0312Z" fill="white"/>
<path d="M17.465 10.3908C16.9962 10.2033 16.4337 10.4845 16.2931 10.9533L12.5431 21.7345C12.3556 22.2033 12.6368 22.7658 13.1056 22.9064C13.1993 23.0001 13.2931 23.0001 13.3868 23.0001C13.7618 23.0001 14.1368 22.7658 14.2775 22.3908L18.0275 11.6095C18.215 11.0939 17.9337 10.5783 17.465 10.3908Z" fill="white"/>
</svg>
