<svg width="109" height="108" viewBox="0 0 109 108" fill="none" xmlns="http://www.w3.org/2000/svg">
<g opacity="0.5" filter="url(#filter0_f_354_86)">
<path d="M20.8594 54.2883C20.8594 35.6977 35.9301 20.627 54.5207 20.627H88.1821V54.2883C88.1821 72.879 73.1114 87.9497 54.5207 87.9497C35.9301 87.9497 20.8594 72.879 20.8594 54.2883Z" fill="#00B8E0"/>
</g>
<path d="M8 44.2876C8 24.1192 24.3497 7.76953 44.5181 7.76953H81.0362V44.2876C81.0362 64.456 64.6865 80.8057 44.5181 80.8057C24.3497 80.8057 8 64.456 8 44.2876Z" fill="#00B8E0"/>
<g clip-path="url(#clip0_354_86)">
<path d="M44.5148 27.4121C44.0822 27.4121 43.7344 27.7605 43.7344 28.1926C43.7344 28.5947 44.0369 28.9293 44.4367 28.969C44.8996 29.0149 45.2953 28.6544 45.2953 28.1926C45.2953 27.7599 44.9469 27.4121 44.5148 27.4121Z" fill="white"/>
<path d="M60.1406 28.9746C57.9867 28.9746 56.2344 27.2223 56.2344 25.0684C56.2344 24.637 55.8845 24.2871 55.4531 24.2871H33.5781C33.1467 24.2871 32.7969 24.637 32.7969 25.0684C32.7969 27.2223 31.0445 28.9746 28.8906 28.9746C28.4592 28.9746 28.1094 29.3245 28.1094 29.7559V42.5051C28.1094 52.4408 34.5855 61.3438 44.2913 64.2542C44.3645 64.2761 44.44 64.2871 44.5156 64.2871C44.5912 64.2871 44.667 64.2761 44.7401 64.2541C54.2355 61.4058 60.9219 52.6581 60.9219 42.5051V29.7559C60.9219 29.3245 60.572 28.9746 60.1406 28.9746ZM59.3594 42.5051C59.3594 51.837 53.4046 59.9185 44.5156 62.6889C35.6975 59.9406 29.6719 51.7859 29.6719 42.5051V30.4815C32.0634 30.1379 33.9602 28.2411 34.3038 25.8496H54.7275C55.0711 28.2411 56.9679 30.1379 59.3594 30.4815V42.5051Z" fill="white"/>
<path d="M57.3291 31.5129C55.6998 30.7994 54.4096 29.5091 53.6961 27.8799C53.5716 27.5957 53.2908 27.4121 52.9805 27.4121H47.6391C47.2077 27.4121 46.8578 27.762 46.8578 28.1934C46.8578 28.6248 47.2077 28.9746 47.6391 28.9746H52.4865C53.3119 30.5903 54.6187 31.897 56.2344 32.7225V42.5051C56.2344 50.1506 51.6446 56.7475 44.5156 59.3882C37.3866 56.7474 32.7969 50.1506 32.7969 42.5051V32.7225C34.4126 31.897 35.7193 30.5903 36.5448 28.9746H41.3922C41.8236 28.9746 42.1734 28.6248 42.1734 28.1934C42.1734 27.762 41.8236 27.4121 41.3922 27.4121H36.0508C35.7405 27.4121 35.4597 27.5958 35.3352 27.8799C34.6216 29.5091 33.3314 30.7994 31.7022 31.5129C31.418 31.6374 31.2344 31.9183 31.2344 32.2285V42.5051C31.2344 50.8811 36.4149 58.1811 44.255 60.9555C44.3393 60.9854 44.4274 61.0003 44.5156 61.0003C44.6038 61.0003 44.692 60.9854 44.7762 60.9555C52.6098 58.1834 57.7969 50.8879 57.7969 42.5051V32.2285C57.7969 31.9182 57.6132 31.6374 57.3291 31.5129Z" fill="white"/>
<path d="M44.5156 35.6934C40.6386 35.6934 37.4844 38.8476 37.4844 42.7246C37.4844 46.6016 40.6386 49.7559 44.5156 49.7559C48.3927 49.7559 51.5469 46.6016 51.5469 42.7246C51.5469 38.8476 48.3927 35.6934 44.5156 35.6934ZM44.5156 48.1934C41.5002 48.1934 39.0469 45.7401 39.0469 42.7246C39.0469 39.7091 41.5002 37.2559 44.5156 37.2559C47.5311 37.2559 49.9844 39.7091 49.9844 42.7246C49.9844 45.7401 47.5311 48.1934 44.5156 48.1934Z" fill="white"/>
<path d="M48.1931 40.6096C47.8879 40.3046 47.3934 40.3046 47.0882 40.6096L43.7344 43.9634L42.7244 42.9534C42.4192 42.6484 41.9247 42.6484 41.6194 42.9534C41.3144 43.2585 41.3144 43.7532 41.6194 44.0584L43.1819 45.6209C43.3346 45.7733 43.5344 45.8496 43.7344 45.8496C43.9344 45.8496 44.1343 45.7733 44.2869 45.6208L48.1931 41.7145C48.4982 41.4095 48.4982 40.9148 48.1931 40.6096Z" fill="white"/>
</g>
<defs>
<filter id="filter0_f_354_86" x="0.859375" y="0.626953" width="107.32" height="107.322" filterUnits="userSpaceOnUse" color-interpolation-filters="sRGB">
<feFlood flood-opacity="0" result="BackgroundImageFix"/>
<feBlend mode="normal" in="SourceGraphic" in2="BackgroundImageFix" result="shape"/>
<feGaussianBlur stdDeviation="10" result="effect1_foregroundBlur_354_86"/>
</filter>
<clipPath id="clip0_354_86">
<rect width="40" height="40" fill="white" transform="translate(24.5156 24.2871)"/>
</clipPath>
</defs>
</svg>
