<svg width="41" height="41" viewBox="0 0 41 41" fill="none" xmlns="http://www.w3.org/2000/svg">
<g clip-path="url(#clip0_354_89)">
<path d="M20.5148 3.41211C20.0822 3.41211 19.7344 3.76055 19.7344 4.19258C19.7344 4.59469 20.0369 4.9293 20.4367 4.96898C20.8996 5.01492 21.2953 4.65438 21.2953 4.19258C21.2953 3.75992 20.9469 3.41211 20.5148 3.41211Z" fill="white"/>
<path d="M36.1406 4.97461C33.9867 4.97461 32.2344 3.22227 32.2344 1.06836C32.2344 0.636953 31.8845 0.287109 31.4531 0.287109H9.57812C9.14672 0.287109 8.79688 0.636953 8.79688 1.06836C8.79688 3.22227 7.04453 4.97461 4.89062 4.97461C4.45922 4.97461 4.10938 5.32445 4.10938 5.75586V18.5051C4.10938 28.4408 10.5855 37.3438 20.2913 40.2542C20.3645 40.2761 20.44 40.2871 20.5156 40.2871C20.5912 40.2871 20.667 40.2761 20.7401 40.2541C30.2355 37.4058 36.9219 28.6581 36.9219 18.5051V5.75586C36.9219 5.32445 36.572 4.97461 36.1406 4.97461ZM35.3594 18.5051C35.3594 27.837 29.4046 35.9185 20.5156 38.6889C11.6975 35.9406 5.67188 27.7859 5.67188 18.5051V6.48148C8.06336 6.13789 9.96016 4.24109 10.3038 1.84961H30.7275C31.0711 4.24109 32.9679 6.13789 35.3594 6.48148V18.5051Z" fill="white"/>
<path d="M33.3291 7.51289C31.6998 6.79937 30.4096 5.50914 29.6961 3.87992C29.5716 3.5957 29.2908 3.41211 28.9805 3.41211H23.6391C23.2077 3.41211 22.8578 3.76195 22.8578 4.19336C22.8578 4.62477 23.2077 4.97461 23.6391 4.97461H28.4865C29.3119 6.59031 30.6187 7.89703 32.2344 8.7225V18.5051C32.2344 26.1506 27.6446 32.7475 20.5156 35.3882C13.3866 32.7474 8.79688 26.1506 8.79688 18.5051V8.7225C10.4126 7.89703 11.7193 6.59031 12.5448 4.97461H17.3922C17.8236 4.97461 18.1734 4.62477 18.1734 4.19336C18.1734 3.76195 17.8236 3.41211 17.3922 3.41211H12.0508C11.7405 3.41211 11.4597 3.59578 11.3352 3.87992C10.6216 5.50914 9.33141 6.79937 7.70219 7.51289C7.41805 7.63742 7.23438 7.91828 7.23438 8.22852V18.5051C7.23438 26.8811 12.4149 34.1811 20.255 36.9555C20.3393 36.9854 20.4274 37.0003 20.5156 37.0003C20.6038 37.0003 20.692 36.9854 20.7762 36.9555C28.6098 34.1834 33.7969 26.8879 33.7969 18.5051V8.22852C33.7969 7.9182 33.6132 7.63742 33.3291 7.51289Z" fill="white"/>
<path d="M20.5156 11.6934C16.6386 11.6934 13.4844 14.8476 13.4844 18.7246C13.4844 22.6016 16.6386 25.7559 20.5156 25.7559C24.3927 25.7559 27.5469 22.6016 27.5469 18.7246C27.5469 14.8476 24.3927 11.6934 20.5156 11.6934ZM20.5156 24.1934C17.5002 24.1934 15.0469 21.7401 15.0469 18.7246C15.0469 15.7091 17.5002 13.2559 20.5156 13.2559C23.5311 13.2559 25.9844 15.7091 25.9844 18.7246C25.9844 21.7401 23.5311 24.1934 20.5156 24.1934Z" fill="white"/>
<path d="M24.1931 16.6096C23.8879 16.3046 23.3934 16.3046 23.0882 16.6096L19.7344 19.9634L18.7244 18.9534C18.4192 18.6484 17.9247 18.6484 17.6194 18.9534C17.3144 19.2585 17.3144 19.7532 17.6194 20.0584L19.1819 21.6209C19.3346 21.7733 19.5344 21.8496 19.7344 21.8496C19.9344 21.8496 20.1343 21.7733 20.2869 21.6208L24.1931 17.7145C24.4982 17.4095 24.4982 16.9148 24.1931 16.6096Z" fill="white"/>
</g>
<defs>
<clipPath id="clip0_354_89">
<rect width="40" height="40" fill="white" transform="translate(0.515625 0.287109)"/>
</clipPath>
</defs>
</svg>
