<svg width="109" height="109" viewBox="0 0 109 109" fill="none" xmlns="http://www.w3.org/2000/svg">
<g opacity="0.5" filter="url(#filter0_f_354_123)">
<path d="M20.8594 54.468C20.8594 35.8774 35.9301 20.8066 54.5207 20.8066H88.1821V54.468C88.1821 73.0587 73.1114 88.1294 54.5207 88.1294C35.9301 88.1294 20.8594 73.0587 20.8594 54.468Z" fill="#6129FF"/>
</g>
<path d="M8 44.4673C8 24.2989 24.3497 7.94922 44.5181 7.94922H81.0362V44.4673C81.0362 64.6357 64.6865 80.9854 44.5181 80.9854C24.3497 80.9854 8 64.6357 8 44.4673Z" fill="#6129FF"/>
<g clip-path="url(#clip0_354_123)">
<path d="M56.21 29.1923C56.4586 28.8395 56.374 28.3521 56.0211 28.1037C52.6425 25.7244 48.6649 24.4668 44.5185 24.4668C41.9229 24.4668 39.3972 24.957 37.0115 25.9236C36.6116 26.0856 36.4188 26.5412 36.5808 26.941C36.7428 27.3409 37.1981 27.5337 37.5982 27.3717C39.7967 26.4809 42.1249 26.0293 44.5185 26.0293C48.3411 26.0293 52.0075 27.1884 55.1215 29.3812C55.2583 29.4774 55.4153 29.5237 55.5707 29.5237C55.8162 29.5237 56.0579 29.4083 56.21 29.1923Z" fill="white"/>
<path d="M64.5188 44.466C64.5188 40.4688 63.3433 36.6103 61.1192 33.3078C60.8781 32.9499 60.3926 32.8553 60.0348 33.0962C59.6769 33.3372 59.5821 33.8227 59.8231 34.1806C61.8729 37.2243 62.9563 40.781 62.9563 44.466C62.9563 48.3847 61.7539 52.0997 59.4742 55.2505C59.1006 55.0806 58.6864 54.9853 58.25 54.9853C56.613 54.9853 55.2812 56.3171 55.2812 57.954C55.2812 59.591 56.613 60.9228 58.25 60.9228C59.887 60.9228 61.2187 59.591 61.2187 57.954C61.2187 57.3204 61.0186 56.733 60.6791 56.2504C63.1926 52.8138 64.5188 48.7521 64.5188 44.466ZM58.25 59.3603C57.4746 59.3603 56.8437 58.7294 56.8437 57.954C56.8437 57.1786 57.4746 56.5478 58.25 56.5478C59.0254 56.5478 59.6562 57.1786 59.6562 57.954C59.6562 58.7294 59.0254 59.3603 58.25 59.3603Z" fill="white"/>
<path d="M51.4358 61.5615C49.2375 62.4523 46.9092 62.904 44.5156 62.904C34.3491 62.904 26.0781 54.633 26.0781 44.4665C26.0781 40.5478 27.2805 36.8328 29.5602 33.682C29.9338 33.8519 30.348 33.9473 30.7845 33.9473C32.4214 33.9473 33.7532 32.6155 33.7532 30.9785C33.7532 29.3416 32.4214 28.0098 30.7845 28.0098C29.1475 28.0098 27.8157 29.3416 27.8157 30.9785C27.8157 31.6121 28.0159 32.1995 28.3554 32.6821C25.8419 36.1188 24.5156 40.1805 24.5156 44.4665C24.5156 49.8087 26.596 54.8311 30.3734 58.6086C34.151 62.3862 39.1734 64.4665 44.5156 64.4665C47.1113 64.4665 49.637 63.9763 52.0227 63.0097C52.4225 62.8477 52.6153 62.3921 52.4533 61.9923C52.2912 61.5923 51.8356 61.3995 51.4358 61.5615ZM30.7845 29.5723C31.5598 29.5723 32.1907 30.2031 32.1907 30.9785C32.1907 31.7539 31.5598 32.3848 30.7845 32.3848C30.0091 32.3848 29.3782 31.7539 29.3782 30.9785C29.3782 30.2031 30.0091 29.5723 30.7845 29.5723Z" fill="white"/>
<path d="M44.5151 42.7305C42.8655 42.7305 41.5234 44.0725 41.5234 45.722C41.5234 46.4059 41.7514 47.0548 42.1713 47.5818V49.9148C42.1713 51.2071 43.2227 52.2585 44.5151 52.2585C45.8074 52.2585 46.8588 51.2071 46.8588 49.9148V47.5818C47.2788 47.0547 47.5067 46.4059 47.5067 45.722C47.5067 44.0725 46.1647 42.7305 44.5151 42.7305ZM45.5253 46.7328C45.3788 46.8794 45.2963 47.0781 45.2963 47.2854V49.9148C45.2963 50.3455 44.9459 50.696 44.5151 50.696C44.0843 50.696 43.7338 50.3455 43.7338 49.9148V47.2854C43.7338 47.0781 43.6514 46.8793 43.5048 46.7328C43.2347 46.4628 43.0859 46.1039 43.0859 45.722C43.0859 44.9341 43.727 44.293 44.5151 44.293C45.3031 44.293 45.9442 44.9341 45.9442 45.722C45.9442 46.1039 45.7955 46.4629 45.5253 46.7328Z" fill="white"/>
<path d="M51.6993 39.7502V38.1485C51.6993 34.1874 48.4767 30.9648 44.5156 30.9648C40.5545 30.9648 37.332 34.1874 37.332 38.1485V39.7502C36.3205 40.1808 35.6094 41.1846 35.6094 42.3515V52.6378C35.6094 54.1959 36.877 55.4634 38.4349 55.4634H50.5963C52.1543 55.4634 53.4219 54.1959 53.4219 52.6378V42.3515C53.4219 41.1846 52.7108 40.1808 51.6993 39.7502ZM38.8945 38.1485C38.8945 35.049 41.4161 32.5273 44.5156 32.5273C47.6152 32.5273 50.1368 35.049 50.1368 38.1485V39.5259H48.498V38.1485C48.498 35.9526 46.7116 34.1661 44.5155 34.1661C42.3195 34.1661 40.533 35.9527 40.533 38.1485V39.5259H38.8943V38.1485H38.8945ZM42.0956 39.5259V38.1485C42.0956 36.8141 43.1813 35.7286 44.5156 35.7286C45.85 35.7286 46.9356 36.8141 46.9356 38.1485V39.5259H42.0956ZM51.8594 52.6378C51.8594 53.3343 51.2927 53.9009 50.5963 53.9009H38.4349C37.7385 53.9009 37.1719 53.3343 37.1719 52.6378V42.3515C37.1719 41.655 37.7385 41.0884 38.4349 41.0884H50.5963C51.2927 41.0884 51.8594 41.6551 51.8594 42.3515V52.6378Z" fill="white"/>
<path d="M58.25 31.802C58.4555 31.802 58.657 31.7191 58.8023 31.5738C58.9476 31.4285 59.0312 31.227 59.0312 31.0215C59.0312 30.8152 58.9477 30.6137 58.8023 30.4684C58.657 30.323 58.4554 30.2402 58.25 30.2402C58.0445 30.2402 57.843 30.323 57.6977 30.4684C57.5524 30.6137 57.4688 30.8152 57.4688 31.0215C57.4688 31.227 57.5523 31.4277 57.6977 31.5738C57.843 31.7191 58.0445 31.802 58.25 31.802Z" fill="white"/>
</g>
<defs>
<filter id="filter0_f_354_123" x="0.859375" y="0.806641" width="107.32" height="107.322" filterUnits="userSpaceOnUse" color-interpolation-filters="sRGB">
<feFlood flood-opacity="0" result="BackgroundImageFix"/>
<feBlend mode="normal" in="SourceGraphic" in2="BackgroundImageFix" result="shape"/>
<feGaussianBlur stdDeviation="10" result="effect1_foregroundBlur_354_123"/>
</filter>
<clipPath id="clip0_354_123">
<rect width="40" height="40" fill="white" transform="translate(24.5156 24.4668)"/>
</clipPath>
</defs>
</svg>
