<svg width="41" height="41" viewBox="0 0 41 41" fill="none" xmlns="http://www.w3.org/2000/svg">
<g clip-path="url(#clip0_354_126)">
<path d="M32.21 5.19227C32.4586 4.83945 32.374 4.35211 32.0211 4.10367C28.6425 1.72437 24.6649 0.466797 20.5185 0.466797C17.9229 0.466797 15.3972 0.956953 13.0115 1.92359C12.6116 2.08562 12.4188 2.54117 12.5808 2.94102C12.7428 3.34086 13.1981 3.53375 13.5982 3.37172C15.7967 2.48094 18.1249 2.0293 20.5185 2.0293C24.3411 2.0293 28.0075 3.18836 31.1215 5.38117C31.2583 5.47742 31.4153 5.52375 31.5707 5.52375C31.8162 5.52375 32.0579 5.40828 32.21 5.19227Z" fill="white"/>
<path d="M40.5188 20.466C40.5188 16.4688 39.3433 12.6103 37.1192 9.30783C36.8781 8.94987 36.3926 8.85526 36.0348 9.09619C35.6769 9.33721 35.5821 9.82268 35.8231 10.1806C37.8729 13.2243 38.9563 16.781 38.9563 20.466C38.9563 24.3847 37.7539 28.0997 35.4742 31.2505C35.1006 31.0806 34.6864 30.9853 34.25 30.9853C32.613 30.9853 31.2812 32.3171 31.2812 33.954C31.2812 35.591 32.613 36.9228 34.25 36.9228C35.887 36.9228 37.2187 35.591 37.2187 33.954C37.2187 33.3204 37.0186 32.733 36.6791 32.2504C39.1926 28.8138 40.5188 24.7521 40.5188 20.466ZM34.25 35.3603C33.4746 35.3603 32.8437 34.7294 32.8437 33.954C32.8437 33.1786 33.4746 32.5478 34.25 32.5478C35.0254 32.5478 35.6562 33.1786 35.6562 33.954C35.6562 34.7294 35.0254 35.3603 34.25 35.3603Z" fill="white"/>
<path d="M27.4358 37.5615C25.2375 38.4523 22.9092 38.904 20.5156 38.904C10.3491 38.904 2.07813 30.633 2.07813 20.4665C2.07813 16.5478 3.28055 12.8328 5.56024 9.68203C5.93383 9.85187 6.34805 9.94727 6.78445 9.94727C8.42141 9.94727 9.7532 8.61547 9.7532 6.97852C9.7532 5.34156 8.42141 4.00977 6.78445 4.00977C5.1475 4.00977 3.8157 5.34156 3.8157 6.97852C3.8157 7.61211 4.01586 8.19953 4.35539 8.68211C1.84187 12.1188 0.515625 16.1805 0.515625 20.4665C0.515625 25.8087 2.59602 30.8311 6.37344 34.6086C10.151 38.3862 15.1734 40.4665 20.5156 40.4665C23.1113 40.4665 25.637 39.9763 28.0227 39.0097C28.4225 38.8477 28.6153 38.3921 28.4533 37.9923C28.2912 37.5923 27.8356 37.3995 27.4358 37.5615ZM6.78445 5.57227C7.55984 5.57227 8.1907 6.20312 8.1907 6.97852C8.1907 7.75391 7.55984 8.38477 6.78445 8.38477C6.00906 8.38477 5.3782 7.75391 5.3782 6.97852C5.3782 6.20312 6.00906 5.57227 6.78445 5.57227Z" fill="white"/>
<path d="M20.5151 18.7305C18.8655 18.7305 17.5234 20.0725 17.5234 21.722C17.5234 22.4059 17.7514 23.0548 18.1713 23.5818V25.9148C18.1713 27.2071 19.2227 28.2585 20.5151 28.2585C21.8074 28.2585 22.8588 27.2071 22.8588 25.9148V23.5818C23.2788 23.0547 23.5067 22.4059 23.5067 21.722C23.5067 20.0725 22.1647 18.7305 20.5151 18.7305ZM21.5253 22.7328C21.3788 22.8794 21.2963 23.0781 21.2963 23.2854V25.9148C21.2963 26.3455 20.9459 26.696 20.5151 26.696C20.0843 26.696 19.7338 26.3455 19.7338 25.9148V23.2854C19.7338 23.0781 19.6514 22.8793 19.5048 22.7328C19.2347 22.4628 19.0859 22.1039 19.0859 21.722C19.0859 20.9341 19.727 20.293 20.5151 20.293C21.3031 20.293 21.9442 20.9341 21.9442 21.722C21.9442 22.1039 21.7955 22.4629 21.5253 22.7328Z" fill="white"/>
<path d="M27.6993 15.7502V14.1485C27.6993 10.1874 24.4767 6.96484 20.5156 6.96484C16.5545 6.96484 13.332 10.1874 13.332 14.1485V15.7502C12.3205 16.1808 11.6094 17.1846 11.6094 18.3515V28.6378C11.6094 30.1959 12.877 31.4634 14.4349 31.4634H26.5963C28.1543 31.4634 29.4219 30.1959 29.4219 28.6378V18.3515C29.4219 17.1846 28.7108 16.1808 27.6993 15.7502ZM14.8945 14.1485C14.8945 11.049 17.4161 8.52734 20.5156 8.52734C23.6152 8.52734 26.1368 11.049 26.1368 14.1485V15.5259H24.498V14.1485C24.498 11.9526 22.7116 10.1661 20.5155 10.1661C18.3195 10.1661 16.533 11.9527 16.533 14.1485V15.5259H14.8943V14.1485H14.8945ZM18.0956 15.5259V14.1485C18.0956 12.8141 19.1813 11.7286 20.5156 11.7286C21.85 11.7286 22.9356 12.8141 22.9356 14.1485V15.5259H18.0956ZM27.8594 28.6378C27.8594 29.3343 27.2927 29.9009 26.5963 29.9009H14.4349C13.7385 29.9009 13.1719 29.3343 13.1719 28.6378V18.3515C13.1719 17.655 13.7385 17.0884 14.4349 17.0884H26.5963C27.2927 17.0884 27.8594 17.6551 27.8594 18.3515V28.6378Z" fill="white"/>
<path d="M34.25 7.80195C34.4555 7.80195 34.657 7.71914 34.8023 7.57383C34.9476 7.42852 35.0312 7.22695 35.0312 7.02148C35.0312 6.81523 34.9477 6.61367 34.8023 6.46836C34.657 6.32305 34.4554 6.24023 34.25 6.24023C34.0445 6.24023 33.843 6.32305 33.6977 6.46836C33.5524 6.61367 33.4688 6.81523 33.4688 7.02148C33.4688 7.22695 33.5523 7.42773 33.6977 7.57383C33.843 7.71914 34.0445 7.80195 34.25 7.80195Z" fill="white"/>
</g>
<defs>
<clipPath id="clip0_354_126">
<rect width="40" height="40" fill="white" transform="translate(0.515625 0.466797)"/>
</clipPath>
</defs>
</svg>
