<svg width="30" height="31" viewBox="0 0 30 31" fill="none" xmlns="http://www.w3.org/2000/svg">
<path d="M15 1.53125C7.2975 1.53125 1.03125 7.7975 1.03125 15.5C1.03125 23.2025 7.2975 29.4687 15 29.4687C22.7025 29.4687 28.9687 23.2025 28.9687 15.5C28.9687 7.7975 22.7025 1.53125 15 1.53125ZM15 27.7812C8.2275 27.7812 2.71875 22.2716 2.71875 15.5C2.71875 8.72844 8.2275 3.21875 15 3.21875C21.7725 3.21875 27.2812 8.72844 27.2812 15.5C27.2812 22.2716 21.7725 27.7812 15 27.7812Z" fill="white"/>
<path d="M13.0098 23.1194C10.2573 22.4116 8.10105 20.2572 7.38012 17.4963C7.26293 17.0463 6.80262 16.7754 6.3498 16.8925C5.8998 17.0097 5.62887 17.471 5.74605 17.9219C6.62168 21.2754 9.24293 23.8929 12.5879 24.7535C12.6582 24.7722 12.7295 24.7807 12.7998 24.7807C13.1748 24.7807 13.5189 24.5275 13.6164 24.1469C13.7317 23.696 13.4598 23.2357 13.0098 23.1194Z" fill="white"/>
<path d="M24.2523 13.0772C23.3766 9.72374 20.7554 7.10624 17.4104 6.24561C16.9604 6.12936 16.4982 6.40124 16.382 6.85218C16.2666 7.30311 16.5385 7.76343 16.9885 7.87968C19.741 8.58749 21.8973 10.7419 22.6182 13.5028C22.7166 13.8825 23.0598 14.1337 23.4338 14.1337C23.5041 14.1337 23.5763 14.1244 23.6485 14.1056C24.0995 13.9884 24.3695 13.5281 24.2523 13.0772Z" fill="white"/>
<path d="M15.0005 10.2617C12.112 10.2617 9.76172 12.6111 9.76172 15.4995C9.76172 18.388 12.112 20.7373 15.0005 20.7373C17.8889 20.7373 20.2392 18.388 20.2392 15.4995C20.2392 12.6111 17.8889 10.2617 15.0005 10.2617ZM15.0005 19.0508C13.042 19.0508 11.4502 17.458 11.4502 15.4995C11.4502 13.5411 13.042 11.9483 15.0005 11.9483C16.9589 11.9483 18.5508 13.5411 18.5508 15.4995C18.5508 17.458 16.9589 19.0508 15.0005 19.0508Z" fill="white"/>
<path d="M15.0005 16.6142C15.6156 16.6142 16.1142 16.1156 16.1142 15.5005C16.1142 14.8854 15.6156 14.3867 15.0005 14.3867C14.3854 14.3867 13.8867 14.8854 13.8867 15.5005C13.8867 16.1156 14.3854 16.6142 15.0005 16.6142Z" fill="white"/>
</svg>
