<svg width="30" height="30" viewBox="0 0 30 30" fill="none" xmlns="http://www.w3.org/2000/svg">
<g clip-path="url(#clip0_560_1388)">
<path d="M9.90357 19.1494C9.30819 19.7448 9.30819 20.7102 9.90357 21.3053C10.4992 21.9007 11.4643 21.9007 12.0597 21.3053C13.6818 19.6832 16.3217 19.6832 17.9438 21.3053C18.2416 21.6029 18.6318 21.7519 19.0219 21.7519C19.412 21.7519 19.8023 21.6031 20.1001 21.3053C20.6954 20.71 20.6954 19.7446 20.1001 19.1494C17.2888 16.3382 12.7148 16.3382 9.90357 19.1494Z" fill="white"/>
<path d="M5.43482 14.6808C4.83944 15.2762 4.83944 16.2415 5.43482 16.8367C6.0302 17.4319 6.99533 17.4323 7.59092 16.8367C11.6771 12.7505 18.3259 12.7505 22.4118 16.8367C22.7096 17.1343 23.0999 17.2833 23.49 17.2833C23.8801 17.2833 24.2703 17.1345 24.5681 16.8367C25.1635 16.2413 25.1635 15.276 24.5681 14.6808C19.293 9.40588 10.7099 9.40588 5.43482 14.6808Z" fill="white"/>
<path d="M29.5536 9.69449C21.5286 1.66954 8.47128 1.66954 0.446536 9.69449C-0.148845 10.2899 -0.148845 11.2552 0.446536 11.8504C1.04212 12.4458 2.00725 12.4458 2.60264 11.8504C5.91393 8.53889 10.3168 6.71535 14.9999 6.71535C19.6831 6.71535 24.086 8.5391 27.3973 11.8504C27.6951 12.148 28.0853 12.297 28.4754 12.297C28.8655 12.297 29.2558 12.1482 29.5536 11.8504C30.1489 11.2552 30.1489 10.2899 29.5536 9.69449Z" fill="white"/>
<path d="M15.0013 26.3248C15.9253 26.3248 16.6744 25.5757 16.6744 24.6516C16.6744 23.7276 15.9253 22.9785 15.0013 22.9785C14.0772 22.9785 13.3281 23.7276 13.3281 24.6516C13.3281 25.5757 14.0772 26.3248 15.0013 26.3248Z" fill="white"/>
</g>
<defs>
<clipPath id="clip0_560_1388">
<rect width="30" height="30" fill="white"/>
</clipPath>
</defs>
</svg>
