<svg width="31" height="30" viewBox="0 0 31 30" fill="none" xmlns="http://www.w3.org/2000/svg">
<path fill-rule="evenodd" clip-rule="evenodd" d="M15.2697 1.23072C14.5734 1.23745 14.0164 1.81096 14.0299 2.50714V8.76453H12.7829C12.0876 8.76188 11.5233 9.32615 11.526 10.0214V20.0298C11.5233 20.725 12.0876 21.2893 12.7829 21.2867H14.0299V27.5441C14.0299 29.215 16.5363 29.215 16.5363 27.5441V21.2867H17.7932C18.4846 21.2839 19.0429 20.7212 19.0403 20.0298V10.0214C19.0429 9.32998 18.4846 8.7673 17.7932 8.76453H16.5363V2.50714C16.5501 1.8004 15.9765 1.22237 15.2697 1.23072ZM25.2781 1.23072C24.5866 1.24416 24.037 1.81567 24.0506 2.50714V16.2788H22.7913C22.1037 16.2815 21.5469 16.8383 21.5442 17.5259V27.5441C21.5416 28.2355 22.0999 28.7982 22.7913 28.8009H27.8016C28.4968 28.8036 29.0611 28.2393 29.0584 27.5441V17.5259C29.0557 16.8345 28.493 16.2762 27.8016 16.2788H26.5545V2.50714C26.5685 1.79649 25.9887 1.21677 25.2781 1.23072ZM2.76468 1.25028C2.06944 1.24763 1.50517 1.8119 1.50782 2.50714V12.5155C1.50517 13.2108 2.06944 13.7751 2.76468 13.7724H4.01176V27.5441C4.01176 29.215 6.51814 29.215 6.51814 27.5441V13.7724H7.775C8.46642 13.7697 9.02472 13.207 9.02208 12.5155V2.50714C9.02472 1.81572 8.46642 1.25304 7.775 1.25028H2.76468ZM4.01176 3.75421H6.51814V11.2685H4.01176V3.75421ZM14.0299 11.2685H16.5363V18.7827H14.0299V11.2685ZM24.0506 18.7827H26.5545V26.297H24.0506V18.7827Z" fill="white"/>
</svg>
