<svg width="140" height="140" viewBox="0 0 140 140" fill="none" xmlns="http://www.w3.org/2000/svg">
<path fill-rule="evenodd" clip-rule="evenodd" d="M65.8316 4.1393C65.8316 1.85336 67.6982 0 70.0005 0C72.303 0 74.1693 1.85336 74.1693 4.1393V11.4059C74.1693 13.6919 72.3027 15.5452 70.0005 15.5452C67.6982 15.5452 65.8316 13.6919 65.8316 11.4059V4.1393ZM70.0005 24.0997C93.8491 24.0997 113.251 43.3645 113.251 67.0437C113.251 81.5655 105.784 95.1376 93.6081 103.031L93.6084 108.96V116.559C93.6084 129.484 83.0177 140 69.9999 140C56.9822 140 46.3915 129.485 46.3915 116.559V103.03C34.217 95.1373 26.75 81.5649 26.75 67.0437C26.75 43.3645 46.1519 24.0997 70.0005 24.0997ZM70.0005 131.722C78.4208 131.722 85.2712 124.92 85.2712 116.56V113.099H54.7298V116.56C54.7298 124.92 61.5801 131.722 70.0005 131.722ZM85.2712 100.715C85.2712 99.2326 86.069 97.8638 87.3633 97.1255C98.1887 90.951 104.914 79.4242 104.914 67.0437C104.914 47.929 89.2525 32.3783 70.0013 32.3783C50.7501 32.3783 35.0883 47.9293 35.0883 67.0437C35.0883 79.4239 41.8128 90.9504 52.6382 97.1255C53.9325 97.8638 54.7303 99.2326 54.7303 100.715V104.821H65.8316V83.4167C60.4182 81.668 56.4936 76.6127 56.4936 70.6624C56.4936 68.3765 58.3602 66.5231 60.6625 66.5231C62.9648 66.5231 64.8314 68.3765 64.8314 70.6624C64.8314 73.4925 67.1505 75.7948 70.0005 75.7948C72.8505 75.7948 75.1693 73.4922 75.1693 70.6624C75.1693 68.3765 77.0359 66.5231 79.3382 66.5231C81.6404 66.5231 83.507 68.3765 83.507 70.6624C83.507 76.613 79.5822 81.668 74.1691 83.4167V104.821H85.2712V100.715ZM58.2738 12.4677L55.6862 5.67001C54.8721 3.53173 52.4655 2.45356 50.3128 3.26157C48.1592 4.06985 47.0731 6.45861 47.8871 8.59689L50.4744 15.3946C51.1051 17.051 52.6908 18.0715 54.3748 18.0715C54.8644 18.0715 55.3629 17.9851 55.8481 17.803C58.0017 16.9947 59.0878 14.606 58.2738 12.4677ZM84.3148 5.67028C85.1288 3.532 87.5344 2.45301 89.6882 3.26157C91.842 4.06985 92.9282 6.45833 92.1141 8.59689L89.5265 15.3946C88.8962 17.051 87.3105 18.0715 85.6262 18.0715C85.1365 18.0715 84.6383 17.9851 84.1531 17.803C81.9995 16.9947 80.9134 14.606 81.7272 12.468L84.3148 5.67028Z" fill="url(#paint0_linear_737_2)"/>
<defs>
<linearGradient id="paint0_linear_737_2" x1="70.0006" y1="140" x2="70.0006" y2="0" gradientUnits="userSpaceOnUse">
<stop stop-color="#5558FF"/>
<stop offset="1" stop-color="#00C0FF"/>
</linearGradient>
</defs>
</svg>
