<svg width="41" height="41" viewBox="0 0 41 41" fill="none" xmlns="http://www.w3.org/2000/svg">
<g clip-path="url(#clip0_354_78)">
<path d="M38.1719 14.0371H36.3559C37.5977 12.9208 38.3803 11.3032 38.3803 9.50586C38.3803 6.1457 35.6466 3.41211 32.2866 3.41211C28.9265 3.41211 26.1928 6.1457 26.1928 9.50586C26.1928 11.3032 26.9755 12.9208 28.2173 14.0371H24.0309C23.5994 14.0371 23.2496 14.387 23.2496 14.8184C23.2496 15.2498 23.5994 15.5996 24.0309 15.5996H38.1719C38.6027 15.5996 38.9531 15.9501 38.9531 16.3809C38.9531 16.8116 38.6027 17.1621 38.1719 17.1621H2.85938C2.42859 17.1621 2.07812 16.8116 2.07812 16.3809C2.07812 15.9501 2.42859 15.5996 2.85938 15.5996H16.9996C17.4311 15.5996 17.7809 15.2498 17.7809 14.8184C17.7809 14.387 17.4311 14.0371 16.9996 14.0371H12.8139C14.0557 12.9208 14.8384 11.3032 14.8384 9.50586C14.8384 6.1457 12.1047 3.41211 8.74461 3.41211C5.38453 3.41211 2.65086 6.1457 2.65086 9.50586C2.65086 11.3032 3.43352 12.9208 4.67531 14.0371H2.85938C1.56703 14.0371 0.515625 15.0885 0.515625 16.3809C0.515625 17.6732 1.56703 18.7246 2.85938 18.7246H19.1473L8.95938 35.9837C8.8168 36.2252 8.81461 36.5247 8.95375 36.7682C9.09281 37.0118 9.35172 37.1621 9.63219 37.1621H31.3991C31.6796 37.1621 31.9385 37.0118 32.0776 36.7682C32.2166 36.5247 32.2145 36.2252 32.072 35.9837L21.884 18.7246H38.1719C39.4642 18.7246 40.5156 17.6732 40.5156 16.3809C40.5156 15.0885 39.4642 14.0371 38.1719 14.0371ZM27.7553 9.50586C27.7553 7.00734 29.788 4.97461 32.2866 4.97461C34.7851 4.97461 36.8178 7.00734 36.8178 9.50586C36.8178 12.0044 34.7851 14.0371 32.2866 14.0371C29.788 14.0371 27.7553 12.0044 27.7553 9.50586ZM4.21344 9.50586C4.21344 7.00734 6.24617 4.97461 8.74469 4.97461C11.2432 4.97461 13.2759 7.00734 13.2759 9.50586C13.2759 12.0044 11.2432 14.0371 8.74469 14.0371C6.24617 14.0371 4.21344 12.0044 4.21344 9.50586ZM11.0005 35.5996L20.5156 19.4802L30.0307 35.5996H11.0005Z" fill="white"/>
<path d="M20.5156 15.5996C20.9471 15.5996 21.2969 15.2498 21.2969 14.8184C21.2969 14.3869 20.9471 14.0371 20.5156 14.0371C20.0842 14.0371 19.7344 14.3869 19.7344 14.8184C19.7344 15.2498 20.0842 15.5996 20.5156 15.5996Z" fill="white"/>
</g>
<defs>
<clipPath id="clip0_354_78">
<rect width="40" height="40" fill="white" transform="translate(0.515625 0.287109)"/>
</clipPath>
</defs>
</svg>
