<svg width="109" height="108" viewBox="0 0 109 108" fill="none" xmlns="http://www.w3.org/2000/svg">
<g opacity="0.5" filter="url(#filter0_f_354_75)">
<path d="M20.8594 54.2883C20.8594 35.6977 35.9301 20.627 54.5207 20.627H88.1821V54.2883C88.1821 72.879 73.1114 87.9497 54.5207 87.9497C35.9301 87.9497 20.8594 72.879 20.8594 54.2883Z" fill="#2775FF"/>
</g>
<path d="M8 44.2876C8 24.1192 24.3497 7.76953 44.5181 7.76953H81.0362V44.2876C81.0362 64.456 64.6865 80.8057 44.5181 80.8057C24.3497 80.8057 8 64.456 8 44.2876Z" fill="#2775FF"/>
<g clip-path="url(#clip0_354_75)">
<path d="M62.1719 38.0371H60.3559C61.5977 36.9208 62.3803 35.3032 62.3803 33.5059C62.3803 30.1457 59.6466 27.4121 56.2866 27.4121C52.9265 27.4121 50.1928 30.1457 50.1928 33.5059C50.1928 35.3032 50.9755 36.9208 52.2173 38.0371H48.0309C47.5994 38.0371 47.2496 38.387 47.2496 38.8184C47.2496 39.2498 47.5994 39.5996 48.0309 39.5996H62.1719C62.6027 39.5996 62.9531 39.9501 62.9531 40.3809C62.9531 40.8116 62.6027 41.1621 62.1719 41.1621H26.8594C26.4286 41.1621 26.0781 40.8116 26.0781 40.3809C26.0781 39.9501 26.4286 39.5996 26.8594 39.5996H40.9996C41.4311 39.5996 41.7809 39.2498 41.7809 38.8184C41.7809 38.387 41.4311 38.0371 40.9996 38.0371H36.8139C38.0557 36.9208 38.8384 35.3032 38.8384 33.5059C38.8384 30.1457 36.1047 27.4121 32.7446 27.4121C29.3845 27.4121 26.6509 30.1457 26.6509 33.5059C26.6509 35.3032 27.4335 36.9208 28.6753 38.0371H26.8594C25.567 38.0371 24.5156 39.0885 24.5156 40.3809C24.5156 41.6732 25.567 42.7246 26.8594 42.7246H43.1473L32.9594 59.9837C32.8168 60.2252 32.8146 60.5247 32.9538 60.7682C33.0928 61.0118 33.3517 61.1621 33.6322 61.1621H55.3991C55.6796 61.1621 55.9385 61.0118 56.0776 60.7682C56.2166 60.5247 56.2145 60.2252 56.072 59.9837L45.884 42.7246H62.1719C63.4642 42.7246 64.5156 41.6732 64.5156 40.3809C64.5156 39.0885 63.4642 38.0371 62.1719 38.0371ZM51.7553 33.5059C51.7553 31.0073 53.788 28.9746 56.2866 28.9746C58.7851 28.9746 60.8178 31.0073 60.8178 33.5059C60.8178 36.0044 58.7851 38.0371 56.2866 38.0371C53.788 38.0371 51.7553 36.0044 51.7553 33.5059ZM28.2134 33.5059C28.2134 31.0073 30.2462 28.9746 32.7447 28.9746C35.2432 28.9746 37.2759 31.0073 37.2759 33.5059C37.2759 36.0044 35.2432 38.0371 32.7447 38.0371C30.2462 38.0371 28.2134 36.0044 28.2134 33.5059ZM35.0005 59.5996L44.5156 43.4802L54.0307 59.5996H35.0005Z" fill="white"/>
<path d="M44.5156 39.5996C44.9471 39.5996 45.2969 39.2498 45.2969 38.8184C45.2969 38.3869 44.9471 38.0371 44.5156 38.0371C44.0842 38.0371 43.7344 38.3869 43.7344 38.8184C43.7344 39.2498 44.0842 39.5996 44.5156 39.5996Z" fill="white"/>
</g>
<defs>
<filter id="filter0_f_354_75" x="0.859375" y="0.626953" width="107.32" height="107.322" filterUnits="userSpaceOnUse" color-interpolation-filters="sRGB">
<feFlood flood-opacity="0" result="BackgroundImageFix"/>
<feBlend mode="normal" in="SourceGraphic" in2="BackgroundImageFix" result="shape"/>
<feGaussianBlur stdDeviation="10" result="effect1_foregroundBlur_354_75"/>
</filter>
<clipPath id="clip0_354_75">
<rect width="40" height="40" fill="white" transform="translate(24.5156 24.2871)"/>
</clipPath>
</defs>
</svg>
