<svg width="101" height="101" viewBox="0 0 101 101" fill="none" xmlns="http://www.w3.org/2000/svg">
<g clip-path="url(#clip0_1055_1923)">
<path fill-rule="evenodd" clip-rule="evenodd" d="M47.2695 3.54069C47.2695 1.90784 48.6028 0.583984 50.2474 0.583984C51.8921 0.583984 53.2252 1.90784 53.2252 3.54069V8.73123C53.2252 10.3641 51.8919 11.6879 50.2474 11.6879C48.6028 11.6879 47.2695 10.3641 47.2695 8.73123V3.54069ZM50.2453 17.7969C67.2804 17.7969 81.1393 31.5577 81.1393 48.4717C81.1393 58.8446 75.8055 68.5392 67.1083 74.1772L67.1085 78.4128V83.8407C67.1085 93.0731 59.5435 100.584 50.2449 100.584C40.9464 100.584 33.3814 93.0733 33.3814 83.8407V74.1768C24.6852 68.539 19.3516 58.8442 19.3516 48.4717C19.3516 31.5577 33.2103 17.7969 50.2453 17.7969ZM50.2453 94.6712C56.26 94.6712 61.1532 89.8128 61.1532 83.8408V81.3693H39.3375V83.8408C39.3375 89.8127 44.2307 94.6712 50.2453 94.6712ZM61.1532 72.523C61.1532 71.4642 61.7231 70.4865 62.6476 69.9591C70.3802 65.5487 75.1839 57.3151 75.1843 48.4717C75.1843 34.8181 63.9971 23.7103 50.2459 23.7103C36.4948 23.7103 25.3076 34.8183 25.3076 48.4717C25.3076 57.3149 30.1109 65.5483 37.8435 69.9591C38.768 70.4865 39.3379 71.4642 39.3379 72.5228V75.4561H47.2675V60.1669C43.4008 58.9179 40.5974 55.3068 40.5974 51.0566C40.5974 49.4237 41.9307 48.0999 43.5752 48.0999C45.2197 48.0999 46.5531 49.4237 46.5531 51.0566C46.5531 53.0781 48.2096 54.7226 50.2453 54.7226C52.2811 54.7226 53.9374 53.0779 53.9374 51.0566C53.9374 49.4237 55.2707 48.0999 56.9152 48.0999C58.5598 48.0999 59.8931 49.4237 59.8931 51.0566C59.8931 55.307 57.0895 58.9179 53.223 60.1669V75.4561H61.1532V72.523ZM41.8662 9.49221L40.0179 4.63664C39.4364 3.10927 37.7174 2.33913 36.1797 2.91629C34.6414 3.49365 33.8656 5.19994 34.447 6.72731L36.2951 11.5829C36.7456 12.7661 37.8783 13.495 39.0812 13.495C39.4309 13.495 39.787 13.4333 40.1336 13.3032C41.6719 12.7259 42.4477 11.0196 41.8662 9.49221ZM60.4671 4.63111C61.0486 3.10374 62.7669 2.33302 64.3054 2.91057C65.8438 3.48792 66.6197 5.19401 66.0382 6.72158L64.1899 11.5772C63.7396 12.7604 62.6069 13.4893 61.4039 13.4893C61.0541 13.4893 60.6983 13.4276 60.3516 13.2975C58.8134 12.7201 58.0375 11.0139 58.6188 9.48668L60.4671 4.63111Z" fill="#FF9898"/>
</g>
<defs>
<clipPath id="clip0_1055_1923">
<rect width="100" height="100" fill="white" transform="translate(0.246094 0.583984)"/>
</clipPath>
</defs>
</svg>
