<svg width="101" height="101" viewBox="0 0 101 101" fill="none" xmlns="http://www.w3.org/2000/svg">
<path d="M85.0252 10.7683H78.8409V8.39923C78.8409 6.35032 77.1732 4.68359 75.1243 4.68359H21.3946C19.3457 4.68359 17.678 6.35032 17.678 8.39923V69.8288H14.1887C13.1258 69.8288 12.2656 70.6898 12.2656 71.7518V78.7314C12.2656 84.1061 16.6531 88.4107 21.9467 88.4107H28.4307C29.2633 93.5105 33.6145 96.9781 38.4995 96.9781H38.5089L81.3293 96.9462C84.736 96.9462 88.7981 95.2307 88.7981 87.0595V14.5403C88.7981 12.4604 87.106 10.7683 85.0252 10.7683ZM21.3946 8.52975L74.9947 8.39923V78.7277C74.9947 81.7755 72.6371 84.2567 69.6533 84.511C66.5775 84.2202 64.3596 81.6882 64.3596 78.7314V71.7518C64.3596 70.6898 63.4995 69.8288 62.4365 69.8288H21.5242V13.3572L21.3946 8.52975ZM16.1118 78.7314V73.6749H60.5134V78.7314C60.5134 80.8611 61.2008 82.8875 62.4741 84.5645H21.9467C18.7811 84.5645 16.1118 81.9886 16.1118 78.7314ZM84.9519 87.0595C84.9519 92.6334 83.0814 93.1001 81.3274 93.1001C81.1127 93.1002 38.2811 93.132 38.4995 93.132C35.7116 93.132 33.1493 91.3344 32.3607 88.4107H70.1927C73.6467 88.4107 78.8409 84.5858 78.8409 78.7277V14.6123L84.9519 14.5403V87.0595Z" fill="#FFF4CC"/>
<path d="M67.5086 42.2383H48.259C47.1961 42.2383 46.3359 43.0993 46.3359 44.1614C46.3359 45.2234 47.1961 46.0844 48.259 46.0844H67.5086C68.5715 46.0844 69.4316 45.2234 69.4316 44.1614C69.4316 43.0993 68.5715 42.2383 67.5086 42.2383Z" fill="#FFF4CC"/>
<path d="M67.5086 52.2188H48.259C47.1961 52.2188 46.3359 53.0798 46.3359 54.1418C46.3359 55.2038 47.1961 56.0649 48.259 56.0649H67.5086C68.5715 56.0649 69.4316 55.2038 69.4316 54.1418C69.4316 53.0798 68.5715 52.2188 67.5086 52.2188Z" fill="#FFF4CC"/>
<path d="M67.5086 62.2012H48.259C47.1961 62.2012 46.3359 63.0622 46.3359 64.1242C46.3359 65.1863 47.1961 66.0473 48.259 66.0473H67.5086C68.5715 66.0473 69.4316 65.1863 69.4316 64.1242C69.4316 63.0622 68.5715 62.2012 67.5086 62.2012Z" fill="#FFF4CC"/>
<path d="M30.1926 16.143H67.5104C68.5734 16.143 69.4335 15.282 69.4335 14.22C69.4335 13.1579 68.5734 12.2969 67.5104 12.2969H30.1926C29.1297 12.2969 28.2695 13.1579 28.2695 14.22C28.2695 15.282 29.1297 16.143 30.1926 16.143Z" fill="#FFF4CC"/>
<path d="M30.1926 26.1235H67.5104C68.5734 26.1235 69.4335 25.2624 69.4335 24.2004C69.4335 23.1384 68.5734 22.2773 67.5104 22.2773H30.1926C29.1297 22.2773 28.2695 23.1384 28.2695 24.2004C28.2695 25.2624 29.1297 26.1235 30.1926 26.1235Z" fill="#FFF4CC"/>
<path d="M30.1926 36.104H67.5104C68.5734 36.104 69.4335 35.2429 69.4335 34.1809C69.4335 33.1189 68.5734 32.2578 67.5104 32.2578H30.1926C29.1297 32.2578 28.2695 33.1189 28.2695 34.1809C28.2695 35.2429 29.1297 36.104 30.1926 36.104Z" fill="#FFF4CC"/>
<path d="M30.8424 47.7356C31.8173 48.7125 33.4032 48.713 34.3787 47.7356L39.7798 42.3335C40.531 41.5823 40.531 40.3644 39.7798 39.6142C39.0286 38.863 37.8117 38.863 37.0604 39.6142L32.6115 44.0641L31.5523 43.0059C30.8011 42.2547 29.5841 42.2547 28.8329 43.0059C28.0817 43.7561 28.0817 44.974 28.8329 45.7252L30.8424 47.7356Z" fill="#FFF4CC"/>
<path d="M30.8424 65.3137C31.8173 66.2906 33.4032 66.2911 34.3787 65.3137L39.7798 59.9117C40.531 59.1605 40.531 57.9426 39.7798 57.1923C39.0286 56.4411 37.8117 56.4411 37.0604 57.1923L32.6115 61.6422L31.5523 60.584C30.8011 59.8328 29.5841 59.8328 28.8329 60.584C28.0817 61.3342 28.0817 62.5521 28.8329 63.3033L30.8424 65.3137Z" fill="#FFF4CC"/>
</svg>
