<svg width="101" height="101" viewBox="0 0 101 101" fill="none" xmlns="http://www.w3.org/2000/svg">
<g clip-path="url(#clip0_1055_1968)">
<path fill-rule="evenodd" clip-rule="evenodd" d="M7.03752 6.33203H5.37502C3.75705 6.33203 2.44533 5.02031 2.44533 3.40234C2.44533 1.78437 3.75705 0.472656 5.37502 0.472656H9.96721C11.5852 0.472656 12.8969 1.78437 12.8969 3.40234V24.8867C12.8969 26.5047 11.5852 27.8164 9.96721 27.8164C8.34924 27.8164 7.03752 26.5047 7.03752 24.8867V6.33203ZM97.3668 18.0507H30.5703C28.9523 18.0507 27.6406 16.739 27.6406 15.121C27.6406 13.5031 28.9523 12.1914 30.5703 12.1914H97.3668C98.9847 12.1914 100.296 13.5031 100.296 15.121C100.296 16.739 98.9847 18.0507 97.3668 18.0507ZM30.5703 47.5429H97.3668C98.9847 47.5429 100.296 48.8546 100.296 50.4726C100.296 52.0906 98.9847 53.4023 97.3668 53.4023H30.5703C28.9523 53.4023 27.6406 52.0906 27.6406 50.4726C27.6406 48.8546 28.9523 47.5429 30.5703 47.5429ZM97.3668 82.8945H30.5703C28.9523 82.8945 27.6406 84.2062 27.6406 85.8242C27.6406 87.4421 28.9523 88.7538 30.5703 88.7538H97.3668C98.9847 88.7538 100.296 87.4421 100.296 85.8242C100.296 84.2062 98.9847 82.8945 97.3668 82.8945ZM14.7662 58.2365C13.0383 58.2582 11.219 58.274 9.59476 58.281C10.7 56.7871 12.135 54.8072 13.9655 52.1919C15.3522 50.2109 16.2584 48.3293 16.6596 46.5992C16.6819 46.5033 16.6993 46.4064 16.7118 46.3087L16.8159 45.4937C16.8317 45.3707 16.8395 45.2466 16.8395 45.1224C16.8395 40.5337 13.1065 36.8007 8.518 36.8007C4.55042 36.8007 1.11624 39.6236 0.352375 43.5126C0.0404606 45.1003 1.07484 46.6402 2.66253 46.9519C4.25042 47.2634 5.79007 46.2294 6.10179 44.6418C6.32718 43.4935 7.34339 42.6601 8.5178 42.6601C9.82484 42.6601 10.8973 43.6839 10.9754 44.9716L10.9205 45.4019C10.7385 46.1005 10.2838 47.2334 9.16507 48.8322C5.8383 53.5856 3.85183 56.187 2.78326 57.5863L2.77913 57.5918C1.4303 59.3578 0.687336 60.3306 1.1764 61.9211C1.4678 62.8681 2.18284 63.5939 3.1389 63.9125C3.53538 64.0447 3.85316 64.1505 7.94359 64.1505C9.56741 64.1505 11.786 64.1339 14.8401 64.0955C16.4578 64.0752 17.753 62.747 17.7328 61.1291C17.7121 59.5113 16.3817 58.2185 14.7662 58.2365ZM0.866797 79.8222C1.62852 75.9427 5.05391 73.1269 9.01172 73.1269C13.5887 73.1269 17.3125 76.8507 17.3125 81.4277C17.3125 83.4748 16.5662 85.35 15.3332 86.7988C16.566 88.2476 17.3125 90.1228 17.3125 92.1699C17.3125 96.747 13.5889 100.471 9.01172 100.471C4.89375 100.471 1.35938 97.3982 0.79082 93.324C0.737891 92.9431 0.710938 92.555 0.710938 92.1699C0.710938 90.5519 2.02266 89.2402 3.64062 89.2402C5.25859 89.2402 6.57031 90.5519 6.57031 92.1699C6.57031 92.2853 6.57832 92.4011 6.59414 92.5144C6.76094 93.7097 7.80039 94.6113 9.01172 94.6113C10.358 94.6113 11.4531 93.5162 11.4531 92.1699C11.4531 90.8236 10.358 89.7285 9.01172 89.7285C7.39375 89.7285 6.08203 88.4168 6.08203 86.7988C6.08203 85.1808 7.39375 83.8691 9.01172 83.8691C10.358 83.8691 11.4531 82.774 11.4531 81.4277C11.4531 80.0814 10.358 78.9863 9.01172 78.9863C7.84727 78.9863 6.83984 79.8127 6.61621 80.9511C6.30449 82.539 4.76484 83.573 3.17695 83.2615C1.58926 82.9498 0.554883 81.4099 0.866797 79.8222Z" fill="#E3FFC0"/>
</g>
<defs>
<clipPath id="clip0_1055_1968">
<rect width="100" height="100" fill="white" transform="translate(0.296875 0.472656)"/>
</clipPath>
</defs>
</svg>
