<svg width="101" height="101" viewBox="0 0 101 101" fill="none" xmlns="http://www.w3.org/2000/svg">
<g clip-path="url(#clip0_1055_1986)">
<path fill-rule="evenodd" clip-rule="evenodd" d="M12.3803 33.7596C9.3599 32.1181 5.68359 34.305 5.68359 37.742L12.3803 33.7596ZM12.3803 33.7596L44.3182 51.1169C44.3183 51.1169 44.3182 51.1169 44.3182 51.1169C45.7778 51.9101 46.6861 53.438 46.6867 55.0982V96.1632C46.6867 99.6388 42.9357 101.821 39.9142 100.103L7.97559 81.9465C6.55897 81.1409 5.68359 79.6365 5.68359 78.0065V37.742M41.5192 56.2675C41.5193 56.2675 41.5192 56.2675 41.5192 56.2675V56.2675ZM40.8247 55.8901L11.5456 39.9778V77.233L40.8247 93.878V55.8901Z" fill="#55EBFF"/>
<path fill-rule="evenodd" clip-rule="evenodd" d="M47.6502 1.21863C48.9633 0.527623 50.5305 0.523697 51.8464 1.20569L86.6744 19.2614C89.9307 20.9498 89.9383 25.6065 86.685 27.3036L51.8571 45.4718L51.8568 45.4719C50.5354 46.1611 48.9587 46.1571 47.6401 45.4589M47.6398 45.4588L13.3257 27.2909C13.3257 27.2908 13.3257 27.2909 13.3257 27.2909C10.1055 25.5859 10.1116 20.9711 13.3357 19.2744L47.6499 1.21879C47.65 1.21873 47.6501 1.21868 47.6502 1.21863M81.7067 23.2889L49.7653 6.72969L18.295 23.2889L49.7654 39.9513L81.7067 23.2889Z" fill="#55EBFF"/>
<path fill-rule="evenodd" clip-rule="evenodd" d="M88.2166 33.7596C91.2366 32.1183 94.9133 34.3046 94.9131 37.7419C94.9131 37.7421 94.9131 37.7418 94.9131 37.7419V78.0064C94.9131 79.6368 94.0375 81.1409 92.6211 81.9465L60.6821 100.104C57.661 101.821 53.9102 99.6391 53.9102 96.1632V55.0993C53.9102 53.4384 54.8186 51.9102 56.2783 51.117M56.2783 51.117L88.2166 33.7596C88.2166 33.7596 88.2166 33.7596 88.2166 33.7596M91.0158 38.9101C91.0158 38.9101 91.0158 38.9101 91.0158 38.9101V38.9101ZM89.0511 39.9778L59.7722 55.8899V93.8778L89.0511 77.2329V39.9778Z" fill="#55EBFF"/>
</g>
<defs>
<clipPath id="clip0_1055_1986">
<rect width="100" height="100" fill="white" transform="translate(0.296875 0.697266)"/>
</clipPath>
</defs>
</svg>
