<svg width="101" height="102" viewBox="0 0 101 102" fill="none" xmlns="http://www.w3.org/2000/svg">
<g clip-path="url(#clip0_1055_2000)">
<path fill-rule="evenodd" clip-rule="evenodd" d="M98.6776 25.0389C99.6694 25.5407 100.295 26.5634 100.293 27.6807C100.291 28.7987 99.6626 29.8191 98.6685 30.317L80.3793 39.4893L98.6662 48.6385C99.6618 49.1364 100.292 50.1599 100.293 51.2794C100.293 52.3997 99.6641 53.4232 98.6685 53.9219L80.3793 63.0942L98.6662 72.2434C99.661 72.7405 100.29 73.7617 100.293 74.8797V74.8859C100.293 76.0016 99.6679 77.022 98.6776 77.523L51.6074 101.325C51.1939 101.534 50.743 101.638 50.2929 101.638C49.8427 101.638 49.3918 101.534 48.9783 101.325L1.90811 77.523C0.917818 77.022 0.292972 76.0016 0.292972 74.8859V74.8797C0.29526 73.7617 0.924684 72.7405 1.91956 72.2434L20.2064 63.0942L1.91727 53.9219C0.921632 53.4232 0.292972 52.3997 0.292972 51.2794C0.293734 50.1599 0.923921 49.1364 1.91879 48.6385L20.2064 39.4893L1.9165 30.3178C0.923158 29.8191 0.294497 28.7987 0.292972 27.6807C0.291446 26.5634 0.916292 25.5407 1.90811 25.0389L48.9783 1.23733C49.8054 0.819327 50.7804 0.819327 51.6074 1.23733L98.6776 25.0389ZM50.2929 95.3857L90.8064 74.8997L73.802 66.3921L51.599 77.5268C51.1878 77.7335 50.7407 77.8365 50.2929 77.8365C49.8458 77.8365 49.3987 77.7335 48.9875 77.5268L26.7837 66.3921L9.7801 74.8997L50.2929 95.3857ZM73.799 59.8016L90.7843 51.284L73.802 42.788L56.8549 51.2863L57.463 51.5929C58.9095 52.3214 59.4962 54.094 58.7729 55.5517C58.0504 57.007 56.2911 57.601 54.8423 56.871L50.2929 54.5797L45.7442 56.871C44.2969 57.5994 42.5368 57.0085 41.8136 55.5517C41.0896 54.094 41.6762 52.3214 43.1235 51.5929L43.7308 51.2863L26.7837 42.788L9.80147 51.284L26.7868 59.8016L32.1029 57.1422C33.5525 56.4169 35.3111 57.0124 36.0305 58.4715C36.7522 59.9353 36.1549 61.7042 34.7099 62.4272L33.364 63.1003L50.2929 71.5895L67.2217 63.1003L65.8759 62.4272C64.4324 61.7049 63.8327 59.9369 64.556 58.4715C65.2754 57.0124 67.034 56.4169 68.4828 57.1422L73.799 59.8016ZM68.4828 33.5373L73.799 36.1967L90.8125 27.6653L50.2929 7.17621L9.774 27.6653L26.7868 36.1967L32.1029 33.5373C33.5525 32.812 35.3111 33.4075 36.0305 34.8666C36.7522 36.3304 36.1549 38.0993 34.7099 38.8223L33.364 39.4954L50.2929 47.9846L67.2217 39.4954L65.8759 38.8223C64.4324 38.1 63.8327 36.332 64.556 34.8666C65.2754 33.4075 67.034 32.812 68.4828 33.5373ZM43.1202 27.987L48.9795 25.0364C49.8043 24.6207 50.7747 24.6207 51.6002 25.0364L57.4596 27.987C58.9061 28.7154 59.4928 30.4881 58.7695 31.9457C58.047 33.4011 56.2877 33.995 54.8389 33.2651L50.2895 30.9737L45.7408 33.2651C44.2936 33.9935 42.5335 33.4026 41.8102 31.9457C41.0862 30.4881 41.6729 28.7154 43.1202 27.987Z" fill="#B4B5FF"/>
</g>
<defs>
<clipPath id="clip0_1055_2000">
<rect width="100" height="100.714" fill="white" transform="translate(0.296875 0.921875)"/>
</clipPath>
</defs>
</svg>
