<svg width="101" height="101" viewBox="0 0 101 101" fill="none" xmlns="http://www.w3.org/2000/svg">
<path d="M8.51577 20.2724H16.5033C18.5836 20.2724 20.2769 18.58 20.2769 16.4988V8.53335C20.2769 6.45217 18.5836 4.75977 16.5033 4.75977H8.51577C6.43551 4.75977 4.74219 6.45217 4.74219 8.53335V16.4988C4.74219 18.58 6.43551 20.2724 8.51577 20.2724ZM8.51577 8.53335L16.5033 8.53059C16.5033 8.9357 16.5035 16.6925 16.5033 16.4988H8.51577V8.53335Z" fill="#FFF4CC"/>
<path d="M91.5442 79.8012C85.4312 79.8003 84.6434 79.8012 83.5548 79.8012C81.4746 79.8012 79.7812 81.4936 79.7812 83.5748V91.5411C79.7812 93.6223 81.4746 95.3147 83.5548 95.3147H91.5442C93.6245 95.3147 95.3178 93.6223 95.3178 91.5411V83.5748C95.3178 81.4936 93.6245 79.8012 91.5442 79.8012ZM91.5442 91.5411H83.5548V83.5748C86.6154 83.574 84.976 83.5743 91.5442 83.573V91.5411Z" fill="#FFF4CC"/>
<path d="M91.5442 4.75977H83.5548C81.4746 4.75977 79.7812 6.45217 79.7812 8.53335V16.4988C79.7812 18.58 81.4746 20.2724 83.5548 20.2724H91.5442C93.6245 20.2724 95.3178 18.58 95.3178 16.4988V8.53335C95.3178 6.45217 93.6245 4.75977 91.5442 4.75977ZM91.5442 16.4988H83.5548V8.53335H91.5442V16.4988Z" fill="#FFF4CC"/>
<path d="M8.51577 95.3143H16.5033C18.5836 95.3143 20.2769 93.6219 20.2769 91.5407V83.5744C20.2769 81.4932 18.5836 79.8008 16.5033 79.8008C16.2522 79.8008 7.9891 79.8008 8.51577 79.8008C6.43551 79.8008 4.74219 81.4932 4.74219 83.5744V91.5407C4.74219 93.6219 6.43551 95.3143 8.51577 95.3143ZM8.51577 83.5744H16.5033C16.5033 83.7893 16.5033 91.7374 16.5033 91.5407H8.51577V83.5744Z" fill="#FFF4CC"/>
<path d="M14.4025 65.4609H10.6289V69.2345H14.4025V65.4609Z" fill="#FFF4CC"/>
<path d="M10.6289 76.4044H14.4025V72.6309H10.6289V76.4044Z" fill="#FFF4CC"/>
<path d="M14.4025 22.4414H10.6289V26.215H14.4025V22.4414Z" fill="#FFF4CC"/>
<path d="M14.4025 58.291H10.6289V62.0646H14.4025V58.291Z" fill="#FFF4CC"/>
<path d="M14.4025 51.1211H10.6289V54.8947H14.4025V51.1211Z" fill="#FFF4CC"/>
<path d="M14.4025 43.9512H10.6289V47.7248H14.4025V43.9512Z" fill="#FFF4CC"/>
<path d="M14.4025 29.6113H10.6289V33.3849H14.4025V29.6113Z" fill="#FFF4CC"/>
<path d="M14.4025 36.7812H10.6289V40.5548H14.4025V36.7812Z" fill="#FFF4CC"/>
<path d="M89.4416 22.4414H85.668V26.215H89.4416V22.4414Z" fill="#FFF4CC"/>
<path d="M85.668 40.5548H89.4416V36.7812H85.668V40.5548Z" fill="#FFF4CC"/>
<path d="M85.668 54.8947H89.4416V51.1211H85.668V54.8947Z" fill="#FFF4CC"/>
<path d="M85.668 69.2345H89.4416V65.4609H85.668V69.2345Z" fill="#FFF4CC"/>
<path d="M85.668 76.4044H89.4416V72.6309H85.668V76.4044Z" fill="#FFF4CC"/>
<path d="M85.668 47.7248H89.4416V43.9512H85.668V47.7248Z" fill="#FFF4CC"/>
<path d="M85.668 62.0646H89.4416V58.291H85.668V62.0646Z" fill="#FFF4CC"/>
<path d="M85.668 33.3849H89.4416V29.6113H85.668V33.3849Z" fill="#FFF4CC"/>
<path d="M52.3477 10.6309V14.4044H56.1212V10.6309H52.3477Z" fill="#FFF4CC"/>
<path d="M30.8359 10.6309V14.4044H34.6095V10.6309H30.8359Z" fill="#FFF4CC"/>
<path d="M63.2892 10.6309H59.5156V14.4044H63.2892V10.6309Z" fill="#FFF4CC"/>
<path d="M41.7814 10.6309H38.0078V14.4044H41.7814V10.6309Z" fill="#FFF4CC"/>
<path d="M23.668 10.6309V14.4044H27.4416V10.6309H23.668Z" fill="#FFF4CC"/>
<path d="M45.1758 10.6309V14.4044H48.9494V10.6309H45.1758Z" fill="#FFF4CC"/>
<path d="M70.4611 10.6309H66.6875V14.4044H70.4611V10.6309Z" fill="#FFF4CC"/>
<path d="M77.6095 10.6309H73.8359V14.4044H77.6095V10.6309Z" fill="#FFF4CC"/>
<path d="M52.3477 85.668V89.4416H56.1212V85.668H52.3477Z" fill="#FFF4CC"/>
<path d="M27.4416 89.4416V85.668H23.668V89.4416H27.4416Z" fill="#FFF4CC"/>
<path d="M66.6875 85.668V89.4416H70.4611V85.668H66.6875Z" fill="#FFF4CC"/>
<path d="M77.6095 85.668H73.8359V89.4416H77.6095V85.668Z" fill="#FFF4CC"/>
<path d="M38.0078 89.4416H41.7814V85.668H38.0078V89.4416Z" fill="#FFF4CC"/>
<path d="M34.6095 89.4416V85.668H30.8359V89.4416H34.6095Z" fill="#FFF4CC"/>
<path d="M63.2892 85.668H59.5156V89.4416H63.2892V85.668Z" fill="#FFF4CC"/>
<path d="M48.9494 85.668H45.1758V89.4416H48.9494V85.668Z" fill="#FFF4CC"/>
<path d="M42.5998 65.597C43.1581 65.2534 43.4971 64.6453 43.4971 63.9903V43.1852L60.7067 34.5091C61.3424 34.1885 61.7441 33.5363 61.7441 32.8241C61.7441 32.112 61.3424 31.4597 60.7067 31.1391L42.4598 21.94C41.9254 21.671 41.2953 21.671 40.7609 21.94L22.5139 31.1391C21.9203 31.4403 21.4766 32.1188 21.4766 32.8241V54.7903C21.4766 55.5025 21.8782 56.1547 22.5139 56.4753L40.7609 65.6753C41.3453 65.9695 42.0417 65.9407 42.5998 65.597ZM41.6103 25.7385L55.6655 32.8241L41.6103 39.9097L27.5552 32.8241L41.6103 25.7385ZM25.2501 53.6286V35.8885L39.7235 43.1852V60.9261L25.2501 53.6286Z" fill="#FFF4CC"/>
<path d="M74.1579 65.9574L76.2953 65.1117C77.0416 64.8169 77.5188 64.0808 77.4856 63.2783C77.4525 62.4759 76.9144 61.7831 76.1442 61.5509L69.9606 59.6879V38.9877C69.9606 38.3327 69.6215 37.7246 69.0632 37.381C68.5068 37.0383 67.8103 37.0088 67.2244 37.3036L48.9866 46.5045C48.3509 46.8251 47.9492 47.4765 47.9492 48.1886V70.1456C47.9492 70.8006 48.2901 71.4096 48.8466 71.7523C49.392 72.0883 50.0873 72.1317 50.6873 71.8297L59.2434 67.5092L61.7851 75.9147C62.0172 76.6821 62.7101 77.2192 63.5116 77.2533C64.326 77.2837 65.0483 76.8102 65.3449 76.0649L66.2017 73.91L70.0748 77.7831C70.4433 78.1516 70.9261 78.3358 71.4088 78.3358C71.8916 78.3358 72.3743 78.1516 72.7429 77.7831L78.0292 72.4967C78.7662 71.7597 78.7662 70.5657 78.0292 69.8287L74.1579 65.9574ZM51.7228 67.0796V49.3503L66.187 42.0528V58.551L61.7449 57.2126L58.9475 56.365C58.2794 56.1651 57.5506 56.3422 57.057 56.8395C56.5651 57.3305 56.3845 58.0528 56.5853 58.7189L58.1344 63.8416L51.7228 67.0796ZM71.4088 73.781L66.8411 69.2133C66.4836 68.8558 66.0027 68.6605 65.5071 68.6605C65.3799 68.6605 65.2528 68.6734 65.1257 68.6992C64.5692 68.8143 64.0994 69.1718 63.8377 69.6675L62.2282 64.3436C62.221 64.3149 62.2267 64.2862 62.2181 64.2577L61.2305 61L67.3423 62.8518C67.3605 62.8573 67.3797 62.8521 67.398 62.8571L69.885 63.6063C69.4041 63.8698 69.0596 64.3332 68.9453 64.8768C68.8163 65.4996 69.0098 66.1445 69.4594 66.594L74.0271 71.1627L71.4088 73.781Z" fill="#FFF4CC"/>
</svg>
