<svg width="101" height="101" viewBox="0 0 101 101" fill="none" xmlns="http://www.w3.org/2000/svg">
<g clip-path="url(#clip0_1055_1631)">
<path d="M18.623 11.625C14.9797 11.625 12.0156 14.5881 12.0156 18.2299C12.0156 21.8717 14.9797 24.8348 18.623 24.8348C22.2693 24.8348 25.2359 21.8717 25.2359 18.2299C25.2359 14.5881 22.2693 11.625 18.623 11.625ZM18.623 20.8957C17.1518 20.8957 15.9549 19.6998 15.9549 18.2299C15.9549 16.76 17.1518 15.5643 18.623 15.5643C20.0973 15.5643 21.2969 16.7602 21.2969 18.2301C21.2969 19.7 20.0973 20.8957 18.623 20.8957Z" fill="#9997FF"/>
<path d="M76.3943 11.625H58.9277C55.2844 11.625 52.3203 14.5881 52.3203 18.2299C52.3203 21.8717 55.2844 24.8348 58.9277 24.8348H76.3943C80.0377 24.8348 83.0018 21.8717 83.0018 18.2299C83.0018 14.5881 80.0377 11.625 76.3943 11.625ZM76.3943 20.8957H58.9277C57.4564 20.8957 56.2596 19.6998 56.2596 18.2299C56.2596 16.76 57.4566 15.5641 58.9277 15.5641H76.3943C77.8656 15.5641 79.0625 16.76 79.0625 18.2299C79.0625 19.6998 77.8656 20.8957 76.3943 20.8957Z" fill="#9997FF"/>
<path d="M35.7441 11.625C32.1008 11.625 29.1367 14.5881 29.1367 18.2299C29.1367 21.8717 32.1008 24.8348 35.7441 24.8348C39.3904 24.8348 42.357 21.8717 42.357 18.2299C42.357 14.5881 39.3904 11.625 35.7441 11.625ZM35.7441 20.8957C34.2729 20.8957 33.076 19.6998 33.076 18.2299C33.076 16.76 34.273 15.5641 35.7441 15.5641C37.2184 15.5641 38.418 16.76 38.418 18.2299C38.418 19.6998 37.2184 20.8957 35.7441 20.8957Z" fill="#9997FF"/>
<path d="M32.5344 44.2753C31.4768 44.0219 30.4137 44.6749 30.161 45.7331L26.2536 62.0842C26.0008 63.1423 26.6534 64.205 27.7114 64.4577C27.8653 64.4944 28.0194 64.5122 28.171 64.5122C29.0614 64.5122 29.8688 63.904 30.0848 62.9999L33.9923 46.6487C34.2452 45.5907 33.5925 44.5282 32.5344 44.2753Z" fill="#9997FF"/>
<path d="M39.7652 62.5371C40.1406 62.8715 40.6085 63.0359 41.0746 63.0359C41.6169 63.0359 42.157 62.8133 42.5462 62.3764L48.0693 56.1764C48.9806 55.1619 48.9806 53.5732 48.075 52.5652L42.546 46.3588C41.8222 45.5463 40.5771 45.4748 39.7652 46.198C38.9527 46.9217 38.8808 48.1668 39.6044 48.9789L44.4046 54.3674L39.6044 59.7561C38.881 60.5686 38.9529 61.8137 39.7652 62.5371Z" fill="#9997FF"/>
<path d="M20.4807 46.198C19.6682 45.4744 18.4234 45.5468 17.6998 46.3587L12.1773 52.5581C11.2648 53.5728 11.2648 55.1623 12.1711 56.1699L17.7 62.3763C18.0893 62.8134 18.6291 63.0359 19.1717 63.0359C19.6377 63.0359 20.1059 62.8714 20.4811 62.5371C21.2936 61.8134 21.3654 60.5683 20.6418 59.7562L15.8416 54.3677L20.6418 48.979C21.365 48.1665 21.2932 46.9214 20.4807 46.198Z" fill="#9997FF"/>
<path d="M95.9318 67.1457H95.2006C94.8176 65.9051 94.3213 64.7074 93.7158 63.5629L94.2377 63.0393C95.0711 62.2109 95.5311 61.1049 95.5328 59.9248C95.5346 58.742 95.0762 57.6314 94.2418 56.7973L93.225 55.7811V13.8279C93.225 7.95312 89.0793 3.17383 83.9832 3.17383H9.58945C4.49336 3.17383 0.347656 7.95312 0.347656 13.8279V68.8773C0.347656 74.7522 4.49336 79.5314 9.58945 79.5314H21.1453C22.233 79.5314 23.1148 78.6496 23.1148 77.5619C23.1148 76.4742 22.233 75.5924 21.1453 75.5924H9.58945C6.71523 75.5924 4.28691 72.5172 4.28691 68.8775V33.1443H89.2855V53.0477C89.0611 53.0131 88.8338 52.9904 88.6023 52.9904C88.6 52.9904 88.5977 52.9904 88.5955 52.9904C87.4154 52.9924 86.3094 53.4518 85.4875 54.2781L84.9551 54.8082C83.7865 54.1908 82.5695 53.6887 81.3146 53.3053V52.6037C81.3146 50.1693 79.3338 48.1891 76.8988 48.1891H73.3346C70.9027 48.1891 68.9244 50.1693 68.9244 52.6037V53.3533C67.6932 53.7402 66.5043 54.2381 65.368 54.8428L64.8578 54.3342C64.0293 53.5016 62.923 53.0418 61.743 53.04C61.7408 53.04 61.7387 53.04 61.7363 53.04C60.5561 53.04 59.4478 53.498 58.6152 54.3301L56.0971 56.8471C55.2627 57.6811 54.8043 58.7918 54.8061 59.9744C54.8078 61.1545 55.2676 62.2605 56.0947 63.0824L56.6387 63.6279C56.0482 64.7549 55.5633 65.9305 55.1881 67.1453H54.44C52.008 67.1453 50.0297 69.123 50.0297 71.5543V75.1221C50.0297 75.2807 50.0385 75.4373 50.0549 75.5916H38.5949C37.5072 75.5916 36.6254 76.4734 36.6254 77.5611C36.6254 78.6488 37.5072 79.5307 38.5949 79.5307H54.4398H55.1955C55.5764 80.757 56.0688 81.942 56.6693 83.0764L56.1371 83.6062C54.4236 85.3289 54.4252 88.1256 56.1412 89.8402L58.6607 92.3588C59.4893 93.1914 60.5955 93.6512 61.7756 93.6529H61.782C62.9625 93.6529 64.0707 93.1949 64.9033 92.3627L65.4309 91.8355C66.5754 92.4389 67.7654 92.9318 68.9904 93.3105V94.0728C68.9904 96.5072 70.9688 98.4875 73.4008 98.4875H76.9705C79.4023 98.4875 81.3807 96.5072 81.3807 94.0728V93.3152C82.6172 92.9338 83.8121 92.4389 84.9553 91.8354L85.4805 92.3586C86.3088 93.1914 87.4148 93.651 88.5949 93.6529H88.6018C89.782 93.6529 90.8902 93.1949 91.7244 92.3613L94.2371 89.8443C95.0705 89.016 95.5305 87.91 95.5322 86.7299C95.534 85.5471 95.0756 84.4365 94.241 83.6023L93.7154 83.077C94.3148 81.9416 94.8068 80.7559 95.1871 79.5309H95.9314C98.3664 79.5309 100.347 77.5531 100.347 75.1221V71.5543C100.348 69.1234 98.3668 67.1457 95.9318 67.1457ZM4.28691 29.2051V13.8279C4.28691 10.1883 6.71523 7.11309 9.58945 7.11309H83.9832C86.8574 7.11309 89.2857 10.1883 89.2857 13.8279V29.2053H4.28691V29.2051ZM96.4084 75.1225C96.4084 75.3727 96.1857 75.592 95.9316 75.592H93.6793C92.7609 75.592 91.9645 76.2266 91.7594 77.1217C91.334 78.9781 90.6033 80.7387 89.5875 82.3549C89.0982 83.1332 89.2125 84.1465 89.8629 84.7963L91.4566 86.3891C91.5758 86.5082 91.5934 86.6504 91.5934 86.7246C91.5932 86.8133 91.5701 86.942 91.4551 87.0561L88.9387 89.577C88.8193 89.6961 88.677 89.7141 88.602 89.7141C88.6018 89.7141 88.6016 89.7141 88.6016 89.7141C88.5121 89.7141 88.383 89.6908 88.2676 89.5746L86.668 87.9816C86.0174 87.3338 85.0061 87.2215 84.2293 87.7098C82.6107 88.7279 80.8428 89.4598 78.9742 89.885C78.0779 90.0893 77.4418 90.8861 77.4418 91.8057V94.0734C77.4418 94.3266 77.2217 94.5488 76.9709 94.5488H73.4012C73.1502 94.5488 72.9301 94.3268 72.9301 94.0734V91.8C72.9301 90.8797 72.2926 90.0818 71.3949 89.8789C69.5502 89.4617 67.7854 88.731 66.1498 87.7076C65.8275 87.5059 65.4654 87.4074 65.1055 87.4074C64.5967 87.4074 64.0924 87.6041 63.7125 87.9842L62.1189 89.577C61.9996 89.6961 61.8572 89.7141 61.7822 89.7141C61.782 89.7141 61.7818 89.7141 61.7816 89.7141C61.6924 89.7141 61.5631 89.6908 61.45 89.5771L58.9264 87.0547C58.7496 86.8781 58.7516 86.5652 58.924 86.3918L60.5234 84.7988C61.177 84.148 61.2912 83.1312 60.7988 82.3516C59.7814 80.7406 59.0498 78.9812 58.624 77.1223C58.4189 76.2271 57.6225 75.5924 56.7039 75.5924H54.4402C54.185 75.5924 53.9691 75.3773 53.9691 75.1228V71.5551C53.9691 71.3006 54.185 71.0854 54.4402 71.0854H56.6982C57.6176 71.0854 58.4148 70.4492 58.6189 69.5529C59.0393 67.7059 59.7615 65.9537 60.7656 64.3447C61.2504 63.568 61.1359 62.5596 60.4893 61.9111L58.8779 60.2951C58.7686 60.1865 58.7455 60.0578 58.7453 59.9691C58.7453 59.8949 58.7629 59.7527 58.882 59.6338L61.4 57.117C61.5193 56.9979 61.6617 56.9799 61.7367 56.9799H61.7373C61.8266 56.9801 61.9559 57.0031 62.0713 57.1193L63.6596 58.7014C64.3121 59.3512 65.3271 59.4625 66.1041 58.9695C67.7135 57.9492 69.4762 57.2102 71.343 56.7732C72.2336 56.5648 72.8635 55.7703 72.8635 54.8555V52.6043C72.8635 52.3467 73.0791 52.1289 73.3344 52.1289H76.8986C77.157 52.1289 77.3754 52.3467 77.3754 52.6043V54.8223C77.3754 55.7451 78.016 56.5441 78.917 56.7447C80.791 57.1621 82.5789 57.8992 84.2311 58.9357C85.0074 59.4225 86.0178 59.31 86.6678 58.6627L88.2738 57.0631C88.3828 56.9535 88.5119 56.9305 88.6012 56.9303H88.6018C88.6768 56.9303 88.8191 56.9482 88.9383 57.0674L91.4564 59.584C91.5756 59.7031 91.5932 59.8453 91.5932 59.9195C91.593 60.0082 91.5699 60.1369 91.4541 60.252L89.8602 61.8506C89.2111 62.5016 89.0986 63.5148 89.5891 64.2922C90.6088 65.9088 91.3424 67.6791 91.7697 69.5537C91.974 70.4498 92.7709 71.0855 93.6902 71.0855H95.9316C96.1855 71.0855 96.4084 71.3053 96.4084 71.5553V75.1225Z" fill="#9997FF"/>
<path d="M75.1891 61.3086C68.552 61.3086 63.1523 66.7059 63.1523 73.34C63.1523 79.9711 68.552 85.366 75.1891 85.366C81.8232 85.366 87.2203 79.9713 87.2203 73.34C87.2203 66.7061 81.8232 61.3086 75.1891 61.3086ZM75.1891 81.4268C70.7242 81.4268 67.0916 77.799 67.0916 73.34C67.0916 68.8779 70.7242 65.2479 75.1891 65.2479C79.651 65.2479 83.2811 68.8779 83.2811 73.34C83.2811 77.799 79.6508 81.4268 75.1891 81.4268Z" fill="#9997FF"/>
<path d="M29.9301 75.5918H29.8914C28.8037 75.5918 27.9219 76.4736 27.9219 77.5613C27.9219 78.649 28.8037 79.5309 29.8914 79.5309H29.9301C31.0178 79.5309 31.8996 78.649 31.8996 77.5613C31.8996 76.4736 31.0178 75.5918 29.9301 75.5918Z" fill="#9997FF"/>
</g>
<defs>
<clipPath id="clip0_1055_1631">
<rect width="100" height="100" fill="white" transform="translate(0.347656 0.830078)"/>
</clipPath>
</defs>
</svg>
