<svg width="101" height="101" viewBox="0 0 101 101" fill="none" xmlns="http://www.w3.org/2000/svg">
<g clip-path="url(#clip0_1055_1604)">
<path d="M61.3967 64.2703C61.1229 64.1889 60.835 64.1707 60.5539 64.2119C60.5211 64.2104 60.4881 64.2096 60.4553 64.2082C62.9906 61.7313 64.5688 58.2783 64.5688 54.4623V35.0098C64.5688 33.9313 63.6941 33.0566 62.6156 33.0566H48.1479C42.168 33.0566 37.3029 37.9217 37.3029 43.9016V54.4621C37.3029 58.2781 38.8811 61.7311 41.4164 64.208C41.3836 64.2094 41.3506 64.2102 41.3178 64.2117C41.0369 64.1707 40.7488 64.1887 40.475 64.2701C30.3781 65.1766 22.4375 73.6842 22.4375 84.0131V93.6035C22.4375 94.682 23.3121 95.5566 24.3906 95.5566H77.4813C78.5598 95.5566 79.4344 94.682 79.4344 93.6035V84.0133C79.434 73.6846 71.4936 65.1768 61.3967 64.2703ZM41.2088 46.6373V43.9016C41.2088 40.0756 44.3217 36.9629 48.1475 36.9629H60.6621V42.1896C60.6621 44.8307 58.5135 46.9793 55.8725 46.9793H41.2088V46.6373ZM41.2088 54.4623V50.8855H55.8725C57.6414 50.8855 59.2875 50.3533 60.6621 49.4426V54.4621C60.6621 59.8254 56.2986 64.1889 50.9354 64.1889C45.5721 64.1889 41.2088 59.8256 41.2088 54.4623ZM56.1227 68.0951L50.9355 73.2822L45.7484 68.0951H56.1227ZM75.5277 91.6504H26.3434V86.0293H42.2816C43.3602 86.0293 44.2348 85.1547 44.2348 84.0762C44.2348 82.9977 43.3602 82.123 42.2816 82.123H26.4596C27.3229 74.8639 33.0883 69.0906 40.3438 68.2148L49.5545 77.4256C49.9359 77.8068 50.4357 77.9977 50.9355 77.9977C51.4354 77.9977 51.9352 77.8068 52.3166 77.4256L61.5273 68.2148C69.4029 69.1654 75.5277 75.8855 75.5277 84.0133V91.6504Z" fill="#CCFFF3"/>
<path d="M52.3182 82.6953C51.9551 82.332 51.4512 82.123 50.9375 82.123C50.4238 82.123 49.9199 82.332 49.5566 82.6953C49.1934 83.0586 48.9844 83.5625 48.9844 84.0762C48.9844 84.5898 49.1932 85.0938 49.5566 85.457C49.9199 85.8201 50.4238 86.0293 50.9375 86.0293C51.4512 86.0293 51.9551 85.8203 52.3182 85.457C52.6814 85.0938 52.8906 84.5898 52.8906 84.0762C52.8906 83.5625 52.6816 83.0586 52.3182 82.6953Z" fill="#CCFFF3"/>
<path d="M50.9609 6.10352C46.8686 6.10352 43.5391 9.43301 43.5391 13.5254C43.5391 16.9418 45.8602 19.8248 49.0078 20.6846V25.4547C49.0078 26.5332 49.8824 27.4078 50.9609 27.4078C52.0395 27.4078 52.9141 26.5332 52.9141 25.4547V20.6846C56.0617 19.8248 58.3828 16.9418 58.3828 13.5254C58.3828 9.43301 55.0533 6.10352 50.9609 6.10352ZM50.9609 17.041C49.0225 17.041 47.4453 15.4639 47.4453 13.5254C47.4453 11.5869 49.0225 10.0098 50.9609 10.0098C52.8994 10.0098 54.4766 11.5869 54.4766 13.5254C54.4766 15.4639 52.8994 17.041 50.9609 17.041Z" fill="#CCFFF3"/>
<path d="M90.1716 21.3379C88.7697 19.9361 86.906 19.1641 84.9236 19.1641C82.9412 19.1641 81.0775 19.9361 79.6755 21.3381C77.2599 23.7539 76.8627 27.4336 78.4802 30.2674L75.1072 33.6404C74.3445 34.4031 74.3445 35.6398 75.1072 36.4027C75.4888 36.7838 75.9886 36.9746 76.4884 36.9746C76.9884 36.9746 77.488 36.7838 77.8695 36.4025L81.241 33.0311C82.3503 33.6672 83.6103 34.008 84.9236 34.008C86.906 34.008 88.7697 33.2359 90.1714 31.8342C91.5736 30.4324 92.3457 28.5686 92.3457 26.5861C92.3457 24.6037 91.5736 22.7398 90.1716 21.3379ZM87.4097 29.0723C86.039 30.443 83.8085 30.443 82.438 29.0723C81.0671 27.7014 81.0671 25.4709 82.4378 24.1002C83.1232 23.4146 84.0234 23.0721 84.9238 23.0721C85.8242 23.0721 86.7244 23.4146 87.4097 24.1002C88.0738 24.7643 88.4396 25.6471 88.4396 26.5863C88.4396 27.5254 88.0738 28.4082 87.4097 29.0723Z" fill="#CCFFF3"/>
<path d="M93.5152 53.1406C90.0988 53.1406 87.2158 55.4617 86.3561 58.6094H81.5859C80.5074 58.6094 79.6328 59.484 79.6328 60.5625C79.6328 61.641 80.5074 62.5156 81.5859 62.5156H86.3561C87.2158 65.6633 90.0988 67.9844 93.5152 67.9844C97.6076 67.9844 100.937 64.6549 100.937 60.5625C100.937 56.4701 97.6076 53.1406 93.5152 53.1406ZM93.5152 64.0781C91.5768 64.0781 89.9996 62.501 89.9996 60.5625C89.9996 58.624 91.5768 57.0469 93.5152 57.0469C95.4537 57.0469 97.0309 58.624 97.0309 60.5625C97.0309 62.501 95.4537 64.0781 93.5152 64.0781Z" fill="#CCFFF3"/>
<path d="M75.5604 59.1816C75.1973 58.8184 74.6934 58.6094 74.1797 58.6094C73.666 58.6094 73.1621 58.8182 72.7988 59.1816C72.4355 59.5451 72.2266 60.0488 72.2266 60.5625C72.2266 61.0781 72.4354 61.5801 72.7988 61.9432C73.1621 62.3086 73.666 62.5156 74.1797 62.5156C74.6934 62.5156 75.1973 62.3084 75.5604 61.9432C75.9236 61.5801 76.1328 61.0762 76.1328 60.5625C76.1328 60.0488 75.9238 59.5469 75.5604 59.1816Z" fill="#CCFFF3"/>
<path d="M20.2887 58.5605H15.5186C14.6588 55.4129 11.7758 53.0918 8.35938 53.0918C4.26699 53.0918 0.9375 56.4213 0.9375 60.5137C0.9375 64.6061 4.26699 67.9355 8.35938 67.9355C11.7758 67.9355 14.6588 65.6145 15.5186 62.4668H20.2887C21.3672 62.4668 22.2418 61.5922 22.2418 60.5137C22.2418 59.4352 21.3674 58.5605 20.2887 58.5605ZM8.35938 64.0293C6.4209 64.0293 4.84375 62.4521 4.84375 60.5137C4.84375 58.5752 6.4209 56.998 8.35938 56.998C10.2979 56.998 11.875 58.5752 11.875 60.5137C11.875 62.4521 10.2979 64.0293 8.35938 64.0293Z" fill="#CCFFF3"/>
<path d="M26.6489 33.4527L23.2774 30.0814C23.9137 28.9721 24.2543 27.7119 24.2543 26.3986C24.2543 24.4162 23.4823 22.5523 22.0803 21.1504C20.6784 19.7486 18.8147 18.9766 16.8323 18.9766C14.8499 18.9766 12.9862 19.7486 11.5842 21.1506C8.69067 24.0443 8.69067 28.7529 11.5842 31.6467C12.9862 33.0484 14.8499 33.8205 16.8325 33.8205C18.1458 33.8205 19.4059 33.4797 20.5153 32.8436L23.8868 36.215C24.2682 36.5963 24.768 36.7871 25.2678 36.7871C25.7676 36.7871 26.2674 36.5963 26.6489 36.215C27.4116 35.4523 27.4116 34.2156 26.6489 33.4527ZM19.3194 28.8838C19.3192 28.8842 19.3188 28.8844 19.3184 28.8848C17.9477 30.2559 15.7172 30.2559 14.3467 28.8848C12.9758 27.5139 12.9758 25.2834 14.3465 23.9127C15.0319 23.2273 15.9321 22.8846 16.8325 22.8846C17.7329 22.8846 18.6331 23.2273 19.3184 23.9127C19.9825 24.5768 20.3483 25.4596 20.3483 26.3988C20.3483 27.3373 19.9827 28.2199 19.3194 28.8838Z" fill="#CCFFF3"/>
</g>
<defs>
<clipPath id="clip0_1055_1604">
<rect width="100" height="100" fill="white" transform="translate(0.9375 0.830078)"/>
</clipPath>
</defs>
</svg>
