<svg width="101" height="101" viewBox="0 0 101 101" fill="none" xmlns="http://www.w3.org/2000/svg">
<path d="M67.5143 93.7871H17.5143C14.7527 93.7838 12.1051 92.6853 10.1523 90.7325C8.19949 88.7797 7.10096 86.1321 7.09766 83.3704V16.7038C7.10096 13.9421 8.19949 11.2945 10.1523 9.34173C12.1051 7.38895 14.7527 6.29042 17.5143 6.28711H49.7227C51.1099 6.28804 52.4832 6.56479 53.7625 7.10128C55.0418 7.63776 56.2017 8.42327 57.1747 9.41211L74.9622 27.6184C76.8702 29.5661 77.9364 32.1856 77.931 34.9121V50.4329C77.931 50.9855 77.7115 51.5154 77.3208 51.9061C76.9301 52.2968 76.4002 52.5163 75.8477 52.5163C75.2951 52.5163 74.7652 52.2968 74.3745 51.9061C73.9838 51.5154 73.7643 50.9855 73.7643 50.4329V34.9121C73.7652 33.2766 73.125 31.7059 71.981 30.5371L54.1914 12.3288C53.6085 11.735 52.913 11.2634 52.1458 10.9415C51.3785 10.6196 50.5547 10.4538 49.7227 10.4538H17.5143C15.8567 10.4538 14.267 11.1123 13.0949 12.2844C11.9228 13.4565 11.2643 15.0462 11.2643 16.7038V83.3704C11.2643 85.0281 11.9228 86.6178 13.0949 87.7899C14.267 88.962 15.8567 89.6205 17.5143 89.6205H67.5143C68.3003 89.6235 69.0791 89.4713 69.806 89.1725C70.3171 88.9623 70.8908 88.9637 71.4008 89.1764C71.9109 89.3892 72.3155 89.7958 72.5258 90.3069C72.736 90.818 72.7346 91.3917 72.5219 91.9017C72.3092 92.4118 71.9025 92.8165 71.3914 93.0267C70.1614 93.5319 68.844 93.7903 67.5143 93.7871Z" fill="#9ADBFF"/>
<path d="M74.9935 33.3711H61.2643C58.5027 33.3678 55.8551 32.2693 53.9023 30.3165C51.9495 28.3637 50.851 25.7161 50.8477 22.9544V9.01693C50.8477 8.46439 51.0671 7.93449 51.4578 7.54379C51.8485 7.15309 52.3785 6.93359 52.931 6.93359C53.4835 6.93359 54.0134 7.15309 54.4041 7.54379C54.7948 7.93449 55.0143 8.46439 55.0143 9.01693V22.9544C55.0143 24.612 55.6728 26.2017 56.8449 27.3738C58.017 28.5459 59.6067 29.2044 61.2643 29.2044H74.9935C75.546 29.2044 76.0759 29.4239 76.4666 29.8146C76.8573 30.2053 77.0768 30.7352 77.0768 31.2878C77.0768 31.8403 76.8573 32.3702 76.4666 32.7609C76.0759 33.1516 75.546 33.3711 74.9935 33.3711Z" fill="#9ADBFF"/>
<path d="M71.6823 93.4834C70.8607 93.4844 70.0574 93.2415 69.374 92.7855L62.6823 88.323C58.3983 85.4745 54.8857 81.6104 52.4575 77.075C50.0293 72.5395 48.761 67.4738 48.7656 62.3292V58.7626C48.7697 57.8252 49.0883 56.9163 49.6704 56.1816C50.2526 55.4469 51.0645 54.9288 51.9761 54.7105C58.1634 53.0003 64.0494 50.3446 69.4261 46.8376C70.0988 46.4043 70.8821 46.1738 71.6823 46.1738C72.4825 46.1738 73.2658 46.4043 73.9386 46.8376C79.315 50.3451 85.2011 53.0007 91.3886 54.7105C92.3001 54.9288 93.112 55.4469 93.6942 56.1816C94.2763 56.9163 94.5949 57.8252 94.599 58.7626V62.3292C94.605 67.4752 93.3374 72.5426 90.9091 77.0796C88.4809 81.6166 84.9675 85.4821 80.6823 88.3313L73.9927 92.7917C73.308 93.2458 72.5039 93.4865 71.6823 93.4834ZM71.6823 50.3376C65.9222 54.0952 59.6138 56.9359 52.9823 58.7584L52.9323 62.3292C52.9272 66.789 54.0259 71.1807 56.1302 75.1127C58.2345 79.0448 61.2792 82.395 64.9927 84.8647L71.6823 89.3167L78.3719 84.8563C82.0842 82.3875 85.1282 79.0386 87.2324 75.1081C89.3367 71.1776 90.436 66.7876 90.4323 62.3292V58.7626C83.7845 56.9411 77.4593 54.0997 71.6823 50.3397V50.3376Z" fill="#9ADBFF"/>
<path d="M69.5994 75.0369C69.0469 75.0368 68.5171 74.8172 68.1265 74.4265L63.9598 70.2598C63.5803 69.8669 63.3703 69.3406 63.3751 68.7944C63.3798 68.2482 63.5989 67.7256 63.9852 67.3394C64.3715 66.9531 64.894 66.734 65.4402 66.7292C65.9865 66.7245 66.5127 66.9345 66.9057 67.314L69.5994 70.0077L76.4598 63.1473C76.8527 62.7678 77.379 62.5578 77.9252 62.5626C78.4715 62.5673 78.994 62.7864 79.3803 63.1727C79.7665 63.559 79.9856 64.0815 79.9904 64.6277C79.9951 65.174 79.7851 65.7002 79.4057 66.0932L71.0723 74.4265C70.6817 74.8172 70.1519 75.0368 69.5994 75.0369Z" fill="#9ADBFF"/>
<path d="M38.3477 27.1198H21.681C21.1285 27.1198 20.5986 26.9003 20.2079 26.5096C19.8172 26.1189 19.5977 25.589 19.5977 25.0365C19.5977 24.4839 19.8172 23.954 20.2079 23.5633C20.5986 23.1726 21.1285 22.9531 21.681 22.9531H38.3477C38.9002 22.9531 39.4301 23.1726 39.8208 23.5633C40.2115 23.954 40.431 24.4839 40.431 25.0365C40.431 25.589 40.2115 26.1189 39.8208 26.5096C39.4301 26.9003 38.9002 27.1198 38.3477 27.1198Z" fill="#9ADBFF"/>
<path d="M50.8477 39.6198H21.681C21.1285 39.6198 20.5986 39.4003 20.2079 39.0096C19.8172 38.6189 19.5977 38.089 19.5977 37.5365C19.5977 36.9839 19.8172 36.454 20.2079 36.0633C20.5986 35.6726 21.1285 35.4531 21.681 35.4531H50.8477C51.4002 35.4531 51.9301 35.6726 52.3208 36.0633C52.7115 36.454 52.931 36.9839 52.931 37.5365C52.931 38.089 52.7115 38.6189 52.3208 39.0096C51.9301 39.4003 51.4002 39.6198 50.8477 39.6198Z" fill="#9ADBFF"/>
<path d="M55.0143 52.1198H21.681C21.1285 52.1198 20.5986 51.9003 20.2079 51.5096C19.8172 51.1189 19.5977 50.589 19.5977 50.0365C19.5977 49.4839 19.8172 48.954 20.2079 48.5633C20.5986 48.1726 21.1285 47.9531 21.681 47.9531H55.0143C55.5669 47.9531 56.0968 48.1726 56.4875 48.5633C56.8782 48.954 57.0977 49.4839 57.0977 50.0365C57.0977 50.589 56.8782 51.1189 56.4875 51.5096C56.0968 51.9003 55.5669 52.1198 55.0143 52.1198Z" fill="#9ADBFF"/>
<path d="M42.5143 64.6198H21.681C21.1285 64.6198 20.5986 64.4003 20.2079 64.0096C19.8172 63.6189 19.5977 63.089 19.5977 62.5365C19.5977 61.9839 19.8172 61.454 20.2079 61.0633C20.5986 60.6726 21.1285 60.4531 21.681 60.4531H42.5143C43.0669 60.4531 43.5968 60.6726 43.9875 61.0633C44.3782 61.454 44.5977 61.9839 44.5977 62.5365C44.5977 63.089 44.3782 63.6189 43.9875 64.0096C43.5968 64.4003 43.0669 64.6198 42.5143 64.6198Z" fill="#9ADBFF"/>
<path d="M42.5143 77.1198H21.681C21.1285 77.1198 20.5986 76.9003 20.2079 76.5096C19.8172 76.1189 19.5977 75.589 19.5977 75.0365C19.5977 74.4839 19.8172 73.954 20.2079 73.5633C20.5986 73.1726 21.1285 72.9531 21.681 72.9531H42.5143C43.0669 72.9531 43.5968 73.1726 43.9875 73.5633C44.3782 73.954 44.5977 74.4839 44.5977 75.0365C44.5977 75.589 44.3782 76.1189 43.9875 76.5096C43.5968 76.9003 43.0669 77.1198 42.5143 77.1198Z" fill="#9ADBFF"/>
</svg>
