<svg width="100" height="101" viewBox="0 0 100 101" fill="none" xmlns="http://www.w3.org/2000/svg">
<path d="M34.4849 15.6621C36.0903 15.6621 37.3917 14.3504 37.3917 12.7324C37.3917 11.1144 36.0903 9.80273 34.4849 9.80273C32.8795 9.80273 31.5781 11.1144 31.5781 12.7324C31.5781 14.3504 32.8795 15.6621 34.4849 15.6621Z" fill="#9997FF"/>
<path d="M90.6841 82.0684C92.2895 82.0684 93.5909 80.7567 93.5909 79.1387C93.5909 77.5207 92.2895 76.209 90.6841 76.209C89.0788 76.209 87.7773 77.5207 87.7773 79.1387C87.7773 80.7567 89.0788 82.0684 90.6841 82.0684Z" fill="#9997FF"/>
<path d="M10.2621 15.6621C11.3323 15.6621 12.2 14.7877 12.2 13.709C12.2 12.6303 11.3323 11.7559 10.2621 11.7559C9.19183 11.7559 8.32422 12.6303 8.32422 13.709C8.32422 14.7877 9.19183 15.6621 10.2621 15.6621Z" fill="#9997FF"/>
<path d="M49.0199 23.4746C50.0902 23.4746 50.9578 22.6002 50.9578 21.5215C50.9578 20.4428 50.0902 19.5684 49.0199 19.5684C47.9496 19.5684 47.082 20.4428 47.082 21.5215C47.082 22.6002 47.9496 23.4746 49.0199 23.4746Z" fill="#9997FF"/>
<path d="M52.8949 80.1152C53.9652 80.1152 54.8328 79.2408 54.8328 78.1621C54.8328 77.0834 53.9652 76.209 52.8949 76.209C51.8246 76.209 50.957 77.0834 50.957 78.1621C50.957 79.2408 51.8246 80.1152 52.8949 80.1152Z" fill="#9997FF"/>
<path d="M74.2113 95.7402C75.2816 95.7402 76.1492 94.8658 76.1492 93.7871C76.1492 92.7084 75.2816 91.834 74.2113 91.834C73.141 91.834 72.2734 92.7084 72.2734 93.7871C72.2734 94.8658 73.141 95.7402 74.2113 95.7402Z" fill="#9997FF"/>
<path d="M34.1183 97.6934H11.6003C6.60062 97.6934 2.51172 93.5723 2.51172 88.5332V40.4473C2.51172 35.3887 6.60062 31.2871 11.6003 31.2871H34.0989C39.118 31.2871 43.1875 35.4082 43.1875 40.4473V88.5137C43.2069 93.5723 39.118 97.6934 34.1183 97.6934ZM11.6003 35.1934C8.73227 35.1934 6.38745 37.5566 6.38745 40.4473V88.5137C6.38745 91.4238 8.73227 93.7676 11.6003 93.7676H34.0989C36.9864 93.7676 39.3118 91.4043 39.3118 88.5137V40.4473C39.3118 37.5371 36.967 35.1934 34.0989 35.1934H11.6003Z" fill="#9997FF"/>
<path d="M41.269 46.9121H4.44958C3.38376 46.9121 2.51172 46.0332 2.51172 44.959C2.51172 43.8848 3.38376 43.0059 4.44958 43.0059H41.269C42.3349 43.0059 43.2069 43.8848 43.2069 44.959C43.2069 46.0332 42.3349 46.9121 41.269 46.9121Z" fill="#9997FF"/>
<path d="M41.269 85.9746H4.44958C3.38376 85.9746 2.51172 85.0957 2.51172 84.0215C2.51172 82.9473 3.38376 82.0684 4.44958 82.0684H41.269C42.3349 82.0684 43.2069 82.9473 43.2069 84.0215C43.2069 85.0957 42.3349 85.9746 41.269 85.9746Z" fill="#9997FF"/>
<path d="M88.38 68.3965H65.862C60.843 68.3965 56.7734 64.2754 56.7734 59.2363V11.1504C56.7734 6.0918 60.8623 1.99023 65.862 1.99023H88.3607C93.3797 1.99023 97.4493 6.11133 97.4493 11.1504V59.2168C97.4686 64.2754 93.3797 68.3965 88.38 68.3965ZM65.862 5.89648C62.994 5.89648 60.6492 8.25977 60.6492 11.1504V59.2168C60.6492 62.127 62.994 64.4707 65.862 64.4707H88.3607C91.2481 64.4707 93.5735 62.1074 93.5735 59.2168V11.1504C93.5735 8.24023 91.2287 5.89648 88.3607 5.89648H65.862Z" fill="#9997FF"/>
<path d="M95.5308 17.6152H58.7113C57.6455 17.6152 56.7734 16.7363 56.7734 15.6621C56.7734 14.5879 57.6455 13.709 58.7113 13.709H95.5308C96.5966 13.709 97.4686 14.5879 97.4686 15.6621C97.4686 16.7363 96.5966 17.6152 95.5308 17.6152Z" fill="#9997FF"/>
<path d="M95.5308 56.6777H58.7113C57.6455 56.6777 56.7734 55.7988 56.7734 54.7246C56.7734 53.6504 57.6455 52.7715 58.7113 52.7715H95.5308C96.5966 52.7715 97.4686 53.6504 97.4686 54.7246C97.4686 55.7988 96.5966 56.6777 95.5308 56.6777Z" fill="#9997FF"/>
<path d="M42.5863 68.3965H27.7035C26.6377 68.3965 25.7656 67.5176 25.7656 66.4434C25.7656 65.3691 26.6377 64.4902 27.7035 64.4902H42.5863C45.0668 64.4902 47.0822 62.459 47.0822 59.959V43.6504C47.0822 39.002 50.8416 35.2129 55.4537 35.2129H80.0259C81.0917 35.2129 81.9637 36.0918 81.9637 37.166C81.9637 38.2402 81.0917 39.1191 80.0259 39.1191H55.4537C52.9733 39.1191 50.9579 41.1504 50.9579 43.6504V59.959C50.9579 64.6074 47.1984 68.3965 42.5863 68.3965Z" fill="#9997FF"/>
<path d="M74.7739 42.4385C74.0181 41.6768 74.0181 40.4463 74.7739 39.6846L77.2737 37.165L74.7739 34.6455C74.0181 33.8838 74.0181 32.6533 74.7739 31.8916C75.5296 31.1299 76.7505 31.1299 77.5062 31.8916L81.382 35.7979C82.1378 36.5596 82.1378 37.79 81.382 38.5518L77.5062 42.458C76.7699 43.2002 75.5296 43.2002 74.7739 42.4385Z" fill="#9997FF"/>
<path d="M21.8921 74.2559C17.6094 74.2559 14.1406 70.7598 14.1406 66.4434C14.1406 62.127 17.6094 58.6309 21.8921 58.6309C26.1748 58.6309 29.6436 62.127 29.6436 66.4434C29.6436 70.7598 26.1748 74.2559 21.8921 74.2559ZM21.8921 62.5371C19.7604 62.5371 18.0164 64.2949 18.0164 66.4434C18.0164 68.5918 19.7604 70.3496 21.8921 70.3496C24.0237 70.3496 25.7678 68.5918 25.7678 66.4434C25.7678 64.2949 24.0237 62.5371 21.8921 62.5371Z" fill="#9997FF"/>
</svg>
