<svg width="101" height="101" viewBox="0 0 101 101" fill="none" xmlns="http://www.w3.org/2000/svg">
<g clip-path="url(#clip0_1055_1644)">
<path d="M79.0559 67.3186C85.898 60.201 90.1107 50.5381 90.1107 39.909C90.1109 18.085 72.3559 0.330078 50.532 0.330078C28.7082 0.330078 10.9531 18.085 10.9531 39.909C10.9531 50.5381 15.1658 60.2008 22.008 67.3184L11.7883 85.0193C11.4043 85.6842 11.4457 86.5125 11.8938 87.1357C12.3418 87.7592 13.1135 88.0623 13.8662 87.9105L27.4248 85.1736L31.834 98.2842C32.0787 99.0119 32.7271 99.5287 33.491 99.6051C33.5561 99.6115 33.6211 99.6148 33.6857 99.6148C34.3783 99.6148 35.0256 99.2465 35.3768 98.6383L46.5486 79.2881C47.859 79.4197 49.1877 79.4877 50.532 79.4877C51.8764 79.4877 53.2051 79.4197 54.5154 79.2881L66.1002 99.3535C66.4514 99.9617 67.0986 100.33 67.7912 100.33C67.8557 100.33 67.9207 100.327 67.9859 100.32C68.75 100.244 69.3982 99.7271 69.643 98.9994L74.0522 85.8891L87.6107 88.6258C88.3637 88.7773 89.1352 88.4746 89.5832 87.851C90.0312 87.2277 90.0727 86.3994 89.6887 85.7346L79.0559 67.3186ZM34.1572 92.9379L30.5781 82.2957C30.2643 81.3627 29.3049 80.8094 28.3404 81.0037L17.3346 83.2254L24.9314 70.0672C29.8668 74.2631 35.84 77.2723 42.4076 78.6479L34.1572 92.9379ZM14.8594 39.909C14.8594 20.2391 30.8621 4.23633 50.532 4.23633C70.202 4.23633 86.2047 20.2391 86.2047 39.909C86.2047 59.5789 70.202 75.5814 50.532 75.5814C30.8621 75.5814 14.8594 59.5789 14.8594 39.909ZM73.1363 81.7191C72.1711 81.525 71.2125 82.0781 70.8986 83.0111L67.3195 93.6531L58.6561 78.6477C65.2236 77.2721 71.1969 74.2629 76.1322 70.067L84.142 83.9404L73.1363 81.7191ZM70.2713 34.4553C68.5869 34.4553 67.9229 33.1678 67.7594 32.7732C67.5959 32.3787 67.1551 30.9986 68.3459 29.8076C68.977 29.1766 69.3246 28.3377 69.3246 27.4451C69.3246 26.5525 68.9772 25.7135 68.3461 25.0828L65.3584 22.0949C64.7273 21.4641 63.8883 21.1164 62.9959 21.1164C62.1033 21.1164 61.2645 21.4639 60.6334 22.0949C59.4424 23.2863 58.0623 22.8455 57.6676 22.6818C57.273 22.5184 55.9855 21.8541 55.9855 20.1697C55.9855 18.3275 54.4869 16.8289 52.6447 16.8289H48.4195C46.5773 16.8289 45.0787 18.3275 45.0787 20.1697C45.0787 21.8541 43.7912 22.5184 43.3965 22.6818C43.0018 22.8451 41.6217 23.2857 40.4309 22.0951C39.7998 21.4641 38.9607 21.1164 38.0682 21.1164C37.1758 21.1164 36.3367 21.4639 35.7057 22.0949L32.7182 25.0826C32.0871 25.7135 31.7395 26.5525 31.7395 27.4451C31.7395 28.3377 32.0869 29.1766 32.718 29.8074C33.909 30.9986 33.4682 32.3787 33.3047 32.7732C33.1412 33.1678 32.477 34.4553 30.7928 34.4553C28.9506 34.4553 27.452 35.9541 27.452 37.7963V42.0215C27.452 43.8637 28.9506 45.3623 30.7928 45.3623C32.4771 45.3623 33.1412 46.6498 33.3047 47.0443C33.4682 47.4391 33.909 48.8191 32.7182 50.0102C32.0871 50.6412 31.7395 51.4803 31.7395 52.3727C31.7395 53.265 32.0869 54.1041 32.718 54.7352L35.7057 57.723C36.3367 58.3539 37.1756 58.7016 38.0682 58.7016C38.9607 58.7016 39.7996 58.3541 40.4307 57.723C41.6244 56.5295 43.0035 56.9695 43.3979 57.133C43.7922 57.2963 45.0785 57.9602 45.0785 59.6482C45.0785 61.4904 46.5771 62.9891 48.4193 62.9891H52.6445C54.4867 62.9891 55.9853 61.4902 55.9853 59.6482C55.9853 57.9639 57.2729 57.2998 57.6676 57.1363C58.0619 56.9725 59.442 56.5318 60.6334 57.7232C61.9359 59.0258 64.0555 59.0258 65.3584 57.7232L68.3459 54.7354C68.977 54.1045 69.3246 53.2654 69.3246 52.3729C69.3246 51.4803 68.9772 50.6414 68.3461 50.0105C67.1551 48.8193 67.5959 47.4391 67.7594 47.0445C67.9229 46.65 68.5871 45.3625 70.2713 45.3625C72.1135 45.3625 73.6121 43.8639 73.6121 42.0217V37.7965C73.6123 35.9541 72.1137 34.4553 70.2713 34.4553ZM69.7061 41.4789C67.2209 41.6797 65.1234 43.2008 64.1506 45.5496C63.1775 47.8984 63.585 50.4572 65.2004 52.3568L62.9799 54.5773C61.0807 52.9619 58.5221 52.5545 56.1729 53.5273C53.824 54.5 52.3029 56.5977 52.102 59.0828H48.9621C48.7615 56.5953 47.2408 54.4967 44.8926 53.5238C42.5445 52.5514 39.985 52.9598 38.0842 54.5773L35.8639 52.3568C37.4791 50.4574 37.8865 47.8984 36.9137 45.5496C35.9408 43.2008 33.8434 41.6797 31.3582 41.4789V38.3389C33.8434 38.1381 35.9406 36.617 36.9137 34.2682C37.8867 31.9193 37.4793 29.3605 35.8639 27.4611L38.0844 25.2406C39.9836 26.8561 42.5426 27.2635 44.8914 26.2904C47.2402 25.3176 48.7613 23.2201 48.9623 20.735H52.1021C52.3029 23.2203 53.824 25.3176 56.173 26.2904C58.5221 27.2635 61.0807 26.8559 62.9801 25.2404L65.2006 27.4609C63.5854 29.3604 63.1779 31.9191 64.1508 34.2682C65.1236 36.6168 67.2211 38.1381 69.7063 38.3389V41.4789H69.7061ZM50.532 29.1057C44.575 29.1057 39.7287 33.952 39.7287 39.909C39.7287 45.866 44.575 50.7121 50.532 50.7121C56.4891 50.7121 61.3354 45.8658 61.3354 39.9088C61.3354 33.9518 56.4891 29.1057 50.532 29.1057ZM50.532 46.8059C46.7291 46.8059 43.635 43.7119 43.635 39.9088C43.635 36.1057 46.7289 33.0117 50.532 33.0117C54.3352 33.0117 57.4291 36.1057 57.4291 39.9088C57.4291 43.7119 54.3352 46.8059 50.532 46.8059ZM50.532 7.74648C32.7977 7.74648 18.3697 22.1744 18.3697 39.9088C18.3697 57.6432 32.7977 72.0711 50.532 72.0711C68.2664 72.0711 82.6943 57.6432 82.6943 39.9088C82.6943 22.1744 68.2664 7.74648 50.532 7.74648ZM50.532 68.1648C34.9516 68.1648 22.276 55.4893 22.276 39.9088C22.276 24.3283 34.9516 11.6527 50.532 11.6527C66.1125 11.6527 78.7881 24.3283 78.7881 39.9088C78.7881 55.4893 66.1125 68.1648 50.532 68.1648Z" fill="#9ADBFF"/>
</g>
<defs>
<clipPath id="clip0_1055_1644">
<rect width="100" height="100" fill="white" transform="translate(0.53125 0.330078)"/>
</clipPath>
</defs>
</svg>
