<svg width="101" height="102" viewBox="0 0 101 102" fill="none" xmlns="http://www.w3.org/2000/svg">
<g clip-path="url(#clip0_1055_1947)">
<path d="M85.6016 15.5577C76.1578 6.04672 63.6016 0.808594 50.2461 0.808594C36.8906 0.808594 24.3344 6.04672 14.8906 15.5577C5.44707 25.0689 0.246094 37.7149 0.246094 51.1657C0.246094 64.6166 5.44707 77.2625 14.8908 86.7737C15.591 87.4789 16.5574 87.7504 17.4643 87.5922C17.4656 87.5924 17.4662 87.5938 17.468 87.5936L41.1396 83.4181C41.733 83.3135 42.2799 83.0272 42.7059 82.5982L80.7758 44.2562C81.9199 43.1039 81.9199 41.2357 80.7758 40.0834L61.2473 20.4154C60.1033 19.2631 58.2482 19.2631 57.1041 20.4154L19.034 58.7575C18.6078 59.1865 18.3236 59.7375 18.2197 60.3351L15.1311 78.1098C9.27754 70.4049 6.10547 61.0314 6.10547 51.1657C6.10547 26.6526 25.9068 6.70982 50.2461 6.70982C74.5854 6.70982 94.3867 26.6526 94.3867 51.1657C94.3867 75.6788 74.5854 95.6216 50.2461 95.6216C48.6281 95.6216 47.3164 96.9427 47.3164 98.5723C47.3164 100.202 48.6281 101.523 50.2461 101.523C63.6016 101.523 76.1578 96.2847 85.6016 86.7737C95.0451 77.2625 100.246 64.6166 100.246 51.1657C100.246 37.7149 95.0451 25.0689 85.6016 15.5577ZM23.0197 66.9444L34.5775 78.5846L20.5678 81.0558L23.0197 66.9444ZM40.634 76.339L35.0143 70.6791L68.941 36.51L74.5607 42.1699L40.634 76.339ZM59.1756 26.6747L64.798 32.3373L30.8711 66.5064L25.2488 60.8438L59.1756 26.6747Z" fill="#BEFFB4"/>
</g>
<defs>
<clipPath id="clip0_1055_1947">
<rect width="100" height="100.714" fill="white" transform="translate(0.246094 0.808594)"/>
</clipPath>
</defs>
</svg>
