<svg width="100" height="101" viewBox="0 0 100 101" fill="none" xmlns="http://www.w3.org/2000/svg">
<g clip-path="url(#clip0_1055_1535)">
<path d="M97.5856 80.473H91.9127C92.5642 79.3336 92.9391 78.0141 92.9391 76.6072V30.8611C92.9391 26.576 89.4783 23.0896 85.2245 23.0896H72.1156V19.1543C72.1156 18.4646 71.7352 17.8039 71.1422 17.4602L50.8785 5.74141C50.2811 5.39609 49.547 5.39609 48.9496 5.74141L28.6859 17.4602C28.0929 17.8039 27.7125 18.4645 27.7125 19.1543V23.0896H14.6028C10.35 23.0896 6.89014 26.576 6.89014 30.8611V76.6072C6.89014 78.0141 7.26492 79.3336 7.91643 80.473H2.24255C1.17227 80.473 0.304688 81.3477 0.304688 82.4262V86.9461C0.304688 91.1629 3.70855 94.5934 7.8924 94.5934H70.4227C71.493 94.5934 72.3606 93.7188 72.3606 92.6402C72.3606 91.5617 71.493 90.6871 70.4227 90.6871H64.6798C65.2788 89.6006 65.6212 88.3516 65.6212 87.023V84.3793H95.6477V86.9461C95.6477 89.009 93.9825 90.6871 91.9357 90.6871H87.4689C86.3987 90.6871 85.5311 91.5617 85.5311 92.6402C85.5311 93.7188 86.3987 94.5934 87.4689 94.5934H91.9357C96.1196 94.5934 99.5234 91.1629 99.5234 86.9461V82.4262C99.5234 81.3475 98.6559 80.473 97.5856 80.473ZM68.2399 22.5268L68.2391 39.4096L51.8519 48.8871V32.0041L68.2399 22.5268ZM47.9762 32.0041V48.8867L31.5882 39.4098V22.527L47.9762 32.0041ZM28.6859 42.2352L47.9762 53.3908V54.2127C47.9762 56.3301 46.267 58.0527 44.1662 58.0527H37.0685C36.2686 55.7795 34.1146 54.1465 31.5882 54.1465C28.3826 54.1465 25.7746 56.775 25.7746 60.0059C25.7746 63.2367 28.3826 65.8652 31.5882 65.8652C34.1144 65.8652 36.2686 64.2322 37.0685 61.959H44.1662C46.4511 61.959 48.505 60.9477 49.9141 59.3473C51.3231 60.9477 53.377 61.959 55.662 61.959H62.7596C63.5595 64.2322 65.7135 65.8652 68.2399 65.8652C71.4455 65.8652 74.0535 63.2367 74.0535 60.0059C74.0535 56.775 71.4455 54.1465 68.2399 54.1465C65.7137 54.1465 63.5595 55.7795 62.7596 58.0527H55.662C53.5611 58.0527 51.8519 56.3301 51.8519 54.2127V53.3908L54.2756 51.9891L71.1422 42.235C71.7443 41.8867 72.1156 41.2404 72.1156 40.5408V35.9645H80.1647V71.5035H19.6626V35.9645H27.7125V40.5408C27.7125 41.2406 28.0838 41.8867 28.6859 42.2352ZM33.5261 60.0061C33.5261 61.083 32.6568 61.9592 31.5882 61.9592C30.5197 61.9592 29.6504 61.083 29.6504 60.0061C29.6504 58.9291 30.5197 58.0529 31.5882 58.0529C32.6568 58.0529 33.5261 58.9291 33.5261 60.0061ZM66.302 60.0061C66.302 58.9291 67.1713 58.0529 68.2399 58.0529C69.3084 58.0529 70.1777 58.9291 70.1777 60.0061C70.1777 61.083 69.3084 61.9592 68.2399 61.9592C67.1713 61.9592 66.302 61.083 66.302 60.0061ZM49.9141 9.6873L66.284 19.1543L49.9141 28.6211L33.5441 19.1541L49.9141 9.6873ZM10.7659 30.8611C10.7659 28.7299 12.4871 26.9959 14.6028 26.9959H27.7123V32.0584H17.7246C16.6543 32.0584 15.7867 32.933 15.7867 34.0115V73.4568C15.7867 74.5353 16.6543 75.41 17.7246 75.41H82.1024C83.1727 75.41 84.0403 74.5353 84.0403 73.4568V34.0115C84.0403 32.933 83.1727 32.0584 82.1024 32.0584H72.1154V26.9959H85.2243C87.341 26.9959 89.0632 28.7299 89.0632 30.8611V76.6072C89.0632 78.7385 87.341 80.4725 85.2243 80.4725H14.6028C12.4871 80.4725 10.7659 78.7385 10.7659 76.6072V30.8611ZM4.18042 86.9459V84.3791H34.2071V87.0229C34.2071 88.3514 34.5495 89.6004 35.1485 90.6869H7.8924C5.84563 90.6871 4.18042 89.0088 4.18042 86.9459ZM61.7453 87.023C61.7453 89.0434 60.1144 90.6871 58.1099 90.6871H41.718C39.7135 90.6871 38.0826 89.0434 38.0826 87.023V84.3793H61.7451V87.023H61.7453Z" fill="#CCFFF3"/>
<path d="M80.6662 91.8929C80.3536 91.1236 79.5554 90.631 78.7339 90.6927C77.9243 90.7534 77.2278 91.3314 77.0104 92.1187C76.7891 92.9193 77.1129 93.8023 77.8001 94.2638C78.4733 94.7159 79.3796 94.6931 80.0296 94.2081C80.7332 93.6829 81.0034 92.7079 80.6662 91.8929Z" fill="#CCFFF3"/>
</g>
<defs>
<clipPath id="clip0_1055_1535">
<rect width="99.2188" height="100" fill="white" transform="translate(0.304688 0.0371094)"/>
</clipPath>
</defs>
</svg>
