<svg width="101" height="101" viewBox="0 0 101 101" fill="none" xmlns="http://www.w3.org/2000/svg">
<g clip-path="url(#clip0_1055_1958)">
<path d="M50.25 0.03125C26.0186 0.03125 6.30469 19.7451 6.30469 43.9766C6.30469 46.6619 6.30469 67.4352 6.30469 67.8047C6.30469 72.651 10.2475 76.5938 15.0938 76.5938H18.5273C19.7367 80.0035 22.9932 82.4531 26.8125 82.4531C31.6588 82.4531 35.6016 78.5104 35.6016 73.6641V49.8359C35.6016 44.9896 31.6588 41.0469 26.8125 41.0469C22.9932 41.0469 19.7367 43.4965 18.5273 46.9062H15.0938C14.0666 46.9062 13.0811 47.085 12.1641 47.4102V43.9766C12.1641 22.976 29.2494 5.89062 50.25 5.89062C71.2506 5.89062 88.3359 22.976 88.3359 43.9766V47.4102C87.4189 47.085 86.4334 46.9062 85.4062 46.9062H81.9727C80.7633 43.4965 77.5068 41.0469 73.6875 41.0469C68.8412 41.0469 64.8984 44.9896 64.8984 49.8359V73.6641C64.8984 78.5104 68.8412 82.4531 73.6875 82.4531C74.5744 82.4531 75.4307 82.3199 76.2385 82.0744C75.1426 85.6803 71.7875 88.3125 67.8281 88.3125H58.5352C57.3258 84.9027 54.0693 82.4531 50.25 82.4531C45.4037 82.4531 41.4609 86.3959 41.4609 91.2422C41.4609 96.0885 45.4037 100.031 50.25 100.031C54.0693 100.031 57.3258 97.5816 58.5352 94.1719H67.8281C75.9053 94.1719 82.4766 87.6006 82.4766 79.5234V76.5938H85.4062C90.2525 76.5938 94.1953 72.651 94.1953 67.8047C94.1953 67.4406 94.1953 46.6598 94.1953 43.9766C94.1953 19.7451 74.4814 0.03125 50.25 0.03125ZM23.8828 49.8359C23.8828 48.2205 25.1971 46.9062 26.8125 46.9062C28.4279 46.9062 29.7422 48.2205 29.7422 49.8359V73.6641C29.7422 75.2795 28.4279 76.5938 26.8125 76.5938C25.1971 76.5938 23.8828 75.2795 23.8828 73.6641V49.8359ZM15.0938 52.7656H18.0234V70.7344H15.0938C13.4783 70.7344 12.1641 69.4201 12.1641 67.8047V55.6953C12.1641 54.0799 13.4783 52.7656 15.0938 52.7656ZM50.25 94.1719C48.6346 94.1719 47.3203 92.8576 47.3203 91.2422C47.3203 89.6268 48.6346 88.3125 50.25 88.3125C51.8654 88.3125 53.1797 89.6268 53.1797 91.2422C53.1797 92.8576 51.8654 94.1719 50.25 94.1719ZM76.6172 73.6641C76.6172 75.2795 75.3029 76.5938 73.6875 76.5938C72.0721 76.5938 70.7578 75.2795 70.7578 73.6641V49.8359C70.7578 48.2205 72.0721 46.9062 73.6875 46.9062C75.3029 46.9062 76.6172 48.2205 76.6172 49.8359V73.6641ZM88.3359 67.8047C88.3359 69.4201 87.0217 70.7344 85.4062 70.7344H82.4766V52.7656H85.4062C87.0217 52.7656 88.3359 54.0799 88.3359 55.6953V67.8047Z" fill="#FFF6A0"/>
</g>
<defs>
<clipPath id="clip0_1055_1958">
<rect width="100" height="100" fill="white" transform="translate(0.246094 0.0332031)"/>
</clipPath>
</defs>
</svg>
