<svg width="101" height="101" viewBox="0 0 101 101" fill="none" xmlns="http://www.w3.org/2000/svg">
<g clip-path="url(#clip0_1055_1648)">
<path d="M88.2631 59.0979H78.2782C78.5237 58.1678 78.6235 57.1974 78.5669 56.2226C78.3008 51.6521 74.6574 47.9682 70.0916 47.6539C64.8842 47.2961 60.3157 51.5334 60.3157 56.7652C60.3157 57.5627 60.417 58.3447 60.6147 59.0977L13.6133 59.0979C12.5348 59.0979 11.6602 59.9725 11.6602 61.0511V93.0709C11.6602 97.073 14.9161 100.329 18.9182 100.329L60.6626 100.329C61.7411 100.329 62.6158 99.4541 62.6158 98.3755C62.6158 97.297 61.7411 96.4223 60.6626 96.4223H52.8916V84.4889C52.8916 82.8264 50.8554 81.9279 49.6267 83.0408C48.671 83.9067 47.4096 84.3932 46.1197 84.3932C43.2399 84.3932 40.826 81.9111 40.8949 79.0364C40.9633 76.2105 43.4216 73.8747 46.2455 73.9421C47.5858 73.9732 48.6962 74.5429 49.719 75.3627C50.9732 76.3691 52.8918 75.4502 52.8918 73.8435V63.004H63.6881C65.261 63.004 66.1965 61.1487 65.2543 59.8838C64.5791 58.9774 64.2222 57.899 64.2222 56.765C64.2222 53.7666 66.8366 51.3431 69.8236 51.5509C72.4327 51.7306 74.5152 53.8364 74.6671 56.4493C74.74 57.7 74.3863 58.8877 73.644 59.8838C72.7026 61.1481 73.6366 63.004 75.2105 63.004H86.3103V93.0707C86.3103 94.9188 84.8067 96.4223 82.9586 96.4223H77.9215C76.843 96.4223 75.9683 97.297 75.9683 98.3755C75.9683 99.4541 76.843 100.329 77.9215 100.329H82.9586C86.9607 100.329 90.2167 97.0728 90.2167 93.0707V61.0511C90.2163 59.9725 89.3418 59.0979 88.2631 59.0979ZM48.9848 96.4229H18.9184C17.0703 96.4229 15.5667 94.9194 15.5667 93.0711V63.0044H48.9848V70.4902C47.9309 70.1426 46.8059 69.9926 45.6978 70.0428C40.7902 70.2613 36.8633 74.4995 36.9901 79.3983C37.1083 84.4266 41.4481 88.4795 46.4678 88.293C47.3215 88.26 48.1733 88.1105 48.9848 87.8428V96.4229Z" fill="#FFCCDE"/>
<path d="M30.2109 34.901C29.3504 35.3344 28.5568 35.9056 27.8618 36.6003C24.2996 40.1627 24.3061 45.9657 27.8763 49.5361C31.4465 53.1063 37.2497 53.1128 40.8123 49.5505C41.507 48.8556 42.0781 48.0622 42.5116 47.2016L49.5579 54.248C50.3101 54.9997 51.5679 54.9997 52.3203 54.248L61.3354 45.2328C62.4499 44.1179 61.7936 42.1464 60.2364 41.9188C59.118 41.7557 58.1029 41.2456 57.3007 40.4432C55.1784 38.3211 55.318 34.7584 57.5773 32.7935C59.55 31.0771 62.5114 31.096 64.4648 32.8369C65.3996 33.6701 65.9893 34.7596 66.1698 35.9878C66.3981 37.5431 68.3685 38.2 69.4834 37.0851L78.713 27.8557C79.4643 27.1043 79.4642 25.8451 78.713 25.0933L56.0718 2.45249C56.0718 2.45249 56.0718 2.45249 56.0716 2.45249C53.2418 -0.377294 48.637 -0.377489 45.807 2.45249L23.1658 25.0937C22.4031 25.8564 22.4031 27.0932 23.1658 27.8561L30.2109 34.901ZM48.5694 5.21469C49.8759 3.90781 52.0029 3.90781 53.3096 5.21469L74.5696 26.4748L68.8896 32.1546C68.4062 31.3249 67.7917 30.569 67.0641 29.9206C63.6468 26.8754 58.4664 26.8433 55.0137 29.8464C51.0751 33.2729 50.8368 39.5035 54.5389 43.2056C55.103 43.7697 55.7276 44.2513 56.4001 44.6437L50.9394 50.1047L42.9045 42.0698C41.7287 40.8946 39.6542 41.7015 39.5724 43.355C39.5087 44.6512 38.9679 45.8703 38.0501 46.7881C36.0107 48.8273 32.6856 48.821 30.6387 46.7737C28.5914 44.7266 28.5847 41.4016 30.6242 39.3625C31.5422 38.4445 32.7614 37.9043 34.0576 37.8414C35.7133 37.7611 36.5196 35.6848 35.3441 34.5092L27.3093 26.4744L48.5694 5.21469Z" fill="#FFCCDE"/>
<path d="M71.182 97.6295C70.51 96.015 68.1277 96.0734 67.5402 97.7195C66.9434 99.3912 68.8006 100.945 70.3412 100.075C71.1912 99.5949 71.5514 98.5301 71.182 97.6295Z" fill="#FFCCDE"/>
</g>
<defs>
<clipPath id="clip0_1055_1648">
<rect width="100" height="100" fill="white" transform="translate(0.9375 0.330078)"/>
</clipPath>
</defs>
</svg>
