<svg width="101" height="101" viewBox="0 0 101 101" fill="none" xmlns="http://www.w3.org/2000/svg">
<g clip-path="url(#clip0_1055_1657)">
<path d="M48.9516 32.7216C48.1889 31.9588 46.9522 31.9588 46.1893 32.7216C45.4264 33.4843 45.4266 34.721 46.1893 35.4839C46.8145 36.1091 47.5708 36.5548 48.396 36.7974V37.4398C48.396 38.5185 49.2704 39.3929 50.3491 39.3929C51.4278 39.3929 52.3023 38.5185 52.3023 37.4398V36.4099C52.7581 36.1689 53.1804 35.8587 53.5552 35.4837C55.5859 33.453 55.5859 30.1487 53.5552 28.1178L49.905 24.4677C49.6591 24.2218 49.5237 23.8949 49.5237 23.547C49.5237 23.1991 49.6591 22.8722 49.9052 22.6263C50.1511 22.3804 50.478 22.2448 50.8259 22.2448C51.1735 22.2448 51.5007 22.3802 51.7466 22.6263C52.5095 23.3892 53.7459 23.3894 54.509 22.6263C55.2717 21.8636 55.2717 20.6268 54.509 19.8641C53.8839 19.2389 53.1277 18.7932 52.3025 18.5504V17.9082C52.3025 16.8295 51.4278 15.9551 50.3493 15.9551C49.2708 15.9551 48.3962 16.8295 48.3962 17.9082V18.9379C47.9403 19.179 47.518 19.4891 47.143 19.8641C46.1592 20.8479 45.6174 22.1558 45.6174 23.547C45.6174 24.9384 46.1592 26.2463 47.143 27.2299L50.7931 30.8799C51.0392 31.1258 51.1745 31.4528 51.1745 31.8006C51.1745 32.1485 51.0392 32.4755 50.7931 32.7214C50.2856 33.2296 49.4595 33.2292 48.9516 32.7216Z" fill="#8EF2AA"/>
<path d="M50.3519 47.2057C61.1216 47.2057 69.8834 38.4438 69.8834 27.6741C69.8834 16.9042 61.1216 8.14258 50.3519 8.14258C39.5822 8.14258 30.8203 16.9044 30.8203 27.6741C30.8203 38.444 39.5822 47.2057 50.3519 47.2057ZM50.3519 12.0489C58.9678 12.0489 65.9771 19.0584 65.9771 27.6741C65.9771 36.2899 58.9676 43.2994 50.3519 43.2994C41.7361 43.2994 34.7266 36.2899 34.7266 27.6741C34.7266 19.0584 41.7361 12.0489 50.3519 12.0489Z" fill="#8EF2AA"/>
<path d="M72.538 69.0558H69.8823V46.7902C74.7121 41.8563 77.6949 35.1076 77.6949 27.6743C77.6949 12.5967 65.4283 0.330078 50.3508 0.330078C46.356 0.330078 42.503 1.17423 38.8984 2.83891C37.9191 3.29126 37.492 4.45182 37.9441 5.43094C38.3963 6.41025 39.557 6.83741 40.5361 6.38525C43.6239 4.95945 46.9259 4.23639 50.3509 4.23639C63.2744 4.23639 73.7888 14.7506 73.7888 27.6743C73.7888 40.5979 63.2746 51.1121 50.3509 51.1121C37.4273 51.1121 26.9131 40.5979 26.9131 27.6743C26.9131 24.2494 27.6359 20.9478 29.0614 17.8612C29.5135 16.8819 29.0864 15.7213 28.107 15.2692C27.1279 14.8172 25.9672 15.2442 25.515 16.2235C23.8507 19.8273 23.0068 23.6799 23.0068 27.6743C23.0068 35.1076 25.9896 41.8563 30.8194 46.7902V69.0558H28.1676C25.9646 69.0558 24.0607 70.3962 23.3173 72.4707C22.5779 74.5342 23.1724 76.7598 24.8314 78.1629L46.8191 98.9312C47.8105 99.8639 49.0816 100.33 50.3531 100.33C51.6256 100.33 52.8979 99.8629 53.8891 98.9285L76.0717 77.9762C78.1426 76.0277 78.2422 72.7578 76.2939 70.6866C75.3189 69.6501 73.9501 69.0558 72.538 69.0558ZM73.3923 75.1338L51.2084 96.0872C50.7291 96.539 49.9767 96.5384 49.4986 96.0886L27.4705 75.2822C27.4379 75.2516 27.4045 75.2219 27.3697 75.1936C26.74 74.6758 26.9234 73.9871 26.9947 73.7885C27.0838 73.54 27.3764 72.9621 28.1676 72.9621H32.7726C33.8513 72.9621 34.7257 72.0876 34.7257 71.0089V50.101C39.158 53.1983 44.5456 55.0184 50.3509 55.0184C56.1563 55.0184 61.5439 53.1985 65.9762 50.1012V71.0089C65.9762 72.0876 66.8508 72.9621 67.9293 72.9621H72.5382C72.8824 72.9621 73.2058 73.1045 73.4492 73.3633C73.9214 73.8656 73.8972 74.6586 73.3923 75.1338Z" fill="#8EF2AA"/>
<path d="M32.395 11.6741C32.864 11.6741 33.3347 11.5064 33.7089 11.1659C34.507 10.4404 34.5659 9.20501 33.8404 8.40696C33.1148 7.60872 31.8794 7.54993 31.0814 8.27552L31.0804 8.27649C30.2824 9.00208 30.224 10.2368 30.9495 11.0351C31.3347 11.4591 31.8638 11.6741 32.395 11.6741Z" fill="#8EF2AA"/>
</g>
<defs>
<clipPath id="clip0_1055_1657">
<rect width="100" height="100" fill="white" transform="translate(0.347656 0.330078)"/>
</clipPath>
</defs>
</svg>
