<svg width="140" height="140" viewBox="0 0 140 140" fill="none" xmlns="http://www.w3.org/2000/svg">
<path d="M70 0C36.076 0 8.47656 27.5994 8.47656 61.5234C8.47656 65.2829 8.47656 94.3655 8.47656 94.8828C8.47656 101.668 13.9964 107.188 20.7812 107.188H25.5883C27.2814 111.961 31.8404 115.391 37.1875 115.391C43.9723 115.391 49.4922 109.871 49.4922 103.086V69.7266C49.4922 62.9418 43.9723 57.4219 37.1875 57.4219C31.8404 57.4219 27.2814 60.8513 25.5883 65.625H20.7812C19.3432 65.625 17.9635 65.8752 16.6797 66.3305V61.5234C16.6797 32.1226 40.5992 8.20312 70 8.20312C99.4008 8.20312 123.32 32.1226 123.32 61.5234V66.3305C122.037 65.8752 120.657 65.625 119.219 65.625H114.412C112.719 60.8513 108.16 57.4219 102.812 57.4219C96.0277 57.4219 90.5078 62.9418 90.5078 69.7266V103.086C90.5078 109.871 96.0277 115.391 102.812 115.391C104.054 115.391 105.253 115.204 106.384 114.86C104.85 119.909 100.152 123.594 94.6094 123.594H81.5992C79.9061 118.82 75.3471 115.391 70 115.391C63.2152 115.391 57.6953 120.911 57.6953 127.695C57.6953 134.48 63.2152 140 70 140C75.3471 140 79.9061 136.571 81.5992 131.797H94.6094C105.917 131.797 115.117 122.597 115.117 111.289V107.188H119.219C126.004 107.188 131.523 101.668 131.523 94.8828C131.523 94.3731 131.523 65.2799 131.523 61.5234C131.523 27.5994 103.924 0 70 0ZM33.0859 69.7266C33.0859 67.465 34.9259 65.625 37.1875 65.625C39.4491 65.625 41.2891 67.465 41.2891 69.7266V103.086C41.2891 105.348 39.4491 107.188 37.1875 107.188C34.9259 107.188 33.0859 105.348 33.0859 103.086V69.7266ZM20.7812 73.8281H24.8828V98.9844H20.7812C18.5196 98.9844 16.6797 97.1444 16.6797 94.8828V77.9297C16.6797 75.6681 18.5196 73.8281 20.7812 73.8281ZM70 131.797C67.7384 131.797 65.8984 129.957 65.8984 127.695C65.8984 125.434 67.7384 123.594 70 123.594C72.2616 123.594 74.1016 125.434 74.1016 127.695C74.1016 129.957 72.2616 131.797 70 131.797ZM106.914 103.086C106.914 105.348 105.074 107.188 102.812 107.188C100.551 107.188 98.7109 105.348 98.7109 103.086V69.7266C98.7109 67.465 100.551 65.625 102.812 65.625C105.074 65.625 106.914 67.465 106.914 69.7266V103.086ZM123.32 94.8828C123.32 97.1444 121.48 98.9844 119.219 98.9844H115.117V73.8281H119.219C121.48 73.8281 123.32 75.6681 123.32 77.9297V94.8828Z" fill="url(#paint0_linear_736_21)"/>
<defs>
<linearGradient id="paint0_linear_736_21" x1="70" y1="140" x2="70" y2="0" gradientUnits="userSpaceOnUse">
<stop stop-color="#5558FF"/>
<stop offset="1" stop-color="#00C0FF"/>
</linearGradient>
</defs>
</svg>
