<svg width="30" height="31" viewBox="0 0 30 31" fill="none" xmlns="http://www.w3.org/2000/svg">
<g clip-path="url(#clip0_560_1298)">
<path d="M19.6363 9.77344H10.3618C9.76058 9.77344 9.27344 10.2606 9.27344 10.8618V20.1364C9.27344 20.7376 9.76072 21.2247 10.3618 21.2247H19.6363C20.2375 21.2247 20.7246 20.7376 20.7246 20.1364V10.8618C20.7246 10.2607 20.2375 9.77344 19.6363 9.77344ZM18.5479 19.0481H11.4501V11.9501H18.5479V19.0481Z" fill="white"/>
<path d="M28.9117 16.5883C29.5129 16.5883 30 16.1012 30 15.5C30 14.8988 29.5129 14.4117 28.9117 14.4117H25.363V11.951H28.9117C29.5129 11.951 30 11.4639 30 10.8627C30 10.2615 29.5129 9.77435 28.9117 9.77435H25.363V6.22536C25.363 5.62417 24.8758 5.13703 24.2746 5.13703H20.7257V1.58833C20.7257 0.987138 20.2385 0.5 19.6373 0.5C19.0361 0.5 18.549 0.987138 18.549 1.58833V5.13703H16.0883V1.58833C16.0883 0.987138 15.6012 0.5 15 0.5C14.3988 0.5 13.9117 0.987138 13.9117 1.58833V5.13703H11.4512V1.58833C11.4512 0.987138 10.964 0.5 10.3628 0.5C9.76163 0.5 9.27449 0.987138 9.27449 1.58833V5.13703H5.72551C5.12431 5.13703 4.63717 5.62431 4.63717 6.22536V9.77435H1.08833C0.487138 9.77435 0 10.2615 0 10.8627C0 11.4639 0.487138 11.951 1.08833 11.951H4.63717V14.4117H1.08833C0.487138 14.4117 0 14.8988 0 15.5C0 16.1012 0.487138 16.5883 1.08833 16.5883H4.63717V19.049H1.08833C0.487138 19.049 0 19.5361 0 20.1373C0 20.7385 0.487138 21.2257 1.08833 21.2257H4.63717V24.7746C4.63717 25.3758 5.12431 25.863 5.72551 25.863H9.27449V29.4117C9.27449 30.0129 9.76178 30.5 10.3628 30.5C10.964 30.5 11.4512 30.0129 11.4512 29.4117V25.863H13.9117V29.4117C13.9117 30.0129 14.3988 30.5 15 30.5C15.6012 30.5 16.0883 30.0129 16.0883 29.4117V25.863H18.549V29.4117C18.549 30.0129 19.0361 30.5 19.6373 30.5C20.2385 30.5 20.7257 30.0129 20.7257 29.4117V25.863H24.2746C24.8758 25.863 25.363 25.3758 25.363 24.7746V21.2257H28.9117C29.5129 21.2257 30 20.7385 30 20.1373C30 19.5361 29.5129 19.049 28.9117 19.049H25.363V16.5883H28.9117ZM23.1863 23.6863H6.81384V7.3137H23.1863V23.6863Z" fill="white"/>
</g>
<defs>
<clipPath id="clip0_560_1298">
<rect width="30" height="30" fill="white" transform="translate(0 0.5)"/>
</clipPath>
</defs>
</svg>
