<svg width="30" height="32" viewBox="0 0 30 32" fill="none" xmlns="http://www.w3.org/2000/svg">
<path d="M29.1346 22.791C27.6885 22.791 26.9128 23.3251 26.2894 23.7544C25.7341 24.1368 25.3326 24.4131 24.4228 24.4131C23.5133 24.4131 23.1118 24.1366 22.5565 23.7544C21.9331 23.3251 21.1574 22.791 19.7111 22.791C18.265 22.791 17.4893 23.3251 16.8661 23.7544C16.3106 24.1368 15.9093 24.4131 14.9995 24.4131C14.09 24.4131 13.6887 24.1366 13.1335 23.7544C12.51 23.3251 11.7343 22.791 10.2882 22.791C8.84216 22.791 8.06648 23.3251 7.44301 23.7544C6.88774 24.1368 6.48651 24.4131 5.57671 24.4131C4.66713 24.4131 4.2659 24.1366 3.7104 23.7544C3.08716 23.3251 2.31148 22.791 0.865402 22.791C0.387497 22.791 0 23.1801 0 23.66V28.8129C0 29.2927 0.387497 29.6818 0.865402 29.6818H29.1346C29.6125 29.6818 30 29.2927 30 28.8129V23.66C30 23.1801 29.6125 22.791 29.1346 22.791ZM28.2692 27.944H1.7308V24.6429C2.10846 24.7585 2.39113 24.9531 2.7317 25.1875C3.35495 25.6166 4.13086 26.1509 5.57693 26.1509C7.02278 26.1509 7.79869 25.6166 8.42194 25.1875C8.97743 24.8051 9.37866 24.5289 10.2882 24.5289C11.1978 24.5289 11.599 24.8051 12.1545 25.1875C12.7778 25.6166 13.5537 26.1509 14.9995 26.1509C16.4456 26.1509 17.2215 25.6166 17.8448 25.1875C18.4 24.8051 18.8015 24.5289 19.7111 24.5289C20.6209 24.5289 21.0221 24.8051 21.5776 25.1875C22.2009 25.6166 22.9768 26.1509 24.4228 26.1509C25.8689 26.1509 26.6448 25.6166 27.2681 25.1875C27.6089 24.9529 27.8915 24.7585 28.2692 24.6429V27.944Z" fill="white"/>
<path d="M6.86601 17.4313C6.26978 17.9116 5.45312 18.5698 5.45312 19.8644C5.45312 20.3442 5.84062 20.7333 6.31853 20.7333C6.79643 20.7333 7.18393 20.3442 7.18393 19.8644C7.18393 19.4431 7.39381 19.2342 7.94954 18.7865C8.54578 18.306 9.36243 17.648 9.36243 16.3535C9.36243 15.0589 8.54578 14.4007 7.94954 13.9202C7.39381 13.4725 7.18393 13.2636 7.18393 12.8424C7.18393 12.4213 7.39381 12.2124 7.94931 11.7647C8.54578 11.2842 9.36243 10.6262 9.36243 9.33168C9.36243 8.03713 8.54578 7.37916 7.94931 6.89862C7.39381 6.45094 7.18393 6.24203 7.18393 5.82101C7.18393 5.39976 7.39381 5.19086 7.94931 4.7434C8.54578 4.26286 9.36243 3.60466 9.36243 2.31034C9.36243 1.83048 8.97493 1.44141 8.49702 1.44141C8.01912 1.44141 7.63162 1.83048 7.63162 2.31034C7.63162 2.73136 7.42174 2.94027 6.86624 3.38795C6.26978 3.86826 5.45312 4.52646 5.45312 5.82078C5.45312 7.11533 6.26978 7.77353 6.86624 8.25384C7.42174 8.70153 7.63162 8.91043 7.63162 9.33168C7.63162 9.7527 7.42174 9.96161 6.86601 10.4093C6.26978 10.8898 5.45312 11.5478 5.45312 12.8424C5.45312 14.1369 6.26978 14.7951 6.86601 15.2756C7.42174 15.7233 7.63162 15.9322 7.63162 16.3533C7.63162 16.7745 7.42174 16.9836 6.86601 17.4313Z" fill="white"/>
<path d="M11.9287 17.4313C11.3323 17.9116 10.5156 18.5698 10.5156 19.8644C10.5156 20.3442 10.9031 20.7333 11.381 20.7333C11.8589 20.7333 12.2464 20.3442 12.2464 19.8644C12.2464 19.4431 12.4565 19.2342 13.012 18.7865C13.6083 18.306 14.4249 17.648 14.4249 16.3535C14.4249 15.0589 13.6083 14.4007 13.012 13.9202C12.4565 13.4725 12.2464 13.2636 12.2464 12.8424C12.2464 12.4213 12.4565 12.2124 13.012 11.7647C13.6083 11.2842 14.4249 10.6262 14.4249 9.33168C14.4249 8.03713 13.6083 7.37916 13.012 6.89862C12.4565 6.45094 12.2464 6.24203 12.2464 5.82101C12.2464 5.39976 12.4565 5.19086 13.012 4.7434C13.6083 4.26286 14.4249 3.60466 14.4249 2.31034C14.4249 1.83048 14.0374 1.44141 13.5595 1.44141C13.0816 1.44141 12.6941 1.83048 12.6941 2.31034C12.6941 2.73136 12.4842 2.94027 11.9287 3.38795C11.3325 3.86849 10.5156 4.52646 10.5156 5.82101C10.5156 7.11533 11.3325 7.77353 11.9287 8.25384C12.4842 8.70176 12.6941 8.91043 12.6941 9.33168C12.6941 9.7527 12.4842 9.96161 11.9287 10.4093C11.3323 10.8898 10.5156 11.5478 10.5156 12.8424C10.5156 14.1369 11.3323 14.7951 11.9287 15.2756C12.4842 15.7233 12.6941 15.9322 12.6941 16.3535C12.6941 16.7745 12.4842 16.9836 11.9287 17.4313Z" fill="white"/>
<path d="M16.991 17.4313C16.3948 17.9116 15.5781 18.5698 15.5781 19.8644C15.5781 20.3442 15.9656 20.7333 16.4435 20.7333C16.9214 20.7333 17.3089 20.3442 17.3089 19.8644C17.3089 19.4431 17.5188 19.2342 18.0745 18.7865C18.6708 18.306 19.4874 17.648 19.4874 16.3535C19.4874 15.0589 18.6708 14.4007 18.0745 13.9202C17.5188 13.4725 17.3089 13.2636 17.3089 12.8424C17.3089 12.4213 17.5188 12.2124 18.0743 11.7647C18.6708 11.2842 19.4874 10.6262 19.4874 9.33168C19.4874 8.03713 18.6708 7.37916 18.0743 6.89862C17.5188 6.45094 17.3089 6.24203 17.3089 5.82101C17.3089 5.39976 17.5188 5.19086 18.0743 4.7434C18.6708 4.26286 19.4874 3.60466 19.4874 2.31034C19.4874 1.83048 19.0999 1.44141 18.622 1.44141C18.1441 1.44141 17.7566 1.83048 17.7566 2.31034C17.7566 2.73136 17.5467 2.94027 16.9912 3.38795C16.3948 3.86849 15.5781 4.52646 15.5781 5.82101C15.5781 7.11533 16.3948 7.77353 16.9912 8.25384C17.5467 8.70176 17.7566 8.91043 17.7566 9.33168C17.7566 9.7527 17.5467 9.96161 16.991 10.4093C16.3948 10.8898 15.5781 11.5478 15.5781 12.8424C15.5781 14.1369 16.3948 14.7951 16.991 15.2756C17.5467 15.7233 17.7566 15.9322 17.7566 16.3535C17.7566 16.7745 17.5467 16.9836 16.991 17.4313Z" fill="white"/>
<path d="M22.0537 17.4313C21.4575 17.9116 20.6409 18.5698 20.6409 19.8644C20.6409 20.3442 21.0281 20.7333 21.506 20.7333C21.9842 20.7333 22.3714 20.3442 22.3714 19.8644C22.3714 19.4431 22.5815 19.2342 23.137 18.7865C23.7333 18.306 24.5499 17.648 24.5499 16.3535C24.5499 15.0589 23.7333 14.4007 23.137 13.9202C22.5815 13.4725 22.3714 13.2636 22.3714 12.8424C22.3714 12.4213 22.5815 12.2124 23.137 11.7647C23.7333 11.2842 24.5499 10.6262 24.5499 9.33168C24.5499 8.03713 23.7333 7.37916 23.137 6.89862C22.5815 6.45094 22.3714 6.24203 22.3714 5.82101C22.3714 5.39976 22.5815 5.19086 23.137 4.7434C23.7333 4.26286 24.5499 3.60466 24.5499 2.31034C24.5499 1.83048 24.1624 1.44141 23.6845 1.44141C23.2066 1.44141 22.8191 1.83048 22.8191 2.31034C22.8191 2.73136 22.6092 2.94027 22.0537 3.38795C21.4573 3.86849 20.6406 4.52646 20.6406 5.82101C20.6406 7.11533 21.4573 7.77353 22.0535 8.25384C22.6092 8.70176 22.8191 8.91043 22.8191 9.33168C22.8191 9.7527 22.6092 9.96161 22.0535 10.4093C21.4573 10.8898 20.6406 11.5478 20.6406 12.8424C20.6406 14.1369 21.4573 14.7951 22.0535 15.2756C22.6092 15.7233 22.8191 15.9322 22.8191 16.3535C22.8191 16.7745 22.6092 16.9836 22.0537 17.4313Z" fill="white"/>
</svg>
