<svg width="31" height="30" viewBox="0 0 31 30" fill="none" xmlns="http://www.w3.org/2000/svg">
<path d="M6.51172 27.3881C7.61698 27.3838 8.68973 27.0151 9.56226 26.3395C10.4348 25.6637 11.0579 24.7191 11.3342 23.6533H19.1892C19.4283 24.6301 19.9557 25.5131 20.7034 26.1887C21.4511 26.8642 22.3848 27.3013 23.3842 27.4436C24.3836 27.5858 25.4028 27.4267 26.3106 26.9867C27.2183 26.5468 27.9729 25.8461 28.4772 24.975C28.9814 24.1041 29.2123 23.1027 29.1398 22.0998C29.0675 21.097 28.6951 20.1388 28.0708 19.3486C27.4466 18.5585 26.599 17.9726 25.6373 17.6665C24.6757 17.3605 23.6441 17.3483 22.6754 17.6316L18.7817 10.9999C19.4857 10.3054 19.9666 9.41818 20.1633 8.45092C20.3602 7.48368 20.2639 6.48003 19.8868 5.56736C19.5098 4.65469 18.8689 3.87419 18.0457 3.32493C17.2224 2.77568 16.2538 2.48242 15.263 2.48242C14.2721 2.48242 13.3035 2.77568 12.4802 3.32493C11.6569 3.87419 11.0161 4.65469 10.639 5.56736C10.262 6.48003 10.1658 7.48368 10.3625 8.45092C10.5593 9.41818 11.0402 10.3054 11.7442 10.9999L7.85922 17.6354C7.42177 17.5049 6.96831 17.4353 6.51172 17.4287C5.18563 17.4287 3.91387 17.9533 2.97618 18.8871C2.03851 19.8211 1.51172 21.0877 1.51172 22.4084C1.51172 23.729 2.03851 24.9956 2.97618 25.9295C3.91387 26.8633 5.18563 27.3881 6.51172 27.3881ZM24.0117 19.9186C24.5062 19.9186 24.9894 20.0646 25.4006 20.3381C25.8117 20.6117 26.1322 21.0005 26.3214 21.4555C26.5106 21.9104 26.5601 22.4111 26.4637 22.894C26.3672 23.3771 26.1291 23.8208 25.7794 24.169C25.4298 24.5172 24.9843 24.7543 24.4994 24.8503C24.0144 24.9464 23.5118 24.8971 23.055 24.7086C22.5982 24.5201 22.2077 24.2011 21.9331 23.7916C21.6583 23.3822 21.5117 22.9008 21.5117 22.4084C21.5117 21.748 21.7751 21.1147 22.244 20.6477C22.7128 20.1809 23.3487 19.9186 24.0117 19.9186ZM15.2617 4.97947C15.7562 4.97947 16.2395 5.1255 16.6506 5.39908C17.0617 5.67268 17.3822 6.06153 17.5715 6.51649C17.7606 6.97145 17.8101 7.47207 17.7137 7.95505C17.6172 8.43804 17.3791 8.88168 17.0294 9.22989C16.6798 9.5781 16.2343 9.81523 15.7494 9.9113C15.2644 10.0074 14.7618 9.95807 14.305 9.76962C13.8482 9.58117 13.4577 9.26204 13.1831 8.85258C12.9083 8.44314 12.7617 7.96176 12.7617 7.46931C12.7617 6.80896 13.0251 6.17566 13.494 5.70873C13.9628 5.2418 14.5987 4.97947 15.2617 4.97947ZM13.9142 12.2423C14.3517 12.3728 14.8051 12.4423 15.2617 12.449C15.7202 12.4428 16.1754 12.3724 16.6142 12.2398L20.5042 18.8666C19.8661 19.5001 19.4117 20.2938 19.1892 21.1635H11.3342C11.1134 20.2978 10.6626 19.5074 10.0292 18.8753L13.9142 12.2423ZM6.51172 19.9186C7.00617 19.9186 7.48952 20.0646 7.90064 20.3381C8.31177 20.6117 8.6322 21.0005 8.82142 21.4555C9.01063 21.9104 9.06014 22.4111 8.96368 22.894C8.86722 23.3771 8.62912 23.8208 8.27948 24.169C7.92986 24.5172 7.4844 24.7543 6.99945 24.8503C6.5145 24.9464 6.01183 24.8971 5.55501 24.7086C5.0982 24.5201 4.70774 24.2011 4.43304 23.7916C4.15834 23.3822 4.01172 22.9008 4.01172 22.4084C4.01172 21.748 4.27511 21.1147 4.74396 20.6477C5.21279 20.1809 5.84868 19.9186 6.51172 19.9186Z" fill="white"/>
</svg>
