<svg width="30" height="30" viewBox="0 0 30 30" fill="none" xmlns="http://www.w3.org/2000/svg">
<path d="M21.9279 15.6295L22.6642 14.8931C22.6645 14.8929 22.6647 14.8927 22.6649 14.8924C22.6652 14.8922 22.6654 14.8919 22.6656 14.8917L25.2632 12.2941C25.2633 12.294 25.2635 12.2938 25.2637 12.2937C25.2639 12.2936 25.264 12.2934 25.2641 12.2933L27.8621 9.69521C27.8622 9.69515 27.8623 9.69509 27.8623 9.69503C27.8624 9.69498 27.8624 9.69492 27.8625 9.69486L29.2896 8.26781C29.7477 7.80972 30 7.20058 30 6.55271C30 5.90484 29.7476 5.2957 29.2896 4.83767L25.1624 0.710502C24.7044 0.252417 24.0952 5.32241e-05 23.4473 5.32241e-05C22.7994 5.32241e-05 22.1903 0.252358 21.7322 0.710502L14.3705 8.0721L9.37371 3.07523C8.53723 2.23874 7.48887 1.64331 6.34189 1.35333L1.09436 0.0268306C0.794355 -0.0490483 0.476309 0.0385493 0.257461 0.257514C0.0385547 0.476362 -0.049043 0.794233 0.0268359 1.09435L1.3534 6.34189C1.64332 7.4888 2.23875 8.53722 3.07523 9.37371L8.07211 14.3705L0.710391 21.7322C0.252305 22.1903 0 22.7994 0 23.4473C0 24.0952 0.252305 24.7042 0.710449 25.1623L4.83762 29.2895C5.29576 29.7477 5.90484 30 6.55277 30C7.20064 30 7.80973 29.7477 8.26781 29.2895L12.2919 25.2656C12.2925 25.265 12.2931 25.2643 12.2937 25.2637C12.2944 25.2632 12.295 25.2625 12.2955 25.2619L15.6295 21.9279L22.3971 28.6956C23.2653 29.5638 24.4058 29.998 25.5463 29.998C26.6868 29.998 27.8273 29.5639 28.6955 28.6956C30.4321 26.9591 30.4321 24.1336 28.6955 22.3971L21.9279 15.6295ZM3.05754 5.91111L2.09215 2.0922L5.91105 3.05765C6.75076 3.26988 7.51828 3.70581 8.1307 4.31824L8.82363 5.01117L5.01105 8.82374L4.31812 8.13082C3.7057 7.51833 3.26982 6.75082 3.05754 5.91111ZM6.254 10.0666L10.0666 6.25406L13.1276 9.31505L9.315 13.1276L6.254 10.0666ZM6.55277 28.2422C6.37441 28.2422 6.20678 28.1727 6.08063 28.0466L1.9534 23.9194C1.8273 23.7933 1.75787 23.6256 1.75787 23.4473C1.75787 23.2689 1.8273 23.1012 1.9534 22.9751L22.9751 1.95339C23.1012 1.8273 23.269 1.75781 23.4473 1.75781C23.6257 1.75781 23.7933 1.8273 23.9195 1.95339L28.0467 6.08062C28.1728 6.20665 28.2422 6.37435 28.2422 6.55271C28.2422 6.73107 28.1728 6.89876 28.0467 7.02492L27.2409 7.83064L24.5599 5.14951C24.2167 4.80626 23.6602 4.80626 23.3169 5.14951C22.9737 5.49269 22.9737 6.04921 23.3169 6.39246L25.998 9.07359L24.6422 10.4293L23.2605 9.04763C22.9173 8.70433 22.3608 8.70445 22.0175 9.04763C21.6743 9.39087 21.6743 9.94734 22.0175 10.2906L23.3993 11.6723L22.0436 13.028L19.3625 10.3469C19.0192 10.0036 18.4628 10.0036 18.1195 10.3469C17.7763 10.6901 17.7763 11.2466 18.1195 11.5898L20.8006 14.2709L19.4449 15.6267L18.0631 14.245C17.7199 13.9018 17.1634 13.9018 16.8202 14.245C16.4769 14.5881 16.4769 15.1447 16.8202 15.4879L18.2019 16.8696L16.8696 18.2018L14.1885 15.5208C13.8453 15.1775 13.2888 15.1775 12.9456 15.5208C12.6023 15.864 12.6023 16.4205 12.9456 16.7637L15.6267 19.4448L14.2709 20.8005L12.8892 19.4188C12.546 19.0757 11.9895 19.0757 11.6463 19.4188C11.303 19.762 11.303 20.3185 11.6463 20.6618L13.028 22.0435L11.6722 23.3992L8.99121 20.7182C8.64803 20.375 8.0915 20.375 7.74826 20.7182C7.40502 21.0614 7.40502 21.6179 7.74826 21.9612L10.4293 24.6422L9.07353 25.9979L7.69184 24.6162C7.34865 24.273 6.79213 24.273 6.44889 24.6162C6.10564 24.9594 6.10564 25.5159 6.44889 25.8592L7.83059 27.2409L7.02486 28.0466C6.89877 28.1727 6.73107 28.2422 6.55277 28.2422ZM17.4875 20.0699C17.4888 20.0687 17.4899 20.0675 17.4912 20.0663C17.4924 20.0651 17.4936 20.0639 17.4947 20.0627L20.0654 17.492C20.0657 17.4917 20.0661 17.4914 20.0664 17.491C20.0667 17.4907 20.067 17.4904 20.0674 17.4901L20.685 16.8724L24.4093 20.5968L20.5968 24.4093L16.8724 20.685L17.4875 20.0699ZM27.4526 27.4526C26.4015 28.5037 24.6911 28.5037 23.64 27.4526L21.8397 25.6522L25.6523 21.8396L27.4526 23.6399C28.5037 24.6912 28.5037 26.4015 27.4526 27.4526Z" fill="white"/>
</svg>
